<?xml version="1.0" encoding="UTF-8" standalone="no"?>
<svg
   xmlns:dc="http://purl.org/dc/elements/1.1/"
   xmlns:cc="http://creativecommons.org/ns#"
   xmlns:rdf="http://www.w3.org/1999/02/22-rdf-syntax-ns#"
   xmlns:svg="http://www.w3.org/2000/svg"
   xmlns="http://www.w3.org/2000/svg"
   viewBox="0 0 377.94666 377.94666"
   height="377.94666"
   width="377.94666"
   xml:space="preserve"
   id="svg2"
   version="1.1"><metadata
     id="metadata8"><rdf:RDF><cc:Work
         rdf:about=""><dc:format>image/svg+xml</dc:format><dc:type
           rdf:resource="http://purl.org/dc/dcmitype/StillImage" /></cc:Work></rdf:RDF></metadata><defs
     id="defs6"><clipPath
       id="clipPath24"
       clipPathUnits="userSpaceOnUse"><path
         id="path22"
         d="M 0,283.46 H 283.46 V 0 H 0 Z" /></clipPath></defs><g
     transform="matrix(1.3333333,0,0,-1.3333333,0,377.94667)"
     id="g10"><path
       id="path12"
       style="fill:#eb1a2d;fill-opacity:1;fill-rule:nonzero;stroke:none"
       d="M 0,0 H 283.46 V 283.46 H 0 Z" /><g
       transform="translate(39.5781,246.1841)"
       id="g14"><path
         id="path16"
         style="fill:#ffffff;fill-opacity:1;fill-rule:nonzero;stroke:none"
         d="M 0,0 H 0.084 V -43.752 H 9.691 V 13.402 H 2.019 L -6.83,3.034 v -10.03 h 0.085 z" /></g><g
       id="g18"><g
         clip-path="url(#clipPath24)"
         id="g20"><g
           transform="translate(218.3047,148.2251)"
           id="g26"><path
             id="path28"
             style="fill:#ffffff;fill-opacity:1;fill-rule:nonzero;stroke:none"
             d="m 0,0 c 0,4.34 3.518,7.852 7.854,7.852 4.328,0 7.835,-3.512 7.835,-7.852 0,-4.332 -3.507,-7.85 -7.835,-7.85 C 3.518,-7.85 0,-4.332 0,0" /></g><g
           transform="translate(235.3184,137.3516)"
           id="g30"><path
             id="path32"
             style="fill:#ffffff;fill-opacity:1;fill-rule:nonzero;stroke:none"
             d="m 0,0 c 5.326,-0.482 9.498,-4.961 9.498,-10.424 v -2.605 -1.141 -18.004 c 0,-1.674 -1.363,-3.043 -3.039,-3.043 -1.688,0 -3.043,1.369 -3.043,3.043 v 18.68 c 0,0.701 -0.207,1.65 -1.486,1.65 -0.885,0 -1.071,-0.937 -1.102,-1.535 v -56 c 0,-2.404 -1.949,-4.369 -4.369,-4.369 -2.42,0 -4.379,1.965 -4.379,4.369 v 32.272 c -0.012,0.355 -0.131,1.281 -1.24,1.281 h -0.006 c -1.113,0 -1.25,-0.926 -1.262,-1.281 v -32.272 c 0,-2.404 -1.947,-4.369 -4.367,-4.369 -2.422,0 -4.371,1.965 -4.371,4.369 v 56 c -0.027,0.598 -0.221,1.535 -1.1,1.535 -1.289,0 -1.484,-0.949 -1.484,-1.65 v -18.68 c 0,-1.674 -1.363,-3.043 -3.043,-3.043 -1.684,0 -3.039,1.369 -3.039,3.043 v 18.004 1.141 2.605 c 0,5.463 4.176,9.942 9.512,10.424 0.172,0.021 0.365,0.047 0.572,0.047 h 8.588 8.562 C -0.371,0.047 -0.186,0.021 0,0" /></g><g
           transform="translate(171.6387,144.104)"
           id="g34"><path
             id="path36"
             style="fill:#ffffff;fill-opacity:1;fill-rule:nonzero;stroke:none"
             d="m 0,0 c 0,4.104 -3.318,7.439 -7.424,7.439 -4.107,0 -7.435,-3.335 -7.435,-7.439 0,-4.108 3.328,-7.432 7.435,-7.432 C -3.318,-7.432 0,-4.108 0,0" /></g><g
           transform="translate(149.2402,127.2695)"
           id="g38"><path
             id="path40"
             style="fill:#ffffff;fill-opacity:1;fill-rule:nonzero;stroke:none"
             d="m 0,0 -6.178,-20.107 c 0,0 -1.1,-3.688 2.028,-4.608 3.111,-0.922 4.056,2.678 4.056,2.678 l 4.981,16.785 c 0,0 0.269,1.291 1.242,1.01 0.971,-0.278 0.605,-1.66 0.605,-1.66 l -8.67,-31.45 h 8.065 v -22.529 c 0,-2.129 1.734,-3.863 3.875,-3.863 2.135,0 3.865,1.734 3.865,3.863 v 22.529 h 1.106 1.093 v -22.529 c 0,-2.129 1.727,-3.863 3.868,-3.863 2.146,0 3.88,1.734 3.88,3.863 v 22.529 h 8.057 l -8.662,31.45 c 0,0 -0.365,1.382 0.605,1.66 0.971,0.281 1.243,-1.01 1.243,-1.01 l 4.978,-16.785 c 0,0 0.947,-3.6 4.057,-2.678 3.131,0.92 2.025,4.608 2.025,4.608 L 29.941,0 c 0,0 -2.207,5.813 -7.095,5.813 H 14.975 7.1 C 2.213,5.813 0,0 0,0" /></g><g
           transform="translate(127.1323,144.104)"
           id="g42"><path
             id="path44"
             style="fill:#ffffff;fill-opacity:1;fill-rule:nonzero;stroke:none"
             d="m 0,0 c 0,4.104 -3.324,7.439 -7.429,7.439 -4.107,0 -7.431,-3.335 -7.431,-7.439 0,-4.108 3.324,-7.432 7.431,-7.432 C -3.324,-7.432 0,-4.108 0,0" /></g><g
           transform="translate(104.73,127.2695)"
           id="g46"><path
             id="path48"
             style="fill:#ffffff;fill-opacity:1;fill-rule:nonzero;stroke:none"
             d="m 0,0 -6.174,-20.107 c 0,0 -1.104,-3.688 2.026,-4.608 3.109,-0.922 4.052,2.678 4.052,2.678 l 4.984,16.785 c 0,0 0.269,1.291 1.24,1.01 0.972,-0.278 0.603,-1.66 0.603,-1.66 l -8.666,-31.45 h 8.063 v -22.529 c 0,-2.129 1.74,-3.863 3.875,-3.863 2.141,0 3.868,1.734 3.868,3.863 v 22.529 h 1.109 1.091 v -22.529 c 0,-2.129 1.723,-3.863 3.87,-3.863 2.146,0 3.874,1.734 3.874,3.863 v 22.529 h 8.063 l -8.662,31.45 c 0,0 -0.368,1.382 0.599,1.66 0.968,0.281 1.244,-1.01 1.244,-1.01 l 4.975,-16.785 c 0,0 0.948,-3.6 4.058,-2.678 3.132,0.92 2.025,4.608 2.025,4.608 L 29.939,0 c 0,0 -2.201,5.813 -7.091,5.813 H 14.98 7.1 C 2.215,5.813 0,0 0,0" /></g><g
           transform="translate(196.5957,102.5137)"
           id="g50"><path
             id="path52"
             style="fill:#ffffff;fill-opacity:1;fill-rule:nonzero;stroke:none"
             d="m 0,0 c 3.42,0 6.184,2.77 6.184,6.193 0,3.418 -2.764,6.178 -6.184,6.178 -3.42,0 -6.186,-2.76 -6.186,-6.178 C -6.186,2.77 -3.42,0 0,0" /></g><g
           transform="translate(181.7656,83.3008)"
           id="g54"><path
             id="path56"
             style="fill:#ffffff;fill-opacity:1;fill-rule:nonzero;stroke:none"
             d="m 0,0 c -0.303,-0.727 -0.549,-2.258 0.902,-2.928 1.705,-0.781 2.651,0.864 2.651,0.864 L 6.916,8.658 c 0,0 0.582,0.719 0.582,-0.023 v -25.244 h 0.018 c 0,-1.756 1.41,-3.172 3.172,-3.172 1.755,0 3.171,1.416 3.171,3.172 v 9.961 c 0,0 -0.181,1.41 0.952,1.41 1.136,0 0.96,-1.41 0.96,-1.41 v -9.961 c 0,-1.756 1.424,-3.172 3.18,-3.172 1.75,0 3.18,1.416 3.18,3.172 V 8.635 c 0,0.742 0.392,0.211 0.392,0.211 l 2.635,-7.342 c 0,0 1.147,-3.279 1.498,-3.424 1.19,-0.502 2.563,0.068 3.065,1.266 0.33,0.785 0.203,1.623 -0.252,2.256 l 0.021,0.025 c -0.076,0.236 -3.937,9.711 -4.392,11.039 -1.395,4.074 -3.934,4.037 -6.377,4.104 -2.45,0.06 -3.91,0 -3.91,0 0,0 -1.563,0.066 -4.79,-0.03 C 6.797,16.639 5.779,14.986 2.225,5.84 1.719,4.521 0,0.26 -0.021,0.002 Z" /></g><g
           transform="translate(60.7661,148.2251)"
           id="g58"><path
             id="path60"
             style="fill:#ffffff;fill-opacity:1;fill-rule:nonzero;stroke:none"
             d="m 0,0 c 0,4.34 -3.521,7.852 -7.855,7.852 -4.33,0 -7.837,-3.512 -7.837,-7.852 0,-4.332 3.507,-7.85 7.837,-7.85 C -3.521,-7.85 0,-4.332 0,0" /></g><g
           transform="translate(43.7495,137.3516)"
           id="g62"><path
             id="path64"
             style="fill:#ffffff;fill-opacity:1;fill-rule:nonzero;stroke:none"
             d="m 0,0 c -5.322,-0.482 -9.501,-4.961 -9.501,-10.424 v -2.605 -1.141 -18.004 c 0,-1.674 1.364,-3.043 3.045,-3.043 1.683,0 3.044,1.369 3.044,3.043 v 18.68 c 0,0.701 0.203,1.65 1.483,1.65 0.885,0 1.07,-0.937 1.107,-1.535 v -56 c 0,-2.404 1.946,-4.369 4.366,-4.369 2.416,0 4.371,1.965 4.371,4.369 v 32.272 c 0.019,0.355 0.135,1.281 1.247,1.281 h 0.004 c 1.114,0 1.25,-0.926 1.26,-1.281 v -32.272 c 0,-2.404 1.95,-4.369 4.367,-4.369 2.422,0 4.372,1.965 4.372,4.369 v 56 c 0.026,0.598 0.225,1.535 1.103,1.535 1.287,0 1.482,-0.949 1.482,-1.65 v -18.68 c 0,-1.674 1.363,-3.043 3.043,-3.043 1.68,0 3.04,1.369 3.04,3.043 v 18.004 1.141 2.605 c 0,5.463 -4.174,9.942 -9.508,10.424 -0.176,0.021 -0.365,0.047 -0.576,0.047 H 9.162 0.599 C 0.373,0.047 0.185,0.021 0,0" /></g><g
           transform="translate(29.939,64.4248)"
           id="g66"><path
             id="path68"
             style="fill:#ffffff;fill-opacity:1;fill-rule:nonzero;stroke:none"
             d="M 0,0 C -0.041,0 -0.081,0.004 -0.122,0.011 -0.477,0.078 -0.71,0.42 -0.643,0.774 l 6.968,36.938 c 0.067,0.354 0.409,0.582 0.763,0.521 0.355,-0.067 0.588,-0.409 0.521,-0.763 L 0.641,0.532 C 0.582,0.219 0.308,0 0,0" /></g><g
           transform="translate(75.3086,105.7539)"
           id="g70"><path
             id="path72"
             style="fill:#ffffff;fill-opacity:1;fill-rule:nonzero;stroke:none"
             d="m 0,0 c -0.405,0.635 -1.104,1.057 -1.91,1.057 -1.241,0 -2.252,-1.012 -2.252,-2.246 0,-0.36 0.22,-0.991 0.22,-0.991 l 6.235,-11.285 c 0,0 0.383,-0.777 0.383,-1.486 v -24.233 h 0.01 c 0,-1.689 1.365,-3.048 3.051,-3.048 1.682,0 3.039,1.359 3.039,3.048 v 9.563 c 0,0 -0.171,1.355 0.921,1.355 1.089,0 0.918,-1.355 0.918,-1.355 v -9.563 c 0,-1.689 1.368,-3.048 3.052,-3.048 1.682,0 3.053,1.359 3.053,3.048 v 24.233 c 0,0.709 0.377,1.486 0.377,1.486 l 5.766,10.418 c 0,0 0.704,1.498 0.704,1.858 0,1.234 -1.007,2.246 -2.254,2.246 -0.816,0 -1.514,-0.422 -1.908,-1.057 l -0.027,0.014 c -0.181,-0.157 -3.067,-5.297 -4.02,-6.248 -1.009,-1.018 -1.909,-0.905 -1.909,-0.905 H 9.697 5.954 c 0,0 -0.91,-0.113 -1.912,0.905 -0.964,0.951 -3.84,6.091 -4.023,6.248 z" /></g><g
           transform="translate(85.0054,102.5137)"
           id="g74"><path
             id="path76"
             style="fill:#ffffff;fill-opacity:1;fill-rule:nonzero;stroke:none"
             d="m 0,0 c 3.421,0 6.183,2.77 6.183,6.193 0,3.418 -2.762,6.178 -6.183,6.178 -3.419,0 -6.182,-2.76 -6.182,-6.178 C -6.182,2.77 -3.419,0 0,0" /></g><g
           transform="translate(85.0161,93.832)"
           id="g78"><path
             id="path80"
             style="fill:#ffffff;fill-opacity:1;fill-rule:nonzero;stroke:none"
             d="M 0,0 6.99,-5.096 10.313,-17.33 H 0 -10.321 l 3.329,12.234 z" /></g><g
           transform="translate(85.1128,248.1274)"
           id="g82"><path
             id="path84"
             style="fill:#ffffff;fill-opacity:1;fill-rule:nonzero;stroke:none"
             d="M 0,0 V -11.629 H -4.018 V 12.262 H 0 V 1.761 L 4.369,12.262 H 8.315 L 3.664,1.514 8.422,-11.629 H 4.193 Z" /></g><g
           transform="translate(103.186,242.0308)"
           id="g86"><path
             id="path88"
             style="fill:#ffffff;fill-opacity:1;fill-rule:nonzero;stroke:none"
             d="m 0,0 v 12.827 c 0,1.444 -0.634,2.467 -2.078,2.467 -1.41,0 -2.044,-1.023 -2.044,-2.467 V 0 c 0,-1.444 0.634,-2.467 2.044,-2.467 C -0.634,-2.467 0,-1.444 0,0 m -8.14,0.635 v 11.557 c 0,3.735 1.833,6.449 6.062,6.449 4.264,0 6.096,-2.714 6.096,-6.449 V 0.635 c 0,-3.7 -1.832,-6.449 -6.096,-6.449 -4.229,0 -6.062,2.749 -6.062,6.449" /></g><g
           transform="translate(112.8735,251.5103)"
           id="g90"><path
             id="path92"
             style="fill:#ffffff;fill-opacity:1;fill-rule:nonzero;stroke:none"
             d="M 0,0 V -15.012 H -3.383 V 8.879 H 0.564 L 4.898,-4.828 V 8.879 H 8.246 V -15.012 H 4.723 Z" /></g><path
           id="path94"
           style="fill:#ffffff;fill-opacity:1;fill-rule:nonzero;stroke:none"
           d="m 123.406,260.389 h 4.018 v -23.891 h -4.018 z" /><g
           transform="translate(129.7476,260.3892)"
           id="g96"><path
             id="path98"
             style="fill:#ffffff;fill-opacity:1;fill-rule:nonzero;stroke:none"
             d="M 0,0 H 9.585 V -3.277 H 4.018 v -6.836 h 3.981 v -3.241 H 4.018 v -7.259 h 5.567 v -3.278 H 0 Z" /></g><g
           transform="translate(141.479,242.6655)"
           id="g100"><path
             id="path102"
             style="fill:#ffffff;fill-opacity:1;fill-rule:nonzero;stroke:none"
             d="m 0,0 v 11.558 c 0,3.734 1.763,6.448 5.992,6.448 4.437,0 5.672,-2.467 5.672,-5.991 V 9.196 H 8 v 3.137 c 0,1.479 -0.495,2.326 -1.94,2.326 -1.445,0 -2.043,-1.023 -2.043,-2.467 V -0.635 c 0,-1.444 0.598,-2.467 2.043,-2.467 1.445,0 1.94,0.916 1.94,2.326 v 4.405 h 3.664 v -4.122 c 0,-3.418 -1.411,-5.956 -5.672,-5.956 C 1.763,-6.449 0,-3.7 0,0" /></g><g
           transform="translate(85.0073,206.3081)"
           id="g104"><path
             id="path106"
             style="fill:#ffffff;fill-opacity:1;fill-rule:nonzero;stroke:none"
             d="M 0,0 H 6.096 V -3.276 H -4.194 V 0 L 2.114,17.337 H -3.56 v 3.277 h 9.903 v -3.277 z" /></g><g
           transform="translate(108.8237,226.9224)"
           id="g108"><path
             id="path110"
             style="fill:#ffffff;fill-opacity:1;fill-rule:nonzero;stroke:none"
             d="m 0,0 v -18.077 c 0,-3.7 -1.586,-6.097 -5.674,-6.097 -4.227,0 -5.99,2.397 -5.99,6.097 V 0 h 4.018 v -18.465 c 0,-1.41 0.563,-2.361 1.972,-2.361 1.41,0 1.974,0.951 1.974,2.361 L -3.7,0 Z" /></g><g
           transform="translate(115.1284,213.7778)"
           id="g112"><path
             id="path114"
             style="fill:#ffffff;fill-opacity:1;fill-rule:nonzero;stroke:none"
             d="m 0,0 v -7.47 h 1.762 c 1.339,0 1.972,0.67 1.972,1.939 v 3.593 C 3.734,-0.669 3.136,0 1.727,0 Z m 0,3.066 h 1.408 c 1.305,0 1.905,0.67 1.905,1.938 v 2.924 c 0,1.304 -0.6,1.939 -1.94,1.939 L 0,9.867 Z m -4.018,10.079 h 5.815 c 4.017,0 5.355,-1.87 5.355,-5.252 v -2.43 c 0,-2.01 -0.739,-3.277 -2.396,-3.807 2.01,-0.458 2.996,-1.796 2.996,-3.98 v -3.172 c 0,-3.383 -1.516,-5.25 -5.532,-5.25 h -6.238 z" /></g><g
           transform="translate(133.0259,208.563)"
           id="g116"><path
             id="path118"
             style="fill:#ffffff;fill-opacity:1;fill-rule:nonzero;stroke:none"
             d="m 0,0 v 12.826 c 0,1.445 -0.634,2.467 -2.078,2.467 -1.41,0 -2.044,-1.022 -2.044,-2.467 V 0 c 0,-1.445 0.634,-2.467 2.044,-2.467 C -0.634,-2.467 0,-1.445 0,0 m 1.198,20.05 -6.306,-0.81 v 2.254 l 6.306,1.34 z M -8.14,0.635 v 11.556 c 0,3.737 1.833,6.45 6.062,6.45 4.263,0 6.095,-2.713 6.095,-6.45 V 0.635 c 0,-3.699 -1.832,-6.449 -6.095,-6.449 -4.229,0 -6.062,2.75 -6.062,6.449" /></g><g
           transform="translate(139.1187,208.1753)"
           id="g120"><path
             id="path122"
             style="fill:#ffffff;fill-opacity:1;fill-rule:nonzero;stroke:none"
             d="M 0,0 V 3.208 H 3.735 V -0.07 c 0,-1.339 0.599,-2.115 1.974,-2.115 1.268,0 1.833,0.846 1.833,2.115 v 0.917 c 0,1.373 -0.565,2.219 -1.799,3.382 L 3.383,6.591 C 1.092,8.846 0.035,10.22 0.035,12.968 v 0.81 c 0,2.96 1.727,5.25 5.637,5.25 4.018,0 5.604,-1.973 5.604,-5.426 V 11.663 H 7.612 v 2.08 c 0,1.373 -0.635,2.043 -1.903,2.043 -1.128,0 -1.903,-0.634 -1.903,-1.973 V 13.32 c 0,-1.339 0.739,-2.115 1.903,-3.241 L 8.282,7.542 c 2.183,-2.221 3.242,-3.56 3.242,-6.203 V 0.177 c 0,-3.278 -1.762,-5.604 -5.852,-5.604 C 1.586,-5.427 0,-3.136 0,0" /></g><g
           transform="translate(152.293,226.9224)"
           id="g124"><path
             id="path126"
             style="fill:#ffffff;fill-opacity:1;fill-rule:nonzero;stroke:none"
             d="M 0,0 H 10.678 V -3.277 H 7.367 V -23.891 H 3.314 v 20.614 l -3.314,0 z" /></g><g
           transform="translate(173.5039,217.7954)"
           id="g128"><path
             id="path130"
             style="fill:#ffffff;fill-opacity:1;fill-rule:nonzero;stroke:none"
             d="M 0,0 -2.254,-14.764 H -6.023 L -9.23,9.127 h 3.873 l 1.869,-15.152 h 0.035 L -1.445,9.127 H 1.834 L 4.053,-6.025 H 4.088 L 5.922,9.127 h 3.381 l -3.1,-23.891 H 2.396 L 0.035,0 Z" /></g><g
           transform="translate(184.5293,226.9224)"
           id="g132"><path
             id="path134"
             style="fill:#ffffff;fill-opacity:1;fill-rule:nonzero;stroke:none"
             d="M 0,0 H 9.584 V -3.277 H 4.016 v -6.836 h 3.982 v -3.242 H 4.016 v -7.259 h 5.568 v -3.277 H 0 Z" /></g><g
           transform="translate(207.3242,218.5356)"
           id="g136"><path
             id="path138"
             style="fill:#ffffff;fill-opacity:1;fill-rule:nonzero;stroke:none"
             d="M 0,0 H -0.104 L -2.818,-15.504 H -4.686 L -7.68,0 h -0.072 v -15.504 h -3.312 V 8.387 h 4.689 l 2.607,-13.461 h 0.034 L -1.408,8.387 H 3.666 V -15.504 H 0 Z" /></g></g></g></g></svg>