<?xml version="1.0" encoding="UTF-8" standalone="no"?>
<!DOCTYPE svg PUBLIC "-//W3C//DTD SVG 1.1//EN" "http://www.w3.org/Graphics/SVG/1.1/DTD/svg11.dtd">
<svg xmlns="http://www.w3.org/2000/svg" xmlns:xlink="http://www.w3.org/1999/xlink" version="1.1" width="850.39pt" height="850.39pt" viewBox="0 0 850.39 850.39">
<g enable-background="new">
<g id="Layer-1" data-name="Warstwa 1">
<path transform="matrix(1,0,0,-1,0,850.39)" d="M 1.039 0 L 850.391 0 L 850.391 849.863 L 1.039 849.863 Z " fill="#e01684"/>
<path transform="matrix(1,0,0,-1,81.9388,110.893619)" d="M 0 0 L 0 -131.818 L 28.958 -131.818 L 28.958 40.387 L 5.834 40.387 L -20.821 9.151 L -20.821 -21.094 L -20.578 -21.094 L -.263 0 Z " fill="#ffffff"/>
<clipPath id="cp0">
<path transform="matrix(1,0,0,-1,0,850.39)" d="M 0 850.39 L 850.39 850.39 L 850.39 0 L 0 0 Z "/>
</clipPath>
<g clip-path="url(#cp0)">
<path transform="matrix(1,0,0,-1,159.9142,202.84534)" d="M 0 0 L 0 92.462 C 0 102.872 3.803 110.245 13.714 110.245 C 23.877 110.245 27.68 102.872 27.68 92.462 L 27.68 0 C 27.68 -10.418 23.877 -17.768 13.714 -17.768 C 3.803 -17.768 0 -10.418 0 0 M 56.639 4.571 L 56.639 87.893 C 56.639 114.816 43.183 134.374 13.714 134.374 C -15.487 134.374 -28.969 114.816 -28.969 87.893 L -28.969 4.571 C -28.969 -22.091 -15.487 -41.902 13.714 -41.902 C 43.183 -41.902 56.639 -22.091 56.639 4.571 " fill="#ffffff"/>
<path transform="matrix(1,0,0,-1,308.2273,95.984989)" d="M 0 0 L -.313 0 L -8.486 -46.673 L -14.103 -46.673 L -23.119 0 L -23.331 0 L -23.331 -46.673 L -33.303 -46.673 L -33.303 25.246 L -19.194 25.246 L -11.345 -15.275 L -11.239 -15.275 L -4.238 25.246 L 11.037 25.246 L 11.037 -46.673 L 0 -46.673 Z " fill="#ffffff"/>
<path transform="matrix(1,0,0,-1,336.327,97.47009)" d="M 0 0 L 0 -45.185 L -10.183 -45.185 L -10.183 26.731 L 1.692 26.731 L 14.745 -14.53 L 14.745 26.731 L 24.817 26.731 L 24.817 -45.185 L 14.214 -45.185 Z " fill="#ffffff"/>
<path transform="matrix(1,0,0,-1,0,850.39)" d="M 368.028 779.651 L 380.11503 779.651 L 380.11503 707.74 L 368.028 707.74 Z " fill="#ffffff"/>
<path transform="matrix(1,0,0,-1,387.1119,70.74164)" d="M 0 0 L 28.852 0 L 28.852 -9.862 L 12.087 -9.862 L 12.087 -30.439 L 24.079 -30.439 L 24.079 -40.2 L 12.087 -40.2 L 12.087 -62.046 L 28.852 -62.046 L 28.852 -71.911 L 0 -71.911 Z " fill="#ffffff"/>
<path transform="matrix(1,0,0,-1,454.5655,70.74164)" d="M 0 0 L 0 -55.576 C 0 -65.974 -4.561 -72.76 -16.649 -72.76 C -29.166 -72.76 -32.565 -65.87 -32.565 -56.745 L -32.565 -42.427 L -21.104 -42.427 L -21.104 -56.957 C -21.104 -60.564 -19.831 -62.688 -16.649 -62.688 C -13.36 -62.688 -12.087 -60.564 -12.087 -56.849 L -12.087 0 Z " fill="#ffffff"/>
<path transform="matrix(1,0,0,-1,285.1081,198.21094)" d="M 0 0 L 0 -45.186 L -10.183 -45.186 L -10.183 26.731 L 1.692 26.731 L 14.745 -14.53 L 14.745 26.731 L 24.816 26.731 L 24.816 -45.186 L 14.214 -45.186 Z " fill="#ffffff"/>
<path transform="matrix(1,0,0,-1,0,850.39)" d="M 316.809 678.907 L 328.897 678.907 L 328.897 606.996 L 316.809 606.996 Z " fill="#ffffff"/>
<path transform="matrix(1,0,0,-1,335.8976,171.48279)" d="M 0 0 L 28.852 0 L 28.852 -9.862 L 12.087 -9.862 L 12.087 -30.438 L 24.079 -30.438 L 24.079 -40.2 L 12.087 -40.2 L 12.087 -62.046 L 28.852 -62.046 L 28.852 -71.911 L 0 -71.911 Z " fill="#ffffff"/>
<path transform="matrix(1,0,0,-1,383.2983,181.3451)" d="M 0 0 L 0 -22.382 L 4.031 -22.382 C 8.172 -22.382 9.971 -20.26 9.971 -16.439 L 9.971 -5.834 C 9.971 -1.909 8.172 0 4.031 0 Z M 0 -29.064 L 0 -62.049 L -12.087 -62.049 L -12.087 9.862 L 5.516 9.862 C 17.715 9.862 22.175 3.816 22.175 -6.259 L 22.175 -15.487 C 22.175 -23.23 19.412 -27.791 12.517 -29.38 L 24.074 -62.049 L 11.35 -62.049 Z " fill="#ffffff"/>
<path transform="matrix(1,0,0,-1,436.5375,226.74243)" d="M 0 0 L 0 38.606 C 0 42.957 -1.904 46.034 -6.258 46.034 C -10.501 46.034 -12.411 42.957 -12.411 38.606 L -12.411 0 C -12.411 -4.35 -10.501 -7.428 -6.258 -7.428 C -1.904 -7.428 0 -4.35 0 0 M 3.602 60.351 L -15.381 57.909 L -15.381 64.703 L 3.602 68.731 Z M -24.503 1.909 L -24.503 36.699 C -24.503 47.943 -18.992 56.111 -6.258 56.111 C 6.572 56.111 12.098 47.943 12.098 36.699 L 12.098 1.909 C 12.098 -9.229 6.572 -17.503 -6.258 -17.503 C -18.992 -17.503 -24.503 -9.229 -24.503 1.909 " fill="#ffffff"/>
<path transform="matrix(1,0,0,-1,481.6043,198.95362)" d="M 0 0 L -6.784 -44.44 L -18.133 -44.44 L -27.786 27.471 L -16.113 27.471 L -10.501 -18.139 L -10.39 -18.139 L -4.349 27.471 L 5.516 27.471 L 12.194 -18.139 L 12.3 -18.139 L 17.816 27.471 L 28.004 27.471 L 18.669 -44.44 L 7.218 -44.44 L .111 0 Z " fill="#ffffff"/>
<path transform="matrix(1,0,0,-1,524.9689,198.21094)" d="M 0 0 L 0 -45.186 L -10.178 -45.186 L -10.178 26.731 L 1.697 26.731 L 14.75 -14.53 L 14.75 26.731 L 24.827 26.731 L 24.827 -45.186 L 14.219 -45.186 Z " fill="#ffffff"/>
<path transform="matrix(1,0,0,-1,581.1735,226.74243)" d="M 0 0 L 0 38.606 C 0 42.957 -1.904 46.034 -6.253 46.034 C -10.506 46.034 -12.405 42.957 -12.405 38.606 L -12.405 0 C -12.405 -4.35 -10.506 -7.428 -6.253 -7.428 C -1.904 -7.428 0 -4.35 0 0 M -24.503 1.909 L -24.503 36.699 C -24.503 47.943 -18.982 56.111 -6.253 56.111 C 6.577 56.111 12.098 47.943 12.098 36.699 L 12.098 1.909 C 12.098 -9.229 6.577 -17.503 -6.253 -17.503 C -18.982 -17.503 -24.503 -9.229 -24.503 1.909 " fill="#ffffff"/>
<path transform="matrix(1,0,0,-1,626.665,166.39112)" d="M 0 0 L -18.978 -2.437 L -18.978 4.349 L 0 8.378 Z M -27.151 -61.516 L -27.151 -51.865 L -15.906 -51.865 L -15.906 -61.728 C -15.906 -65.759 -14.103 -68.095 -9.961 -68.095 C -6.147 -68.095 -4.45 -65.547 -4.45 -61.728 L -4.45 -58.972 C -4.45 -54.838 -6.147 -52.29 -9.855 -48.787 L -16.957 -41.68 C -23.857 -34.894 -27.034 -30.761 -27.034 -22.485 L -27.034 -20.043 C -27.034 -11.138 -21.847 -4.243 -10.077 -4.243 C 2.026 -4.243 6.793 -10.185 6.793 -20.576 L 6.793 -26.412 L -4.233 -26.412 L -4.233 -20.152 C -4.233 -16.015 -6.147 -14.002 -9.961 -14.002 C -13.356 -14.002 -15.69 -15.911 -15.69 -19.94 L -15.69 -21.425 C -15.69 -25.456 -13.462 -27.786 -9.961 -31.186 L -2.223 -38.821 C 4.349 -45.503 7.541 -49.532 7.541 -57.487 L 7.541 -60.988 C 7.541 -70.853 2.233 -77.851 -10.077 -77.851 C -22.377 -77.851 -27.151 -70.956 -27.151 -61.516 " fill="#ffffff"/>
<path transform="matrix(1,0,0,-1,640.5555,224.83069)" d="M 0 0 L 0 34.788 C 0 46.029 5.299 54.202 18.028 54.202 C 31.393 54.202 35.106 46.774 35.106 36.164 L 35.106 27.68 L 24.079 27.68 L 24.079 37.121 C 24.079 41.574 22.599 44.124 18.24 44.124 C 13.891 44.124 12.093 41.041 12.093 36.697 L 12.093 -1.91 C 12.093 -6.259 13.891 -9.337 18.24 -9.337 C 22.599 -9.337 24.079 -6.579 24.079 -2.334 L 24.079 10.923 L 35.106 10.923 L 35.106 -1.485 C 35.106 -11.774 30.868 -19.414 18.028 -19.414 C 5.299 -19.414 0 -11.138 0 0 " fill="#ffffff"/>
<path transform="matrix(1,0,0,-1,0,850.39)" d="M 682.223 678.907 L 694.325 678.907 L 694.325 606.996 L 682.223 606.996 Z " fill="#ffffff"/>
<path transform="matrix(1,0,0,-1,505.143,558.553)" d="M 0 0 L -156.612 0 C -157.555 0 -158.314 -.855 -158.314 -1.901 L -158.314 -48.968 C -158.314 -50.036 -157.555 -50.881 -156.612 -50.881 L 0 -50.881 C .96 -50.881 1.721 -50.036 1.721 -48.968 L 1.721 -1.901 C 1.721 -.855 .96 0 0 0 " fill="#ffffff"/>
<path transform="matrix(1,0,0,-1,505.143,458.40193)" d="M 0 0 L -156.612 0 C -157.555 0 -158.314 -.855 -158.314 -1.901 L -158.314 -48.969 C -158.314 -50.036 -157.555 -50.881 -156.612 -50.881 L 0 -50.881 C .96 -50.881 1.721 -50.036 1.721 -48.969 L 1.721 -1.901 C 1.721 -.855 .96 0 0 0 " fill="#ffffff"/>
<path transform="matrix(1,0,0,-1,502.9395,387.2521)" d="M 0 0 L -75.175 75.174 C -75.682 75.682 -76.504 75.682 -77.011 75.174 L -152.186 0 C -153.004 -.818 -152.425 -2.217 -151.268 -2.217 L -.919 -2.217 C .239 -2.217 .818 -.818 0 0 " fill="#ffffff"/>
<path transform="matrix(1,0,0,-1,573.5112,610.0098)" d="M 0 0 L 75.175 75.174 C 75.682 75.681 75.682 76.503 75.175 77.01 L 0 152.185 C -.817 153.004 -2.218 152.424 -2.218 151.268 L -2.218 .917 C -2.218 -.239 -.817 -.818 0 0 " fill="#ffffff"/>
<path transform="matrix(1,0,0,-1,350.7534,680.5824)" d="M 0 0 L 75.175 -75.176 C 75.682 -75.683 76.504 -75.683 77.011 -75.176 L 152.186 0 C 153.005 .817 152.425 2.217 151.268 2.217 L .918 2.217 C -.239 2.217 -.817 .817 0 0 " fill="#ffffff"/>
<path transform="matrix(1,0,0,-1,280.1808,457.8247)" d="M 0 0 L -75.174 -75.175 C -75.683 -75.683 -75.683 -76.505 -75.174 -77.011 L 0 -152.185 C .818 -153.004 2.217 -152.424 2.217 -151.268 L 2.217 -.918 C 2.217 .239 .818 .818 0 0 " fill="#ffffff"/>
</g>
</g>
</g>
</svg>
