<?xml version="1.0" encoding="UTF-8" standalone="no"?>
<!DOCTYPE svg PUBLIC "-//W3C//DTD SVG 1.1//EN" "http://www.w3.org/Graphics/SVG/1.1/DTD/svg11.dtd">
<svg xmlns="http://www.w3.org/2000/svg" xmlns:xlink="http://www.w3.org/1999/xlink" version="1.1" width="283.46pt" height="283.46pt" viewBox="0 0 283.46 283.46">
<g enable-background="new">
<g id="Layer-1" data-name="Layer 1">
<path transform="matrix(1,0,0,-1,0,283.46)" d="M 0 0 L 283.46 0 L 283.46 283.46 L 0 283.46 Z " fill="#f99d26"/>
<path transform="matrix(1,0,0,-1,20.311,34.124986)" d="M 0 0 L 0 -10.028 L .083 -10.028 L 6.826 -3.032 L 6.912 -3.032 L 6.912 -46.785 L 16.521 -46.785 L 16.521 10.374 L 8.847 10.374 Z " fill="#ffffff"/>
<path transform="matrix(1,0,0,-1,42.2266,34.124986)" d="M 0 0 L 0 -10.028 L .086 -10.028 L 6.83 -3.032 L 6.912 -3.032 L 6.912 -46.785 L 16.525 -46.785 L 16.525 10.374 L 8.856 10.374 Z " fill="#ffffff"/>
<clipPath id="cp0">
<path transform="matrix(1,0,0,-1,0,283.46)" d="M 0 283.46 L 283.46 283.46 L 283.46 0 L 0 0 Z "/>
</clipPath>
<g clip-path="url(#cp0)">
<path transform="matrix(1,0,0,-1,48.7651,217.79499)" d="M 0 0 L .439 0 L 42.64 0 C 43.216 0 43.686 .472 43.686 1.05 C 43.686 1.316 43.578 1.559 43.411 1.743 L 43.352 1.805 L 22.136 29.253 L 21.932 29.479 C 21.739 29.689 21.465 29.822 21.159 29.822 C 20.896 29.822 20.66 29.711 20.473 29.552 L 20.346 29.404 L 20.146 29.181 L -.55 2.021 L -.869 1.635 C -.984 1.47 -1.047 1.267 -1.047 1.05 C -1.047 .472 -.578 0 0 0 " fill="#ffffff"/>
<path transform="matrix(1,0,0,-1,91.2764,221.6651)" d="M 0 0 L -42.724 0 C -43.302 0 -43.77 -.47 -43.77 -1.048 L -43.77 -34.48 C -43.77 -35.059 -43.302 -35.532 -42.724 -35.532 L -28.973 -35.532 L -28.973 -14.497 C -28.973 -13.913 -28.508 -13.451 -27.929 -13.451 L -15.163 -13.451 C -14.584 -13.451 -14.117 -13.913 -14.117 -14.497 L -14.117 -35.532 L 0 -35.532 C .576 -35.532 1.046 -35.059 1.046 -34.48 L 1.046 -1.048 C 1.046 -.47 .576 0 0 0 " fill="#ffffff"/>
<path transform="matrix(1,0,0,-1,134.6035,150.8985)" d="M 0 0 C 0 -.278 -.244 -.509 -.547 -.509 L -10.019 -.509 C -10.321 -.509 -10.563 -.278 -10.563 0 L -10.563 9.924 C -10.563 10.211 -10.321 10.437 -10.019 10.437 L -.547 10.437 C -.244 10.437 0 10.211 0 9.924 Z M 0 -22.787 C 0 -23.068 -.244 -23.297 -.547 -23.297 L -10.019 -23.297 C -10.321 -23.297 -10.563 -23.068 -10.563 -22.787 L -10.563 -12.861 C -10.563 -12.58 -10.321 -12.356 -10.019 -12.356 L -.547 -12.356 C -.244 -12.356 0 -12.58 0 -12.861 Z M 0 -45.579 C 0 -45.859 -.244 -46.092 -.547 -46.092 L -10.019 -46.092 C -10.321 -46.092 -10.563 -45.859 -10.563 -45.579 L -10.563 -35.651 C -10.563 -35.369 -10.321 -35.143 -10.019 -35.143 L -.547 -35.143 C -.244 -35.143 0 -35.369 0 -35.651 Z M 0 -68.365 C 0 -68.652 -.244 -68.875 -.547 -68.875 L -10.019 -68.875 C -10.321 -68.875 -10.563 -68.652 -10.563 -68.365 L -10.563 -58.446 C -10.563 -58.157 -10.321 -57.934 -10.019 -57.934 L -.547 -57.934 C -.244 -57.934 0 -58.157 0 -58.446 Z M 0 -91.157 C 0 -91.438 -.244 -91.668 -.547 -91.668 L -10.019 -91.668 C -10.321 -91.668 -10.563 -91.438 -10.563 -91.157 L -10.563 -81.232 C -10.563 -80.952 -10.321 -80.727 -10.019 -80.727 L -.547 -80.727 C -.244 -80.727 0 -80.952 0 -81.232 Z M -18.582 0 C -18.582 -.278 -18.828 -.509 -19.126 -.509 L -28.601 -.509 C -28.9 -.509 -29.145 -.278 -29.145 0 L -29.145 9.924 C -29.145 10.211 -28.9 10.437 -28.601 10.437 L -19.126 10.437 C -18.828 10.437 -18.582 10.211 -18.582 9.924 Z M -18.582 -22.787 C -18.582 -23.068 -18.828 -23.297 -19.126 -23.297 L -28.601 -23.297 C -28.9 -23.297 -29.145 -23.068 -29.145 -22.787 L -29.145 -12.861 C -29.145 -12.58 -28.9 -12.356 -28.601 -12.356 L -19.126 -12.356 C -18.828 -12.356 -18.582 -12.58 -18.582 -12.861 Z M -18.582 -45.579 C -18.582 -45.859 -18.828 -46.092 -19.126 -46.092 L -28.601 -46.092 C -28.9 -46.092 -29.145 -45.859 -29.145 -45.579 L -29.145 -35.651 C -29.145 -35.369 -28.9 -35.143 -28.601 -35.143 L -19.126 -35.143 C -18.828 -35.143 -18.582 -35.369 -18.582 -35.651 Z M -18.582 -68.365 C -18.582 -68.652 -18.828 -68.875 -19.126 -68.875 L -28.601 -68.875 C -28.9 -68.875 -29.145 -68.652 -29.145 -68.365 L -29.145 -58.446 C -29.145 -58.157 -28.9 -57.934 -28.601 -57.934 L -19.126 -57.934 C -18.828 -57.934 -18.582 -58.157 -18.582 -58.446 Z M -18.582 -91.157 C -18.582 -91.438 -18.828 -91.668 -19.126 -91.668 L -28.601 -91.668 C -28.9 -91.668 -29.145 -91.438 -29.145 -91.157 L -29.145 -81.232 C -29.145 -80.952 -28.9 -80.727 -28.601 -80.727 L -19.126 -80.727 C -18.828 -80.727 -18.582 -80.952 -18.582 -81.232 Z M 6.035 28.52 L -35.348 28.52 C -35.901 28.52 -36.36 28.096 -36.36 27.563 L -36.36 -105.349 C -36.36 -105.872 -35.901 -106.299 -35.348 -106.299 L 6.035 -106.299 C 6.589 -106.299 7.053 -105.872 7.053 -105.349 L 7.053 27.563 C 7.053 28.096 6.589 28.52 6.035 28.52 " fill="#ffffff"/>
<path transform="matrix(1,0,0,-1,235.1064,226.17389)" d="M 0 0 C 0 -.558 -.461 -1.008 -1.035 -1.008 L -13.665 -1.008 C -14.239 -1.008 -14.701 -.558 -14.701 0 L -14.701 7.681 C -14.701 8.236 -14.239 8.688 -13.665 8.688 L -1.035 8.688 C -.461 8.688 0 8.236 0 7.681 Z M 0 -14.19 C 0 -14.749 -.461 -15.202 -1.035 -15.202 L -13.665 -15.202 C -14.239 -15.202 -14.701 -14.749 -14.701 -14.19 L -14.701 -6.513 C -14.701 -5.954 -14.239 -5.505 -13.665 -5.505 L -1.035 -5.505 C -.461 -5.505 0 -5.954 0 -6.513 Z M -19.308 0 C -19.308 -.558 -19.769 -1.008 -20.34 -1.008 L -32.973 -1.008 C -33.548 -1.008 -34.012 -.558 -34.012 0 L -34.012 7.681 C -34.012 8.236 -33.548 8.688 -32.973 8.688 L -20.34 8.688 C -19.769 8.688 -19.308 8.236 -19.308 7.681 Z M -19.308 -14.19 C -19.308 -14.749 -19.769 -15.202 -20.34 -15.202 L -32.973 -15.202 C -33.548 -15.202 -34.012 -14.749 -34.012 -14.19 L -34.012 -6.513 C -34.012 -5.954 -33.548 -5.505 -32.973 -5.505 L -20.34 -5.505 C -19.769 -5.505 -19.308 -5.954 -19.308 -6.513 Z M 3.83 13.687 L -38.457 13.687 C -39.028 13.687 -39.489 13.242 -39.489 12.68 L -39.489 -30.019 C -39.489 -30.572 -39.028 -31.023 -38.457 -31.023 L 3.83 -31.023 C 4.404 -31.023 4.865 -30.572 4.865 -30.019 L 4.865 12.68 C 4.865 13.242 4.404 13.687 3.83 13.687 " fill="#ffffff"/>
<path transform="matrix(1,0,0,-1,239.9238,208.19049)" d="M 0 0 C 0 -.477 -.379 -.854 -.85 -.854 L -43.41 -.854 C -43.88 -.854 -44.262 -.477 -44.262 0 L -44.262 8.512 C -44.262 8.979 -43.88 9.359 -43.41 9.359 L -.85 9.359 C -.379 9.359 0 8.979 0 8.512 Z " fill="#ffffff"/>
<path transform="matrix(1,0,0,-1,185.918,183.45319)" d="M 0 0 C 0 -.562 -.457 -1.012 -1.011 -1.012 L -13.342 -1.012 C -13.904 -1.012 -14.36 -.562 -14.36 0 L -14.36 7.72 C -14.36 8.282 -13.904 8.735 -13.342 8.735 L -1.011 8.735 C -.457 8.735 0 8.282 0 7.72 Z M 0 -14.27 C 0 -14.825 -.457 -15.278 -1.011 -15.278 L -13.342 -15.278 C -13.904 -15.278 -14.36 -14.825 -14.36 -14.27 L -14.36 -6.55 C -14.36 -5.987 -13.904 -5.538 -13.342 -5.538 L -1.011 -5.538 C -.457 -5.538 0 -5.987 0 -6.55 Z M 0 -28.536 C 0 -29.092 -.457 -29.544 -1.011 -29.544 L -13.342 -29.544 C -13.904 -29.544 -14.36 -29.092 -14.36 -28.536 L -14.36 -20.812 C -14.36 -20.251 -13.904 -19.801 -13.342 -19.801 L -1.011 -19.801 C -.457 -19.801 0 -20.251 0 -20.812 Z M 0 -42.802 C 0 -43.36 -.457 -43.812 -1.011 -43.812 L -13.342 -43.812 C -13.904 -43.812 -14.36 -43.36 -14.36 -42.802 L -14.36 -35.079 C -14.36 -34.517 -13.904 -34.069 -13.342 -34.069 L -1.011 -34.069 C -.457 -34.069 0 -34.517 0 -35.079 Z M 0 -57.064 C 0 -57.627 -.457 -58.077 -1.011 -58.077 L -13.342 -58.077 C -13.904 -58.077 -14.36 -57.627 -14.36 -57.064 L -14.36 -49.346 C -14.36 -48.786 -13.904 -48.336 -13.342 -48.336 L -1.011 -48.336 C -.457 -48.336 0 -48.786 0 -49.346 Z M -18.819 2.725 L -18.819 2.353 L -18.819 -14.282 C -18.819 -14.845 -19.276 -15.295 -19.83 -15.295 L -32.161 -15.295 C -32.726 -15.295 -33.18 -14.845 -33.18 -14.282 L -33.18 -12.228 L -33.18 -12.144 C -33.175 -12.008 -33.148 -11.881 -33.103 -11.765 C -33.082 -11.722 -33.078 -11.707 -33.04 -11.646 C -33.017 -11.6 -32.981 -11.556 -32.951 -11.513 C -32.92 -11.466 -32.873 -11.404 -32.836 -11.347 C -31.26 -9.09 -24.145 -.327 -21.157 3.337 L -20.857 3.698 C -20.641 3.958 -20.313 4.128 -19.947 4.128 C -19.382 4.128 -18.929 3.714 -18.819 3.182 Z M -18.854 -28.536 C -18.854 -29.092 -19.304 -29.544 -19.865 -29.544 L -32.199 -29.544 C -32.76 -29.544 -33.212 -29.092 -33.212 -28.536 L -33.212 -20.812 C -33.212 -20.251 -32.76 -19.801 -32.199 -19.801 L -19.865 -19.801 C -19.304 -19.801 -18.854 -20.251 -18.854 -20.812 Z M -18.854 -42.802 C -18.854 -43.36 -19.304 -43.812 -19.865 -43.812 L -32.199 -43.812 C -32.76 -43.812 -33.212 -43.36 -33.212 -42.802 L -33.212 -35.079 C -33.212 -34.517 -32.76 -34.069 -32.199 -34.069 L -19.865 -34.069 C -19.304 -34.069 -18.854 -34.517 -18.854 -35.079 Z M -18.854 -57.064 C -18.854 -57.627 -19.304 -58.077 -19.865 -58.077 L -32.199 -58.077 C -32.76 -58.077 -33.212 -57.627 -33.212 -57.064 L -33.212 -49.346 C -33.212 -48.786 -32.76 -48.336 -32.199 -48.336 L -19.865 -48.336 C -19.304 -48.336 -18.854 -48.786 -18.854 -49.346 Z M -12.418 15.192 L -12.127 15.556 C -9.344 19.127 -4.654 24.901 -2.368 27.706 L -2.069 28.063 C -1.853 28.323 -1.525 28.493 -1.159 28.493 C -.593 28.493 -.141 28.082 -.03 27.548 L -.03 27.09 L -.03 26.719 L -.03 14.494 C -.03 13.863 -.531 13.359 -1.154 13.33 C -1.173 13.33 -1.188 13.319 -1.205 13.319 C -1.223 13.319 -1.238 13.33 -1.257 13.33 L -10.916 13.33 L -11.42 13.33 C -11.439 13.33 -11.455 13.319 -11.472 13.319 C -11.491 13.319 -11.505 13.33 -11.523 13.33 C -12.148 13.359 -12.646 13.863 -12.646 14.494 C -12.646 14.756 -12.563 14.997 -12.418 15.192 M 4.705 43.209 C 4.567 43.664 4.165 44.001 3.666 44.001 C 3.442 44.001 3.248 43.92 3.074 43.805 C 3.051 43.788 3.022 43.776 2.997 43.755 L 2.647 43.315 L -38.023 -8.278 L -38.211 -8.531 C -38.421 -8.737 -38.556 -9.018 -38.564 -9.336 L -38.564 -9.405 L -38.564 -72.735 C -38.564 -73.293 -38.109 -73.744 -37.549 -73.744 L 3.792 -73.744 C 4.353 -73.744 4.804 -73.293 4.804 -72.735 L 4.804 42.787 C 4.804 42.94 4.764 43.084 4.705 43.209 " fill="#ffffff"/>
<path transform="matrix(1,0,0,-1,82.6055,44.414094)" d="M 0 0 L 6.097 0 L 6.097 -3.277 L -4.193 -3.277 L -4.193 0 L 2.114 17.337 L -3.559 17.337 L -3.559 20.615 L 6.343 20.615 L 6.343 17.337 Z " fill="#ffffff"/>
<path transform="matrix(1,0,0,-1,95.0762,27.07669)" d="M 0 0 L 0 -7.436 L 1.34 -7.436 C 2.714 -7.436 3.313 -6.73 3.313 -5.461 L 3.313 -1.938 C 3.313 -.635 2.714 0 1.34 0 Z M 0 -9.655 L 0 -20.614 L -4.017 -20.614 L -4.017 3.277 L 1.834 3.277 C 5.885 3.277 7.366 1.269 7.366 -2.079 L 7.366 -5.145 C 7.366 -7.717 6.449 -9.232 4.157 -9.761 L 7.999 -20.614 L 3.771 -20.614 Z " fill="#ffffff"/>
<path transform="matrix(1,0,0,-1,112.7617,42.15869)" d="M 0 0 L 0 12.827 C 0 14.271 -.635 15.294 -2.08 15.294 C -3.488 15.294 -4.123 14.271 -4.123 12.827 L -4.123 0 C -4.123 -1.445 -3.488 -2.467 -2.08 -2.467 C -.635 -2.467 0 -1.445 0 0 M 1.197 20.05 L -5.109 19.24 L -5.109 21.495 L 1.197 22.834 Z M -8.141 .635 L -8.141 12.192 C -8.141 15.928 -6.309 18.642 -2.08 18.642 C 2.185 18.642 4.017 15.928 4.017 12.192 L 4.017 .635 C 4.017 -3.065 2.185 -5.814 -2.08 -5.814 C -6.309 -5.814 -8.141 -3.065 -8.141 .635 " fill="#ffffff"/>
<path transform="matrix(1,0,0,-1,127.7344,32.926286)" d="M 0 0 L -2.255 -14.765 L -6.025 -14.765 L -9.232 9.127 L -5.354 9.127 L -3.488 -6.026 L -3.452 -6.026 L -1.444 9.127 L 1.832 9.127 L 4.053 -6.026 L 4.088 -6.026 L 5.922 9.127 L 9.304 9.127 L 6.203 -14.765 L 2.396 -14.765 L .036 0 Z " fill="#ffffff"/>
<path transform="matrix(1,0,0,-1,142.1436,32.679185)" d="M 0 0 L 0 -15.012 L -3.384 -15.012 L -3.384 8.88 L .563 8.88 L 4.897 -4.828 L 4.897 8.88 L 8.245 8.88 L 8.245 -15.012 L 4.722 -15.012 Z " fill="#ffffff"/>
<path transform="matrix(1,0,0,-1,160.8145,42.15869)" d="M 0 0 L 0 12.827 C 0 14.271 -.635 15.294 -2.079 15.294 C -3.488 15.294 -4.123 14.271 -4.123 12.827 L -4.123 0 C -4.123 -1.445 -3.488 -2.467 -2.079 -2.467 C -.635 -2.467 0 -1.445 0 0 M -8.14 .635 L -8.14 12.192 C -8.14 15.928 -6.308 18.642 -2.079 18.642 C 2.186 18.642 4.018 15.928 4.018 12.192 L 4.018 .635 C 4.018 -3.065 2.186 -5.814 -2.079 -5.814 C -6.308 -5.814 -8.14 -3.065 -8.14 .635 " fill="#ffffff"/>
<path transform="matrix(1,0,0,-1,175.7861,32.926286)" d="M 0 0 L -2.255 -14.765 L -6.026 -14.765 L -9.232 9.127 L -5.355 9.127 L -3.488 -6.026 L -3.452 -6.026 L -1.445 9.127 L 1.832 9.127 L 4.053 -6.026 L 4.087 -6.026 L 5.921 9.127 L 9.303 9.127 L 6.203 -14.765 L 2.396 -14.765 L .036 0 Z " fill="#ffffff"/>
<path transform="matrix(1,0,0,-1,191.2168,40.115297)" d="M 0 0 L 3.206 0 L 1.62 9.585 L 1.584 9.585 Z M -5.04 -7.576 L -.53 16.316 L 4.051 16.316 L 8.598 -7.576 L 4.475 -7.576 L 3.734 -3.207 L -.53 -3.207 L -1.233 -7.576 Z " fill="#ffffff"/>
<path transform="matrix(1,0,0,-1,0,283.46)" d="M 204.922 263.536 L 208.798 263.536 L 208.798 260.506 L 204.922 260.506 Z M 205.38 239.046 L 211.476 239.046 L 211.476 235.769 L 201.186 235.769 L 201.186 239.046 L 207.493 256.383 L 201.82 256.383 L 201.82 259.661 L 211.722 259.661 L 211.722 256.383 Z " fill="#ffffff"/>
<path transform="matrix(1,0,0,-1,221.9727,42.15869)" d="M 0 0 L 0 12.827 C 0 14.271 -.635 15.294 -2.079 15.294 C -3.488 15.294 -4.123 14.271 -4.123 12.827 L -4.123 0 C -4.123 -1.445 -3.488 -2.467 -2.079 -2.467 C -.635 -2.467 0 -1.445 0 0 M -8.14 .635 L -8.14 12.192 C -8.14 15.928 -6.308 18.642 -2.079 18.642 C 2.185 18.642 4.017 15.928 4.017 12.192 L 4.017 .635 C 4.017 -3.065 2.185 -5.814 -2.079 -5.814 C -6.308 -5.814 -8.14 -3.065 -8.14 .635 " fill="#ffffff"/>
<path transform="matrix(1,0,0,-1,231.6592,32.679185)" d="M 0 0 L 0 -15.012 L -3.384 -15.012 L -3.384 8.88 L .563 8.88 L 4.897 -4.828 L 4.897 8.88 L 8.245 8.88 L 8.245 -15.012 L 4.723 -15.012 Z " fill="#ffffff"/>
<path transform="matrix(1,0,0,-1,242.1904,23.799378)" d="M 0 0 L 9.586 0 L 9.586 -3.277 L 4.018 -3.277 L 4.018 -10.113 L 8 -10.113 L 8 -13.355 L 4.018 -13.355 L 4.018 -20.615 L 9.586 -20.615 L 9.586 -23.892 L 0 -23.892 Z " fill="#ffffff"/>
<path transform="matrix(1,0,0,-1,89.7588,65.65529)" d="M 0 0 L -.105 0 L -2.819 -15.504 L -4.687 -15.504 L -7.681 0 L -7.752 0 L -7.752 -15.504 L -11.064 -15.504 L -11.064 8.387 L -6.377 8.387 L -3.771 -5.074 L -3.734 -5.074 L -1.409 8.387 L 3.666 8.387 L 3.666 -15.504 L 0 -15.504 Z " fill="#ffffff"/>
<path transform="matrix(1,0,0,-1,0,283.46)" d="M 95.709 226.191 L 99.726 226.191 L 99.726 202.29999 L 95.709 202.29999 Z " fill="#ffffff"/>
<path transform="matrix(1,0,0,-1,106.4551,73.583988)" d="M 0 0 L 3.207 0 L 1.621 9.585 L 1.585 9.585 Z M -5.04 -7.576 L -.529 16.315 L 4.052 16.315 L 8.598 -7.576 L 4.475 -7.576 L 3.735 -3.207 L -.529 -3.207 L -1.233 -7.576 Z " fill="#ffffff"/>
<path transform="matrix(1,0,0,-1,116.4941,76.015689)" d="M 0 0 L 0 3.208 L 3.737 3.208 L 3.737 -.07 C 3.737 -1.409 4.336 -2.185 5.71 -2.185 C 6.978 -2.185 7.542 -1.338 7.542 -.07 L 7.542 .846 C 7.542 2.22 6.978 3.066 5.744 4.229 L 3.384 6.59 C 1.093 8.846 .037 10.219 .037 12.968 L .037 13.778 C .037 16.739 1.762 19.029 5.674 19.029 C 9.69 19.029 11.276 17.055 11.276 13.602 L 11.276 11.664 L 7.612 11.664 L 7.612 13.743 C 7.612 15.118 6.978 15.787 5.71 15.787 C 4.581 15.787 3.808 15.153 3.808 13.813 L 3.808 13.321 C 3.808 11.981 4.547 11.207 5.71 10.078 L 8.281 7.542 C 10.467 5.322 11.524 3.982 11.524 1.339 L 11.524 .176 C 11.524 -3.101 9.761 -5.426 5.674 -5.426 C 1.587 -5.426 0 -3.136 0 0 " fill="#ffffff"/>
<path transform="matrix(1,0,0,-1,129.6719,57.268587)" d="M 0 0 L 10.678 0 L 10.678 -3.277 L 7.364 -3.277 L 7.364 -23.891 L 3.312 -23.891 L 3.312 -3.277 L 0 -3.277 Z " fill="#ffffff"/>
<path transform="matrix(1,0,0,-1,146.6182,73.583988)" d="M 0 0 L 3.206 0 L 1.62 9.585 L 1.584 9.585 Z M -5.041 -7.576 L -.53 16.315 L 4.051 16.315 L 8.598 -7.576 L 4.474 -7.576 L 3.734 -3.207 L -.53 -3.207 L -1.233 -7.576 Z " fill="#ffffff"/>
<path transform="matrix(1,0,0,-1,0,283.46)" d="M 78.694 192.722 L 82.711 192.722 L 82.711 168.83 L 78.694 168.83 Z " fill="#ffffff"/>
<path transform="matrix(1,0,0,-1,88.5215,109.48489)" d="M 0 0 L 0 3.208 L 3.736 3.208 L 3.736 -.069 C 3.736 -1.408 4.335 -2.185 5.71 -2.185 C 6.978 -2.185 7.542 -1.338 7.542 -.069 L 7.542 .847 C 7.542 2.221 6.978 3.066 5.744 4.229 L 3.384 6.591 C 1.093 8.846 .036 10.22 .036 12.969 L .036 13.778 C .036 16.739 1.762 19.029 5.674 19.029 C 9.69 19.029 11.276 17.056 11.276 13.603 L 11.276 11.664 L 7.612 11.664 L 7.612 13.743 C 7.612 15.118 6.978 15.787 5.71 15.787 C 4.581 15.787 3.808 15.153 3.808 13.813 L 3.808 13.321 C 3.808 11.981 4.547 11.207 5.71 10.078 L 8.281 7.542 C 10.466 5.322 11.524 3.982 11.524 1.34 L 11.524 .177 C 11.524 -3.101 9.761 -5.426 5.674 -5.426 C 1.586 -5.426 0 -3.136 0 0 " fill="#ffffff"/>
<path transform="matrix(1,0,0,-1,106.1748,94.01419)" d="M 0 0 L 0 -9.409 L 1.481 -9.409 C 2.855 -9.409 3.454 -8.74 3.454 -7.437 L 3.454 -1.939 C 3.454 -.635 2.855 0 1.481 0 Z M -4.017 3.276 L 1.938 3.276 C 5.991 3.276 7.471 1.269 7.471 -2.079 L 7.471 -7.118 C 7.471 -10.466 5.991 -12.51 1.938 -12.51 L 0 -12.51 L 0 -20.615 L -4.017 -20.615 Z " fill="#ffffff"/>
<path transform="matrix(1,0,0,-1,123.8623,109.09619)" d="M 0 0 L 0 12.826 C 0 14.271 -.635 15.293 -2.08 15.293 C -3.488 15.293 -4.123 14.271 -4.123 12.826 L -4.123 0 C -4.123 -1.445 -3.488 -2.468 -2.08 -2.468 C -.635 -2.468 0 -1.445 0 0 M -8.14 .635 L -8.14 12.191 C -8.14 15.927 -6.308 18.641 -2.08 18.641 C 2.185 18.641 4.017 15.927 4.017 12.191 L 4.017 .635 C 4.017 -3.066 2.185 -5.814 -2.08 -5.814 C -6.308 -5.814 -8.14 -3.066 -8.14 .635 " fill="#ffffff"/>
<path transform="matrix(1,0,0,-1,129.6719,103.670398)" d="M 0 0 L 1.021 .459 L 1.021 12.933 L 5.04 12.933 L 5.04 2.326 L 8.317 3.877 L 8.317 .987 L 5.04 -.563 L 5.04 -7.682 L 9.831 -7.682 L 9.831 -10.959 L 1.021 -10.959 L 1.021 -2.432 L 0 -2.889 Z " fill="#ffffff"/>
<path transform="matrix(1,0,0,-1,141.333,90.73779)" d="M 0 0 L 9.585 0 L 9.585 -3.276 L 4.017 -3.276 L 4.017 -10.113 L 7.999 -10.113 L 7.999 -13.354 L 4.017 -13.354 L 4.017 -20.614 L 9.585 -20.614 L 9.585 -23.892 L 0 -23.892 Z " fill="#ffffff"/>
<path transform="matrix(1,0,0,-1,153.0635,108.46149)" d="M 0 0 L 0 11.557 C 0 15.292 1.762 18.006 5.99 18.006 C 10.43 18.006 11.663 15.539 11.663 12.016 L 11.663 9.196 L 7.999 9.196 L 7.999 12.333 C 7.999 13.813 7.506 14.658 6.061 14.658 C 4.617 14.658 4.017 13.636 4.017 12.191 L 4.017 -.635 C 4.017 -2.08 4.617 -3.103 6.061 -3.103 C 7.506 -3.103 7.999 -2.187 7.999 -.776 L 7.999 3.628 L 11.663 3.628 L 11.663 -.494 C 11.663 -3.912 10.254 -6.449 5.99 -6.449 C 1.762 -6.449 0 -3.701 0 0 " fill="#ffffff"/>
<path transform="matrix(1,0,0,-1,170.8213,111.3521)" d="M 0 0 L 6.097 0 L 6.097 -3.277 L -4.193 -3.277 L -4.193 0 L 2.114 17.338 L -3.559 17.338 L -3.559 20.614 L 6.343 20.614 L 6.343 17.338 Z " fill="#ffffff"/>
<path transform="matrix(1,0,0,-1,182.6582,99.61769)" d="M 0 0 L 0 -15.012 L -3.384 -15.012 L -3.384 8.88 L .563 8.88 L 4.897 -4.827 L 4.897 8.88 L 8.245 8.88 L 8.245 -15.012 L 4.723 -15.012 Z " fill="#ffffff"/>
<path transform="matrix(1,0,0,-1,201.3301,109.09619)" d="M 0 0 L 0 12.826 C 0 14.271 -.635 15.293 -2.08 15.293 C -3.488 15.293 -4.123 14.271 -4.123 12.826 L -4.123 0 C -4.123 -1.445 -3.488 -2.468 -2.08 -2.468 C -.635 -2.468 0 -1.445 0 0 M -8.141 .635 L -8.141 12.191 C -8.141 15.927 -6.309 18.641 -2.08 18.641 C 2.185 18.641 4.017 15.927 4.017 12.191 L 4.017 .635 C 4.017 -3.066 2.185 -5.814 -2.08 -5.814 C -6.309 -5.814 -8.141 -3.066 -8.141 .635 " fill="#ffffff"/>
<path transform="matrix(1,0,0,-1,216.4424,89.04639)" d="M 0 0 L -6.309 -.811 L -6.309 1.445 L 0 2.784 Z M -9.021 -20.438 L -9.021 -17.23 L -5.284 -17.23 L -5.284 -20.508 C -5.284 -21.847 -4.687 -22.623 -3.312 -22.623 C -2.044 -22.623 -1.479 -21.776 -1.479 -20.508 L -1.479 -19.592 C -1.479 -18.218 -2.044 -17.372 -3.277 -16.209 L -5.638 -13.848 C -7.929 -11.593 -8.985 -10.219 -8.985 -7.47 L -8.985 -6.66 C -8.985 -3.699 -7.26 -1.409 -3.348 -1.409 C .669 -1.409 2.255 -3.383 2.255 -6.836 L 2.255 -8.774 L -1.409 -8.774 L -1.409 -6.695 C -1.409 -5.32 -2.044 -4.651 -3.312 -4.651 C -4.44 -4.651 -5.214 -5.285 -5.214 -6.625 L -5.214 -7.117 C -5.214 -8.457 -4.475 -9.231 -3.312 -10.36 L -.74 -12.896 C 1.445 -15.116 2.503 -16.456 2.503 -19.099 L 2.503 -20.262 C 2.503 -23.539 .739 -25.864 -3.348 -25.864 C -7.435 -25.864 -9.021 -23.574 -9.021 -20.438 " fill="#ffffff"/>
<path transform="matrix(1,0,0,-1,221.0557,108.46149)" d="M 0 0 L 0 11.557 C 0 15.292 1.762 18.006 5.99 18.006 C 10.43 18.006 11.663 15.539 11.663 12.016 L 11.663 9.196 L 7.999 9.196 L 7.999 12.333 C 7.999 13.813 7.506 14.658 6.061 14.658 C 4.617 14.658 4.017 13.636 4.017 12.191 L 4.017 -.635 C 4.017 -2.08 4.617 -3.103 6.061 -3.103 C 7.506 -3.103 7.999 -2.187 7.999 -.776 L 7.999 3.628 L 11.663 3.628 L 11.663 -.494 C 11.663 -3.912 10.255 -6.449 5.99 -6.449 C 1.762 -6.449 0 -3.701 0 0 " fill="#ffffff"/>
<path transform="matrix(1,0,0,-1,0,283.46)" d="M 234.902 192.722 L 238.91899 192.722 L 238.91899 168.83 L 234.902 168.83 Z " fill="#ffffff"/>
</g>
</g>
</g>
</svg>
