<?xml version="1.0" encoding="UTF-8" standalone="no"?>
<!DOCTYPE svg PUBLIC "-//W3C//DTD SVG 1.1//EN" "http://www.w3.org/Graphics/SVG/1.1/DTD/svg11.dtd">
<svg xmlns="http://www.w3.org/2000/svg" xmlns:xlink="http://www.w3.org/1999/xlink" version="1.1" width="283.46pt" height="283.46pt" viewBox="0 0 283.46 283.46">
<g enable-background="new">
<g id="Layer-1" data-name="Layer 1">
<path transform="matrix(1,0,0,-1,0,283.46)" d="M 0 0 L 283.46 0 L 283.46 283.46 L 0 283.46 Z " fill="#cf8c2a"/>
<path transform="matrix(1,0,0,-1,28.2964,37.24469)" d="M 0 0 L .086 0 L .086 -43.753 L 9.696 -43.753 L 9.696 13.402 L 2.016 13.402 L -6.829 3.034 L -6.829 -6.999 L -6.747 -6.999 Z " fill="#ffffff"/>
<clipPath id="cp0">
<path transform="matrix(1,0,0,-1,0,283.46)" d="M 0 283.46 L 283.46 283.46 L 283.46 0 L 0 0 Z "/>
</clipPath>
<g clip-path="url(#cp0)">
<path transform="matrix(1,0,0,-1,43.7202,35.646486)" d="M 0 0 L 0 -6.91 L 8.767 -6.91 L 8.767 .257 C 8.767 3.71 10.454 4.723 12.476 4.723 C 14.333 4.723 15.933 3.965 15.933 .422 L 15.933 -4.296 C 15.933 -9.019 15.514 -10.872 12.39 -14.159 L 6.998 -19.893 C 1.772 -25.458 -.172 -29.167 -.172 -34.817 L -.172 -45.355 L 24.786 -45.355 L 24.786 -37.512 L 9.018 -37.512 L 9.018 -34.817 C 9.018 -30.348 10.621 -28.662 13.064 -26.048 L 19.219 -19.558 C 24.194 -14.247 25.292 -10.872 25.292 -5.14 L 25.292 .422 C 25.292 8.602 21.332 12.477 12.73 12.477 C 4.297 12.477 0 8.01 0 0 " fill="#ffffff"/>
<path transform="matrix(1,0,0,-1,188.957,227.793)" d="M 0 0 C -10.652 0 -18.968 3.964 -20.527 4.759 C -33.965 10.661 -44.649 21.855 -53.173 38.971 C -69.43 71.626 -81.189 74.288 -89.776 76.232 L -90.354 76.364 C -91.236 76.564 -92.603 76.68 -94.104 76.68 C -96.837 76.68 -106.331 76.222 -113.716 70.329 C -120.357 65.024 -123.724 56.517 -123.724 45.043 C -123.724 35.98 -122.193 30.91 -117.654 24.95 L -117.512 24.755 C -117.207 24.339 -109.847 14.533 -94.943 14.533 C -92.687 14.533 -90.342 14.763 -87.974 15.214 C -85.073 15.776 -82.097 17.008 -79.124 18.876 L -84.799 24.008 C -85.065 24.242 -85.225 24.573 -85.245 24.933 C -85.264 25.293 -85.138 25.64 -84.892 25.908 C -84.717 26.108 -84.479 26.248 -84.21 26.305 L -83.729 26.384 L -58.207 33.531 L -57.672 33.589 C -57.257 33.565 -56.984 33.472 -56.75 33.249 C -56.482 33.015 -56.319 32.657 -56.315 32.278 L -56.318 31.975 L -60.661 5.232 C -60.651 4.871 -60.771 4.549 -60.995 4.309 C -61.466 3.793 -62.365 3.745 -62.886 4.217 L -68.677 9.443 C -75.436 4.439 -81.492 2.495 -85.401 1.746 C -88.694 1.115 -91.962 .795 -95.114 .795 C -116.355 .795 -127.415 15.072 -128.605 16.7 C -134.958 25.059 -137.436 33.007 -137.436 45.043 C -137.436 64.798 -129.187 75.523 -122.267 81.042 C -112.129 89.133 -100.294 90.341 -94.142 90.341 C -90.412 90.341 -88.127 89.914 -87.318 89.73 L -86.753 89.606 C -76.113 87.195 -60.05 83.555 -40.894 45.082 C -31.48 26.174 -21.51 20.132 -14.828 17.232 L -14.287 16.969 C -14.215 16.931 -8.043 13.717 -.015 13.717 C 3.335 13.717 6.543 14.281 9.52 15.394 C 17.322 18.3 26.622 25.788 26.622 44.965 C 26.622 56.402 23.196 64.905 16.439 70.24 C 8.853 76.229 -.859 76.694 -3.655 76.694 C -5.175 76.694 -6.528 76.579 -7.371 76.377 L -8.108 76.202 C -14.11 74.791 -23.179 72.658 -34.735 56.675 C -34.801 56.57 -34.891 56.449 -34.979 56.334 C -35.724 55.588 -36.916 55.839 -37.358 56.688 L -37.082 56.955 L -37.403 56.782 C -38.819 59.421 -40.598 62.527 -42.842 66.279 L -43.144 66.776 C -43.274 67.013 -43.338 67.255 -43.338 67.508 C -43.338 67.797 -43.242 68.079 -43.055 68.347 L -42.872 68.569 C -42.811 68.652 -42.732 68.749 -42.657 68.842 C -29.425 85.262 -18.052 87.947 -11.256 89.551 L -10.549 89.715 C -8.757 90.141 -6.313 90.375 -3.667 90.375 C 1.364 90.375 14.225 89.462 24.939 81 C 31.962 75.454 40.334 64.701 40.334 44.965 C 40.334 15.437 22.136 5.457 14.312 2.537 C 9.785 .854 4.971 0 0 0 " fill="#ffffff"/>
<path transform="matrix(1,0,0,-1,99.1348,42.159196)" d="M 0 0 L 0 12.827 C 0 14.271 -.635 15.294 -2.079 15.294 C -3.488 15.294 -4.123 14.271 -4.123 12.827 L -4.123 0 C -4.123 -1.445 -3.488 -2.467 -2.079 -2.467 C -.635 -2.467 0 -1.445 0 0 M -8.14 .635 L -8.14 12.192 C -8.14 15.928 -6.308 18.642 -2.079 18.642 C 2.186 18.642 4.018 15.928 4.018 12.192 L 4.018 .635 C 4.018 -3.065 2.186 -5.814 -2.079 -5.814 C -6.308 -5.814 -8.14 -3.065 -8.14 .635 " fill="#ffffff"/>
<path transform="matrix(1,0,0,-1,111.1475,44.414598)" d="M 0 0 C 1.655 0 2.29 .987 2.29 2.432 L 2.29 14.941 C 2.29 16.351 1.655 17.338 0 17.338 L -1.692 17.338 L -1.692 0 Z M 6.307 14.201 L 6.307 3.136 C 6.307 -.528 4.791 -3.277 .492 -3.277 L -5.709 -3.277 L -5.709 20.615 L .492 20.615 C 4.791 20.615 6.307 17.901 6.307 14.201 " fill="#ffffff"/>
<path transform="matrix(1,0,0,-1,123.7588,27.07669)" d="M 0 0 L 0 -9.409 L 1.481 -9.409 C 2.855 -9.409 3.454 -8.74 3.454 -7.436 L 3.454 -1.939 C 3.454 -.635 2.855 0 1.481 0 Z M -4.017 3.277 L 1.938 3.277 C 5.992 3.277 7.472 1.269 7.472 -2.079 L 7.472 -7.119 C 7.472 -10.466 5.992 -12.51 1.938 -12.51 L 0 -12.51 L 0 -20.615 L -4.017 -20.615 Z " fill="#ffffff"/>
<path transform="matrix(1,0,0,-1,141.4482,42.159196)" d="M 0 0 L 0 12.827 C 0 14.271 -.635 15.294 -2.08 15.294 C -3.488 15.294 -4.123 14.271 -4.123 12.827 L -4.123 0 C -4.123 -1.445 -3.488 -2.467 -2.08 -2.467 C -.635 -2.467 0 -1.445 0 0 M -8.14 .635 L -8.14 12.192 C -8.14 15.928 -6.308 18.642 -2.08 18.642 C 2.185 18.642 4.017 15.928 4.017 12.192 L 4.017 .635 C 4.017 -3.065 2.185 -5.814 -2.08 -5.814 C -6.308 -5.814 -8.14 -3.065 -8.14 .635 " fill="#ffffff"/>
<path transform="matrix(1,0,0,-1,156.4199,32.92679)" d="M 0 0 L -2.255 -14.765 L -6.026 -14.765 L -9.232 9.127 L -5.355 9.127 L -3.488 -6.026 L -3.452 -6.026 L -1.445 9.127 L 1.832 9.127 L 4.053 -6.026 L 4.087 -6.026 L 5.921 9.127 L 9.303 9.127 L 6.203 -14.765 L 2.396 -14.765 L .036 0 Z " fill="#ffffff"/>
<path transform="matrix(1,0,0,-1,0,283.46)" d="M 167.445 259.66 L 171.462 259.66 L 171.462 235.768 L 167.445 235.768 Z " fill="#ffffff"/>
<path transform="matrix(1,0,0,-1,173.7861,23.799805)" d="M 0 0 L 9.585 0 L 9.585 -3.277 L 4.017 -3.277 L 4.017 -10.113 L 7.999 -10.113 L 7.999 -13.355 L 4.017 -13.355 L 4.017 -20.615 L 9.585 -20.615 L 9.585 -23.892 L 0 -23.892 Z " fill="#ffffff"/>
<path transform="matrix(1,0,0,-1,191.2275,44.414598)" d="M 0 0 C 1.655 0 2.29 .987 2.29 2.432 L 2.29 14.941 C 2.29 16.351 1.655 17.338 0 17.338 L -1.692 17.338 L -1.692 0 Z M 6.307 14.201 L 6.307 3.136 C 6.307 -.528 4.791 -3.277 .492 -3.277 L -5.709 -3.277 L -5.709 20.615 L .492 20.615 C 4.791 20.615 6.307 17.901 6.307 14.201 " fill="#ffffff"/>
<path transform="matrix(1,0,0,-1,203.7354,44.414598)" d="M 0 0 L 6.097 0 L 6.097 -3.277 L -4.193 -3.277 L -4.193 0 L 2.114 17.338 L -3.559 17.338 L -3.559 20.615 L 6.343 20.615 L 6.343 17.338 Z " fill="#ffffff"/>
<path transform="matrix(1,0,0,-1,0,283.46)" d="M 212.189 259.66 L 216.206 259.66 L 216.206 235.768 L 212.189 235.768 Z " fill="#ffffff"/>
<path transform="matrix(1,0,0,-1,222.9355,40.1158)" d="M 0 0 L 3.206 0 L 1.62 9.585 L 1.584 9.585 Z M -5.04 -7.576 L -.53 16.316 L 4.051 16.316 L 8.598 -7.576 L 4.475 -7.576 L 3.734 -3.207 L -.53 -3.207 L -1.233 -7.576 Z " fill="#ffffff"/>
<path transform="matrix(1,0,0,-1,233.1846,23.799805)" d="M 0 0 L 4.017 0 L 4.017 -20.615 L 8.81 -20.615 L 8.81 -23.892 L 0 -23.892 Z " fill="#ffffff"/>
<path transform="matrix(1,0,0,-1,247.208,32.679689)" d="M 0 0 L 0 -15.012 L -3.384 -15.012 L -3.384 8.88 L .563 8.88 L 4.898 -4.828 L 4.898 8.88 L 8.245 8.88 L 8.245 -15.012 L 4.723 -15.012 Z " fill="#ffffff"/>
<path transform="matrix(1,0,0,-1,262.1475,40.1158)" d="M 0 0 L 3.206 0 L 1.62 9.585 L 1.584 9.585 Z M -5.041 -7.576 L -.53 16.316 L 4.051 16.316 L 8.598 -7.576 L 4.474 -7.576 L 3.734 -3.207 L -.53 -3.207 L -1.233 -7.576 Z " fill="#ffffff"/>
<path transform="matrix(1,0,0,-1,95.0117,69.531787)" d="M 0 0 L 0 -11.629 L -4.017 -11.629 L -4.017 12.263 L 0 12.263 L 0 1.761 L 4.369 12.263 L 8.317 12.263 L 3.666 1.515 L 8.423 -11.629 L 4.194 -11.629 Z " fill="#ffffff"/>
<path transform="matrix(1,0,0,-1,113.0869,75.628498)" d="M 0 0 L 0 12.827 C 0 14.271 -.635 15.294 -2.08 15.294 C -3.489 15.294 -4.124 14.271 -4.124 12.827 L -4.124 0 C -4.124 -1.445 -3.489 -2.467 -2.08 -2.467 C -.635 -2.467 0 -1.445 0 0 M -8.141 .635 L -8.141 12.192 C -8.141 15.928 -6.309 18.642 -2.08 18.642 C 2.185 18.642 4.017 15.928 4.017 12.192 L 4.017 .635 C 4.017 -3.065 2.185 -5.814 -2.08 -5.814 C -6.309 -5.814 -8.141 -3.065 -8.141 .635 " fill="#ffffff"/>
<path transform="matrix(1,0,0,-1,122.7734,66.14899)" d="M 0 0 L 0 -15.012 L -3.384 -15.012 L -3.384 8.88 L .563 8.88 L 4.897 -4.828 L 4.897 8.88 L 8.245 8.88 L 8.245 -15.012 L 4.722 -15.012 Z " fill="#ffffff"/>
<path transform="matrix(1,0,0,-1,133.0947,76.01659)" d="M 0 0 L 0 3.208 L 3.736 3.208 L 3.736 -.07 C 3.736 -1.409 4.335 -2.185 5.71 -2.185 C 6.978 -2.185 7.542 -1.338 7.542 -.07 L 7.542 .847 C 7.542 2.22 6.978 3.066 5.744 4.229 L 3.384 6.59 C 1.093 8.846 .036 10.219 .036 12.968 L .036 13.778 C .036 16.739 1.762 19.03 5.674 19.03 C 9.69 19.03 11.276 17.056 11.276 13.602 L 11.276 11.665 L 7.612 11.665 L 7.612 13.743 C 7.612 15.118 6.978 15.787 5.71 15.787 C 4.581 15.787 3.807 15.153 3.807 13.814 L 3.807 13.321 C 3.807 11.982 4.547 11.207 5.71 10.078 L 8.281 7.542 C 10.466 5.322 11.524 3.982 11.524 1.339 L 11.524 .176 C 11.524 -3.101 9.761 -5.426 5.674 -5.426 C 1.586 -5.426 0 -3.136 0 0 " fill="#ffffff"/>
<path transform="matrix(1,0,0,-1,158.3926,57.26909)" d="M 0 0 L 0 -18.078 C 0 -21.778 -1.584 -24.174 -5.673 -24.174 C -9.901 -24.174 -11.663 -21.778 -11.663 -18.078 L -11.663 0 L -7.646 0 L -7.646 -18.465 C -7.646 -19.875 -7.082 -20.826 -5.673 -20.826 C -4.263 -20.826 -3.698 -19.875 -3.698 -18.465 L -3.698 0 Z " fill="#ffffff"/>
<path transform="matrix(1,0,0,-1,171.7461,65.656299)" d="M 0 0 L -.105 0 L -2.82 -15.504 L -4.687 -15.504 L -7.682 0 L -7.752 0 L -7.752 -15.504 L -11.065 -15.504 L -11.065 8.387 L -6.377 8.387 L -3.771 -5.074 L -3.735 -5.074 L -1.409 8.387 L 3.665 8.387 L 3.665 -15.504 L 0 -15.504 Z " fill="#ffffff"/>
<path transform="matrix(1,0,0,-1,181.7129,60.546388)" d="M 0 0 L 0 -9.409 L 1.481 -9.409 C 2.855 -9.409 3.454 -8.74 3.454 -7.436 L 3.454 -1.938 C 3.454 -.635 2.855 0 1.481 0 Z M -4.017 3.277 L 1.938 3.277 C 5.991 3.277 7.471 1.269 7.471 -2.079 L 7.471 -7.118 C 7.471 -10.466 5.991 -12.51 1.938 -12.51 L 0 -12.51 L 0 -20.614 L -4.017 -20.614 Z " fill="#ffffff"/>
<path transform="matrix(1,0,0,-1,191.2607,74.9937)" d="M 0 0 L 0 11.558 C 0 15.293 1.761 18.007 5.989 18.007 C 10.43 18.007 11.663 15.54 11.663 12.016 L 11.663 9.196 L 7.999 9.196 L 7.999 12.333 C 7.999 13.813 7.505 14.659 6.061 14.659 C 4.617 14.659 4.017 13.636 4.017 12.192 L 4.017 -.635 C 4.017 -2.08 4.617 -3.102 6.061 -3.102 C 7.505 -3.102 7.999 -2.186 7.999 -.776 L 7.999 3.629 L 11.663 3.629 L 11.663 -.494 C 11.663 -3.912 10.254 -6.449 5.989 -6.449 C 1.761 -6.449 0 -3.7 0 0 " fill="#ffffff"/>
<path transform="matrix(1,0,0,-1,215.7842,57.26909)" d="M 0 0 L 0 -18.465 C 0 -21.919 -1.516 -24.174 -5.532 -24.174 C -9.69 -24.174 -10.818 -21.883 -10.818 -18.853 L -10.818 -14.096 L -7.014 -14.096 L -7.014 -18.923 C -7.014 -20.121 -6.59 -20.826 -5.532 -20.826 C -4.439 -20.826 -4.017 -20.121 -4.017 -18.888 L -4.017 0 Z " fill="#ffffff"/>
<path transform="matrix(1,0,0,-1,222.4414,73.58499)" d="M 0 0 L 3.207 0 L 1.621 9.585 L 1.585 9.585 Z M -5.04 -7.576 L -.529 16.316 L 4.052 16.316 L 8.599 -7.576 L 4.475 -7.576 L 3.735 -3.207 L -.529 -3.207 L -1.233 -7.576 Z " fill="#ffffff"/>
<path transform="matrix(1,0,0,-1,0,283.46)" d="M 90.995 192.721 L 95.012 192.721 L 95.012 168.829 L 90.995 168.829 Z " fill="#ffffff"/>
<path transform="matrix(1,0,0,-1,105.0508,94.0152)" d="M 0 0 L 0 -9.409 L 1.481 -9.409 C 2.856 -9.409 3.455 -8.74 3.455 -7.437 L 3.455 -1.939 C 3.455 -.635 2.856 0 1.481 0 Z M -4.017 3.276 L 1.939 3.276 C 5.992 3.276 7.472 1.269 7.472 -2.079 L 7.472 -7.119 C 7.472 -10.467 5.992 -12.51 1.939 -12.51 L 0 -12.51 L 0 -20.615 L -4.017 -20.615 Z " fill="#ffffff"/>
<path transform="matrix(1,0,0,-1,118.6152,94.0152)" d="M 0 0 L 0 -7.437 L 1.34 -7.437 C 2.715 -7.437 3.313 -6.731 3.313 -5.462 L 3.313 -1.939 C 3.313 -.635 2.715 0 1.34 0 Z M 0 -9.656 L 0 -20.615 L -4.017 -20.615 L -4.017 3.276 L 1.834 3.276 C 5.885 3.276 7.366 1.269 7.366 -2.079 L 7.366 -5.146 C 7.366 -7.718 6.449 -9.233 4.158 -9.762 L 7.999 -20.615 L 3.771 -20.615 Z " fill="#ffffff"/>
<path transform="matrix(1,0,0,-1,136.3027,109.09819)" d="M 0 0 L 0 12.827 C 0 14.271 -.635 15.294 -2.079 15.294 C -3.488 15.294 -4.123 14.271 -4.123 12.827 L -4.123 0 C -4.123 -1.445 -3.488 -2.467 -2.079 -2.467 C -.635 -2.467 0 -1.445 0 0 M -8.14 .635 L -8.14 12.192 C -8.14 15.928 -6.308 18.642 -2.079 18.642 C 2.186 18.642 4.018 15.928 4.018 12.192 L 4.018 .635 C 4.018 -3.065 2.186 -5.814 -2.079 -5.814 C -6.308 -5.814 -8.14 -3.065 -8.14 .635 " fill="#ffffff"/>
<path transform="matrix(1,0,0,-1,148.3154,111.35309)" d="M 0 0 C 1.655 0 2.29 .986 2.29 2.432 L 2.29 14.941 C 2.29 16.351 1.655 17.338 0 17.338 L -1.692 17.338 L -1.692 0 Z M 6.307 14.2 L 6.307 3.136 C 6.307 -.528 4.791 -3.277 .492 -3.277 L -5.709 -3.277 L -5.709 20.614 L .492 20.614 C 4.791 20.614 6.307 17.9 6.307 14.2 " fill="#ffffff"/>
<path transform="matrix(1,0,0,-1,168.5723,90.738788)" d="M 0 0 L 0 -18.077 C 0 -21.777 -1.585 -24.174 -5.674 -24.174 C -9.902 -24.174 -11.664 -21.777 -11.664 -18.077 L -11.664 0 L -7.647 0 L -7.647 -18.465 C -7.647 -19.875 -7.083 -20.826 -5.674 -20.826 C -4.264 -20.826 -3.699 -19.875 -3.699 -18.465 L -3.699 0 Z " fill="#ffffff"/>
<path transform="matrix(1,0,0,-1,174.877,103.001499)" d="M 0 0 L 0 -11.629 L -4.018 -11.629 L -4.018 12.263 L 0 12.263 L 0 1.762 L 4.369 12.263 L 8.317 12.263 L 3.665 1.515 L 8.422 -11.629 L 4.193 -11.629 Z " fill="#ffffff"/>
<path transform="matrix(1,0,0,-1,184.8125,108.463397)" d="M 0 0 L 0 11.558 C 0 15.293 1.762 18.007 5.99 18.007 C 10.431 18.007 11.664 15.54 11.664 12.017 L 11.664 9.196 L 7.999 9.196 L 7.999 12.334 C 7.999 13.813 7.506 14.659 6.061 14.659 C 4.617 14.659 4.017 13.637 4.017 12.192 L 4.017 -.635 C 4.017 -2.08 4.617 -3.102 6.061 -3.102 C 7.506 -3.102 7.999 -2.186 7.999 -.775 L 7.999 3.629 L 11.664 3.629 L 11.664 -.493 C 11.664 -3.912 10.255 -6.449 5.99 -6.449 C 1.762 -6.449 0 -3.7 0 0 " fill="#ffffff"/>
<path transform="matrix(1,0,0,-1,209.335,90.738788)" d="M 0 0 L 0 -18.465 C 0 -21.918 -1.516 -24.174 -5.532 -24.174 C -9.69 -24.174 -10.818 -21.883 -10.818 -18.853 L -10.818 -14.096 L -7.014 -14.096 L -7.014 -18.923 C -7.014 -20.121 -6.59 -20.826 -5.532 -20.826 C -4.439 -20.826 -4.017 -20.121 -4.017 -18.888 L -4.017 0 Z " fill="#ffffff"/>
<path transform="matrix(1,0,0,-1,215.9922,107.054187)" d="M 0 0 L 3.207 0 L 1.621 9.585 L 1.585 9.585 Z M -5.04 -7.576 L -.529 16.315 L 4.052 16.315 L 8.599 -7.576 L 4.475 -7.576 L 3.735 -3.207 L -.529 -3.207 L -1.233 -7.576 Z " fill="#ffffff"/>
<path transform="matrix(1,0,0,-1,28.2964,37.24469)" d="M 0 0 L .086 0 L .086 -43.753 L 9.696 -43.753 L 9.696 13.402 L 2.016 13.402 L -6.829 3.034 L -6.829 -6.999 L -6.747 -6.999 Z " fill="#ffffff"/>
</g>
</g>
</g>
</svg>
