<?xml version="1.0" encoding="UTF-8" standalone="no"?>
<!DOCTYPE svg PUBLIC "-//W3C//DTD SVG 1.1//EN" "http://www.w3.org/Graphics/SVG/1.1/DTD/svg11.dtd">
<svg xmlns="http://www.w3.org/2000/svg" xmlns:xlink="http://www.w3.org/1999/xlink" version="1.1" width="283.46pt" height="283.46pt" viewBox="0 0 283.46 283.46">
<g enable-background="new">
<g id="Layer-1" data-name="Layer 1">
<path transform="matrix(1,0,0,-1,0,283.46)" d="M 0 0 L 283.46 0 L 283.46 283.46 L 0 283.46 Z " fill="#48773d"/>
<path transform="matrix(1,0,0,-1,35.7798,23.773499)" d="M 0 0 L 0 -57.128 L -9.607 -57.128 L -9.607 -13.398 L -9.692 -13.398 L -16.43 -20.391 L -16.518 -20.391 L -16.518 -10.364 L -7.671 0 Z " fill="#ffffff"/>
<clipPath id="cp0">
<path transform="matrix(1,0,0,-1,0,283.46)" d="M 0 283.46 L 283.46 283.46 L 283.46 0 L 0 0 Z "/>
</clipPath>
<g clip-path="url(#cp0)">
<path transform="matrix(1,0,0,-1,67.4619,36.162096)" d="M 0 0 L 0 -4.969 C 0 -9.771 -2.61 -12.972 -6.57 -14.239 C -1.77 -15.333 .506 -18.703 .506 -23.927 L .506 -32.354 C .506 -40.274 -3.706 -45.414 -13.396 -45.414 C -23.173 -45.414 -26.631 -39.853 -26.631 -31.174 L -26.631 -23.674 L -17.864 -23.674 L -17.864 -31.85 C -17.864 -35.22 -16.687 -37.408 -13.396 -37.408 C -10.453 -37.408 -9.105 -35.304 -9.105 -32.268 L -9.105 -22.833 C -9.105 -19.797 -10.453 -18.199 -13.821 -18.199 L -17.864 -18.199 L -17.864 -10.868 L -14.238 -10.868 C -11.122 -10.868 -9.105 -9.265 -9.105 -6.234 L -9.105 -.083 C -9.105 3.036 -10.196 5.058 -13.229 5.058 C -16.259 5.058 -17.358 3.036 -17.358 -.504 L -17.358 -6.316 L -26.125 -6.316 L -26.125 -1.262 C -26.125 7.165 -22.668 13.063 -12.727 13.063 C -3.875 13.063 0 8.09 0 0 " fill="#ffffff"/>
<path transform="matrix(1,0,0,-1,186.7617,187.793)" d="M 0 0 C -1.174 .319 -6.087 7.111 -2.202 11.58 C -1.558 12.314 -3.507 14.475 -2.972 14.52 C -.849 14.683 .281 13.365 .841 11.465 C .882 10.629 .916 9.782 .916 8.929 C .916 5.869 .595 2.883 0 0 M -11.985 -22.085 C -12.423 -21.962 -12.873 -21.82 -13.358 -21.578 C -15.746 -20.361 -15.461 -22.306 -16.634 -21.877 C -17.815 -21.438 -15.31 -18.714 -18.836 -21.018 C -22.349 -23.317 -21.399 -20.661 -22.934 -16.771 C -24.481 -12.874 -21.172 -8.429 -18.405 -7.421 C -14.605 -6.045 -12.245 -5.765 -10.462 -5.324 C -5.208 -4.014 -4.097 -.895 -3.144 -2.794 C -2.965 -3.148 -2.789 -3.485 -2.631 -3.806 C -2.324 -4.373 -1.972 -5.521 -1.953 -6.653 C -4.186 -12.501 -7.628 -17.752 -11.985 -22.085 M -42.837 -34.819 C -47.113 -34.819 -51.235 -34.197 -55.135 -33.059 C -55.696 -32.601 -56.016 -31.837 -55.666 -30.92 C -54.312 -27.391 -50.28 -26.009 -47.098 -25.703 C -40.004 -25.012 -30.68 -30.308 -29.197 -29.453 C -27.709 -28.6 -24.709 -24.7 -20.31 -24.863 C -17.307 -24.979 -17.329 -25.482 -16.32 -25.862 C -23.677 -31.476 -32.864 -34.819 -42.837 -34.819 M -48.786 -6.307 C -49.39 -7.29 -51.035 -14.649 -52.14 -13.792 C -53.249 -12.933 -51.692 -5.259 -51.371 -4.676 C -49.645 -1.505 -45.907 -1.664 -48.786 -6.307 M -30.922 2.379 C -31.784 1.609 -33.996 1.892 -35.103 2.756 C -36.203 3.61 -34.404 5.031 -33.747 5.083 C -32.274 5.214 -30.063 3.158 -30.922 2.379 M -11.614 2.303 C -12.082 2.48 -12.502 2.928 -12.857 4.001 C -13.214 5.074 -12.311 5.688 -11.429 5.257 C -10.53 4.799 -9.364 3.461 -9.364 2.745 C -9.364 2.029 -11.129 2.115 -11.614 2.303 M -9.753 .96 C -8.282 1.078 -6.073 -.96 -6.938 -1.743 C -7.799 -2.517 -10.004 -2.233 -11.108 -1.368 C -12.209 -.511 -10.413 .904 -9.753 .96 M -56.685 -16.484 C -57.533 -19.828 -58.526 -21.034 -59.372 -22.089 C -60.218 -23.155 -63.35 -24.518 -65.336 -24.371 C -67.327 -24.222 -67.604 -18.912 -67.604 -16.182 C -67.604 -15.239 -68.939 -18.036 -69.636 -12.351 C -70.081 -8.713 -72.416 -12.731 -72.58 -10.304 C -72.747 -7.882 -73.914 -8.365 -75.142 -6.852 C -76.362 -5.34 -77.884 -7 -79.592 -7.765 C -81.287 -8.519 -80.588 -8.916 -83.002 -8.155 C -83.063 -8.137 -83.095 -8.119 -83.155 -8.097 C -85.369 -2.864 -86.592 2.89 -86.592 8.929 C -86.592 10.406 -86.512 11.858 -86.375 13.295 C -86.292 13.441 -86.208 13.58 -86.105 13.702 C -83.791 16.439 -83.844 17.081 -83.844 17.081 L -81.284 17.967 C -81.284 17.967 -77.196 17.337 -74.116 16.176 C -71.582 15.229 -67.587 13.074 -65.264 14.022 C -63.586 14.716 -62.271 15.633 -62.429 17.031 C -62.618 18.784 -64 19.202 -65.672 18.021 C -66.289 17.585 -67.604 20.664 -68.634 20.506 C -69.665 20.353 -67.359 16.889 -68.232 16.742 C -69.109 16.593 -70.871 20.353 -71.173 20.963 C -71.469 21.567 -72.831 23.075 -74.051 21.925 C -76.632 19.474 -80.822 19.623 -81.663 18.994 C -84.226 17.077 -84.901 19.623 -84.845 21.175 C -84.74 21.529 -84.636 21.887 -84.521 22.238 C -83.687 23.16 -80.686 23.466 -79.655 22.778 C -78.522 22.021 -77.71 22.973 -77.269 23.432 C -76.818 23.879 -76.978 24.606 -77.259 25.21 C -77.546 25.817 -76.693 26.263 -76.108 26.418 C -75.519 26.574 -73.57 27.94 -72.792 28.396 C -72.006 28.847 -67.962 29.339 -66.149 28.431 C -64.336 27.519 -62.674 28.264 -61.782 29.313 C -60.665 30.641 -59.241 31.65 -58.609 31.957 C -57.976 32.255 -60.17 34.302 -61.976 32.068 C -63.785 29.847 -64.704 29.642 -65.555 29.642 C -66.404 29.642 -71.454 30.9 -72.078 32.497 C -72.695 34.092 -70.5 35.285 -68.634 36.188 C -66.771 37.076 -61.671 37.064 -60.367 37.359 C -57.717 37.941 -54.326 39.272 -52.62 38.109 C -50.921 36.97 -59.749 34.959 -56.848 33.392 C -55.815 32.824 -51.147 36.076 -49.548 36.909 C -45.785 38.848 -53.196 39.489 -52.234 43.434 C -51.147 47.892 -61.325 46.167 -66.396 45.789 C -59.594 50.147 -51.514 52.682 -42.837 52.682 C -22.2 52.682 -4.91 38.385 -.3 19.16 C -.268 18.209 -.415 17.524 -.513 17.138 C -.91 15.559 -3.9 14.205 -5.636 16.742 C -6.078 17.382 -7.957 19.153 -7.892 16.123 C -7.829 13.09 -4.946 12.78 -7.743 10.961 C -10.534 9.143 -11.046 9.581 -12.34 9.122 C -13.627 8.666 -14.879 5.542 -14.569 3.872 C -14.26 2.201 -10.271 -2.356 -13.231 -2.171 C -13.923 -2.119 -19.15 1.451 -20.013 3.746 C -20.924 6.163 -21.918 8.528 -22.624 10.352 C -23.338 12.168 -25.182 12.633 -26.745 11.564 C -28.301 10.498 -26.313 9.435 -27.431 7.155 C -28.545 4.882 -29.347 2.85 -30.991 4.727 C -35.261 9.62 -41.464 7.207 -42.438 12.651 C -42.964 15.605 -45.505 15.321 -47.63 16.993 C -49.767 18.655 -50.956 19.56 -51.314 18.355 C -51.632 17.3 -44.628 11.747 -44.13 10.326 C -43.386 8.214 -46.226 6.349 -48.306 5.849 C -50.376 5.352 -51.289 7.015 -53.326 9.138 C -55.365 11.255 -56.258 12.771 -56.398 11.106 C -56.603 8.7 -54.463 5.165 -52.386 3.845 C -50.615 2.723 -48.632 2.216 -49.206 .396 C -49.782 -1.428 -49.215 -.396 -51.198 -2.356 C -53.186 -4.33 -53.564 -4.965 -53.42 -7.688 C -53.277 -10.419 -53.987 -10.576 -54.415 -12.847 C -54.839 -15.119 -55.824 -13.152 -56.685 -16.484 M -80.187 31.729 C -80.086 31.847 -79.996 31.943 -79.96 31.993 C -79.168 32.893 -77.597 33.085 -76.511 33.254 C -75.42 33.441 -73.969 32.893 -73.794 32.168 C -73.607 31.449 -76.522 30.128 -77.057 29.635 C -78.567 28.243 -80.932 25.406 -82.316 25.102 C -82.767 25.001 -83.14 25.069 -83.445 25.221 C -82.536 27.488 -81.447 29.669 -80.187 31.729 M -77.942 36.188 C -77.377 37.02 -75.495 39.392 -75.269 39.69 C -74.784 40.313 -73.824 40.44 -73.149 40.562 C -72.483 40.688 -71.596 40.313 -71.488 39.813 C -71.374 39.311 -71.747 37.367 -72.074 37.033 C -72.996 36.076 -75.394 34.727 -76.714 34.939 C -77.736 35.096 -78.136 35.888 -77.942 36.188 M 61.137 10.338 C 53.669 20.813 19.886 62.633 -42.909 62.633 C -105.719 62.633 -139.491 20.813 -146.971 10.338 C -147.288 9.891 -147.563 9.504 -147.787 9.174 C -147.563 8.835 -147.288 8.449 -146.971 7.997 C -139.491 -2.474 -105.719 -44.296 -42.909 -44.296 C 19.886 -44.296 53.669 -2.474 61.137 7.997 C 61.463 8.449 61.731 8.835 61.946 9.174 C 61.731 9.504 61.463 9.891 61.137 10.338 " fill="#ffffff"/>
<path transform="matrix(1,0,0,-1,93.1074,44.14209)" d="M 0 0 C 1.655 0 2.29 .986 2.29 2.431 L 2.29 14.938 C 2.29 16.348 1.655 17.334 0 17.334 L -1.691 17.334 L -1.691 0 Z M 6.307 14.199 L 6.307 3.135 C 6.307 -.529 4.791 -3.277 .493 -3.277 L -5.708 -3.277 L -5.708 20.611 L .493 20.611 C 4.791 20.611 6.307 17.898 6.307 14.199 " fill="#ffffff"/>
<path transform="matrix(1,0,0,-1,105.6143,44.14209)" d="M 0 0 L 6.095 0 L 6.095 -3.277 L -4.193 -3.277 L -4.193 0 L 2.113 17.334 L -3.559 17.334 L -3.559 20.611 L 6.342 20.611 L 6.342 17.334 Z " fill="#ffffff"/>
<path transform="matrix(1,0,0,-1,0,283.46)" d="M 114.069 259.929 L 118.086 259.929 L 118.086 236.04099 L 114.069 236.04099 Z " fill="#ffffff"/>
<path transform="matrix(1,0,0,-1,124.8145,39.843797)" d="M 0 0 L 3.206 0 L 1.62 9.583 L 1.585 9.583 Z M -5.038 -7.575 L -.528 16.313 L 4.052 16.313 L 8.597 -7.575 L 4.475 -7.575 L 3.734 -3.207 L -.528 -3.207 L -1.233 -7.575 Z " fill="#ffffff"/>
<path transform="matrix(1,0,0,-1,134.5732,36.461488)" d="M 0 0 L 1.021 .458 L 1.021 12.93 L 5.038 12.93 L 5.038 2.325 L 8.314 3.875 L 8.314 .986 L 5.038 -.564 L 5.038 -7.681 L 9.83 -7.681 L 9.83 -10.958 L 1.021 -10.958 L 1.021 -2.431 L 0 -2.889 Z " fill="#ffffff"/>
<path transform="matrix(1,0,0,-1,150.6377,39.843797)" d="M 0 0 L 3.206 0 L 1.62 9.583 L 1.585 9.583 Z M -5.038 -7.575 L -.528 16.313 L 4.052 16.313 L 8.597 -7.575 L 4.475 -7.575 L 3.734 -3.207 L -.528 -3.207 L -1.233 -7.575 Z " fill="#ffffff"/>
<path transform="matrix(1,0,0,-1,164.2715,32.4097)" d="M 0 0 L 0 -15.009 L -3.382 -15.009 L -3.382 8.878 L .564 8.878 L 4.897 -4.827 L 4.897 8.878 L 8.245 8.878 L 8.245 -15.009 L 4.722 -15.009 Z " fill="#ffffff"/>
<path transform="matrix(1,0,0,-1,0,283.46)" d="M 174.806 259.929 L 178.823 259.929 L 178.823 236.04099 L 174.806 236.04099 Z " fill="#ffffff"/>
<path transform="matrix(1,0,0,-1,185.5508,39.843797)" d="M 0 0 L 3.206 0 L 1.62 9.583 L 1.585 9.583 Z M -5.038 -7.575 L -.528 16.313 L 4.052 16.313 L 8.597 -7.575 L 4.475 -7.575 L 3.734 -3.207 L -.528 -3.207 L -1.233 -7.575 Z " fill="#ffffff"/>
<path transform="matrix(1,0,0,-1,96.0664,66.124088)" d="M 0 0 L -2.255 -14.762 L -6.024 -14.762 L -9.23 9.125 L -5.355 9.125 L -3.488 -6.024 L -3.452 -6.024 L -1.444 9.125 L 1.832 9.125 L 4.052 -6.024 L 4.087 -6.024 L 5.919 9.125 L 9.302 9.125 L 6.201 -14.762 L 2.396 -14.762 L .035 0 Z " fill="#ffffff"/>
<path transform="matrix(1,0,0,-1,116.5,77.60939)" d="M 0 0 C 1.655 0 2.29 .986 2.29 2.431 L 2.29 14.938 C 2.29 16.348 1.655 17.334 0 17.334 L -1.691 17.334 L -1.691 0 Z M 6.307 14.198 L 6.307 3.135 C 6.307 -.529 4.791 -3.277 .493 -3.277 L -5.708 -3.277 L -5.708 20.611 L .493 20.611 C 4.791 20.611 6.307 17.898 6.307 14.198 " fill="#ffffff"/>
<path transform="matrix(1,0,0,-1,129.0068,77.60939)" d="M 0 0 L 6.095 0 L 6.095 -3.277 L -4.193 -3.277 L -4.193 0 L 2.113 17.334 L -3.559 17.334 L -3.559 20.611 L 6.342 20.611 L 6.342 17.334 Z " fill="#ffffff"/>
<path transform="matrix(1,0,0,-1,0,283.46)" d="M 137.462 226.461 L 141.479 226.461 L 141.479 202.573 L 137.462 202.573 Z " fill="#ffffff"/>
<path transform="matrix(1,0,0,-1,143.8037,56.998598)" d="M 0 0 L 9.583 0 L 9.583 -3.277 L 4.017 -3.277 L 4.017 -10.112 L 7.998 -10.112 L 7.998 -13.353 L 4.017 -13.353 L 4.017 -20.611 L 9.583 -20.611 L 9.583 -23.888 L 0 -23.888 Z " fill="#ffffff"/>
<path transform="matrix(1,0,0,-1,161.2432,77.60939)" d="M 0 0 C 1.655 0 2.29 .986 2.29 2.431 L 2.29 14.938 C 2.29 16.348 1.655 17.334 0 17.334 L -1.691 17.334 L -1.691 0 Z M 6.307 14.198 L 6.307 3.135 C 6.307 -.529 4.791 -3.277 .493 -3.277 L -5.708 -3.277 L -5.708 20.611 L .493 20.611 C 4.791 20.611 6.307 17.898 6.307 14.198 " fill="#ffffff"/>
<path transform="matrix(1,0,0,-1,173.75,77.60939)" d="M 0 0 L 6.095 0 L 6.095 -3.277 L -4.193 -3.277 L -4.193 0 L 2.113 17.334 L -3.559 17.334 L -3.559 20.611 L 6.342 20.611 L 6.342 17.334 Z " fill="#ffffff"/>
<path transform="matrix(1,0,0,-1,0,283.46)" d="M 182.205 226.461 L 186.222 226.461 L 186.222 202.573 L 182.205 202.573 Z " fill="#ffffff"/>
<path transform="matrix(1,0,0,-1,191.9277,65.877)" d="M 0 0 L 0 -15.009 L -3.382 -15.009 L -3.382 8.878 L .564 8.878 L 4.897 -4.827 L 4.897 8.878 L 8.245 8.878 L 8.245 -15.009 L 4.722 -15.009 Z " fill="#ffffff"/>
<path transform="matrix(1,0,0,-1,0,283.46)" d="M 202.462 226.461 L 206.479 226.461 L 206.479 202.573 L 202.462 202.573 Z " fill="#ffffff"/>
<path transform="matrix(1,0,0,-1,208.8037,56.998598)" d="M 0 0 L 9.583 0 L 9.583 -3.277 L 4.017 -3.277 L 4.017 -10.112 L 7.998 -10.112 L 7.998 -13.353 L 4.017 -13.353 L 4.017 -20.611 L 9.583 -20.611 L 9.583 -23.888 L 0 -23.888 Z " fill="#ffffff"/>
<path transform="matrix(1,0,0,-1,91.416,102.72659)" d="M 0 0 L 0 -11.627 L -4.017 -11.627 L -4.017 12.261 L 0 12.261 L 0 1.762 L 4.369 12.261 L 8.314 12.261 L 3.664 1.515 L 8.421 -11.627 L 4.192 -11.627 Z " fill="#ffffff"/>
<path transform="matrix(1,0,0,-1,101.3506,90.4659)" d="M 0 0 L 4.017 0 L 4.017 -20.611 L 8.808 -20.611 L 8.808 -23.888 L 0 -23.888 Z " fill="#ffffff"/>
<path transform="matrix(1,0,0,-1,0,283.46)" d="M 111.99 192.994 L 116.006999 192.994 L 116.006999 169.106 L 111.99 169.106 Z " fill="#ffffff"/>
<path transform="matrix(1,0,0,-1,129.3936,98.85159)" d="M 0 0 L -.105 0 L -2.818 -15.502 L -4.686 -15.502 L -7.681 0 L -7.751 0 L -7.751 -15.502 L -11.063 -15.502 L -11.063 8.386 L -6.377 8.386 L -3.77 -5.073 L -3.734 -5.073 L -1.409 8.386 L 3.665 8.386 L 3.665 -15.502 L 0 -15.502 Z " fill="#ffffff"/>
<path transform="matrix(1,0,0,-1,139.752,106.7784)" d="M 0 0 L 3.206 0 L 1.62 9.583 L 1.585 9.583 Z M -5.038 -7.575 L -.528 16.313 L 4.052 16.313 L 8.597 -7.575 L 4.475 -7.575 L 3.734 -3.206 L -.528 -3.206 L -1.233 -7.575 Z " fill="#ffffff"/>
<path transform="matrix(1,0,0,-1,149.5449,90.4659)" d="M 0 0 L 10.676 0 L 10.676 -3.276 L 7.363 -3.276 L 7.363 -23.888 L 3.312 -23.888 L 3.312 -3.276 L 0 -3.276 Z " fill="#ffffff"/>
<path transform="matrix(1,0,0,-1,173.749,90.4659)" d="M 0 0 L 0 -18.074 C 0 -21.773 -1.586 -24.17 -5.673 -24.17 C -9.9 -24.17 -11.662 -21.773 -11.662 -18.074 L -11.662 0 L -7.646 0 L -7.646 -18.462 C -7.646 -19.871 -7.082 -20.822 -5.673 -20.822 C -4.264 -20.822 -3.699 -19.871 -3.699 -18.462 L -3.699 0 Z " fill="#ffffff"/>
</g>
</g>
</g>
</svg>
