<?xml version="1.0" encoding="UTF-8" standalone="no"?>
<!DOCTYPE svg PUBLIC "-//W3C//DTD SVG 1.1//EN" "http://www.w3.org/Graphics/SVG/1.1/DTD/svg11.dtd">
<svg xmlns="http://www.w3.org/2000/svg" xmlns:xlink="http://www.w3.org/1999/xlink" version="1.1" width="283.46pt" height="283.46pt" viewBox="0 0 283.46 283.46">
<g enable-background="new">
<g id="Layer-1" data-name="Layer 1">
<path transform="matrix(1,0,0,-1,0,283.46)" d="M 0 0 L 283.46 0 L 283.46 283.46 L 0 283.46 Z " fill="#007dbb"/>
<path transform="matrix(1,0,0,-1,36.9312,23.848206)" d="M 0 0 L 0 -57.13 L -9.607 -57.13 L -9.607 -13.397 L -9.691 -13.397 L -16.43 -20.39 L -16.517 -20.39 L -16.517 -10.364 L -7.669 0 Z " fill="#ffffff"/>
<path transform="matrix(1,0,0,-1,48.5654,64.21489)" d="M 0 0 L 8.599 23.521 L 8.684 23.521 L 8.684 0 Z M 17.62 -16.776 L 17.62 -7.503 L 21.498 -7.503 L 21.498 0 L 17.62 0 L 17.62 40.38 L 8.179 40.38 L -8.429 -1.602 L -8.429 -7.503 L 8.515 -7.503 L 8.515 -16.776 Z " fill="#ffffff"/>
<clipPath id="cp0">
<path transform="matrix(1,0,0,-1,0,283.46)" d="M 0 283.46 L 283.46 283.46 L 283.46 0 L 0 0 Z "/>
</clipPath>
<g clip-path="url(#cp0)">
<path transform="matrix(1,0,0,-1,176.6875,211.22069)" d="M 0 0 C -5.209 0 -9.429 4.227 -9.429 9.432 C -9.429 14.639 -5.209 18.855 0 18.855 C 5.221 18.855 9.438 14.639 9.438 9.432 C 9.438 4.227 5.221 0 0 0 M 40.954 4.394 C 37.389 9.214 14.345 38.593 -17.965 38.593 C -46.02 38.593 -76.032 13.147 -76.032 13.147 C -76.032 13.147 -87.308 36.223 -110.368 38.439 C -110.503 38.439 -110.647 38.471 -110.801 38.471 L -110.943 38.471 C -111.426 38.443 -111.877 37.976 -111.824 37.558 C -111.759 37.153 -111.463 36.715 -111.463 36.715 C -108.491 31.779 -100.905 17.737 -100.905 3.71 C -100.905 -10.361 -108.536 -24.439 -111.481 -29.351 L -111.68 -29.663 C -111.767 -29.812 -111.824 -29.959 -111.824 -30.15 C -111.824 -30.638 -111.447 -31.016 -110.974 -31.059 L -110.723 -31.038 C -110.647 -31.038 -110.565 -31.038 -110.482 -31.016 C -87.348 -28.86 -76.032 -5.715 -76.032 -5.715 C -76.032 -5.715 -46.02 -31.164 -17.965 -31.164 C 14.345 -31.164 37.389 -1.782 40.954 3.027 C 41.053 3.158 41.132 3.271 41.204 3.357 C 41.243 3.472 41.279 3.576 41.279 3.71 C 41.279 3.838 41.243 3.965 41.204 4.063 C 41.132 4.161 41.053 4.274 40.954 4.394 " fill="#ffffff"/>
<path transform="matrix(1,0,0,-1,65.5918,117.40379)" d="M 0 0 C -.07 .016 -.118 .041 -.178 .041 C -.689 .041 -1.104 -.377 -1.104 -.896 L -1.104 -7.328 C -1.104 -7.597 -1.002 -7.834 -.835 -7.994 C 14.761 -21.544 29.528 -8.848 32.945 -5.493 C 33.017 -5.39 33.089 -5.292 33.19 -5.229 C 33.344 -5.134 33.509 -5.063 33.701 -5.063 C 33.941 -5.063 34.168 -5.155 34.328 -5.311 C 34.341 -5.329 34.359 -5.343 34.374 -5.352 C 51.991 -22.163 70.462 -8.545 74.306 -5.352 L 74.683 -5.004 C 74.792 -4.954 74.908 -4.936 75.035 -4.936 C 75.165 -4.936 75.296 -4.954 75.401 -5.004 L 75.782 -5.352 C 79.622 -8.545 98.096 -22.163 115.711 -5.352 C 115.711 -5.343 115.734 -5.329 115.743 -5.311 C 115.908 -5.155 116.125 -5.063 116.371 -5.063 C 116.561 -5.063 116.736 -5.134 116.881 -5.229 C 116.987 -5.292 117.062 -5.39 117.141 -5.493 C 120.555 -8.848 135.308 -21.544 150.915 -7.994 C 151.078 -7.834 151.184 -7.597 151.184 -7.328 L 151.184 -.896 C 151.184 -.377 150.779 .041 150.27 .041 C 150.201 .041 150.14 .016 150.067 0 C 149.923 -.083 149.774 -.16 149.603 -.243 C 144.805 -2.646 129.929 -8.36 116.427 4.416 C 116.296 4.534 116.165 4.653 116.032 4.791 C 115.908 4.842 115.79 4.875 115.639 4.875 C 115.546 4.875 115.442 4.849 115.359 4.832 C 115.158 4.751 114.998 4.624 114.892 4.467 C 110.866 1.4 92.394 -11.105 75.941 4.24 L 75.701 4.474 C 75.53 4.627 75.296 4.751 75.035 4.751 C 74.792 4.751 74.551 4.627 74.391 4.474 L 74.135 4.24 C 57.692 -11.105 39.2 1.4 35.183 4.467 C 35.077 4.624 34.922 4.751 34.725 4.832 C 34.63 4.849 34.534 4.875 34.431 4.875 C 34.301 4.875 34.168 4.842 34.043 4.791 C 33.923 4.653 33.78 4.534 33.648 4.416 C 20.145 -8.36 5.274 -2.646 .476 -.243 C .306 -.16 .146 -.083 0 0 " fill="#ffffff"/>
<path transform="matrix(1,0,0,-1,98.5371,146.29299)" d="M 0 0 C .074 .106 .144 .185 .247 .257 C .398 .351 .565 .43 .757 .43 C .996 .43 1.225 .332 1.387 .172 C 1.396 .156 1.414 .143 1.429 .133 C 19.041 -16.655 37.517 -3.048 41.36 .133 L 41.737 .492 C 41.847 .535 41.963 .551 42.088 .551 C 42.222 .551 42.349 .535 42.46 .492 L 42.835 .133 C 46.677 -3.048 65.146 -16.655 82.766 .133 C 82.769 .143 82.784 .156 82.798 .172 C 82.965 .332 83.179 .43 83.423 .43 C 83.617 .43 83.791 .351 83.932 .257 C 84.044 .185 84.116 .106 84.195 0 C 87.606 -3.357 102.358 -16.059 117.972 -2.496 C 118.133 -2.329 118.243 -2.11 118.243 -1.844 L 118.243 4.603 C 118.243 5.116 117.83 5.527 117.324 5.527 C 117.256 5.527 117.194 5.5 117.123 5.487 C 116.979 5.417 116.825 5.335 116.657 5.253 C 111.863 2.849 96.981 -2.852 83.481 9.907 C 83.354 10.027 83.222 10.147 83.089 10.278 C 82.965 10.347 82.845 10.369 82.693 10.369 C 82.601 10.369 82.499 10.347 82.414 10.3 C 82.212 10.249 82.053 10.12 81.946 9.953 C 77.921 6.889 59.448 -5.618 42.996 9.727 L 42.756 9.968 C 42.585 10.133 42.349 10.226 42.088 10.226 C 41.847 10.226 41.605 10.133 41.443 9.968 L 41.189 9.727 C 24.747 -5.618 6.255 6.889 2.237 9.953 C 2.132 10.12 1.976 10.249 1.781 10.3 C 1.687 10.347 1.586 10.369 1.485 10.369 C 1.354 10.369 1.225 10.347 1.102 10.278 C .974 10.147 .839 10.027 .7 9.907 C -12.802 -2.852 -27.671 2.849 -32.471 5.253 C -32.638 5.335 -32.797 5.417 -32.943 5.487 C -33.016 5.5 -33.063 5.527 -33.122 5.527 C -33.634 5.527 -34.049 5.116 -34.049 4.603 L -34.049 -1.844 C -34.049 -2.11 -33.947 -2.329 -33.782 -2.496 C -18.184 -16.059 -3.415 -3.357 0 0 " fill="#ffffff"/>
<path transform="matrix(1,0,0,-1,0,283.46)" d="M 95.976 263.808 L 99.852 263.808 L 99.852 260.777 L 95.976 260.777 Z M 96.434 239.317 L 102.529 239.317 L 102.529 236.04 L 92.24 236.04 L 92.24 239.317 L 98.548 256.653 L 92.875 256.653 L 92.875 259.93 L 102.776 259.93 L 102.776 256.653 Z " fill="#ffffff"/>
<path transform="matrix(1,0,0,-1,112.71,38.329088)" d="M 0 0 L 0 -9.091 L -4.017 -9.091 L -4.017 0 L -8.492 14.799 L -4.299 14.799 L -1.867 5.744 L -1.832 5.744 L .6 14.799 L 4.439 14.799 Z " fill="#ffffff"/>
<path transform="matrix(1,0,0,-1,118.7686,41.253496)" d="M 0 0 L 0 11.558 C 0 15.293 1.762 18.006 5.99 18.006 C 10.431 18.006 11.664 15.539 11.664 12.016 L 11.664 9.196 L 7.999 9.196 L 7.999 12.333 C 7.999 13.813 7.506 14.658 6.061 14.658 C 4.616 14.658 4.018 13.636 4.018 12.191 L 4.018 -.635 C 4.018 -2.08 4.616 -3.102 6.061 -3.102 C 7.506 -3.102 7.999 -2.185 7.999 -.776 L 7.999 3.63 L 11.664 3.63 L 11.664 -.494 C 11.664 -3.912 10.254 -6.449 5.99 -6.449 C 1.762 -6.449 0 -3.7 0 0 " fill="#ffffff"/>
<path transform="matrix(1,0,0,-1,0,283.46)" d="M 132.612 259.93 L 136.63 259.93 L 136.63 236.03899 L 132.612 236.03899 Z " fill="#ffffff"/>
<path transform="matrix(1,0,0,-1,138.9541,23.529786)" d="M 0 0 L 9.585 0 L 9.585 -3.277 L 4.019 -3.277 L 4.019 -10.113 L 7.999 -10.113 L 7.999 -13.354 L 4.019 -13.354 L 4.019 -20.613 L 9.585 -20.613 L 9.585 -23.891 L 0 -23.891 Z " fill="#ffffff"/>
<path transform="matrix(1,0,0,-1,96.54,60.27539)" d="M 0 0 L 0 -9.408 L 1.479 -9.408 C 2.854 -9.408 3.453 -8.739 3.453 -7.435 L 3.453 -1.937 C 3.453 -.633 2.854 0 1.479 0 Z M -4.018 3.277 L 1.938 3.277 C 5.989 3.277 7.47 1.27 7.47 -2.078 L 7.47 -7.117 C 7.47 -10.466 5.989 -12.51 1.938 -12.51 L 0 -12.51 L 0 -20.614 L -4.018 -20.614 Z " fill="#ffffff"/>
<path transform="matrix(1,0,0,-1,114.2256,75.356998)" d="M 0 0 L 0 12.826 C 0 14.271 -.635 15.293 -2.079 15.293 C -3.489 15.293 -4.123 14.271 -4.123 12.826 L -4.123 0 C -4.123 -1.445 -3.489 -2.467 -2.079 -2.467 C -.635 -2.467 0 -1.445 0 0 M -8.141 .635 L -8.141 12.193 C -8.141 15.928 -6.308 18.641 -2.079 18.641 C 2.185 18.641 4.017 15.928 4.017 12.193 L 4.017 .635 C 4.017 -3.065 2.185 -5.814 -2.079 -5.814 C -6.308 -5.814 -8.141 -3.065 -8.141 .635 " fill="#ffffff"/>
<path transform="matrix(1,0,0,-1,126.2383,77.61189)" d="M 0 0 C 1.656 0 2.29 .987 2.29 2.431 L 2.29 14.94 C 2.29 16.351 1.656 17.336 0 17.336 L -1.691 17.336 L -1.691 0 Z M 6.308 14.2 L 6.308 3.136 C 6.308 -.528 4.793 -3.277 .494 -3.277 L -5.709 -3.277 L -5.709 20.613 L .494 20.613 C 4.793 20.613 6.308 17.9 6.308 14.2 " fill="#ffffff"/>
<path transform="matrix(1,0,0,-1,147.2012,66.12459)" d="M 0 0 L -2.256 -14.765 L -6.026 -14.765 L -9.232 9.126 L -5.357 9.126 L -3.489 -6.026 L -3.454 -6.026 L -1.445 9.126 L 1.832 9.126 L 4.053 -6.026 L 4.087 -6.026 L 5.919 9.126 L 9.303 9.126 L 6.201 -14.765 L 2.395 -14.765 L .034 0 Z " fill="#ffffff"/>
<path transform="matrix(1,0,0,-1,166.3643,75.356998)" d="M 0 0 L 0 12.826 C 0 14.271 -.633 15.293 -2.078 15.293 C -3.488 15.293 -4.122 14.271 -4.122 12.826 L -4.122 0 C -4.122 -1.445 -3.488 -2.467 -2.078 -2.467 C -.633 -2.467 0 -1.445 0 0 M -8.141 .635 L -8.141 12.193 C -8.141 15.928 -6.307 18.641 -2.078 18.641 C 2.185 18.641 4.019 15.928 4.019 12.193 L 4.019 .635 C 4.019 -3.065 2.185 -5.814 -2.078 -5.814 C -6.307 -5.814 -8.141 -3.065 -8.141 .635 " fill="#ffffff"/>
<path transform="matrix(1,0,0,-1,178.3779,77.61189)" d="M 0 0 C 1.655 0 2.29 .987 2.29 2.431 L 2.29 14.94 C 2.29 16.351 1.655 17.336 0 17.336 L -1.692 17.336 L -1.692 0 Z M 6.307 14.2 L 6.307 3.136 C 6.307 -.528 4.793 -3.277 .492 -3.277 L -5.709 -3.277 L -5.709 20.613 L .492 20.613 C 4.793 20.613 6.307 17.9 6.307 14.2 " fill="#ffffff"/>
<path transform="matrix(1,0,0,-1,191.376,73.31299)" d="M 0 0 L 3.207 0 L 1.622 9.585 L 1.586 9.585 Z M -5.037 -7.576 L -.526 16.314 L 4.053 16.314 L 8.6 -7.576 L 8.458 -7.576 C 8.141 -7.858 7.858 -8.141 7.858 -8.422 C 7.858 -8.634 7.965 -8.739 8.317 -8.739 L 8.458 -8.739 L 8.458 -10.748 L 7.05 -10.748 C 5.428 -10.748 4.617 -10.254 4.617 -9.303 C 4.617 -8.211 6.063 -7.61 6.273 -7.576 L 4.477 -7.576 L 3.736 -3.207 L -.526 -3.207 L -1.231 -7.576 Z " fill="#ffffff"/>
</g>
</g>
</g>
</svg>
