<?xml version="1.0" encoding="UTF-8" standalone="no"?>
<!DOCTYPE svg PUBLIC "-//W3C//DTD SVG 1.1//EN" "http://www.w3.org/Graphics/SVG/1.1/DTD/svg11.dtd">
<svg xmlns="http://www.w3.org/2000/svg" xmlns:xlink="http://www.w3.org/1999/xlink" version="1.1" width="283.46pt" height="283.46pt" viewBox="0 0 283.46 283.46">
<g enable-background="new">
<g id="Layer-1" data-name="Layer 1">
<path transform="matrix(1,0,0,-1,0,283.46)" d="M 0 0 L 283.46 0 L 283.46 283.46 L 0 283.46 Z " fill="#3faf49"/>
<path transform="matrix(1,0,0,-1,20.7559,34.093797)" d="M 0 0 L 0 -10.03 L .083 -10.03 L 6.826 -3.036 L 6.912 -3.036 L 6.912 -46.787 L 16.521 -46.787 L 16.521 10.371 L 8.848 10.371 Z " fill="#ffffff"/>
<clipPath id="cp0">
<path transform="matrix(1,0,0,-1,0,283.46)" d="M 0 283.46 L 283.46 283.46 L 283.46 0 L 0 0 Z "/>
</clipPath>
<g clip-path="url(#cp0)">
<path transform="matrix(1,0,0,-1,60.1216,41.852098)" d="M 0 0 C -3.791 0 -6.57 -1.345 -8.093 -3.96 L -8.179 -3.96 L -8.179 10.289 L 8.346 10.289 L 8.346 18.125 L -16.941 18.125 L -16.941 -14.078 L -8.179 -14.078 L -8.179 -12.809 C -8.179 -9.44 -6.661 -7.586 -3.963 -7.586 C -1.012 -7.586 .173 -9.609 .173 -12.729 L .173 -26.553 C .173 -29.586 -.925 -31.693 -3.877 -31.693 C -7.162 -31.693 -8.339 -29.503 -8.339 -26.131 L -8.339 -18.967 L -17.113 -18.967 L -17.113 -25.459 C -17.113 -34.141 -13.655 -39.702 -3.877 -39.702 C 5.818 -39.702 9.778 -34.559 9.778 -26.636 L 9.778 -12.644 C 9.778 -3.623 5.144 0 0 0 " fill="#ffffff"/>
<path transform="matrix(1,0,0,-1,117.3838,191.6592)" d="M 0 0 C .345 0 .624 -.281 .624 -.627 L .624 -21.268 C .624 -21.618 .345 -21.896 0 -21.896 L -8.354 -21.896 C -8.701 -21.896 -8.982 -21.618 -8.982 -21.268 L -8.982 -.627 C -8.982 -.281 -8.701 0 -8.354 0 Z " fill="#ffffff"/>
<path transform="matrix(1,0,0,-1,209.1143,222.41699)" d="M 0 0 L -137.652 0 C -137.996 0 -138.281 -.296 -138.281 -.646 L -138.281 -9.059 C -138.281 -9.402 -137.996 -9.68 -137.652 -9.68 L 0 -9.68 C .337 -9.68 .63 -9.402 .63 -9.059 L .63 -.646 C .63 -.296 .337 0 0 0 " fill="#ffffff"/>
<path transform="matrix(1,0,0,-1,209.1143,239.1397)" d="M 0 0 L -137.652 0 C -137.996 0 -138.281 -.276 -138.281 -.619 L -138.281 -9.059 C -138.281 -9.396 -137.996 -9.68 -137.652 -9.68 L 0 -9.68 C .337 -9.68 .63 -9.396 .63 -9.059 L .63 -.619 C .63 -.276 .337 0 0 0 " fill="#ffffff"/>
<path transform="matrix(1,0,0,-1,182.9209,168.8096)" d="M 0 0 C -1.723 1.345 -6.31 4.486 -11.907 4.486 C -15.909 4.486 -19.633 2.91 -22.962 -.212 C -23.197 -.436 -23.33 -.743 -23.33 -1.075 L -23.33 -1.825 C -23.33 -2.193 -23.208 -2.539 -22.936 -2.767 C -22.64 -2.992 -22.325 -3.078 -21.969 -2.992 C -21.889 -2.981 -21.79 -2.956 -21.709 -2.927 C -21.456 -2.837 -21.216 -2.684 -21.023 -2.489 C -20.297 -2.005 -18.327 -1.342 -15.508 -1.342 C -12.591 -1.342 -6.862 -2.123 -1.325 -7.285 L -1.199 -7.4 C -.886 -7.721 -.456 -7.897 0 -7.897 C .434 -7.897 .882 -7.718 1.164 -7.411 L 1.278 -7.296 C 6.845 -2.123 12.564 -1.342 15.479 -1.342 C 18.318 -1.342 20.283 -2.005 21.007 -2.489 C 21.205 -2.684 21.447 -2.841 21.766 -2.956 C 21.89 -2.992 22.24 -3.064 22.574 -2.981 C 23.083 -2.837 23.441 -2.378 23.441 -1.847 L 23.441 -1.183 C 23.441 -.867 23.304 -.551 23.073 -.331 C 19.708 2.872 15.948 4.493 11.883 4.493 C 6.339 4.493 1.769 1.399 0 0 " fill="#ffffff"/>
<path transform="matrix(1,0,0,-1,174.3779,113.94969)" d="M 0 0 C -.292 -.134 -.504 -.402 -.601 -.724 L -.739 -1.184 C -.841 -1.545 -.775 -1.927 -.559 -2.217 C -.346 -2.497 -.043 -2.666 .293 -2.68 C .356 -2.688 .418 -2.704 .467 -2.688 C .704 -2.68 .921 -2.628 1.13 -2.519 C 1.253 -2.494 1.505 -2.425 1.965 -2.425 C 2.58 -2.425 8.13 -2.611 11.799 -8.849 L 11.848 -8.937 C 12.045 -9.298 12.356 -9.547 12.728 -9.644 C 12.833 -9.676 13.038 -9.71 13.165 -9.71 C 13.42 -9.71 13.678 -9.644 13.858 -9.54 L 13.949 -9.495 C 15.959 -8.49 18.036 -7.975 20.091 -7.975 C 23.567 -7.975 25.838 -9.394 26.367 -9.985 C 26.476 -10.186 26.641 -10.36 26.827 -10.498 C 26.945 -10.567 27.152 -10.67 27.274 -10.715 C 27.34 -10.729 27.412 -10.737 27.48 -10.742 C 27.517 -10.751 27.563 -10.751 27.603 -10.751 C 27.79 -10.751 27.971 -10.703 28.148 -10.613 C 28.43 -10.471 28.642 -10.214 28.732 -9.908 L 28.848 -9.502 C 28.884 -9.399 28.895 -9.285 28.895 -9.167 C 28.895 -8.953 28.841 -8.745 28.736 -8.577 C 26.063 -3.934 22.184 -2.966 19.399 -2.966 C 17.326 -2.966 15.515 -3.502 14.444 -3.895 C 13.183 -2.2 9.996 1.308 5.162 1.308 C 3.461 1.308 1.729 .871 0 0 " fill="#ffffff"/>
<path transform="matrix(1,0,0,-1,145.293,135.12549)" d="M 0 0 L .039 -.621 C .059 -1.006 .26 -1.342 .59 -1.548 C .861 -1.719 1.209 -1.778 1.516 -1.688 C 1.581 -1.672 1.656 -1.647 1.718 -1.625 C 1.952 -1.527 2.155 -1.376 2.31 -1.185 C 2.895 -.764 4.782 .007 7.562 .007 C 10.233 .007 14.302 -.707 18.445 -4.109 L 18.542 -4.209 C 18.838 -4.464 19.216 -4.608 19.604 -4.608 L 19.705 -4.608 C 20.139 -4.575 20.539 -4.376 20.785 -4.089 L 20.878 -3.985 C 25.466 .869 30.408 1.592 32.945 1.592 C 34.753 1.592 36.035 1.218 36.533 .936 C 36.725 .772 36.955 .644 37.247 .564 C 37.33 .546 37.533 .508 37.753 .532 C 37.843 .542 37.954 .571 38.042 .601 C 38.534 .772 38.857 1.253 38.823 1.784 L 38.792 2.322 C 38.771 2.645 38.622 2.932 38.378 3.142 C 35.638 5.444 32.686 6.607 29.573 6.607 C 24.731 6.607 20.871 3.747 19.268 2.343 C 17.806 3.341 14.253 5.394 10.085 5.394 C 6.421 5.394 3.139 3.871 .321 .881 C .098 .644 -.014 .322 0 0 " fill="#ffffff"/>
<path transform="matrix(1,0,0,-1,75.6343,146.1758)" d="M 0 0 C 0 8.243 6.683 14.922 14.923 14.922 C 15.246 14.922 15.561 14.895 15.88 14.875 C 16.666 25.306 25.357 33.534 35.993 33.534 C 47.145 33.534 56.187 24.494 56.187 13.342 C 56.187 10.183 55.437 7.208 54.143 4.542 C 64.25 2.306 71.814 -6.694 71.814 -17.469 C 71.814 -29.93 61.711 -40.034 49.25 -40.034 C 48.339 -40.034 19.136 -39.857 19.136 -39.857 C 10.31 -39.855 3.158 -32.706 3.158 -23.882 C 3.158 -19.641 4.819 -15.804 7.515 -12.942 C 3.029 -10.369 0 -5.544 0 0 " fill="#ffffff"/>
<path transform="matrix(1,0,0,-1,0,283.46)" d="M 91.411 263.808 L 95.288 263.808 L 95.288 260.777 L 91.411 260.777 Z M 91.87 239.317 L 97.965 239.317 L 97.965 236.04 L 87.676 236.04 L 87.676 239.317 L 93.983 256.653 L 88.311 256.653 L 88.311 259.93 L 98.212 259.93 L 98.212 256.653 Z " fill="#ffffff"/>
<path transform="matrix(1,0,0,-1,108.1455,38.32869)" d="M 0 0 L 0 -9.092 L -4.017 -9.092 L -4.017 0 L -8.492 14.799 L -4.299 14.799 L -1.867 5.744 L -1.832 5.744 L .6 14.799 L 4.439 14.799 Z " fill="#ffffff"/>
<path transform="matrix(1,0,0,-1,114.2041,41.253496)" d="M 0 0 L 0 11.558 C 0 15.293 1.763 18.006 5.99 18.006 C 10.431 18.006 11.664 15.539 11.664 12.016 L 11.664 9.196 L 7.999 9.196 L 7.999 12.333 C 7.999 13.813 7.506 14.658 6.062 14.658 C 4.616 14.658 4.018 13.636 4.018 12.191 L 4.018 -.635 C 4.018 -2.08 4.616 -3.102 6.062 -3.102 C 7.506 -3.102 7.999 -2.185 7.999 -.775 L 7.999 3.63 L 11.664 3.63 L 11.664 -.494 C 11.664 -3.912 10.254 -6.449 5.99 -6.449 C 1.763 -6.449 0 -3.7 0 0 " fill="#ffffff"/>
<path transform="matrix(1,0,0,-1,0,283.46)" d="M 128.049 259.93 L 132.067 259.93 L 132.067 236.03899 L 128.049 236.03899 Z " fill="#ffffff"/>
<path transform="matrix(1,0,0,-1,134.3896,23.529786)" d="M 0 0 L 9.585 0 L 9.585 -3.277 L 4.018 -3.277 L 4.018 -10.113 L 7.999 -10.113 L 7.999 -13.354 L 4.018 -13.354 L 4.018 -20.613 L 9.585 -20.613 L 9.585 -23.891 L 0 -23.891 Z " fill="#ffffff"/>
<path transform="matrix(1,0,0,-1,91.3408,65.87799)" d="M 0 0 L 0 -15.01 L -3.383 -15.01 L -3.383 8.879 L .564 8.879 L 4.898 -4.827 L 4.898 8.879 L 8.246 8.879 L 8.246 -15.01 L 4.722 -15.01 Z " fill="#ffffff"/>
<path transform="matrix(1,0,0,-1,106.2773,73.31299)" d="M 0 0 L 3.206 0 L 1.621 9.585 L 1.586 9.585 Z M -5.038 -7.575 L -.528 16.314 L 4.053 16.314 L 8.599 -7.575 L 4.476 -7.575 L 3.735 -3.207 L -.528 -3.207 L -1.233 -7.575 Z " fill="#ffffff"/>
<path transform="matrix(1,0,0,-1,120.2266,56.998598)" d="M 0 0 L 4.018 0 L 4.018 -20.613 L 8.81 -20.613 L 8.81 -23.89 L 0 -23.89 Z " fill="#ffffff"/>
<path transform="matrix(1,0,0,-1,135.2705,73.31299)" d="M 0 0 L 3.207 0 L 1.621 9.585 L 1.586 9.585 Z M -5.038 -7.575 L -.528 16.314 L 4.053 16.314 L 8.6 -7.575 L 8.459 -7.575 C 8.141 -7.857 7.858 -8.14 7.858 -8.422 C 7.858 -8.634 7.964 -8.738 8.317 -8.738 L 8.459 -8.738 L 8.459 -10.748 L 7.048 -10.748 C 5.428 -10.748 4.616 -10.254 4.616 -9.303 C 4.616 -8.21 6.062 -7.61 6.273 -7.575 L 4.476 -7.575 L 3.735 -3.207 L -.528 -3.207 L -1.233 -7.575 Z " fill="#ffffff"/>
<path transform="matrix(1,0,0,-1,151.2295,77.61189)" d="M 0 0 C 1.656 0 2.291 .988 2.291 2.431 L 2.291 14.94 C 2.291 16.351 1.656 17.336 0 17.336 L -1.691 17.336 L -1.691 0 Z M 6.308 14.201 L 6.308 3.136 C 6.308 -.528 4.792 -3.276 .493 -3.276 L -5.708 -3.276 L -5.708 20.613 L .493 20.613 C 4.792 20.613 6.308 17.901 6.308 14.201 " fill="#ffffff"/>
<path transform="matrix(1,0,0,-1,163.7354,77.61189)" d="M 0 0 L 6.096 0 L 6.096 -3.276 L -4.194 -3.276 L -4.194 0 L 2.114 17.336 L -3.56 17.336 L -3.56 20.613 L 6.342 20.613 L 6.342 17.336 Z " fill="#ffffff"/>
<path transform="matrix(1,0,0,-1,0,283.46)" d="M 172.188 226.461 L 176.207 226.461 L 176.207 202.571 L 172.188 202.571 Z " fill="#ffffff"/>
<path transform="matrix(1,0,0,-1,178.5293,56.998598)" d="M 0 0 L 9.585 0 L 9.585 -3.277 L 4.019 -3.277 L 4.019 -10.113 L 7.999 -10.113 L 7.999 -13.354 L 4.019 -13.354 L 4.019 -20.613 L 9.585 -20.613 L 9.585 -23.89 L 0 -23.89 Z " fill="#ffffff"/>
</g>
</g>
</g>
</svg>
