<?xml version="1.0" encoding="UTF-8" standalone="no"?>
<!DOCTYPE svg PUBLIC "-//W3C//DTD SVG 1.1//EN" "http://www.w3.org/Graphics/SVG/1.1/DTD/svg11.dtd">
<svg xmlns="http://www.w3.org/2000/svg" xmlns:xlink="http://www.w3.org/1999/xlink" version="1.1" width="283.46pt" height="283.46pt" viewBox="0 0 283.46 283.46">
<g enable-background="new">
<g id="Layer-1" data-name="Layer 1">
<path transform="matrix(1,0,0,-1,0,283.46)" d="M 0 0 L 283.46 0 L 283.46 283.46 L 0 283.46 Z " fill="#01558a"/>
<path transform="matrix(1,0,0,-1,21.8091,34.143587)" d="M 0 0 L 0 -10.031 L .086 -10.031 L 6.829 -3.035 L 6.915 -3.035 L 6.915 -46.785 L 16.524 -46.785 L 16.524 10.371 L 8.855 10.371 Z " fill="#ffffff"/>
<clipPath id="cp0">
<path transform="matrix(1,0,0,-1,0,283.46)" d="M 0 283.46 L 283.46 283.46 L 283.46 0 L 0 0 Z "/>
</clipPath>
<g clip-path="url(#cp0)">
<path transform="matrix(1,0,0,-1,62.4438,68.031787)" d="M 0 0 C 0 -3.625 -1.349 -5.732 -4.634 -5.732 C -7.837 -5.732 -9.1 -3.542 -9.1 0 L -9.1 10.452 C -8.935 13.655 -7.586 15.68 -4.548 15.68 C -1.266 15.68 0 13.655 0 9.944 Z M 9.527 .841 L 9.527 9.271 C 9.527 18.628 5.818 23.352 -1.094 23.352 C -5.144 23.352 -7.586 21.497 -9.017 18.714 L -9.1 18.714 L -9.1 31.022 C -9.1 34.48 -8.009 36.924 -4.548 36.924 C -1.094 36.924 -.083 34.901 -.083 31.363 L -.083 27.561 L 8.684 27.561 L 8.684 30.601 C 8.684 39.032 5.906 44.93 -4.72 44.93 C -14.835 44.93 -18.63 38.44 -18.63 29.503 L -18.63 1.686 C -18.63 -7.165 -14.749 -13.573 -4.634 -13.573 C 5.563 -13.573 9.527 -8.01 9.527 .841 " fill="#ffffff"/>
<path transform="matrix(1,0,0,-1,191.1865,125.241687)" d="M 0 0 C 0 0 -2.68 -3.563 -1.902 -7.03 C -1.116 -10.5 2.841 -12.565 2.841 -12.565 C 2.841 -12.565 5.522 -9.003 4.739 -5.535 C 3.957 -2.063 0 0 0 0 " fill="#ffffff"/>
<path transform="matrix(1,0,0,-1,186.8174,145.5772)" d="M 0 0 C 0 0 2.684 3.564 1.901 7.034 C 1.115 10.504 -2.838 12.564 -2.838 12.564 C -2.838 12.564 -5.521 9.006 -4.742 5.535 C -3.956 2.067 0 0 0 0 " fill="#ffffff"/>
<path transform="matrix(1,0,0,-1,197.8369,141.76419)" d="M 0 0 C 0 0 2.834 -2.853 6.058 -2.568 C 9.282 -2.282 11.67 1.037 11.67 1.037 C 11.67 1.037 8.844 3.892 5.617 3.607 C 2.394 3.32 0 0 0 0 " fill="#ffffff"/>
<path transform="matrix(1,0,0,-1,202.4766,126.50929)" d="M 0 0 C -2.623 -2.664 -2.253 -7.373 -2.253 -7.373 C -2.253 -7.373 2.37 -7.773 5.001 -5.116 C 7.624 -2.456 7.254 2.256 7.254 2.256 C 7.254 2.256 2.627 2.656 0 0 " fill="#ffffff"/>
<path transform="matrix(1,0,0,-1,196.6885,152.34769)" d="M 0 0 C 3.213 -.382 6.233 2.377 6.233 2.377 C 6.233 2.377 4.046 5.752 .838 6.131 C -2.38 6.509 -5.4 3.75 -5.4 3.75 C -5.4 3.75 -3.214 .378 0 0 " fill="#ffffff"/>
<path transform="matrix(1,0,0,-1,199.5596,204.00299)" d="M 0 0 L -24.019 0 C -25.896 0 -27.419 -1.516 -27.419 -3.394 C -27.419 -5.272 -25.896 -6.793 -24.019 -6.793 L 0 -6.793 C 1.875 -6.793 3.396 -5.272 3.396 -3.394 C 3.396 -1.516 1.875 0 0 0 " fill="#ffffff"/>
<path transform="matrix(1,0,0,-1,199.5596,241.4522)" d="M 0 0 L -24.019 0 C -25.896 0 -27.419 -1.519 -27.419 -3.396 C -27.419 -5.272 -25.896 -6.795 -24.019 -6.795 L 0 -6.795 C 1.875 -6.795 3.396 -5.272 3.396 -3.396 C 3.396 -1.519 1.875 0 0 0 " fill="#ffffff"/>
<path transform="matrix(1,0,0,-1,91.5498,195.75389)" d="M 0 0 C -.565 .173 -1.125 .328 -1.667 .43 C -1.667 .43 -1.053 .237 0 0 " fill="#ffffff"/>
<path transform="matrix(1,0,0,-1,130.4736,210.45319)" d="M 0 0 C 1.581 -.026 3.17 .021 4.762 .129 L 4.762 -12.419 L 0 -12.311 Z M 68.199 -2.717 L 45.945 -2.717 C 44.877 -2.717 44.012 -3.584 44.012 -4.648 L 44.012 -11.389 L 29.484 -12.986 L 8.259 -12.5 L 8.259 .464 C 11.08 .823 13.901 1.386 16.703 2.178 C 37.136 7.941 41.591 20.666 41.144 32.355 C 40.7 44.256 44.509 48.878 49.982 50.934 C 51.55 51.521 53.1 51.896 54.519 52.136 C 54.581 49.212 55.173 45.814 56.479 41.765 C 56.965 41.79 57.448 41.832 57.928 41.885 C 56.547 46.025 55.959 49.434 55.926 52.339 C 58.754 52.675 60.771 52.485 60.771 52.485 C 60.771 52.485 58.86 53.512 56.16 55.769 C 57.078 61.406 60.435 64.865 63.894 68.404 C 65.797 70.353 67.763 72.364 69.31 74.761 L 68.104 75.539 C 66.64 73.261 64.718 71.304 62.865 69.408 C 59.492 65.958 56.088 62.428 54.934 56.834 C 53.836 57.824 52.65 58.994 51.438 60.355 C 46.399 66.004 39.914 61.855 30.666 53.244 C 21.411 44.638 9.777 44.342 -1.588 55.969 C -16.58 71.318 -29.657 71.23 -38.626 70.36 C -32.491 67.747 -30.347 62.014 -27.24 47.441 C -23.985 32.152 -15.778 25.235 -4.55 24.28 C -9.756 23.436 -11.104 22.713 -19.47 16.937 C -26.005 12.427 -35.197 13.853 -38.924 14.699 C -32.082 12.565 -23.98 5.389 -16.729 2.893 C -12.51 1.441 -8.058 .541 -3.499 .18 L -3.499 -12.231 L -43.758 -11.362 L -43.758 -20.021 L 29.484 -18.396 L 44.012 -19.996 L 44.012 -26.728 C 44.012 -27.796 44.877 -28.666 45.945 -28.666 L 68.199 -28.666 C 69.27 -28.666 70.137 -27.796 70.137 -26.728 L 70.137 -4.648 C 70.137 -3.584 69.27 -2.717 68.199 -2.717 " fill="#ffffff"/>
<path transform="matrix(1,0,0,-1,84.6387,229.04199)" d="M 0 0 C 0 -1.825 -1.273 -3.307 -2.844 -3.307 L -4.556 -3.307 C -6.123 -3.307 -7.399 -1.825 -7.399 0 L -7.399 5.984 C -7.399 7.813 -6.123 9.291 -4.556 9.291 L -2.844 9.291 C -1.273 9.291 0 7.813 0 5.984 Z " fill="#ffffff"/>
<path transform="matrix(1,0,0,-1,93.54,26.80719)" d="M 0 0 L 0 -9.408 L 1.481 -9.408 C 2.855 -9.408 3.454 -8.738 3.454 -7.435 L 3.454 -1.937 C 3.454 -.633 2.855 0 1.481 0 Z M -4.017 3.277 L 1.939 3.277 C 5.992 3.277 7.472 1.27 7.472 -2.078 L 7.472 -7.116 C 7.472 -10.466 5.992 -12.509 1.939 -12.509 L 0 -12.509 L 0 -20.613 L -4.017 -20.613 Z " fill="#ffffff"/>
<path transform="matrix(1,0,0,-1,111.2256,41.8882)" d="M 0 0 L 0 12.826 C 0 14.271 -.635 15.293 -2.079 15.293 C -3.488 15.293 -4.123 14.271 -4.123 12.826 L -4.123 0 C -4.123 -1.445 -3.488 -2.467 -2.079 -2.467 C -.635 -2.467 0 -1.445 0 0 M -8.14 .635 L -8.14 12.193 C -8.14 15.928 -6.308 18.641 -2.079 18.641 C 2.185 18.641 4.017 15.928 4.017 12.193 L 4.017 .635 C 4.017 -3.065 2.185 -5.814 -2.079 -5.814 C -6.308 -5.814 -8.14 -3.065 -8.14 .635 " fill="#ffffff"/>
<path transform="matrix(1,0,0,-1,121.5459,35.79149)" d="M 0 0 L 0 -11.629 L -4.018 -11.629 L -4.018 12.262 L 0 12.262 L 0 1.761 L 4.369 12.262 L 8.316 12.262 L 3.665 1.516 L 8.422 -11.629 L 4.193 -11.629 Z " fill="#ffffff"/>
<path transform="matrix(1,0,0,-1,139.6221,41.8882)" d="M 0 0 L 0 12.826 C 0 14.271 -.635 15.293 -2.08 15.293 C -3.489 15.293 -4.124 14.271 -4.124 12.826 L -4.124 0 C -4.124 -1.445 -3.489 -2.467 -2.08 -2.467 C -.635 -2.467 0 -1.445 0 0 M 1.197 20.051 L -5.109 19.241 L -5.109 21.496 L 1.197 22.834 Z M -8.141 .635 L -8.141 12.193 C -8.141 15.928 -6.309 18.641 -2.08 18.641 C 2.185 18.641 4.017 15.928 4.017 12.193 L 4.017 .635 C 4.017 -3.065 2.185 -5.814 -2.08 -5.814 C -6.309 -5.814 -8.141 -3.065 -8.141 .635 " fill="#ffffff"/>
<path transform="matrix(1,0,0,-1,156.6016,23.529786)" d="M 0 0 L 0 -18.463 C 0 -21.917 -1.516 -24.173 -5.532 -24.173 C -9.689 -24.173 -10.818 -21.881 -10.818 -18.852 L -10.818 -14.094 L -7.013 -14.094 L -7.013 -18.922 C -7.013 -20.12 -6.59 -20.825 -5.532 -20.825 C -4.439 -20.825 -4.017 -20.12 -4.017 -18.886 L -4.017 0 Z " fill="#ffffff"/>
<path transform="matrix(1,0,0,-1,162.9766,43.89749)" d="M 0 0 L -2.043 -5.391 L -4.299 -5.391 L -3.807 .318 L 0 .318 Z " fill="#ffffff"/>
<path transform="matrix(1,0,0,-1,89.3125,75.7437)" d="M 0 0 L 0 3.207 L 3.736 3.207 L 3.736 -.071 C 3.736 -1.411 4.335 -2.185 5.709 -2.185 C 6.977 -2.185 7.541 -1.34 7.541 -.071 L 7.541 .845 C 7.541 2.219 6.977 3.065 5.743 4.228 L 3.383 6.588 C 1.092 8.844 .036 10.218 .036 12.967 L .036 13.777 C .036 16.738 1.761 19.027 5.673 19.027 C 9.689 19.027 11.275 17.054 11.275 13.602 L 11.275 11.663 L 7.611 11.663 L 7.611 13.743 C 7.611 15.117 6.977 15.786 5.709 15.786 C 4.58 15.786 3.807 15.151 3.807 13.813 L 3.807 13.319 C 3.807 11.979 4.546 11.206 5.709 10.077 L 8.28 7.54 C 10.466 5.32 11.523 3.98 11.523 1.338 L 11.523 .175 C 11.523 -3.102 9.76 -5.428 5.673 -5.428 C 1.586 -5.428 0 -3.136 0 0 " fill="#ffffff"/>
<path transform="matrix(1,0,0,-1,106.9629,60.27539)" d="M 0 0 L 0 -9.408 L 1.481 -9.408 C 2.855 -9.408 3.454 -8.739 3.454 -7.435 L 3.454 -1.937 C 3.454 -.633 2.855 0 1.481 0 Z M -4.017 3.277 L 1.939 3.277 C 5.992 3.277 7.472 1.27 7.472 -2.078 L 7.472 -7.117 C 7.472 -10.466 5.992 -12.51 1.939 -12.51 L 0 -12.51 L 0 -20.614 L -4.017 -20.614 Z " fill="#ffffff"/>
<path transform="matrix(1,0,0,-1,120.5254,60.27539)" d="M 0 0 L 0 -7.435 L 1.34 -7.435 C 2.715 -7.435 3.313 -6.729 3.313 -5.462 L 3.313 -1.937 C 3.313 -.633 2.715 0 1.34 0 Z M 0 -9.654 L 0 -20.614 L -4.017 -20.614 L -4.017 3.277 L 1.834 3.277 C 5.885 3.277 7.366 1.27 7.366 -2.078 L 7.366 -5.144 C 7.366 -7.717 6.449 -9.232 4.158 -9.761 L 7.999 -20.614 L 3.771 -20.614 Z " fill="#ffffff"/>
<path transform="matrix(1,0,0,-1,134.4795,73.31299)" d="M 0 0 L 3.207 0 L 1.621 9.585 L 1.585 9.585 Z M -5.04 -7.576 L -.529 16.314 L 4.052 16.314 L 8.598 -7.576 L 4.475 -7.576 L 3.735 -3.207 L -.529 -3.207 L -1.233 -7.576 Z " fill="#ffffff"/>
<path transform="matrix(1,0,0,-1,153.3975,66.12459)" d="M 0 0 L -2.256 -14.765 L -6.026 -14.765 L -9.232 9.126 L -5.355 9.126 L -3.489 -6.026 L -3.453 -6.026 L -1.445 9.126 L 1.832 9.126 L 4.053 -6.026 L 4.087 -6.026 L 5.921 9.126 L 9.303 9.126 L 6.203 -14.765 L 2.396 -14.765 L .036 0 Z " fill="#ffffff"/>
<path transform="matrix(1,0,0,-1,0,283.46)" d="M 164.422 226.461 L 168.439 226.461 L 168.439 202.56999 L 164.422 202.56999 Z " fill="#ffffff"/>
<path transform="matrix(1,0,0,-1,170.7627,56.998598)" d="M 0 0 L 9.585 0 L 9.585 -3.277 L 4.017 -3.277 L 4.017 -10.113 L 7.999 -10.113 L 7.999 -13.354 L 4.017 -13.354 L 4.017 -20.613 L 9.585 -20.613 L 9.585 -23.891 L 0 -23.891 Z " fill="#ffffff"/>
<path transform="matrix(1,0,0,-1,188.2021,77.61189)" d="M 0 0 C 1.655 0 2.29 .987 2.29 2.431 L 2.29 14.94 C 2.29 16.351 1.655 17.336 0 17.336 L -1.692 17.336 L -1.692 0 Z M 6.307 14.2 L 6.307 3.136 C 6.307 -.528 4.791 -3.277 .492 -3.277 L -5.709 -3.277 L -5.709 20.613 L .492 20.613 C 4.791 20.613 6.307 17.9 6.307 14.2 " fill="#ffffff"/>
<path transform="matrix(1,0,0,-1,196.7979,56.998598)" d="M 0 0 L 4.018 0 L 4.018 -20.613 L 8.81 -20.613 L 8.81 -23.891 L 0 -23.891 Z " fill="#ffffff"/>
<path transform="matrix(1,0,0,-1,0,283.46)" d="M 207.438 226.461 L 211.455 226.461 L 211.455 202.56999 L 207.438 202.56999 Z " fill="#ffffff"/>
<path transform="matrix(1,0,0,-1,222.4463,66.12459)" d="M 0 0 L -2.255 -14.765 L -6.025 -14.765 L -9.232 9.126 L -5.354 9.126 L -3.488 -6.026 L -3.452 -6.026 L -1.444 9.126 L 1.832 9.126 L 4.053 -6.026 L 4.088 -6.026 L 5.922 9.126 L 9.304 9.126 L 6.203 -14.765 L 2.396 -14.765 L .036 0 Z " fill="#ffffff"/>
<path transform="matrix(1,0,0,-1,241.6113,75.356998)" d="M 0 0 L 0 12.826 C 0 14.271 -.635 15.293 -2.079 15.293 C -3.488 15.293 -4.123 14.271 -4.123 12.826 L -4.123 0 C -4.123 -1.445 -3.488 -2.467 -2.079 -2.467 C -.635 -2.467 0 -1.445 0 0 M -8.14 .635 L -8.14 12.193 C -8.14 15.928 -6.308 18.641 -2.079 18.641 C 2.185 18.641 4.017 15.928 4.017 12.193 L 4.017 .635 C 4.017 -3.065 2.185 -5.814 -2.079 -5.814 C -6.308 -5.814 -8.14 -3.065 -8.14 .635 " fill="#ffffff"/>
<path transform="matrix(1,0,0,-1,256.7236,55.305696)" d="M 0 0 L -6.307 -.811 L -6.307 1.445 L 0 2.783 Z M -9.021 -20.438 L -9.021 -17.231 L -5.284 -17.231 L -5.284 -20.509 C -5.284 -21.849 -4.686 -22.623 -3.312 -22.623 C -2.044 -22.623 -1.479 -21.778 -1.479 -20.509 L -1.479 -19.593 C -1.479 -18.219 -2.044 -17.373 -3.277 -16.21 L -5.637 -13.85 C -7.929 -11.594 -8.984 -10.22 -8.984 -7.471 L -8.984 -6.661 C -8.984 -3.7 -7.259 -1.411 -3.348 -1.411 C .669 -1.411 2.255 -3.384 2.255 -6.836 L 2.255 -8.775 L -1.409 -8.775 L -1.409 -6.695 C -1.409 -5.321 -2.044 -4.652 -3.312 -4.652 C -4.439 -4.652 -5.214 -5.287 -5.214 -6.625 L -5.214 -7.119 C -5.214 -8.458 -4.475 -9.232 -3.312 -10.361 L -.739 -12.898 C 1.445 -15.118 2.503 -16.458 2.503 -19.1 L 2.503 -20.263 C 2.503 -23.54 .74 -25.866 -3.348 -25.866 C -7.435 -25.866 -9.021 -23.574 -9.021 -20.438 " fill="#ffffff"/>
<path transform="matrix(1,0,0,-1,270.5371,55.305696)" d="M 0 0 L -6.308 -.811 L -6.308 1.445 L 0 2.783 Z M -9.198 -19.417 L -9.198 -7.858 C -9.198 -4.124 -7.437 -1.411 -3.208 -1.411 C 1.231 -1.411 2.465 -3.877 2.465 -7.4 L 2.465 -10.22 L -1.199 -10.22 L -1.199 -7.084 C -1.199 -5.603 -1.692 -4.758 -3.138 -4.758 C -4.581 -4.758 -5.182 -5.78 -5.182 -7.225 L -5.182 -20.051 C -5.182 -21.496 -4.581 -22.518 -3.138 -22.518 C -1.692 -22.518 -1.199 -21.601 -1.199 -20.192 L -1.199 -15.787 L 2.465 -15.787 L 2.465 -19.91 C 2.465 -23.328 1.057 -25.866 -3.208 -25.866 C -7.437 -25.866 -9.198 -23.117 -9.198 -19.417 " fill="#ffffff"/>
<path transform="matrix(1,0,0,-1,0,283.46)" d="M 89.523 192.993 L 93.54 192.993 L 93.54 169.10199 L 89.523 169.10199 Z " fill="#ffffff"/>
<path transform="matrix(1,0,0,-1,98.8594,109.21239)" d="M 0 0 L 0 3.207 L 3.736 3.207 L 3.736 -.07 C 3.736 -1.41 4.335 -2.185 5.709 -2.185 C 6.978 -2.185 7.541 -1.34 7.541 -.07 L 7.541 .845 C 7.541 2.219 6.978 3.065 5.744 4.229 L 3.384 6.589 C 1.092 8.844 .036 10.218 .036 12.967 L .036 13.777 C .036 16.738 1.762 19.027 5.673 19.027 C 9.689 19.027 11.276 17.055 11.276 13.602 L 11.276 11.663 L 7.612 11.663 L 7.612 13.743 C 7.612 15.117 6.978 15.786 5.709 15.786 C 4.581 15.786 3.807 15.151 3.807 13.813 L 3.807 13.319 C 3.807 11.979 4.547 11.206 5.709 10.077 L 8.281 7.54 C 10.466 5.32 11.523 3.98 11.523 1.339 L 11.523 .176 C 11.523 -3.102 9.761 -5.427 5.673 -5.427 C 1.586 -5.427 0 -3.136 0 0 " fill="#ffffff"/>
<path transform="matrix(1,0,0,-1,0,283.46)" d="M 112.248 192.993 L 116.265 192.993 L 116.265 169.10199 L 112.248 169.10199 Z " fill="#ffffff"/>
<path transform="matrix(1,0,0,-1,118.3408,90.467288)" d="M 0 0 L 4.017 0 L 4.017 -20.613 L 8.81 -20.613 L 8.81 -23.891 L 0 -23.891 Z " fill="#ffffff"/>
<path transform="matrix(1,0,0,-1,132.1182,99.3472)" d="M 0 0 L 0 -15.011 L -3.384 -15.011 L -3.384 8.88 L .563 8.88 L 4.897 -4.826 L 4.897 8.88 L 8.245 8.88 L 8.245 -15.011 L 4.722 -15.011 Z " fill="#ffffff"/>
<path transform="matrix(1,0,0,-1,142.4033,90.467288)" d="M 0 0 L 9.585 0 L 9.585 -3.276 L 4.017 -3.276 L 4.017 -10.113 L 7.999 -10.113 L 7.999 -13.354 L 4.017 -13.354 L 4.017 -20.613 L 9.585 -20.613 L 9.585 -23.891 L 0 -23.891 Z " fill="#ffffff"/>
<path transform="matrix(1,0,0,-1,0,283.46)" d="M 157.34 192.993 L 161.357 192.993 L 161.357 169.10199 L 157.34 169.10199 Z " fill="#ffffff"/>
<path transform="matrix(1,0,0,-1,166.8184,99.3472)" d="M 0 0 L 0 -15.011 L -3.384 -15.011 L -3.384 8.88 L .563 8.88 L 4.897 -4.826 L 4.897 8.88 L 8.245 8.88 L 8.245 -15.011 L 4.722 -15.011 Z " fill="#ffffff"/>
<path transform="matrix(1,0,0,-1,176.8896,109.21239)" d="M 0 0 L 0 3.207 L 3.736 3.207 L 3.736 -.07 C 3.736 -1.41 4.335 -2.185 5.71 -2.185 C 6.978 -2.185 7.542 -1.34 7.542 -.07 L 7.542 .845 C 7.542 2.219 6.978 3.065 5.744 4.229 L 3.384 6.589 C 1.093 8.844 .036 10.218 .036 12.967 L .036 13.777 C .036 16.738 1.762 19.027 5.674 19.027 C 9.69 19.027 11.276 17.055 11.276 13.602 L 11.276 11.663 L 7.612 11.663 L 7.612 13.743 C 7.612 15.117 6.978 15.786 5.71 15.786 C 4.581 15.786 3.808 15.151 3.808 13.813 L 3.808 13.319 C 3.808 11.979 4.547 11.206 5.71 10.077 L 8.281 7.54 C 10.466 5.32 11.524 3.98 11.524 1.339 L 11.524 .176 C 11.524 -3.102 9.761 -5.427 5.674 -5.427 C 1.587 -5.427 0 -3.136 0 0 " fill="#ffffff"/>
<path transform="matrix(1,0,0,-1,189.8213,90.467288)" d="M 0 0 L 10.677 0 L 10.677 -3.276 L 7.364 -3.276 L 7.364 -23.891 L 3.312 -23.891 L 3.312 -3.276 L 0 -3.276 Z " fill="#ffffff"/>
<path transform="matrix(1,0,0,-1,209.9385,105.26619)" d="M 0 0 L 0 -9.092 L -4.018 -9.092 L -4.018 0 L -8.492 14.799 L -4.299 14.799 L -1.867 5.744 L -1.833 5.744 L .6 14.799 L 4.44 14.799 Z " fill="#ffffff"/>
<path transform="matrix(1,0,0,-1,215.292,90.467288)" d="M 0 0 L 10.678 0 L 10.678 -3.276 L 7.364 -3.276 L 7.364 -23.891 L 3.312 -23.891 L 3.312 -3.276 L 0 -3.276 Z " fill="#ffffff"/>
<path transform="matrix(1,0,0,-1,239.25,90.467288)" d="M 0 0 L 0 -18.076 C 0 -21.776 -1.585 -24.172 -5.674 -24.172 C -9.901 -24.172 -11.663 -21.776 -11.663 -18.076 L -11.663 0 L -7.646 0 L -7.646 -18.463 C -7.646 -19.873 -7.082 -20.825 -5.674 -20.825 C -4.263 -20.825 -3.698 -19.873 -3.698 -18.463 L -3.698 0 Z " fill="#ffffff"/>
<path transform="matrix(1,0,0,-1,241.292,108.190998)" d="M 0 0 L 0 11.559 C 0 15.293 1.761 18.006 5.989 18.006 C 10.43 18.006 11.663 15.539 11.663 12.017 L 11.663 9.196 L 7.999 9.196 L 7.999 12.333 C 7.999 13.813 7.505 14.658 6.06 14.658 C 4.617 14.658 4.017 13.637 4.017 12.191 L 4.017 -.635 C 4.017 -2.079 4.617 -3.102 6.06 -3.102 C 7.505 -3.102 7.999 -2.185 7.999 -.775 L 7.999 3.63 L 11.663 3.63 L 11.663 -.493 C 11.663 -3.911 10.254 -6.448 5.989 -6.448 C 1.761 -6.448 0 -3.7 0 0 " fill="#ffffff"/>
<path transform="matrix(1,0,0,-1,265.5654,90.467288)" d="M 0 0 L 0 -18.463 C 0 -21.917 -1.516 -24.172 -5.532 -24.172 C -9.689 -24.172 -10.818 -21.881 -10.818 -18.852 L -10.818 -14.094 L -7.013 -14.094 L -7.013 -18.922 C -7.013 -20.119 -6.59 -20.825 -5.532 -20.825 C -4.439 -20.825 -4.017 -20.119 -4.017 -18.886 L -4.017 0 Z " fill="#ffffff"/>
<path transform="matrix(1,0,0,-1,267.5713,90.467288)" d="M 0 0 L 9.585 0 L 9.585 -3.276 L 4.017 -3.276 L 4.017 -10.113 L 7.999 -10.113 L 7.999 -13.354 L 4.017 -13.354 L 4.017 -20.613 L 9.585 -20.613 L 9.585 -23.891 L 0 -23.891 Z " fill="#ffffff"/>
</g>
</g>
</g>
</svg>
