<?xml version="1.0" encoding="UTF-8" standalone="no"?>
<!DOCTYPE svg PUBLIC "-//W3C//DTD SVG 1.1//EN" "http://www.w3.org/Graphics/SVG/1.1/DTD/svg11.dtd">
<svg xmlns="http://www.w3.org/2000/svg" xmlns:xlink="http://www.w3.org/1999/xlink" version="1.1" width="283.46pt" height="283.46pt" viewBox="0 0 283.46 283.46">
<g enable-background="new">
<g id="Layer-1" data-name="Layer 1">
<path transform="matrix(1,0,0,-1,0,283.46)" d="M 0 0 L 283.46 0 L 283.46 283.46 L 0 283.46 Z " fill="#1a3668"/>
<path transform="matrix(1,0,0,-1,42.416,23.751984)" d="M 0 0 L 0 -57.154 L -9.609 -57.154 L -9.609 -13.402 L -9.695 -13.402 L -16.438 -20.399 L -16.521 -20.399 L -16.521 -10.37 L -7.669 0 Z " fill="#ffffff"/>
<path transform="matrix(1,0,0,-1,46.7993,23.751984)" d="M 0 0 L 24.111 0 L 24.111 -8.851 L 11.549 -57.154 L 2.02 -57.154 L 14.835 -7.837 L 0 -7.837 Z " fill="#ffffff"/>
<clipPath id="cp0">
<path transform="matrix(1,0,0,-1,0,283.46)" d="M 0 283.46 L 283.46 283.46 L 283.46 0 L 0 0 Z "/>
</clipPath>
<g clip-path="url(#cp0)">
<path transform="matrix(1,0,0,-1,168.4902,174.37599)" d="M 0 0 C 7.271 6.749 11.836 16.377 11.836 27.056 C 11.836 28.654 11.722 30.229 11.526 31.773 C 26.303 30.192 37.854 17.653 37.854 2.458 C 37.854 -6.174 34.103 -13.925 28.166 -19.325 C 22.609 -8.914 12.214 -1.467 0 0 M 25.063 -36.649 C 25.063 -52.902 11.836 -66.129 -4.424 -66.129 C -9.716 -66.129 -14.666 -64.712 -18.964 -62.263 C -12.691 -55.643 -8.824 -46.71 -8.824 -36.894 C -8.824 -34.477 -9.068 -32.115 -9.513 -29.829 C -4.211 -32.775 1.882 -34.46 8.367 -34.46 C 14.136 -34.46 19.601 -33.128 24.466 -30.754 C 24.857 -32.66 25.063 -34.632 25.063 -36.649 M -75.232 -36.894 C -75.232 -34.797 -75.009 -32.755 -74.588 -30.783 C -69.729 -33.139 -64.285 -34.46 -58.538 -34.46 C -52.073 -34.46 -45.999 -32.786 -40.709 -29.856 C -41.12 -32.059 -41.348 -34.327 -41.348 -36.649 C -41.348 -46.62 -37.359 -55.677 -30.91 -62.327 C -35.274 -64.882 -40.336 -66.375 -45.744 -66.375 C -62.008 -66.375 -75.232 -53.148 -75.232 -36.894 M -88.022 2.458 C -88.022 17.653 -76.475 30.19 -61.697 31.773 C -61.894 30.229 -62.008 28.654 -62.008 27.056 C -62.008 16.264 -57.349 6.539 -49.946 -.217 C -62.191 -1.611 -72.639 -9.012 -78.253 -19.402 C -84.232 -14.003 -88.022 -6.213 -88.022 2.458 M -25.088 56.542 C -13.005 56.542 -2.611 49.235 1.94 38.812 C -10.053 36.698 -20.066 28.779 -25.088 18.066 C -30.103 28.781 -40.119 36.7 -52.114 38.812 C -47.561 49.235 -37.167 56.542 -25.088 56.542 M -18.065 -10.531 C -13.98 -8.39 -9.35 -7.159 -4.424 -7.159 C 7.169 -7.159 17.19 -13.903 22.009 -23.656 C 17.922 -25.798 13.284 -27.028 8.367 -27.028 C -3.229 -27.028 -13.252 -20.285 -18.065 -10.531 M -32.202 -10.73 C -37.054 -20.376 -47.021 -27.028 -58.538 -27.028 C -63.42 -27.028 -68.021 -25.813 -72.081 -23.701 C -67.23 -14.056 -57.26 -7.405 -45.744 -7.405 C -40.858 -7.405 -36.263 -8.618 -32.202 -10.73 M -54.188 31.59 C -39.988 29.479 -29.048 17.238 -29.048 2.458 C -29.048 .917 -29.204 -.59 -29.435 -2.072 C -43.637 .041 -54.574 12.277 -54.574 27.056 C -54.574 28.603 -54.418 30.111 -54.188 31.59 M -24.95 -57.768 C -30.471 -52.407 -33.912 -44.926 -33.912 -36.649 C -33.912 -28.497 -30.582 -21.107 -25.222 -15.766 C -19.705 -21.126 -16.261 -28.609 -16.261 -36.894 C -16.261 -45.041 -19.586 -52.428 -24.95 -57.768 M 4.4 27.056 C 4.4 12.277 -6.536 .041 -20.739 -2.072 C -20.968 -.59 -21.121 .917 -21.121 2.458 C -21.121 17.238 -10.184 29.477 4.016 31.588 C 4.246 30.111 4.4 28.603 4.4 27.056 M 45.287 2.458 C 45.287 22.365 29.451 38.631 9.722 39.35 C 4.648 53.68 -9.038 63.975 -25.088 63.975 C -41.136 63.975 -54.818 53.68 -59.898 39.35 C -79.626 38.629 -95.456 22.363 -95.456 2.458 C -95.456 -9.354 -89.874 -19.883 -81.21 -26.645 C -82.149 -29.902 -82.667 -33.338 -82.667 -36.894 C -82.667 -57.244 -66.105 -73.809 -45.744 -73.809 C -38.019 -73.809 -30.844 -71.416 -24.907 -67.344 C -19.041 -71.268 -11.998 -73.563 -4.424 -73.563 C 15.934 -73.563 32.496 -57 32.496 -36.649 C 32.496 -33.164 32.002 -29.796 31.097 -26.604 C 39.725 -19.838 45.287 -9.329 45.287 2.458 " fill="#ffffff"/>
<path transform="matrix(1,0,0,-1,93.5176,26.805695)" d="M 0 0 L 0 -9.408 L 1.48 -9.408 C 2.855 -9.408 3.454 -8.739 3.454 -7.435 L 3.454 -1.937 C 3.454 -.633 2.855 0 1.48 0 Z M -4.017 3.277 L 1.938 3.277 C 5.991 3.277 7.471 1.27 7.471 -2.078 L 7.471 -7.117 C 7.471 -10.466 5.991 -12.509 1.938 -12.509 L 0 -12.509 L 0 -20.614 L -4.017 -20.614 Z " fill="#ffffff"/>
<path transform="matrix(1,0,0,-1,107.4688,39.843294)" d="M 0 0 L 3.206 0 L 1.62 9.585 L 1.584 9.585 Z M -5.04 -7.576 L -.53 16.315 L 4.051 16.315 L 8.598 -7.576 L 4.475 -7.576 L 3.734 -3.207 L -.53 -3.207 L -1.233 -7.576 Z " fill="#ffffff"/>
<path transform="matrix(1,0,0,-1,121.7344,26.805695)" d="M 0 0 L 0 -7.435 L 1.34 -7.435 C 2.715 -7.435 3.313 -6.729 3.313 -5.461 L 3.313 -1.937 C 3.313 -.633 2.715 0 1.34 0 Z M 0 -9.654 L 0 -20.614 L -4.017 -20.614 L -4.017 3.277 L 1.834 3.277 C 5.885 3.277 7.366 1.27 7.366 -2.078 L 7.366 -5.144 C 7.366 -7.717 6.449 -9.232 4.158 -9.761 L 7.999 -20.614 L 3.771 -20.614 Z " fill="#ffffff"/>
<path transform="matrix(1,0,0,-1,130.8262,23.528382)" d="M 0 0 L 10.678 0 L 10.678 -3.277 L 7.364 -3.277 L 7.364 -23.891 L 3.312 -23.891 L 3.312 -3.277 L 0 -3.277 Z " fill="#ffffff"/>
<path transform="matrix(1,0,0,-1,146.75,32.408189)" d="M 0 0 L 0 -15.011 L -3.384 -15.011 L -3.384 8.88 L .563 8.88 L 4.897 -4.827 L 4.897 8.88 L 8.245 8.88 L 8.245 -15.011 L 4.723 -15.011 Z " fill="#ffffff"/>
<path transform="matrix(1,0,0,-1,157.2813,23.528382)" d="M 0 0 L 9.586 0 L 9.586 -3.277 L 4.017 -3.277 L 4.017 -10.113 L 7.999 -10.113 L 7.999 -13.354 L 4.017 -13.354 L 4.017 -20.614 L 9.586 -20.614 L 9.586 -23.891 L 0 -23.891 Z " fill="#ffffff"/>
<path transform="matrix(1,0,0,-1,173.0303,26.805695)" d="M 0 0 L 0 -7.435 L 1.34 -7.435 C 2.715 -7.435 3.313 -6.729 3.313 -5.461 L 3.313 -1.937 C 3.313 -.633 2.715 0 1.34 0 Z M 0 -9.654 L 0 -20.614 L -4.017 -20.614 L -4.017 3.277 L 1.834 3.277 C 5.885 3.277 7.366 1.27 7.366 -2.078 L 7.366 -5.144 C 7.366 -7.717 6.449 -9.232 4.158 -9.761 L 7.999 -20.614 L 3.771 -20.614 Z " fill="#ffffff"/>
<path transform="matrix(1,0,0,-1,182.3662,42.273988)" d="M 0 0 L 0 3.207 L 3.736 3.207 L 3.736 -.07 C 3.736 -1.411 4.335 -2.185 5.709 -2.185 C 6.978 -2.185 7.541 -1.34 7.541 -.07 L 7.541 .845 C 7.541 2.219 6.978 3.065 5.744 4.229 L 3.384 6.588 C 1.092 8.844 .036 10.218 .036 12.967 L .036 13.777 C .036 16.738 1.762 19.027 5.673 19.027 C 9.69 19.027 11.276 17.055 11.276 13.602 L 11.276 11.663 L 7.612 11.663 L 7.612 13.743 C 7.612 15.118 6.978 15.787 5.709 15.787 C 4.581 15.787 3.807 15.152 3.807 13.813 L 3.807 13.32 C 3.807 11.979 4.547 11.206 5.709 10.077 L 8.281 7.54 C 10.466 5.321 11.523 3.98 11.523 1.338 L 11.523 .175 C 11.523 -3.102 9.761 -5.427 5.673 -5.427 C 1.586 -5.427 0 -3.136 0 0 " fill="#ffffff"/>
<path transform="matrix(1,0,0,-1,195.5449,23.528382)" d="M 0 0 L 10.678 0 L 10.678 -3.277 L 7.364 -3.277 L 7.364 -23.891 L 3.312 -23.891 L 3.312 -3.277 L 0 -3.277 Z " fill="#ffffff"/>
<path transform="matrix(1,0,0,-1,216.7539,32.654298)" d="M 0 0 L -2.256 -14.765 L -6.026 -14.765 L -9.232 9.126 L -5.355 9.126 L -3.489 -6.026 L -3.453 -6.026 L -1.445 9.126 L 1.832 9.126 L 4.053 -6.026 L 4.087 -6.026 L 5.921 9.126 L 9.303 9.126 L 6.203 -14.765 L 2.396 -14.765 L .036 0 Z " fill="#ffffff"/>
<path transform="matrix(1,0,0,-1,232.1846,39.843294)" d="M 0 0 L 3.206 0 L 1.62 9.585 L 1.584 9.585 Z M -5.041 -7.576 L -.53 16.315 L 4.051 16.315 L 8.598 -7.576 L 4.474 -7.576 L 3.734 -3.207 L -.53 -3.207 L -1.233 -7.576 Z " fill="#ffffff"/>
<path transform="matrix(1,0,0,-1,92.8848,65.87749)" d="M 0 0 L 0 -15.011 L -3.384 -15.011 L -3.384 8.88 L .563 8.88 L 4.897 -4.827 L 4.897 8.88 L 8.245 8.88 L 8.245 -15.011 L 4.722 -15.011 Z " fill="#ffffff"/>
<path transform="matrix(1,0,0,-1,107.8213,73.31209)" d="M 0 0 L 3.206 0 L 1.62 9.585 L 1.584 9.585 Z M -5.04 -7.576 L -.53 16.314 L 4.051 16.314 L 8.598 -7.576 L 4.475 -7.576 L 3.734 -3.207 L -.53 -3.207 L -1.233 -7.576 Z " fill="#ffffff"/>
<path transform="matrix(1,0,0,-1,125.7871,60.27449)" d="M 0 0 L 0 -7.435 L 1.341 -7.435 C 2.715 -7.435 3.313 -6.729 3.313 -5.462 L 3.313 -1.937 C 3.313 -.633 2.715 0 1.341 0 Z M 0 -9.654 L 0 -20.614 L -4.017 -20.614 L -4.017 3.277 L 1.834 3.277 C 5.885 3.277 7.366 1.27 7.366 -2.078 L 7.366 -5.144 C 7.366 -7.717 6.449 -9.232 4.158 -9.761 L 7.999 -20.614 L 3.771 -20.614 Z " fill="#ffffff"/>
<path transform="matrix(1,0,0,-1,139.2461,77.61139)" d="M 0 0 L 6.097 0 L 6.097 -3.277 L -4.193 -3.277 L -4.193 0 L 2.114 17.337 L -3.559 17.337 L -3.559 20.614 L 6.343 20.614 L 6.343 17.337 Z " fill="#ffffff"/>
<path transform="matrix(1,0,0,-1,147.7002,56.99759)" d="M 0 0 L 9.585 0 L 9.585 -3.277 L 4.017 -3.277 L 4.017 -10.113 L 7.999 -10.113 L 7.999 -13.354 L 4.017 -13.354 L 4.017 -20.614 L 9.585 -20.614 L 9.585 -23.891 L 0 -23.891 Z " fill="#ffffff"/>
<path transform="matrix(1,0,0,-1,159.4316,74.72119)" d="M 0 0 L 0 11.559 C 0 15.293 1.762 18.006 5.99 18.006 C 10.43 18.006 11.663 15.539 11.663 12.016 L 11.663 9.196 L 7.999 9.196 L 7.999 12.333 C 7.999 13.813 7.506 14.658 6.061 14.658 C 4.617 14.658 4.017 13.636 4.017 12.191 L 4.017 -.635 C 4.017 -2.08 4.617 -3.102 6.061 -3.102 C 7.506 -3.102 7.999 -2.185 7.999 -.776 L 7.999 3.63 L 11.663 3.63 L 11.663 -.494 C 11.663 -3.912 10.255 -6.449 5.99 -6.449 C 1.762 -6.449 0 -3.7 0 0 " fill="#ffffff"/>
<path transform="matrix(1,0,0,-1,177.1885,77.61139)" d="M 0 0 L 6.097 0 L 6.097 -3.277 L -4.194 -3.277 L -4.194 0 L 2.114 17.337 L -3.56 17.337 L -3.56 20.614 L 6.342 20.614 L 6.342 17.337 Z " fill="#ffffff"/>
<path transform="matrix(1,0,0,-1,189.3418,74.72119)" d="M 0 0 L 0 11.559 C 0 15.293 1.762 18.006 5.989 18.006 C 10.43 18.006 11.663 15.539 11.663 12.016 L 11.663 9.196 L 7.999 9.196 L 7.999 12.333 C 7.999 13.813 7.505 14.658 6.061 14.658 C 4.617 14.658 4.017 13.636 4.017 12.191 L 4.017 -.635 C 4.017 -2.08 4.617 -3.102 6.061 -3.102 C 7.505 -3.102 7.999 -2.185 7.999 -.776 L 7.999 3.63 L 11.663 3.63 L 11.663 -.494 C 11.663 -3.912 10.254 -6.449 5.989 -6.449 C 1.762 -6.449 0 -3.7 0 0 " fill="#ffffff"/>
<path transform="matrix(1,0,0,-1,203.1865,56.99759)" d="M 0 0 L 9.585 0 L 9.585 -3.277 L 4.017 -3.277 L 4.017 -10.113 L 7.999 -10.113 L 7.999 -13.354 L 4.017 -13.354 L 4.017 -20.614 L 9.585 -20.614 L 9.585 -23.891 L 0 -23.891 Z " fill="#ffffff"/>
<path transform="matrix(1,0,0,-1,214.916,56.99759)" d="M 0 0 L 4.018 0 L 4.018 -20.614 L 8.81 -20.614 L 8.81 -23.891 L 0 -23.891 Z " fill="#ffffff"/>
<path transform="matrix(1,0,0,-1,233.6963,75.35599)" d="M 0 0 L 0 12.826 C 0 14.271 -.635 15.293 -2.08 15.293 C -3.488 15.293 -4.123 14.271 -4.123 12.826 L -4.123 0 C -4.123 -1.445 -3.488 -2.467 -2.08 -2.467 C -.635 -2.467 0 -1.445 0 0 M 1.197 20.051 L -5.109 19.241 L -5.109 21.496 L 1.197 22.834 Z M -8.141 .635 L -8.141 12.193 C -8.141 15.928 -6.309 18.641 -2.08 18.641 C 2.185 18.641 4.017 15.928 4.017 12.193 L 4.017 .635 C 4.017 -3.065 2.185 -5.814 -2.08 -5.814 C -6.309 -5.814 -8.141 -3.065 -8.141 .635 " fill="#ffffff"/>
<path transform="matrix(1,0,0,-1,248.6689,66.1236)" d="M 0 0 L -2.255 -14.765 L -6.025 -14.765 L -9.232 9.126 L -5.354 9.126 L -3.488 -6.026 L -3.452 -6.026 L -1.444 9.126 L 1.832 9.126 L 4.053 -6.026 L 4.088 -6.026 L 5.922 9.126 L 9.304 9.126 L 6.203 -14.765 L 2.396 -14.765 L .036 0 Z " fill="#ffffff"/>
</g>
</g>
</g>
</svg>
