<?xml version="1.0" encoding="UTF-8" standalone="no"?>
<svg
   xmlns:dc="http://purl.org/dc/elements/1.1/"
   xmlns:cc="http://creativecommons.org/ns#"
   xmlns:rdf="http://www.w3.org/1999/02/22-rdf-syntax-ns#"
   xmlns:svg="http://www.w3.org/2000/svg"
   xmlns="http://www.w3.org/2000/svg"
   viewBox="0 0 377.94666 377.94666"
   height="377.94666"
   width="377.94666"
   xml:space="preserve"
   id="svg2"
   version="1.1"><metadata
     id="metadata8"><rdf:RDF><cc:Work
         rdf:about=""><dc:format>image/svg+xml</dc:format><dc:type
           rdf:resource="http://purl.org/dc/dcmitype/StillImage" /></cc:Work></rdf:RDF></metadata><defs
     id="defs6"><clipPath
       id="clipPath20"
       clipPathUnits="userSpaceOnUse"><path
         id="path18"
         d="M 0,283.46 H 283.46 V 0 H 0 Z" /></clipPath></defs><g
     transform="matrix(1.3333333,0,0,-1.3333333,0,377.94667)"
     id="g10"><path
       id="path12"
       style="fill:#cd9b18;fill-opacity:1;fill-rule:nonzero;stroke:none"
       d="M 0,0 H 283.46 V 283.46 H 0 Z" /><g
       id="g14"><g
         clip-path="url(#clipPath20)"
         id="g16"><g
           transform="translate(53.0137,210.3931)"
           id="g22"><path
             id="path24"
             style="fill:#ffffff;fill-opacity:1;fill-rule:nonzero;stroke:none"
             d="m 0,0 h -15.764 v 2.696 c 0,4.466 1.603,6.154 4.047,8.768 l 6.151,6.489 c 4.973,5.311 6.07,8.683 6.07,14.418 v 5.563 c 0,8.175 -3.963,12.055 -12.562,12.055 -8.426,0 -12.726,-4.468 -12.726,-12.478 v -6.908 h 8.766 v 7.164 c 0,3.452 1.686,4.468 3.712,4.468 1.849,0 3.454,-0.761 3.454,-4.301 v -4.721 c 0,-4.723 -0.424,-6.577 -3.541,-9.863 l -5.399,-5.732 c -5.22,-5.565 -7.162,-9.276 -7.162,-14.922 V -7.841 l 24.954,0 z" /></g><g
           transform="translate(113.0664,42.5918)"
           id="g26"><path
             id="path28"
             style="fill:#ffffff;fill-opacity:1;fill-rule:nonzero;stroke:none"
             d="m 0,0 v -3.986 c -0.003,-0.028 -0.014,-0.06 -0.014,-0.089 0,-0.034 0.011,-0.066 0.014,-0.095 0.041,-0.985 0.846,-1.771 1.839,-1.791 0.013,0 0.023,-0.007 0.035,-0.007 0.014,0 0.032,0.007 0.048,0.007 h 46.759 c 0.013,0 0.024,-0.007 0.039,-0.007 0.014,0 0.028,0.007 0.044,0.007 1.019,0.02 1.837,0.85 1.84,1.872 0,0.003 0.006,0.007 0.006,0.014 0,0 -0.006,0.007 -0.006,0.013 v 4.511 c 26.325,8.628 46.043,29.962 50.379,55.962 0.011,0.055 0.018,0.107 0.027,0.154 0.017,0.092 0.024,0.174 0.024,0.262 0,1.046 -0.842,1.891 -1.889,1.891 h -148.136 -0.891 c -1.052,0 -1.897,-0.845 -1.897,-1.891 l 0.099,-0.849 C -47.125,29.73 -26.864,8.277 0,0" /></g><g
           transform="translate(163.6289,164.915)"
           id="g30"><path
             id="path32"
             style="fill:#ffffff;fill-opacity:1;fill-rule:nonzero;stroke:none"
             d="m 0,0 c -0.616,-0.874 -15.011,-21.604 0.323,-38.365 7.031,-7.693 6.42,-14.481 4.411,-19.067 h 9.836 c 1.993,6.771 1.173,15.262 -6.815,23.987 C -3.544,-21.097 7.899,-4.4 8.073,-4.144 9.424,-2.239 8.697,0.216 6.477,1.361 4.245,2.501 1.355,1.892 0,0" /></g><g
           transform="translate(138.7188,107.4854)"
           id="g34"><path
             id="path36"
             style="fill:#ffffff;fill-opacity:1;fill-rule:nonzero;stroke:none"
             d="m 0,0 h 9.84 c 1.988,6.771 1.162,15.257 -6.823,23.983 -11.302,12.353 0.132,29.039 0.314,29.313 1.339,1.895 0.63,4.348 -1.602,5.496 -2.221,1.136 -5.118,0.531 -6.466,-1.362 C -5.355,56.558 -19.767,35.827 -4.418,19.064 2.613,11.37 2.002,4.581 0,0" /></g><g
           transform="translate(104.3281,164.915)"
           id="g38"><path
             id="path40"
             style="fill:#ffffff;fill-opacity:1;fill-rule:nonzero;stroke:none"
             d="m 0,0 c -0.624,-0.874 -15.021,-21.604 0.317,-38.365 7.035,-7.696 6.426,-14.484 4.423,-19.067 h 9.836 c 1.988,6.768 1.168,15.259 -6.826,23.987 C -3.552,-21.097 7.892,-4.4 8.072,-4.137 9.409,-2.239 8.696,0.216 6.466,1.361 4.243,2.508 1.35,1.896 0,0" /></g><g
           transform="translate(84.8428,239.7744)"
           id="g42"><path
             id="path44"
             style="fill:#ffffff;fill-opacity:1;fill-rule:nonzero;stroke:none"
             d="M 0,0 H 6.096 V -3.277 H -4.194 V 0 l 6.308,17.337 h -5.673 v 3.277 h 9.902 v -3.277 z" /></g><g
           transform="translate(93.2607,260.3887)"
           id="g46"><path
             id="path48"
             style="fill:#ffffff;fill-opacity:1;fill-rule:nonzero;stroke:none"
             d="M 0,0 H 9.585 V -3.277 H 4.018 v -6.836 h 3.981 v -3.242 H 4.018 v -7.259 h 5.567 v -3.278 H 0 Z" /></g><g
           transform="translate(108.9746,257.1113)"
           id="g50"><path
             id="path52"
             style="fill:#ffffff;fill-opacity:1;fill-rule:nonzero;stroke:none"
             d="m 0,0 v -7.436 h 1.339 c 1.374,0 1.974,0.706 1.974,1.975 v 3.523 C 3.313,-0.635 2.713,0 1.339,0 Z M 0,-9.655 V -20.614 H -4.018 V 3.277 h 5.85 c 4.053,0 5.532,-2.008 5.532,-5.356 v -3.066 c 0,-2.572 -0.916,-4.087 -3.206,-4.616 L 7.999,-20.614 H 3.771 Z" /></g><g
           transform="translate(126.625,242.0293)"
           id="g54"><path
             id="path56"
             style="fill:#ffffff;fill-opacity:1;fill-rule:nonzero;stroke:none"
             d="m 0,0 v 12.827 c 0,1.444 -0.634,2.467 -2.078,2.467 -1.41,0 -2.044,-1.023 -2.044,-2.467 V 0 c 0,-1.445 0.634,-2.467 2.044,-2.467 C -0.634,-2.467 0,-1.445 0,0 m -8.14,0.635 v 11.557 c 0,3.736 1.833,6.449 6.062,6.449 4.263,0 6.095,-2.713 6.095,-6.449 V 0.635 c 0,-3.7 -1.832,-6.449 -6.095,-6.449 -4.229,0 -6.062,2.749 -6.062,6.449" /></g><g
           transform="translate(86.9922,215.7852)"
           id="g58"><path
             id="path60"
             style="fill:#ffffff;fill-opacity:1;fill-rule:nonzero;stroke:none"
             d="M 0,0 H 5.709 V -12.756 H 2.818 v 2.608 c -0.527,-1.798 -1.655,-2.891 -3.839,-2.891 -3.454,0 -5.041,2.749 -5.041,6.45 V 4.968 c 0,3.735 1.798,6.449 6.027,6.449 4.439,0 5.744,-2.467 5.744,-5.991 V 3.312 H 2.044 v 2.432 c 0,1.479 -0.564,2.325 -2.009,2.325 -1.444,0 -2.079,-1.022 -2.079,-2.466 V -7.224 c 0,-1.445 0.599,-2.467 1.974,-2.467 1.303,0 1.972,0.74 1.972,2.291 v 4.228 l -1.902,0 z" /></g><g
           transform="translate(94.459,213.9873)"
           id="g62"><path
             id="path64"
             style="fill:#ffffff;fill-opacity:1;fill-rule:nonzero;stroke:none"
             d="M 0,0 1.021,0.458 V 12.933 H 5.038 V 2.326 l 3.277,1.55 V 0.986 L 5.038,-0.563 v -7.119 h 4.793 v -3.276 h -8.81 v 8.526 L 0,-2.889 Z" /></g><g
           transform="translate(114.2246,208.561)"
           id="g66"><path
             id="path68"
             style="fill:#ffffff;fill-opacity:1;fill-rule:nonzero;stroke:none"
             d="m 0,0 v 12.827 c 0,1.444 -0.634,2.466 -2.079,2.466 -1.41,0 -2.044,-1.022 -2.044,-2.466 V 0 c 0,-1.445 0.634,-2.467 2.044,-2.467 C -0.634,-2.467 0,-1.445 0,0 m -8.141,0.635 v 11.557 c 0,3.735 1.833,6.449 6.062,6.449 4.264,0 6.096,-2.714 6.096,-6.449 V 0.635 c 0,-3.7 -1.832,-6.45 -6.096,-6.45 -4.229,0 -6.062,2.75 -6.062,6.45" /></g><g
           transform="translate(126.2012,206.3057)"
           id="g70"><path
             id="path72"
             style="fill:#ffffff;fill-opacity:1;fill-rule:nonzero;stroke:none"
             d="m 0,0 c 1.656,0 2.291,0.986 2.291,2.432 v 12.509 c 0,1.41 -0.635,2.396 -2.291,2.396 H -1.69 V 0 Z M 6.309,14.201 V 3.136 c 0,-3.664 -1.516,-6.413 -5.815,-6.413 h -6.202 v 23.891 h 6.202 c 4.299,0 5.815,-2.714 5.815,-6.413" /></g><g
           transform="translate(146.4248,226.9199)"
           id="g74"><path
             id="path76"
             style="fill:#ffffff;fill-opacity:1;fill-rule:nonzero;stroke:none"
             d="m 0,0 v -18.077 c 0,-3.7 -1.586,-6.097 -5.673,-6.097 -4.228,0 -5.991,2.397 -5.991,6.097 V 0 h 4.018 v -18.465 c 0,-1.41 0.563,-2.361 1.973,-2.361 1.409,0 1.973,0.951 1.973,2.361 V 0 Z" /></g></g></g></g></svg>