<?xml version="1.0" encoding="UTF-8" standalone="no"?>
<svg
   xmlns:dc="http://purl.org/dc/elements/1.1/"
   xmlns:cc="http://creativecommons.org/ns#"
   xmlns:rdf="http://www.w3.org/1999/02/22-rdf-syntax-ns#"
   xmlns:svg="http://www.w3.org/2000/svg"
   xmlns="http://www.w3.org/2000/svg"
   viewBox="0 0 377.94666 377.94666"
   height="377.94666"
   width="377.94666"
   xml:space="preserve"
   id="svg2"
   version="1.1"><metadata
     id="metadata8"><rdf:RDF><cc:Work
         rdf:about=""><dc:format>image/svg+xml</dc:format><dc:type
           rdf:resource="http://purl.org/dc/dcmitype/StillImage" /></cc:Work></rdf:RDF></metadata><defs
     id="defs6"><clipPath
       id="clipPath20"
       clipPathUnits="userSpaceOnUse"><path
         id="path18"
         d="M 0,283.46 H 283.46 V 0 H 0 Z" /></clipPath></defs><g
     transform="matrix(1.3333333,0,0,-1.3333333,0,377.94667)"
     id="g10"><path
       id="path12"
       style="fill:#369e3e;fill-opacity:1;fill-rule:nonzero;stroke:none"
       d="M 0,0 H 283.46 V 283.46 H 0 Z" /><g
       id="g14"><g
         clip-path="url(#clipPath20)"
         id="g16"><g
           transform="translate(40.4512,201.7832)"
           id="g22"><path
             id="path24"
             style="fill:#ffffff;fill-opacity:1;fill-rule:nonzero;stroke:none"
             d="m 0,0 c 9.697,0 13.91,5.144 13.91,13.066 v 8.43 c 0,5.226 -2.276,8.599 -7.08,9.695 3.962,1.261 6.574,4.468 6.574,9.271 v 4.975 c 0,8.092 -3.877,13.065 -12.728,13.065 -9.951,0 -13.407,-5.898 -13.407,-14.328 v -5.057 h 8.768 v 5.814 c 0,3.542 1.099,5.564 4.134,5.564 3.035,0 4.125,-2.022 4.125,-5.141 v -6.155 c 0,-3.035 -2.02,-4.635 -5.138,-4.635 h -3.627 v -7.336 h 4.049 c 3.37,0 4.716,-1.6 4.716,-4.635 V 13.15 C 4.296,10.119 2.95,8.007 0,8.007 c -3.288,0 -4.469,2.195 -4.469,5.565 v 8.177 h -8.762 V 14.248 C -13.231,5.564 -9.779,0 0,0" /></g><g
           transform="translate(236.9443,106.3037)"
           id="g26"><path
             id="path28"
             style="fill:#ffffff;fill-opacity:1;fill-rule:nonzero;stroke:none"
             d="m 0,0 c 0,7.975 -5.118,14.443 -12.87,14.443 -3.876,0 -8.552,-4.246 -11.092,-6.857 -2.538,2.615 -6.902,6.864 -10.783,6.864 -7.75,0 -13.183,-6.469 -13.183,-14.447 0,-3.987 1.571,-7.601 4.114,-10.213 l 19.871,-19.909 19.843,19.887 -0.015,0.013 C -1.574,-7.604 0,-3.991 0,0" /></g><g
           transform="translate(152.3428,43.6846)"
           id="g30"><path
             id="path32"
             style="fill:#ffffff;fill-opacity:1;fill-rule:nonzero;stroke:none"
             d="M 0,0 C -0.066,0 -0.134,0.003 -0.203,0.007 -1.715,0.1 -2.96,1.22 -3.217,2.711 L -13.311,61.497 -28.599,33.148 c -0.67,-1.242 -2.069,-1.91 -3.444,-1.664 -1.389,0.248 -2.457,1.356 -2.658,2.751 l -6.491,45.369 -11.875,-26.677 c -0.525,-1.177 -1.694,-1.934 -2.981,-1.934 h -46.158 c -1.801,0 -3.262,1.46 -3.262,3.262 0,1.803 1.461,3.263 3.262,3.263 h 44.037 l 15.622,35.086 c 0.592,1.328 1.99,2.104 3.431,1.904 1.439,-0.201 2.574,-1.328 2.78,-2.768 l 6.692,-46.78 15.078,27.956 c 0.661,1.229 2.025,1.899 3.402,1.673 1.371,-0.228 2.451,-1.298 2.688,-2.67 L 0.869,17.475 34.937,130.637 c 0.388,1.29 1.527,2.207 2.867,2.313 1.345,0.098 2.611,-0.624 3.196,-1.836 L 58.926,93.952 c 0.781,-1.62 0.101,-3.571 -1.521,-4.355 -1.622,-0.782 -3.575,-0.102 -4.359,1.522 L 38.768,120.722 3.123,2.322 C 2.706,0.939 1.43,0 0,0" /></g><g
           transform="translate(84.6875,239.7739)"
           id="g34"><path
             id="path36"
             style="fill:#ffffff;fill-opacity:1;fill-rule:nonzero;stroke:none"
             d="m 0,0 c 1.657,0 2.291,0.986 2.291,2.432 v 12.509 c 0,1.411 -0.634,2.397 -2.291,2.397 H -1.69 V 0 Z M 6.309,14.202 V 3.136 c 0,-3.664 -1.516,-6.413 -5.815,-6.413 h -6.202 v 23.892 h 6.202 c 4.299,0 5.815,-2.714 5.815,-6.413" /></g><g
           transform="translate(101.4229,242.0293)"
           id="g38"><path
             id="path40"
             style="fill:#ffffff;fill-opacity:1;fill-rule:nonzero;stroke:none"
             d="m 0,0 v 12.827 c 0,1.444 -0.634,2.467 -2.079,2.467 -1.409,0 -2.043,-1.023 -2.043,-2.467 V 0 c 0,-1.445 0.634,-2.467 2.043,-2.467 C -0.634,-2.467 0,-1.445 0,0 m -8.141,0.635 v 11.557 c 0,3.736 1.833,6.45 6.062,6.45 4.264,0 6.096,-2.714 6.096,-6.45 V 0.635 c 0,-3.701 -1.832,-6.45 -6.096,-6.45 -4.229,0 -6.062,2.749 -6.062,6.45" /></g><g
           transform="translate(111.7461,247.2441)"
           id="g42"><path
             id="path44"
             style="fill:#ffffff;fill-opacity:1;fill-rule:nonzero;stroke:none"
             d="m 0,0 v -7.47 h 1.761 c 1.34,0 1.973,0.67 1.973,1.938 v 3.594 C 3.734,-0.669 3.136,0 1.726,0 Z m 0,3.066 h 1.408 c 1.305,0 1.905,0.67 1.905,1.938 v 2.925 c 0,1.304 -0.6,1.939 -1.94,1.939 L 0,9.868 Z m -4.019,10.079 h 5.816 c 4.017,0 5.355,-1.868 5.355,-5.251 V 5.463 C 7.152,3.454 6.413,2.186 4.756,1.657 6.766,1.198 7.752,-0.14 7.752,-2.325 v -3.172 c 0,-3.383 -1.516,-5.251 -5.532,-5.251 h -6.239 z" /></g><g
           transform="translate(125.5215,257.1118)"
           id="g46"><path
             id="path48"
             style="fill:#ffffff;fill-opacity:1;fill-rule:nonzero;stroke:none"
             d="m 0,0 v -7.436 h 1.338 c 1.375,0 1.974,0.706 1.974,1.974 v 3.524 C 3.312,-0.635 2.713,0 1.338,0 Z M 0,-9.656 V -20.615 H -4.019 V 3.277 h 5.851 c 4.052,0 5.532,-2.008 5.532,-5.356 v -3.067 c 0,-2.571 -0.916,-4.087 -3.207,-4.616 L 7.999,-20.615 H 3.77 Z" /></g><g
           transform="translate(135.0674,260.3892)"
           id="g50"><path
             id="path52"
             style="fill:#ffffff;fill-opacity:1;fill-rule:nonzero;stroke:none"
             d="M 0,0 H 9.586 V -3.277 H 4.019 v -6.837 H 8 v -3.241 H 4.019 v -7.26 h 5.567 v -3.278 H 0 Z" /></g><g
           transform="translate(154.4092,239.7739)"
           id="g54"><path
             id="path56"
             style="fill:#ffffff;fill-opacity:1;fill-rule:nonzero;stroke:none"
             d="M 0,0 H 6.097 V -3.277 H -4.194 V 0 l 6.31,17.338 h -5.674 v 3.277 h 9.903 v -3.277 z" /></g><g
           transform="translate(168.5742,239.7739)"
           id="g58"><path
             id="path60"
             style="fill:#ffffff;fill-opacity:1;fill-rule:nonzero;stroke:none"
             d="m 0,0 c 1.656,0 2.291,0.986 2.291,2.432 v 12.509 c 0,1.411 -0.635,2.397 -2.291,2.397 H -1.691 V 0 Z M 6.309,14.202 V 3.136 c 0,-3.664 -1.516,-6.413 -5.815,-6.413 h -6.202 v 23.892 h 6.202 c 4.299,0 5.815,-2.714 5.815,-6.413" /></g><g
           transform="translate(181.1875,257.1118)"
           id="g62"><path
             id="path64"
             style="fill:#ffffff;fill-opacity:1;fill-rule:nonzero;stroke:none"
             d="m 0,0 v -7.436 h 1.338 c 1.373,0 1.974,0.706 1.974,1.974 v 3.524 C 3.312,-0.635 2.711,0 1.338,0 Z M 0,-9.656 V -20.615 H -4.019 V 3.277 H 1.83 c 4.054,0 5.533,-2.008 5.533,-5.356 v -3.067 c 0,-2.571 -0.916,-4.087 -3.207,-4.616 L 7.999,-20.615 H 3.77 Z" /></g><g
           transform="translate(198.874,242.0293)"
           id="g66"><path
             id="path68"
             style="fill:#ffffff;fill-opacity:1;fill-rule:nonzero;stroke:none"
             d="m 0,0 v 12.827 c 0,1.444 -0.635,2.467 -2.08,2.467 -1.409,0 -2.044,-1.023 -2.044,-2.467 L -4.124,0 c 0,-1.445 0.635,-2.467 2.044,-2.467 C -0.635,-2.467 0,-1.445 0,0 m -8.141,0.635 v 11.557 c 0,3.736 1.832,6.45 6.061,6.45 4.265,0 6.097,-2.714 6.097,-6.45 V 0.635 c 0,-3.701 -1.832,-6.45 -6.097,-6.45 -4.229,0 -6.061,2.749 -6.061,6.45" /></g><g
           transform="translate(213.8477,251.2622)"
           id="g70"><path
             id="path72"
             style="fill:#ffffff;fill-opacity:1;fill-rule:nonzero;stroke:none"
             d="m 0,0 -2.256,-14.766 h -3.77 L -9.233,9.127 h 3.876 l 1.868,-15.153 h 0.036 L -1.445,9.127 H 1.832 L 4.051,-6.026 H 4.087 L 5.919,9.127 H 9.302 L 6.201,-14.766 H 2.396 L 0.034,0 Z" /></g><path
           id="path74"
           style="fill:#ffffff;fill-opacity:1;fill-rule:nonzero;stroke:none"
           d="m 224.873,260.389 h 4.017 v -23.893 h -4.017 z" /><g
           transform="translate(231.2139,260.3892)"
           id="g76"><path
             id="path78"
             style="fill:#ffffff;fill-opacity:1;fill-rule:nonzero;stroke:none"
             d="M 0,0 H 9.586 V -3.277 H 4.019 v -6.837 h 3.98 v -3.241 h -3.98 v -7.26 h 5.567 v -3.278 H 0 Z" /></g><path
           id="path80"
           style="fill:#ffffff;fill-opacity:1;fill-rule:nonzero;stroke:none"
           d="m 78.979,226.919 h 4.018 v -23.893 h -4.018 z" /><g
           transform="translate(99.6973,226.9189)"
           id="g82"><path
             id="path84"
             style="fill:#ffffff;fill-opacity:1;fill-rule:nonzero;stroke:none"
             d="m 0,0 v -18.466 c 0,-3.453 -1.516,-5.709 -5.532,-5.709 -4.159,0 -5.286,2.291 -5.286,5.322 v 4.757 h 3.805 v -4.827 c 0,-1.199 0.424,-1.904 1.481,-1.904 1.093,0 1.514,0.705 1.514,1.939 V 0 Z" /></g><g
           transform="translate(106.3545,210.6025)"
           id="g86"><path
             id="path88"
             style="fill:#ffffff;fill-opacity:1;fill-rule:nonzero;stroke:none"
             d="M 0,0 H 3.206 L 1.621,9.585 H 1.586 Z m -5.039,-7.576 4.511,23.892 H 4.053 L 8.599,-7.576 H 4.476 l -0.741,4.369 h -4.263 l -0.705,-4.369 z" /></g><g
           transform="translate(120.623,214.6558)"
           id="g90"><path
             id="path92"
             style="fill:#ffffff;fill-opacity:1;fill-rule:nonzero;stroke:none"
             d="M 0,0 V -11.629 H -4.018 V 12.263 H 0 V 1.762 L 4.37,12.263 H 8.316 L 3.664,1.515 8.422,-11.629 H 4.193 Z" /></g><g
           transform="translate(138.6973,208.5591)"
           id="g94"><path
             id="path96"
             style="fill:#ffffff;fill-opacity:1;fill-rule:nonzero;stroke:none"
             d="m 0,0 v 12.827 c 0,1.444 -0.634,2.467 -2.078,2.467 -1.41,0 -2.044,-1.023 -2.044,-2.467 V 0 c 0,-1.445 0.634,-2.467 2.044,-2.467 C -0.634,-2.467 0,-1.445 0,0 m -8.14,0.635 v 11.557 c 0,3.736 1.833,6.45 6.062,6.45 4.264,0 6.096,-2.714 6.096,-6.45 V 0.635 c 0,-3.701 -1.832,-6.45 -6.096,-6.45 -4.229,0 -6.062,2.749 -6.062,6.45" /></g><g
           transform="translate(153.8105,228.6099)"
           id="g98"><path
             id="path100"
             style="fill:#ffffff;fill-opacity:1;fill-rule:nonzero;stroke:none"
             d="M 0,0 -6.307,-0.81 V 1.445 L 0,2.784 Z m -9.021,-20.439 v 3.208 h 3.736 v -3.278 c 0,-1.339 0.598,-2.115 1.973,-2.115 1.268,0 1.833,0.847 1.833,2.115 v 0.917 c 0,1.373 -0.565,2.219 -1.796,3.383 l -2.363,2.361 c -2.289,2.255 -3.347,3.629 -3.347,6.378 v 0.81 c 0,2.961 1.727,5.251 5.637,5.251 4.019,0 5.605,-1.974 5.605,-5.427 v -1.938 h -3.664 v 2.079 c 0,1.374 -0.637,2.043 -1.905,2.043 -1.126,0 -1.902,-0.634 -1.902,-1.973 v -0.493 c 0,-1.339 0.739,-2.115 1.902,-3.241 l 2.572,-2.538 c 2.185,-2.22 3.243,-3.56 3.243,-6.203 v -1.163 c 0,-3.277 -1.762,-5.603 -5.851,-5.603 -4.088,0 -5.673,2.291 -5.673,5.427" /></g><g
           transform="translate(167.623,228.6099)"
           id="g102"><path
             id="path104"
             style="fill:#ffffff;fill-opacity:1;fill-rule:nonzero;stroke:none"
             d="M 0,0 -6.309,-0.81 V 1.445 L 0,2.784 Z m -9.198,-19.416 v 11.558 c 0,3.735 1.762,6.449 5.991,6.449 4.44,0 5.674,-2.467 5.674,-5.991 v -2.819 h -3.666 v 3.136 c 0,1.48 -0.492,2.327 -1.938,2.327 -1.444,0 -2.043,-1.023 -2.043,-2.468 v -12.827 c 0,-1.445 0.599,-2.467 2.043,-2.467 1.446,0 1.938,0.916 1.938,2.326 v 4.405 h 3.666 v -4.123 c 0,-3.418 -1.409,-5.956 -5.674,-5.956 -4.229,0 -5.991,2.749 -5.991,6.45" /></g><path
           id="path106"
           style="fill:#ffffff;fill-opacity:1;fill-rule:nonzero;stroke:none"
           d="m 179.423,230.795 h 3.877 v -3.03 h -3.877 z m 0.459,-24.491 h 6.095 v -3.278 h -10.289 v 3.278 l 6.308,17.338 h -5.674 v 3.277 h 9.903 v -3.277 z" /><g
           transform="translate(196.1572,212.1182)"
           id="g108"><path
             id="path110"
             style="fill:#ffffff;fill-opacity:1;fill-rule:nonzero;stroke:none"
             d="M 0,0 V -9.092 H -4.015 V 0 l -4.476,14.801 h 4.194 l 2.431,-9.057 h 0.036 l 2.431,9.057 h 3.841 z" /></g><g
           transform="translate(202.2168,209.1938)"
           id="g112"><path
             id="path114"
             style="fill:#ffffff;fill-opacity:1;fill-rule:nonzero;stroke:none"
             d="m 0,0 v 11.558 c 0,3.735 1.761,6.449 5.989,6.449 4.443,0 5.674,-2.467 5.674,-5.991 V 9.197 H 7.999 v 3.136 c 0,1.48 -0.492,2.327 -1.937,2.327 -1.445,0 -2.043,-1.023 -2.043,-2.468 V -0.635 c 0,-1.445 0.598,-2.467 2.043,-2.467 1.445,0 1.937,0.916 1.937,2.326 v 4.405 h 3.664 V -0.494 C 11.663,-3.912 10.254,-6.45 5.989,-6.45 1.761,-6.45 0,-3.701 0,0" /></g><path
           id="path116"
           style="fill:#ffffff;fill-opacity:1;fill-rule:nonzero;stroke:none"
           d="m 216.062,226.919 h 4.019 v -23.893 h -4.019 z" /><g
           transform="translate(226.8076,210.6025)"
           id="g118"><path
             id="path120"
             style="fill:#ffffff;fill-opacity:1;fill-rule:nonzero;stroke:none"
             d="M 0,0 H 3.207 L 1.623,9.585 H 1.587 Z m -5.038,-7.576 4.511,23.892 H 4.054 L 8.601,-7.576 H 4.475 l -0.74,4.369 h -4.262 l -0.706,-4.369 z" /></g></g></g></g></svg>