<?xml version="1.0" encoding="UTF-8" standalone="no"?>
<svg
   xmlns:dc="http://purl.org/dc/elements/1.1/"
   xmlns:cc="http://creativecommons.org/ns#"
   xmlns:rdf="http://www.w3.org/1999/02/22-rdf-syntax-ns#"
   xmlns:svg="http://www.w3.org/2000/svg"
   xmlns="http://www.w3.org/2000/svg"
   viewBox="0 0 377.94666 377.94666"
   height="377.94666"
   width="377.94666"
   xml:space="preserve"
   id="svg2"
   version="1.1"><metadata
     id="metadata8"><rdf:RDF><cc:Work
         rdf:about=""><dc:format>image/svg+xml</dc:format><dc:type
           rdf:resource="http://purl.org/dc/dcmitype/StillImage" /></cc:Work></rdf:RDF></metadata><defs
     id="defs6"><clipPath
       id="clipPath20"
       clipPathUnits="userSpaceOnUse"><path
         id="path18"
         d="M 0,283.46 H 283.46 V 0 H 0 Z" /></clipPath></defs><g
     transform="matrix(1.3333333,0,0,-1.3333333,0,377.94667)"
     id="g10"><path
       id="path12"
       style="fill:#c31b32;fill-opacity:1;fill-rule:nonzero;stroke:none"
       d="M 0,0 H 283.46 V 283.46 H 0 Z" /><g
       id="g14"><g
         clip-path="url(#clipPath20)"
         id="g16"><g
           transform="translate(86.6362,239.7769)"
           id="g22"><path
             id="path24"
             style="fill:#ffffff;fill-opacity:1;fill-rule:nonzero;stroke:none"
             d="m 0,0 c 1.656,0 2.29,0.986 2.29,2.431 v 12.507 c 0,1.41 -0.634,2.396 -2.29,2.396 H -1.691 V 0 Z M 6.307,14.198 V 3.135 c 0,-3.664 -1.515,-6.412 -5.814,-6.412 h -6.201 v 23.888 h 6.201 c 4.299,0 5.814,-2.713 5.814,-6.413" /></g><g
           transform="translate(103.3706,242.0317)"
           id="g26"><path
             id="path28"
             style="fill:#ffffff;fill-opacity:1;fill-rule:nonzero;stroke:none"
             d="m 0,0 v 12.824 c 0,1.445 -0.634,2.467 -2.079,2.467 -1.409,0 -2.043,-1.022 -2.043,-2.467 V 0 c 0,-1.445 0.634,-2.466 2.043,-2.466 C -0.634,-2.466 0,-1.445 0,0 M -8.139,0.634 V 12.19 c 0,3.735 1.832,6.448 6.06,6.448 4.264,0 6.096,-2.713 6.096,-6.448 V 0.634 c 0,-3.699 -1.832,-6.447 -6.096,-6.447 -4.228,0 -6.06,2.748 -6.06,6.447" /></g><g
           transform="translate(113.6924,247.2461)"
           id="g30"><path
             id="path32"
             style="fill:#ffffff;fill-opacity:1;fill-rule:nonzero;stroke:none"
             d="m 0,0 v -7.469 h 1.762 c 1.338,0 1.972,0.669 1.972,1.937 v 3.594 C 3.734,-0.669 3.136,0 1.726,0 Z m 0,3.065 h 1.409 c 1.304,0 1.903,0.669 1.903,1.938 v 2.924 c 0,1.304 -0.599,1.938 -1.938,1.938 H 0 Z m -4.017,10.077 h 5.814 c 4.016,0 5.355,-1.868 5.355,-5.25 V 5.461 C 7.152,3.453 6.412,2.184 4.756,1.656 6.765,1.198 7.751,-0.141 7.751,-2.326 v -3.171 c 0,-3.382 -1.515,-5.249 -5.531,-5.249 h -6.237 z" /></g><g
           transform="translate(127.4668,257.1108)"
           id="g34"><path
             id="path36"
             style="fill:#ffffff;fill-opacity:1;fill-rule:nonzero;stroke:none"
             d="m 0,0 v -7.434 h 1.339 c 1.374,0 1.973,0.705 1.973,1.973 v 3.523 C 3.312,-0.634 2.713,0 1.339,0 Z M 0,-9.653 V -20.611 H -4.017 V 3.277 h 5.849 c 4.052,0 5.531,-2.008 5.531,-5.356 v -3.065 c 0,-2.572 -0.916,-4.087 -3.206,-4.615 L 7.998,-20.611 H 3.77 Z" /></g><g
           transform="translate(141.4175,244.0752)"
           id="g38"><path
             id="path40"
             style="fill:#ffffff;fill-opacity:1;fill-rule:nonzero;stroke:none"
             d="M 0,0 H 3.207 L 1.621,9.583 H 1.585 Z m -5.038,-7.575 4.51,23.888 h 4.58 L 8.597,-7.575 H 4.475 l -0.74,4.368 h -4.263 l -0.705,-4.368 z" /></g><g
           transform="translate(166.0439,260.3877)"
           id="g42"><path
             id="path44"
             style="fill:#ffffff;fill-opacity:1;fill-rule:nonzero;stroke:none"
             d="m 0,0 v -18.462 c 0,-3.453 -1.516,-5.707 -5.532,-5.707 -4.157,0 -5.284,2.29 -5.284,5.319 v 4.757 h 3.804 v -4.827 c 0,-1.198 0.423,-1.902 1.48,-1.902 1.093,0 1.515,0.704 1.515,1.937 l 0,18.885 z" /></g><g
           transform="translate(172.7012,244.0752)"
           id="g46"><path
             id="path48"
             style="fill:#ffffff;fill-opacity:1;fill-rule:nonzero;stroke:none"
             d="M 0,0 H 3.206 L 1.62,9.583 H 1.585 Z m -5.038,-7.575 4.51,23.888 h 4.58 L 8.597,-7.575 H 4.475 l -0.741,4.368 h -4.262 l -0.705,-4.368 z" /></g><g
           transform="translate(186.9688,248.127)"
           id="g50"><path
             id="path52"
             style="fill:#ffffff;fill-opacity:1;fill-rule:nonzero;stroke:none"
             d="M 0,0 V -11.627 H -4.017 V 12.261 H 0 v -10.5 l 4.369,10.5 H 8.314 L 3.664,1.515 8.421,-11.627 H 4.192 Z" /></g><g
           transform="translate(205.042,242.0317)"
           id="g54"><path
             id="path56"
             style="fill:#ffffff;fill-opacity:1;fill-rule:nonzero;stroke:none"
             d="m 0,0 v 12.824 c 0,1.445 -0.634,2.467 -2.079,2.467 -1.409,0 -2.043,-1.022 -2.043,-2.467 V 0 c 0,-1.445 0.634,-2.466 2.043,-2.466 C -0.634,-2.466 0,-1.445 0,0 M -8.139,0.634 V 12.19 c 0,3.735 1.832,6.448 6.06,6.448 4.264,0 6.096,-2.713 6.096,-6.448 V 0.634 c 0,-3.699 -1.832,-6.447 -6.096,-6.447 -4.228,0 -6.06,2.748 -6.06,6.447" /></g><g
           transform="translate(220.1553,262.0786)"
           id="g58"><path
             id="path60"
             style="fill:#ffffff;fill-opacity:1;fill-rule:nonzero;stroke:none"
             d="M 0,0 -6.307,-0.81 V 1.445 L 0,2.784 Z m -9.02,-20.435 v 3.206 h 3.736 v -3.276 c 0,-1.339 0.598,-2.114 1.972,-2.114 1.269,0 1.833,0.846 1.833,2.114 v 0.916 c 0,1.374 -0.564,2.219 -1.797,3.382 l -2.361,2.361 c -2.29,2.255 -3.346,3.629 -3.346,6.377 v 0.81 c 0,2.96 1.725,5.25 5.636,5.25 4.017,0 5.602,-1.973 5.602,-5.426 v -1.937 h -3.664 v 2.078 c 0,1.374 -0.634,2.044 -1.903,2.044 -1.126,0 -1.902,-0.635 -1.902,-1.974 v -0.493 c 0,-1.339 0.74,-2.113 1.902,-3.241 l 2.573,-2.537 c 2.184,-2.22 3.241,-3.559 3.241,-6.201 v -1.162 c 0,-3.277 -1.762,-5.602 -5.849,-5.602 -4.087,0 -5.673,2.29 -5.673,5.425" /></g><g
           transform="translate(233.9648,262.0786)"
           id="g62"><path
             id="path64"
             style="fill:#ffffff;fill-opacity:1;fill-rule:nonzero;stroke:none"
             d="M 0,0 -6.307,-0.81 V 1.445 L 0,2.784 Z m -9.195,-19.413 v 11.557 c 0,3.734 1.761,6.447 5.989,6.447 4.439,0 5.673,-2.466 5.673,-5.989 v -2.819 h -3.664 v 3.135 c 0,1.48 -0.493,2.326 -1.939,2.326 -1.444,0 -2.043,-1.022 -2.043,-2.467 v -12.824 c 0,-1.445 0.599,-2.466 2.043,-2.466 1.446,0 1.939,0.916 1.939,2.325 v 4.404 h 3.664 v -4.122 c 0,-3.418 -1.409,-5.954 -5.673,-5.954 -4.228,0 -5.989,2.748 -5.989,6.447" /></g><g
           transform="translate(80.9287,226.9189)"
           id="g66"><path
             id="path68"
             style="fill:#ffffff;fill-opacity:1;fill-rule:nonzero;stroke:none"
             d="M 0,0 H 9.583 V -3.277 H 4.017 v -6.835 h 3.981 v -3.241 H 4.017 v -7.258 h 5.566 v -3.277 H 0 Z" /></g><g
           transform="translate(98.3677,206.3081)"
           id="g70"><path
             id="path72"
             style="fill:#ffffff;fill-opacity:1;fill-rule:nonzero;stroke:none"
             d="m 0,0 c 1.656,0 2.29,0.986 2.29,2.431 v 12.507 c 0,1.41 -0.634,2.396 -2.29,2.396 H -1.691 V 0 Z M 6.307,14.198 V 3.135 c 0,-3.664 -1.515,-6.412 -5.814,-6.412 h -6.201 v 23.888 h 6.201 c 4.299,0 5.814,-2.713 5.814,-6.413" /></g><g
           transform="translate(118.6255,226.9189)"
           id="g74"><path
             id="path76"
             style="fill:#ffffff;fill-opacity:1;fill-rule:nonzero;stroke:none"
             d="m 0,0 v -18.074 c 0,-3.7 -1.585,-6.095 -5.673,-6.095 -4.227,0 -5.989,2.395 -5.989,6.095 V 0 h 4.016 v -18.462 c 0,-1.409 0.564,-2.36 1.973,-2.36 1.41,0 1.973,0.951 1.973,2.36 L -3.7,0 Z" /></g><g
           transform="translate(124.9307,214.6582)"
           id="g78"><path
             id="path80"
             style="fill:#ffffff;fill-opacity:1;fill-rule:nonzero;stroke:none"
             d="M 0,0 V -11.627 H -4.017 V 12.261 H 0 v -10.5 l 4.369,10.5 H 8.315 L 3.664,1.515 8.42,-11.627 H 4.192 Z" /></g><g
           transform="translate(139.269,210.6064)"
           id="g82"><path
             id="path84"
             style="fill:#ffffff;fill-opacity:1;fill-rule:nonzero;stroke:none"
             d="M 0,0 H 3.207 L 1.621,9.583 H 1.585 Z m -5.038,-7.575 4.51,23.888 h 4.58 L 8.597,-7.575 H 4.475 l -0.74,4.368 h -4.263 l -0.705,-4.368 z" /></g><g
           transform="translate(149.5205,209.1968)"
           id="g86"><path
             id="path88"
             style="fill:#ffffff;fill-opacity:1;fill-rule:nonzero;stroke:none"
             d="m 0,0 v 11.557 c 0,3.734 1.762,6.447 5.989,6.447 4.44,0 5.673,-2.466 5.673,-5.989 V 9.196 H 7.998 v 3.136 c 0,1.48 -0.493,2.325 -1.938,2.325 -1.445,0 -2.043,-1.022 -2.043,-2.467 V -0.634 c 0,-1.445 0.598,-2.466 2.043,-2.466 1.445,0 1.938,0.916 1.938,2.325 v 4.404 h 3.664 v -4.122 c 0,-3.418 -1.409,-5.954 -5.673,-5.954 C 1.762,-6.447 0,-3.699 0,0" /></g><g
           transform="translate(174.041,226.9189)"
           id="g90"><path
             id="path92"
             style="fill:#ffffff;fill-opacity:1;fill-rule:nonzero;stroke:none"
             d="m 0,0 v -18.462 c 0,-3.453 -1.516,-5.707 -5.532,-5.707 -4.157,0 -5.284,2.29 -5.284,5.319 v 4.757 h 3.804 v -4.827 c 0,-1.198 0.423,-1.902 1.48,-1.902 1.093,0 1.515,0.704 1.515,1.937 l 0,18.885 z" /></g><path
           id="path94"
           style="fill:#ffffff;fill-opacity:1;fill-rule:nonzero;stroke:none"
           d="m 176.295,226.919 h 4.017 v -23.888 h -4.017 z" /><g
           transform="translate(35.8906,219.3267)"
           id="g96"><path
             id="path98"
             style="fill:#ffffff;fill-opacity:1;fill-rule:nonzero;stroke:none"
             d="M 0,0 8.598,23.519 H 8.684 L 8.684,0 Z m 8.515,-16.772 h 9.104 v 9.273 H 21.5 V 0 H 17.619 V 40.384 H 8.175 L -8.429,-1.599 v -5.9 H 8.515 Z" /></g><g
           transform="translate(125.6968,131.4746)"
           id="g100"><path
             id="path102"
             style="fill:#ffffff;fill-opacity:1;fill-rule:nonzero;stroke:none"
             d="m 0,0 -50.839,29.355 v -94.96 L 0,-80.943 Z" /></g><g
           transform="translate(131.2871,131.2813)"
           id="g104"><path
             id="path106"
             style="fill:#ffffff;fill-opacity:1;fill-rule:nonzero;stroke:none"
             d="M 0,0 V -80.783 L 51.17,-65.4 v 94.942 z" /></g><g
           transform="translate(222.3662,163.2319)"
           id="g108"><path
             id="path110"
             style="fill:#ffffff;fill-opacity:1;fill-rule:nonzero;stroke:none"
             d="M 0,0 C 0,3.326 -2.694,6.018 -6.011,6.018 -9.338,6.018 -12.028,3.326 -12.028,0 V -6.484 H 0 Z" /></g><g
           transform="translate(211.8311,67.5527)"
           id="g112"><path
             id="path114"
             style="fill:#ffffff;fill-opacity:1;fill-rule:nonzero;stroke:none"
             d="M 0,0 H -1.493 L 4.524,-21.021 10.531,0 H 9.038 10.531 V 84.486 H 9.038 7.545 5.963 2.968 1.493 0 -1.496 L -1.496,0 Z" /></g><g
           transform="translate(193.377,156.7495)"
           id="g116"><path
             id="path118"
             style="fill:#ffffff;fill-opacity:1;fill-rule:nonzero;stroke:none"
             d="m 0,0 -5.45,4.305 v -97.763 l -56.488,-18.25 h -2.615 -0.516 -2.611 L -123.918,-96 V 4.305 L -129.371,0 v -99.822 l 61.433,-17.006 h 2.869 0.516 2.871 L -5.006,-98.832 0,-97.359 Z" /></g></g></g></g></svg>