<?xml version="1.0" encoding="UTF-8" standalone="no"?>
<svg
   xmlns:dc="http://purl.org/dc/elements/1.1/"
   xmlns:cc="http://creativecommons.org/ns#"
   xmlns:rdf="http://www.w3.org/1999/02/22-rdf-syntax-ns#"
   xmlns:svg="http://www.w3.org/2000/svg"
   xmlns="http://www.w3.org/2000/svg"
   viewBox="0 0 377.94666 377.94666"
   height="377.94666"
   width="377.94666"
   xml:space="preserve"
   id="svg2"
   version="1.1"><metadata
     id="metadata8"><rdf:RDF><cc:Work
         rdf:about=""><dc:format>image/svg+xml</dc:format><dc:type
           rdf:resource="http://purl.org/dc/dcmitype/StillImage" /></cc:Work></rdf:RDF></metadata><defs
     id="defs6"><clipPath
       id="clipPath20"
       clipPathUnits="userSpaceOnUse"><path
         id="path18"
         d="M 0,283.46 H 283.46 V 0 H 0 Z" /></clipPath></defs><g
     transform="matrix(1.3333333,0,0,-1.3333333,0,377.94667)"
     id="g10"><path
       id="path12"
       style="fill:#ef3028;fill-opacity:1;fill-rule:nonzero;stroke:none"
       d="M 0,0 H 283.46 V 283.46 H 0 Z" /><g
       id="g14"><g
         clip-path="url(#clipPath20)"
         id="g16"><g
           transform="translate(45.1978,241.6108)"
           id="g22"><path
             id="path24"
             style="fill:#ffffff;fill-opacity:1;fill-rule:nonzero;stroke:none"
             d="M 0,0 C -3.792,0 -6.575,-1.348 -8.092,-3.961 H -8.18 V 10.286 H 8.346 v 7.839 H -16.941 V -14.08 h 8.761 v 1.27 c 0,3.372 1.522,5.225 4.217,5.225 2.951,0 4.135,-2.026 4.135,-5.145 v -13.825 c 0,-3.036 -1.098,-5.142 -4.049,-5.142 -3.29,0 -4.466,2.192 -4.466,5.561 v 7.168 h -8.774 v -6.491 c 0,-8.683 3.458,-14.248 13.24,-14.248 9.695,0 13.655,5.142 13.655,13.067 v 13.994 C 9.778,-3.625 5.144,0 0,0" /></g><g
           transform="translate(141.2422,77.7588)"
           id="g26"><path
             id="path28"
             style="fill:#ffffff;fill-opacity:1;fill-rule:nonzero;stroke:none"
             d="M 0,0 C -18.729,0 -33.961,15.238 -33.961,33.965 -33.961,52.694 -18.729,67.93 0,67.93 18.729,67.93 33.966,52.694 33.966,33.965 33.966,15.238 18.729,0 0,0 M 65.228,98.44 H 29.997 c -0.24,0 -0.447,-0.198 -0.447,-0.448 V 86.285 c 0,-0.251 0.207,-0.449 0.447,-0.449 H 44.026 L 28.449,70.255 C 20.604,76.418 10.73,80.109 0,80.109 c -25.44,0 -46.144,-20.699 -46.144,-46.144 0,-23.427 17.551,-42.814 40.188,-45.745 v -13.491 h -13.898 c -0.255,0 -0.452,-0.201 -0.452,-0.447 v -12.547 c 0,-0.25 0.197,-0.447 0.452,-0.447 h 13.898 v -13.277 c 0,-0.247 0.2,-0.448 0.447,-0.448 H 7.034 c 0.249,0 0.454,0.201 0.454,0.448 v 13.277 h 13.895 c 0.247,0 0.447,0.197 0.447,0.447 v 12.547 c 0,0.246 -0.2,0.447 -0.447,0.447 H 7.488 v 13.708 c 21.894,3.591 38.654,22.634 38.654,45.528 0,9.877 -3.125,19.027 -8.427,26.54 L 53.069,75.862 V 62.76 c 0,-0.25 0.206,-0.447 0.454,-0.447 h 11.705 c 0.251,0 0.458,0.197 0.458,0.447 v 35.232 c 0,0.25 -0.207,0.448 -0.458,0.448" /></g><g
           transform="translate(161.9883,125.6641)"
           id="g30"><path
             id="path32"
             style="fill:#ffffff;fill-opacity:1;fill-rule:nonzero;stroke:none"
             d="m 0,0 h -41.196 c -0.248,0 -0.448,-0.183 -0.448,-0.4 v -9.975 c 0,-0.231 0.2,-0.407 0.448,-0.407 H 0 c 0.256,0 0.456,0.176 0.456,0.407 V -0.4 C 0.456,-0.183 0.256,0 0,0" /></g><g
           transform="translate(161.9883,107.8564)"
           id="g34"><path
             id="path36"
             style="fill:#ffffff;fill-opacity:1;fill-rule:nonzero;stroke:none"
             d="m 0,0 h -41.196 c -0.248,0 -0.448,-0.188 -0.448,-0.415 v -9.972 c 0,-0.223 0.2,-0.402 0.448,-0.402 H 0 c 0.256,0 0.456,0.179 0.456,0.402 v 9.972 C 0.456,-0.188 0.256,0 0,0" /></g><g
           transform="translate(86.2598,257.1113)"
           id="g38"><path
             id="path40"
             style="fill:#ffffff;fill-opacity:1;fill-rule:nonzero;stroke:none"
             d="m 0,0 v -7.436 h 1.34 c 1.375,0 1.973,0.706 1.973,1.974 v 3.523 C 3.313,-0.635 2.715,0 1.34,0 Z M 0,-9.656 V -20.615 H -4.017 V 3.277 h 5.851 c 4.051,0 5.532,-2.008 5.532,-5.356 v -3.067 c 0,-2.571 -0.917,-4.087 -3.208,-4.616 L 7.999,-20.615 H 3.771 Z" /></g><g
           transform="translate(103.9473,242.0288)"
           id="g42"><path
             id="path44"
             style="fill:#ffffff;fill-opacity:1;fill-rule:nonzero;stroke:none"
             d="m 0,0 v 12.827 c 0,1.444 -0.635,2.467 -2.08,2.467 -1.408,0 -2.043,-1.023 -2.043,-2.467 V 0 c 0,-1.445 0.635,-2.467 2.043,-2.467 C -0.635,-2.467 0,-1.445 0,0 m 1.197,20.05 -6.306,-0.81 v 2.256 l 6.306,1.338 z M -8.141,0.635 v 11.557 c 0,3.736 1.832,6.45 6.061,6.45 4.265,0 6.097,-2.714 6.097,-6.45 V 0.635 c 0,-3.7 -1.832,-6.449 -6.097,-6.449 -4.229,0 -6.061,2.749 -6.061,6.449" /></g><g
           transform="translate(118.9189,251.2617)"
           id="g46"><path
             id="path48"
             style="fill:#ffffff;fill-opacity:1;fill-rule:nonzero;stroke:none"
             d="m 0,0 -2.256,-14.765 h -3.77 L -9.233,9.126 h 3.878 l 1.866,-15.152 h 0.036 L -1.445,9.126 H 1.832 L 4.053,-6.026 H 4.087 L 5.921,9.126 h 3.382 l -3.1,-23.891 H 2.396 L 0.035,0 Z" /></g><g
           transform="translate(133.3291,251.5083)"
           id="g50"><path
             id="path52"
             style="fill:#ffffff;fill-opacity:1;fill-rule:nonzero;stroke:none"
             d="M 0,0 V -15.012 H -3.384 V 8.88 H 0.563 L 4.897,-4.828 V 8.88 H 8.245 V -15.012 H 4.722 Z" /></g><g
           transform="translate(152,242.0288)"
           id="g54"><path
             id="path56"
             style="fill:#ffffff;fill-opacity:1;fill-rule:nonzero;stroke:none"
             d="m 0,0 v 12.827 c 0,1.444 -0.635,2.467 -2.079,2.467 -1.409,0 -2.044,-1.023 -2.044,-2.467 V 0 c 0,-1.445 0.635,-2.467 2.044,-2.467 C -0.635,-2.467 0,-1.445 0,0 m -8.14,0.635 v 11.557 c 0,3.736 1.832,6.45 6.061,6.45 4.265,0 6.097,-2.714 6.097,-6.45 V 0.635 c 0,-3.7 -1.832,-6.449 -6.097,-6.449 -4.229,0 -6.061,2.749 -6.061,6.449" /></g><g
           transform="translate(167.1123,262.0791)"
           id="g58"><path
             id="path60"
             style="fill:#ffffff;fill-opacity:1;fill-rule:nonzero;stroke:none"
             d="M 0,0 -6.306,-0.81 V 1.445 L 0,2.784 Z m -9.021,-20.438 v 3.208 h 3.737 v -3.279 c 0,-1.338 0.598,-2.114 1.972,-2.114 1.269,0 1.833,0.847 1.833,2.114 v 0.917 c 0,1.374 -0.564,2.22 -1.797,3.383 l -2.361,2.361 c -2.291,2.255 -3.347,3.629 -3.347,6.378 v 0.81 c 0,2.961 1.725,5.251 5.636,5.251 4.018,0 5.604,-1.974 5.604,-5.427 v -1.938 h -3.664 v 2.079 c 0,1.374 -0.635,2.044 -1.904,2.044 -1.127,0 -1.902,-0.634 -1.902,-1.974 v -0.492 c 0,-1.34 0.74,-2.115 1.902,-3.242 l 2.573,-2.537 c 2.184,-2.221 3.242,-3.56 3.242,-6.203 v -1.163 c 0,-3.277 -1.763,-5.603 -5.851,-5.603 -4.087,0 -5.673,2.291 -5.673,5.427" /></g><g
           transform="translate(180.9248,262.0791)"
           id="g62"><path
             id="path64"
             style="fill:#ffffff;fill-opacity:1;fill-rule:nonzero;stroke:none"
             d="M 0,0 -6.309,-0.81 V 1.445 L 0,2.784 Z m -9.198,-19.416 v 11.558 c 0,3.735 1.761,6.449 5.989,6.449 4.44,0 5.674,-2.466 5.674,-5.99 v -2.82 h -3.664 v 3.137 c 0,1.479 -0.494,2.326 -1.939,2.326 -1.443,0 -2.044,-1.023 -2.044,-2.467 V -20.05 c 0,-1.445 0.601,-2.467 2.044,-2.467 1.445,0 1.939,0.916 1.939,2.326 v 4.404 h 3.664 v -4.122 c 0,-3.418 -1.409,-5.956 -5.674,-5.956 -4.228,0 -5.989,2.749 -5.989,6.449" /></g><g
           transform="translate(86.2598,223.6421)"
           id="g66"><path
             id="path68"
             style="fill:#ffffff;fill-opacity:1;fill-rule:nonzero;stroke:none"
             d="m 0,0 v -9.409 h 1.481 c 1.374,0 1.973,0.669 1.973,1.973 v 5.498 C 3.454,-0.635 2.855,0 1.481,0 Z m -4.017,3.277 h 5.955 c 4.053,0 5.533,-2.008 5.533,-5.356 v -5.039 c 0,-3.348 -1.48,-5.391 -5.533,-5.391 H 0 v -8.105 h -4.017 z" /></g><g
           transform="translate(95.3135,213.9863)"
           id="g70"><path
             id="path72"
             style="fill:#ffffff;fill-opacity:1;fill-rule:nonzero;stroke:none"
             d="M 0,0 1.021,0.458 V 12.933 H 5.04 V 2.326 l 3.277,1.55 V 0.987 L 5.04,-0.563 v -7.119 h 4.791 v -3.276 h -8.81 v 8.526 L 0,-2.889 Z" /></g><g
           transform="translate(106.9746,209.1948)"
           id="g74"><path
             id="path76"
             style="fill:#ffffff;fill-opacity:1;fill-rule:nonzero;stroke:none"
             d="m 0,0 v 11.557 c 0,3.736 1.762,6.449 5.99,6.449 4.44,0 5.673,-2.466 5.673,-5.99 V 9.196 H 7.999 v 3.137 c 0,1.48 -0.493,2.326 -1.938,2.326 -1.444,0 -2.044,-1.023 -2.044,-2.467 V -0.635 c 0,-1.445 0.6,-2.467 2.044,-2.467 1.445,0 1.938,0.916 1.938,2.326 v 4.405 h 3.664 V -0.494 C 11.663,-3.912 10.255,-6.45 5.99,-6.45 1.762,-6.45 0,-3.7 0,0" /></g><path
           id="path78"
           style="fill:#ffffff;fill-opacity:1;fill-rule:nonzero;stroke:none"
           d="m 120.821,226.919 h 4.017 v -23.892 h -4.017 z" /></g></g></g></svg>