<?xml version="1.0" encoding="UTF-8" standalone="no"?>
<svg
   xmlns:dc="http://purl.org/dc/elements/1.1/"
   xmlns:cc="http://creativecommons.org/ns#"
   xmlns:rdf="http://www.w3.org/1999/02/22-rdf-syntax-ns#"
   xmlns:svg="http://www.w3.org/2000/svg"
   xmlns="http://www.w3.org/2000/svg"
   viewBox="0 0 377.94666 377.94666"
   height="377.94666"
   width="377.94666"
   xml:space="preserve"
   id="svg2"
   version="1.1"><metadata
     id="metadata8"><rdf:RDF><cc:Work
         rdf:about=""><dc:format>image/svg+xml</dc:format><dc:type
           rdf:resource="http://purl.org/dc/dcmitype/StillImage" /></cc:Work></rdf:RDF></metadata><defs
     id="defs6"><clipPath
       id="clipPath20"
       clipPathUnits="userSpaceOnUse"><path
         id="path18"
         d="M 0,283.46 H 283.46 V 0 H 0 Z" /></clipPath></defs><g
     transform="matrix(1.3333333,0,0,-1.3333333,0,377.94667)"
     id="g10"><path
       id="path12"
       style="fill:#30b1dc;fill-opacity:1;fill-rule:nonzero;stroke:none"
       d="M 0,0 H 283.46 V 283.46 H 0 Z" /><g
       id="g14"><g
         clip-path="url(#clipPath20)"
         id="g16"><g
           transform="translate(38.4204,225.8262)"
           id="g22"><path
             id="path24"
             style="fill:#ffffff;fill-opacity:1;fill-rule:nonzero;stroke:none"
             d="m 0,0 c 0.168,3.201 1.517,5.225 4.552,5.225 3.285,0 4.552,-2.024 4.552,-5.734 v -9.949 c 0,-3.623 -1.346,-5.73 -4.635,-5.73 -3.206,0 -4.469,2.191 -4.469,5.73 z m 4.469,-24.031 c 10.198,0 14.161,5.567 14.161,14.42 v 8.431 c 0,9.357 -3.709,14.077 -10.624,14.077 -4.046,0 -6.489,-1.857 -7.923,-4.639 H 0 v 12.309 c 0,3.461 1.098,5.902 4.552,5.902 3.454,0 4.469,-2.026 4.469,-5.564 v -3.794 h 8.767 v 3.034 c 0,8.435 -2.784,14.331 -13.405,14.331 -10.115,0 -13.91,-6.488 -13.91,-15.425 v -27.82 c 0,-8.854 3.878,-15.262 13.996,-15.262" /></g><g
           transform="translate(186.8164,130.9951)"
           id="g26"><path
             id="path28"
             style="fill:#ffffff;fill-opacity:1;fill-rule:nonzero;stroke:none"
             d="m 0,0 c -2.786,1.229 -6.319,0.786 -9.712,-0.588 -12.761,-5.172 -21.443,-7.034 -34.866,-2.832 -8.452,2.646 -16.36,8.189 -25.708,4.814 -6.203,-2.234 -11.984,-4.36 -18.997,-4.305 l -4.051,20.768 H 2.913 Z m -32.624,-61.673 c 0,0 -4.671,-4.802 -12.271,-4.282 -7.619,-0.52 -12.285,4.282 -12.285,4.282 -7.705,7.698 -4.956,17.273 -2.273,22.224 1.654,3.098 13.493,20.876 14.512,22.387 v 0.119 c 0,0 0.017,-0.022 0.046,-0.057 l 0.041,0.057 v -0.119 c 0.992,-1.511 12.847,-19.289 14.504,-22.387 2.685,-4.951 5.425,-14.526 -2.274,-22.224 M 7.124,21.985 C 6.883,22.246 6.56,22.393 6.193,22.393 h -102.84 c -0.356,0 -0.683,-0.147 -0.924,-0.408 -0.227,-0.287 -0.315,-0.64 -0.258,-0.971 l 17.278,-104.501 c 0.095,-0.578 0.601,-1.005 1.186,-1.005 h 21.205 l 1.45,-17.021 -8.923,-0.009 20.764,-20.764 20.813,20.811 -8.921,-0.01 1.449,16.993 h 21.579 c 0.593,0 1.092,0.427 1.178,1.025 L 7.396,21.014 c 0.053,0.357 -0.05,0.701 -0.272,0.971" /></g><g
           transform="translate(82.2236,242.6631)"
           id="g30"><path
             id="path32"
             style="fill:#ffffff;fill-opacity:1;fill-rule:nonzero;stroke:none"
             d="m 0,0 v 11.558 c 0,3.735 1.761,6.449 5.989,6.449 4.441,0 5.674,-2.467 5.674,-5.991 V 9.197 H 7.999 v 3.136 c 0,1.48 -0.494,2.326 -1.938,2.326 -1.444,0 -2.044,-1.022 -2.044,-2.467 V -0.635 c 0,-1.445 0.6,-2.467 2.044,-2.467 1.444,0 1.938,0.916 1.938,2.326 v 4.405 h 3.664 v -4.123 c 0,-3.418 -1.409,-5.955 -5.674,-5.955 C 1.761,-6.449 0,-3.7 0,0" /></g><g
           transform="translate(99.9795,239.7729)"
           id="g34"><path
             id="path36"
             style="fill:#ffffff;fill-opacity:1;fill-rule:nonzero;stroke:none"
             d="M 0,0 H 6.097 V -3.277 H -4.193 V 0 l 6.307,17.338 h -5.673 v 3.277 h 9.902 v -3.277 z" /></g><g
           transform="translate(116.2568,245.5879)"
           id="g38"><path
             id="path40"
             style="fill:#ffffff;fill-opacity:1;fill-rule:nonzero;stroke:none"
             d="M 0,0 V -9.092 H -4.019 V 0 l -4.474,14.8 h 4.194 l 2.431,-9.056 h 0.034 L 0.599,14.8 H 4.44 Z" /></g><g
           transform="translate(122.1045,241.6406)"
           id="g42"><path
             id="path44"
             style="fill:#ffffff;fill-opacity:1;fill-rule:nonzero;stroke:none"
             d="m 0,0 v 3.208 h 3.736 v -3.279 c 0,-1.338 0.599,-2.114 1.973,-2.114 1.268,0 1.832,0.847 1.832,2.114 v 0.917 c 0,1.374 -0.564,2.22 -1.798,3.383 L 3.384,6.59 C 1.092,8.846 0.036,10.219 0.036,12.968 v 0.81 c 0,2.961 1.725,5.251 5.637,5.251 4.016,0 5.603,-1.973 5.603,-5.427 V 11.664 H 7.611 v 2.079 c 0,1.375 -0.634,2.044 -1.902,2.044 -1.128,0 -1.902,-0.634 -1.902,-1.974 v -0.492 c 0,-1.34 0.739,-2.115 1.902,-3.242 L 8.281,7.542 c 2.185,-2.221 3.242,-3.56 3.242,-6.203 V 0.176 c 0,-3.277 -1.762,-5.603 -5.85,-5.603 C 1.586,-5.427 0,-3.136 0,0" /></g><g
           transform="translate(135.2813,260.3877)"
           id="g46"><path
             id="path48"
             style="fill:#ffffff;fill-opacity:1;fill-rule:nonzero;stroke:none"
             d="M 0,0 H 10.678 V -3.277 H 7.364 V -23.892 H 3.312 v 20.615 l -3.312,0 z" /></g><g
           transform="translate(152.2275,244.0723)"
           id="g50"><path
             id="path52"
             style="fill:#ffffff;fill-opacity:1;fill-rule:nonzero;stroke:none"
             d="M 0,0 H 3.207 L 1.62,9.585 H 1.584 Z m -5.04,-7.576 4.51,23.891 H 4.051 L 8.598,-7.576 H 4.475 L 3.734,-3.207 H -0.53 l -0.703,-4.369 z" /></g><g
           transform="translate(174.8438,251.2612)"
           id="g54"><path
             id="path56"
             style="fill:#ffffff;fill-opacity:1;fill-rule:nonzero;stroke:none"
             d="M 0,0 -2.255,-14.765 H -6.026 L -9.232,9.126 h 3.877 l 1.867,-15.152 h 0.036 L -1.445,9.126 H 1.832 L 4.053,-6.026 H 4.088 L 5.921,9.126 H 9.304 L 6.203,-14.765 H 2.396 L 0.036,0 Z" /></g><g
           transform="translate(194.0107,242.0283)"
           id="g58"><path
             id="path60"
             style="fill:#ffffff;fill-opacity:1;fill-rule:nonzero;stroke:none"
             d="m 0,0 v 12.827 c 0,1.444 -0.635,2.467 -2.079,2.467 -1.409,0 -2.044,-1.023 -2.044,-2.467 V 0 c 0,-1.445 0.635,-2.467 2.044,-2.467 C -0.635,-2.467 0,-1.445 0,0 m -8.14,0.635 v 11.557 c 0,3.736 1.832,6.45 6.061,6.45 4.264,0 6.097,-2.714 6.097,-6.45 V 0.635 c 0,-3.7 -1.833,-6.449 -6.097,-6.449 -4.229,0 -6.061,2.749 -6.061,6.449" /></g><g
           transform="translate(206.0234,239.7729)"
           id="g62"><path
             id="path64"
             style="fill:#ffffff;fill-opacity:1;fill-rule:nonzero;stroke:none"
             d="m 0,0 c 1.655,0 2.29,0.987 2.29,2.432 v 12.509 c 0,1.41 -0.635,2.397 -2.29,2.397 H -1.692 V 0 Z M 6.307,14.202 V 3.136 c 0,-3.664 -1.516,-6.413 -5.815,-6.413 h -6.201 v 23.892 h 6.201 c 4.299,0 5.815,-2.714 5.815,-6.413" /></g><g
           transform="translate(219.0234,244.0723)"
           id="g66"><path
             id="path68"
             style="fill:#ffffff;fill-opacity:1;fill-rule:nonzero;stroke:none"
             d="M 0,0 H 3.207 L 1.621,9.585 H 1.585 Z m -5.04,-7.576 4.511,23.891 H 4.052 L 8.598,-7.576 H 4.475 l -0.74,4.369 h -4.264 l -0.704,-4.369 z" /></g><path
           id="path70"
           style="fill:#ffffff;fill-opacity:1;fill-rule:nonzero;stroke:none"
           d="m 82.224,226.918 h 4.017 v -23.892 h -4.017 z" /><g
           transform="translate(99.6631,217.7915)"
           id="g72"><path
             id="path74"
             style="fill:#ffffff;fill-opacity:1;fill-rule:nonzero;stroke:none"
             d="m 0,0 -2.255,-14.765 h -3.77 L -9.232,9.127 h 3.878 l 1.866,-15.153 h 0.036 L -1.444,9.127 H 1.832 L 4.053,-6.026 H 4.088 L 5.921,9.127 H 9.304 L 6.203,-14.765 H 2.396 L 0.036,0 Z" /></g><g
           transform="translate(114.4609,210.6025)"
           id="g76"><path
             id="path78"
             style="fill:#ffffff;fill-opacity:1;fill-rule:nonzero;stroke:none"
             d="M 0,0 H 3.207 L 1.62,9.585 H 1.584 Z m -5.04,-7.576 4.51,23.892 H 4.052 L 8.598,-7.576 H 4.475 L 3.734,-3.207 H -0.53 l -0.703,-4.369 z" /></g><g
           transform="translate(128.0928,223.6416)"
           id="g80"><path
             id="path82"
             style="fill:#ffffff;fill-opacity:1;fill-rule:nonzero;stroke:none"
             d="m 0,0 v -7.436 h 1.34 c 1.374,0 1.973,0.706 1.973,1.974 v 3.523 C 3.313,-0.635 2.714,0 1.34,0 Z M 0,-9.656 V -20.615 H -4.018 V 3.277 h 5.851 c 4.052,0 5.532,-2.008 5.532,-5.356 v -3.067 c 0,-2.571 -0.916,-4.087 -3.208,-4.616 L 7.999,-20.615 H 3.771 Z" /></g><g
           transform="translate(148.668,226.9185)"
           id="g84"><path
             id="path86"
             style="fill:#ffffff;fill-opacity:1;fill-rule:nonzero;stroke:none"
             d="m 0,0 v -18.077 c 0,-3.7 -1.584,-6.097 -5.673,-6.097 -4.228,0 -5.99,2.397 -5.99,6.097 V 0 h 4.017 v -18.465 c 0,-1.41 0.564,-2.361 1.973,-2.361 1.41,0 1.975,0.951 1.975,2.361 V 0 Z" /></g><g
           transform="translate(153.7051,218.0386)"
           id="g88"><path
             id="path90"
             style="fill:#ffffff;fill-opacity:1;fill-rule:nonzero;stroke:none"
             d="M 0,0 V -15.012 H -3.384 V 8.88 H 0.563 L 4.897,-4.828 V 8.88 H 8.245 V -15.012 H 4.723 Z" /></g><g
           transform="translate(167.6201,214.6558)"
           id="g92"><path
             id="path94"
             style="fill:#ffffff;fill-opacity:1;fill-rule:nonzero;stroke:none"
             d="M 0,0 V -11.629 H -4.017 V 12.263 H 0 V 1.761 L 4.37,12.263 H 8.317 L 3.666,1.515 8.423,-11.629 H 4.194 Z" /></g><path
           id="path96"
           style="fill:#ffffff;fill-opacity:1;fill-rule:nonzero;stroke:none"
           d="m 176.92,226.918 h 4.018 v -23.892 h -4.018 z" /><g
           transform="translate(82.0117,174.7021)"
           id="g98"><path
             id="path100"
             style="fill:#ffffff;fill-opacity:1;fill-rule:nonzero;stroke:none"
             d="m 0,0 v 3.207 h 3.736 v -3.278 c 0,-1.338 0.599,-2.115 1.974,-2.115 1.268,0 1.832,0.847 1.832,2.115 v 0.917 c 0,1.374 -0.564,2.22 -1.798,3.383 L 3.384,6.59 C 1.093,8.845 0.036,10.219 0.036,12.968 v 0.81 c 0,2.96 1.726,5.251 5.638,5.251 4.016,0 5.602,-1.974 5.602,-5.427 V 11.664 H 7.612 v 2.079 c 0,1.374 -0.634,2.043 -1.902,2.043 -1.129,0 -1.903,-0.634 -1.903,-1.973 V 13.32 c 0,-1.339 0.74,-2.115 1.903,-3.242 L 8.281,7.541 c 2.185,-2.22 3.243,-3.559 3.243,-6.202 V 0.176 c 0,-3.278 -1.763,-5.603 -5.85,-5.603 C 1.586,-5.427 0,-3.137 0,0" /></g><g
           transform="translate(99.4189,177.1338)"
           id="g102"><path
             id="path104"
             style="fill:#ffffff;fill-opacity:1;fill-rule:nonzero;stroke:none"
             d="M 0,0 H 3.207 L 1.62,9.585 H 1.584 Z m -5.04,-7.576 4.511,23.891 H 4.052 L 8.598,-7.576 H 4.475 l -0.741,4.369 h -4.263 l -0.704,-4.369 z" /></g><g
           transform="translate(112.417,184.5693)"
           id="g106"><path
             id="path108"
             style="fill:#ffffff;fill-opacity:1;fill-rule:nonzero;stroke:none"
             d="M 0,0 V -15.012 H -3.384 V 8.88 H 0.563 L 4.897,-4.828 V 8.88 H 8.245 V -15.012 H 4.723 Z" /></g><path
           id="path110"
           style="fill:#ffffff;fill-opacity:1;fill-rule:nonzero;stroke:none"
           d="m 122.315,193.449 h 4.017 v -23.892 h -4.017 z" /><g
           transform="translate(127.5645,193.4492)"
           id="g112"><path
             id="path114"
             style="fill:#ffffff;fill-opacity:1;fill-rule:nonzero;stroke:none"
             d="M 0,0 H 10.678 V -3.277 H 7.364 V -23.892 H 3.312 v 20.615 l -3.312,0 z" /></g><g
           transform="translate(143.8779,177.1338)"
           id="g116"><path
             id="path118"
             style="fill:#ffffff;fill-opacity:1;fill-rule:nonzero;stroke:none"
             d="M 0,0 H 3.206 L 1.62,9.585 H 1.584 Z M -5.041,-7.576 -0.53,16.315 H 4.051 L 8.598,-7.576 H 4.474 l -0.74,4.369 H -0.53 l -0.704,-4.369 z" /></g><g
           transform="translate(157.5088,190.1719)"
           id="g120"><path
             id="path122"
             style="fill:#ffffff;fill-opacity:1;fill-rule:nonzero;stroke:none"
             d="m 0,0 v -7.436 h 1.34 c 1.375,0 1.973,0.706 1.973,1.974 v 3.524 C 3.313,-0.635 2.715,0 1.34,0 Z M 0,-9.655 V -20.614 H -4.017 V 3.277 h 5.851 c 4.051,0 5.532,-2.008 5.532,-5.356 v -3.067 c 0,-2.571 -0.917,-4.086 -3.208,-4.616 L 7.999,-20.614 H 3.771 Z" /></g><g
           transform="translate(169.8066,184.5693)"
           id="g124"><path
             id="path126"
             style="fill:#ffffff;fill-opacity:1;fill-rule:nonzero;stroke:none"
             d="M 0,0 V -15.012 H -3.384 V 8.88 H 0.563 L 4.897,-4.828 V 8.88 H 8.245 V -15.012 H 4.723 Z" /></g><g
           transform="translate(179.7031,193.4492)"
           id="g128"><path
             id="path130"
             style="fill:#ffffff;fill-opacity:1;fill-rule:nonzero;stroke:none"
             d="M 0,0 H 9.586 V -3.277 H 4.018 v -6.836 H 8 v -3.242 H 4.018 v -7.26 h 5.568 v -3.277 H 0 Z" /></g></g></g></g></svg>