<?xml version="1.0" encoding="UTF-8" standalone="no"?>
<svg
   xmlns:dc="http://purl.org/dc/elements/1.1/"
   xmlns:cc="http://creativecommons.org/ns#"
   xmlns:rdf="http://www.w3.org/1999/02/22-rdf-syntax-ns#"
   xmlns:svg="http://www.w3.org/2000/svg"
   xmlns="http://www.w3.org/2000/svg"
   viewBox="0 0 377.94666 377.94666"
   height="377.94666"
   width="377.94666"
   xml:space="preserve"
   id="svg2"
   version="1.1"><metadata
     id="metadata8"><rdf:RDF><cc:Work
         rdf:about=""><dc:format>image/svg+xml</dc:format><dc:type
           rdf:resource="http://purl.org/dc/dcmitype/StillImage" /></cc:Work></rdf:RDF></metadata><defs
     id="defs6"><clipPath
       id="clipPath24"
       clipPathUnits="userSpaceOnUse"><path
         id="path22"
         d="M 0,283.46 H 283.46 V 0 H 0 Z" /></clipPath></defs><g
     transform="matrix(1.3333333,0,0,-1.3333333,0,377.94667)"
     id="g10"><path
       id="path12"
       style="fill:#f9b00b;fill-opacity:1;fill-rule:nonzero;stroke:none"
       d="M 0,0 H 283.46 V 283.46 H 0 Z" /><g
       transform="translate(29.0762,251.8657)"
       id="g14"><path
         id="path16"
         style="fill:#ffffff;fill-opacity:1;fill-rule:nonzero;stroke:none"
         d="M 0,0 H 14.838 L 2.02,-49.313 h 9.532 L 24.111,-1.012 V 7.842 L 0,7.842 Z" /></g><g
       id="g18"><g
         clip-path="url(#clipPath24)"
         id="g20"><g
           transform="translate(141.8433,83.2881)"
           id="g26"><path
             id="path28"
             style="fill:#ffffff;fill-opacity:1;fill-rule:nonzero;stroke:none"
             d="m 0,0 c -11.933,0 -21.608,9.673 -21.608,21.607 0,9.701 6.385,17.905 15.187,20.64 v -8.046 c -4.582,-2.339 -7.725,-7.094 -7.725,-12.594 0,-7.812 6.332,-14.145 14.146,-14.145 7.815,0 14.145,6.333 14.145,14.145 0,5.516 -3.158,10.279 -7.76,12.614 v 8.036 C 15.204,39.534 21.612,31.322 21.612,21.607 21.612,9.673 11.936,0 0,0 m -3.083,46.422 c 0,1.383 1.389,2.905 3.094,2.905 1.7,0 3.077,-1.522 3.077,-2.905 V 32.158 c 0,-1.377 -1.377,-2.884 -3.077,-2.884 -1.705,0 -3.094,1.507 -3.094,2.884 z m 3.076,16.411 c -22.941,0 -41.542,-18.6 -41.542,-41.544 0,-22.954 18.601,-41.55 41.542,-41.55 22.943,0 41.541,18.596 41.541,41.55 0,22.944 -18.598,41.544 -41.541,41.544" /></g><g
           transform="translate(94.147,104.9404)"
           id="g30"><path
             id="path32"
             style="fill:#ffffff;fill-opacity:1;fill-rule:nonzero;stroke:none"
             d="m 0,0 c 0,1.884 -1.668,3.409 -3.192,3.409 h -18.195 c -1.534,0 -3.217,-1.525 -3.217,-3.409 0,-1.889 1.683,-3.423 3.217,-3.423 H -3.192 C -1.668,-3.423 0,-1.889 0,0" /></g><g
           transform="translate(214.1484,104.9404)"
           id="g34"><path
             id="path36"
             style="fill:#ffffff;fill-opacity:1;fill-rule:nonzero;stroke:none"
             d="m 0,0 c 0,1.884 -1.668,3.409 -3.191,3.409 h -18.194 c -1.533,0 -3.217,-1.525 -3.217,-3.409 0,-1.889 1.684,-3.423 3.217,-3.423 H -3.191 C -1.668,-3.423 0,-1.889 0,0" /></g><g
           transform="translate(141.854,152.6333)"
           id="g38"><path
             id="path40"
             style="fill:#ffffff;fill-opacity:1;fill-rule:nonzero;stroke:none"
             d="m 0,0 c 1.88,0 3.408,1.668 3.408,3.189 v 18.198 c 0,1.534 -1.528,3.216 -3.408,3.216 -1.887,0 -3.425,-1.682 -3.425,-3.216 V 3.189 C -3.425,1.668 -1.887,0 0,0" /></g><g
           transform="translate(141.854,32.6328)"
           id="g42"><path
             id="path44"
             style="fill:#ffffff;fill-opacity:1;fill-rule:nonzero;stroke:none"
             d="m 0,0 c 1.88,0 3.408,1.669 3.408,3.192 v 18.192 c 0,1.533 -1.528,3.219 -3.408,3.219 -1.887,0 -3.425,-1.686 -3.425,-3.219 V 3.192 C -3.425,1.669 -1.887,0 0,0" /></g><g
           transform="translate(100.4497,128.6328)"
           id="g46"><path
             id="path48"
             style="fill:#ffffff;fill-opacity:1;fill-rule:nonzero;stroke:none"
             d="m 0,0 c 0.938,1.636 0.248,3.788 -1.076,4.545 l -15.791,9.036 c -1.331,0.763 -3.55,0.275 -4.486,-1.359 -0.937,-1.639 -0.238,-3.806 1.094,-4.571 l 15.79,-9.036 C -3.148,-2.142 -0.938,-1.639 0,0" /></g><g
           transform="translate(204.6016,69.0254)"
           id="g50"><path
             id="path52"
             style="fill:#ffffff;fill-opacity:1;fill-rule:nonzero;stroke:none"
             d="m 0,0 c 0.934,1.633 0.244,3.788 -1.076,4.545 l -15.791,9.036 c -1.33,0.761 -3.551,0.274 -4.487,-1.363 -0.937,-1.635 -0.238,-3.806 1.094,-4.566 L -4.471,-1.385 C -3.148,-2.142 -0.939,-1.639 0,0" /></g><g
           transform="translate(165.5469,146.3286)"
           id="g54"><path
             id="path56"
             style="fill:#ffffff;fill-opacity:1;fill-rule:nonzero;stroke:none"
             d="m 0,0 c 1.633,-0.935 3.783,-0.244 4.543,1.077 l 9.035,15.789 c 0.764,1.334 0.276,3.553 -1.359,4.488 -1.637,0.939 -3.809,0.238 -4.571,-1.093 L -1.387,4.473 C -2.145,3.147 -1.643,0.938 0,0" /></g><g
           transform="translate(105.939,42.1787)"
           id="g58"><path
             id="path60"
             style="fill:#ffffff;fill-opacity:1;fill-rule:nonzero;stroke:none"
             d="m 0,0 c 1.633,-0.935 3.785,-0.245 4.543,1.078 l 9.036,15.788 c 0.763,1.332 0.273,3.554 -1.361,4.488 -1.635,0.938 -3.809,0.238 -4.569,-1.092 L -1.387,4.473 C -2.144,3.151 -1.641,0.938 0,0" /></g><g
           transform="translate(118.0737,146.2876)"
           id="g62"><path
             id="path64"
             style="fill:#ffffff;fill-opacity:1;fill-rule:nonzero;stroke:none"
             d="m 0,0 c 1.632,0.938 2.124,3.146 1.363,4.467 l -9.068,15.772 c -0.769,1.33 -2.927,2.028 -4.561,1.087 -1.64,-0.938 -2.128,-3.166 -1.359,-4.494 L -4.559,1.063 C -3.796,-0.259 -1.641,-0.941 0,0" /></g><g
           transform="translate(177.8945,42.2588)"
           id="g66"><path
             id="path68"
             style="fill:#ffffff;fill-opacity:1;fill-rule:nonzero;stroke:none"
             d="m 0,0 c 1.631,0.939 2.123,3.146 1.365,4.466 l -9.068,15.772 c -0.768,1.33 -2.928,2.029 -4.563,1.09 -1.638,-0.939 -2.129,-3.166 -1.359,-4.497 L -4.557,1.06 C -3.799,-0.26 -1.639,-0.94 0,0" /></g><g
           transform="translate(183.2012,128.707)"
           id="g70"><path
             id="path72"
             style="fill:#ffffff;fill-opacity:1;fill-rule:nonzero;stroke:none"
             d="m 0,0 c 0.938,-1.631 3.145,-2.123 4.465,-1.364 l 15.769,9.069 c 1.332,0.766 2.034,2.928 1.094,4.56 -0.941,1.636 -3.164,2.128 -4.496,1.362 L 1.061,4.559 C -0.26,3.8 -0.943,1.636 0,0" /></g><g
           transform="translate(79.1724,68.8848)"
           id="g74"><path
             id="path76"
             style="fill:#ffffff;fill-opacity:1;fill-rule:nonzero;stroke:none"
             d="m 0,0 c 0.938,-1.631 3.145,-2.123 4.466,-1.362 l 15.768,9.068 c 1.332,0.765 2.035,2.927 1.09,4.559 -0.936,1.637 -3.163,2.128 -4.491,1.364 L 1.061,4.561 C -0.261,3.802 -0.941,1.638 0,0" /></g><g
           transform="translate(80.6953,241.9365)"
           id="g78"><path
             id="path80"
             style="fill:#ffffff;fill-opacity:1;fill-rule:nonzero;stroke:none"
             d="m 0,0 v 11.557 c 0,3.736 1.762,6.449 5.991,6.449 4.44,0 5.674,-2.466 5.674,-5.99 V 9.196 H 8 v 3.137 c 0,1.48 -0.494,2.326 -1.939,2.326 -1.444,0 -2.043,-1.023 -2.043,-2.467 V -0.635 c 0,-1.445 0.599,-2.467 2.043,-2.467 1.445,0 1.939,0.916 1.939,2.326 v 4.405 h 3.665 v -4.123 c 0,-3.418 -1.411,-5.955 -5.674,-5.955 C 1.762,-6.449 0,-3.7 0,0" /></g><g
           transform="translate(98.2769,239.0464)"
           id="g82"><path
             id="path84"
             style="fill:#ffffff;fill-opacity:1;fill-rule:nonzero;stroke:none"
             d="M 0,0 H 6.096 V -3.277 H -4.193 V 0 l 6.307,17.337 h -5.673 v 3.277 h 9.902 v -3.277 z" /></g><g
           transform="translate(114.3765,244.8608)"
           id="g86"><path
             id="path88"
             style="fill:#ffffff;fill-opacity:1;fill-rule:nonzero;stroke:none"
             d="M 0,0 V -9.091 H -4.017 V 0 l -4.475,14.8 h 4.193 l 2.432,-9.056 h 0.035 L 0.6,14.8 h 3.839 z" /></g><g
           transform="translate(120.0474,240.9141)"
           id="g90"><path
             id="path92"
             style="fill:#ffffff;fill-opacity:1;fill-rule:nonzero;stroke:none"
             d="M 0,0 V 3.207 H 3.735 V -0.07 c 0,-1.339 0.6,-2.115 1.973,-2.115 1.27,0 1.833,0.847 1.833,2.115 v 0.916 c 0,1.374 -0.563,2.22 -1.798,3.383 L 3.383,6.59 C 1.092,8.845 0.035,10.219 0.035,12.968 v 0.81 c 0,2.96 1.728,5.251 5.638,5.251 4.017,0 5.603,-1.974 5.603,-5.427 V 11.664 H 7.611 v 2.079 c 0,1.374 -0.633,2.043 -1.903,2.043 -1.127,0 -1.902,-0.634 -1.902,-1.973 V 13.32 c 0,-1.339 0.74,-2.114 1.902,-3.242 L 8.281,7.542 c 2.185,-2.221 3.241,-3.56 3.241,-6.203 V 0.176 c 0,-3.277 -1.761,-5.603 -5.849,-5.603 C 1.586,-5.427 0,-3.136 0,0" /></g><g
           transform="translate(133.0474,259.6606)"
           id="g94"><path
             id="path96"
             style="fill:#ffffff;fill-opacity:1;fill-rule:nonzero;stroke:none"
             d="M 0,0 H 10.675 V -3.277 H 7.364 V -23.891 H 3.312 v 20.614 l -3.312,0 z" /></g><g
           transform="translate(149.8164,243.3452)"
           id="g98"><path
             id="path100"
             style="fill:#ffffff;fill-opacity:1;fill-rule:nonzero;stroke:none"
             d="M 0,0 H 3.207 L 1.621,9.585 H 1.586 Z m -5.039,-7.576 4.512,23.891 h 4.58 L 8.598,-7.576 H 4.477 l -0.741,4.37 h -4.263 l -0.705,-4.37 z" /></g><path
           id="path102"
           style="fill:#ffffff;fill-opacity:1;fill-rule:nonzero;stroke:none"
           d="m 163.412,259.661 h 4.02 V 235.77 h -4.02 z" /><g
           transform="translate(178.8086,239.0464)"
           id="g104"><path
             id="path106"
             style="fill:#ffffff;fill-opacity:1;fill-rule:nonzero;stroke:none"
             d="m 0,0 c 1.656,0 2.291,0.987 2.291,2.432 v 12.509 c 0,1.41 -0.635,2.396 -2.291,2.396 H -1.691 V 0 Z M 6.309,14.201 V 3.136 c 0,-3.664 -1.516,-6.413 -5.815,-6.413 h -6.201 v 23.891 h 6.201 c 4.299,0 5.815,-2.713 5.815,-6.413" /></g><g
           transform="translate(195.3672,241.3018)"
           id="g108"><path
             id="path110"
             style="fill:#ffffff;fill-opacity:1;fill-rule:nonzero;stroke:none"
             d="m 0,0 v 12.827 c 0,1.444 -0.633,2.466 -2.078,2.466 -1.41,0 -2.043,-1.022 -2.043,-2.466 V 0 c 0,-1.445 0.633,-2.467 2.043,-2.467 C -0.633,-2.467 0,-1.445 0,0 m -8.139,0.635 v 11.557 c 0,3.736 1.834,6.449 6.061,6.449 4.264,0 6.096,-2.713 6.096,-6.449 V 0.635 c 0,-3.7 -1.832,-6.449 -6.096,-6.449 -4.227,0 -6.061,2.749 -6.061,6.449" /></g><g
           transform="translate(201.2852,240.9141)"
           id="g112"><path
             id="path114"
             style="fill:#ffffff;fill-opacity:1;fill-rule:nonzero;stroke:none"
             d="M 0,0 V 3.207 H 3.734 V -0.07 c 0,-1.339 0.602,-2.115 1.973,-2.115 1.27,0 1.834,0.847 1.834,2.115 v 0.916 c 0,1.374 -0.564,2.22 -1.799,3.383 L 3.383,6.59 C 1.092,8.845 0.035,10.219 0.035,12.968 v 0.81 c 0,2.96 1.727,5.251 5.639,5.251 4.015,0 5.601,-1.974 5.601,-5.427 V 11.664 H 7.611 v 2.079 c 0,1.374 -0.634,2.043 -1.904,2.043 -1.127,0 -1.902,-0.634 -1.902,-1.973 V 13.32 c 0,-1.339 0.74,-2.114 1.902,-3.242 L 8.281,7.542 c 2.186,-2.221 3.24,-3.56 3.24,-6.203 V 0.176 c 0,-3.277 -1.759,-5.603 -5.847,-5.603 C 1.586,-5.427 0,-3.136 0,0" /></g><g
           transform="translate(214.2832,259.6606)"
           id="g116"><path
             id="path118"
             style="fill:#ffffff;fill-opacity:1;fill-rule:nonzero;stroke:none"
             d="M 0,0 H 10.678 V -3.277 H 7.365 V -23.891 H 3.313 v 20.614 l -3.313,0 z" /></g><g
           transform="translate(226.6484,259.6606)"
           id="g120"><path
             id="path122"
             style="fill:#ffffff;fill-opacity:1;fill-rule:nonzero;stroke:none"
             d="M 0,0 H 9.586 V -3.277 H 4.018 v -6.836 h 3.98 v -3.241 h -3.98 v -7.26 h 5.568 v -3.277 H 8.775 c -0.316,-0.282 -0.599,-0.564 -0.599,-0.845 0,-0.212 0.105,-0.318 0.459,-0.318 h 0.14 v -2.009 h -1.41 c -1.619,0 -2.431,0.494 -2.431,1.446 0,1.092 1.445,1.691 1.656,1.726 H 0 Z" /></g><g
           transform="translate(242.2207,256.3838)"
           id="g124"><path
             id="path126"
             style="fill:#ffffff;fill-opacity:1;fill-rule:nonzero;stroke:none"
             d="m 0,0 v -9.409 h 1.48 c 1.375,0 1.973,0.669 1.973,1.973 v 5.498 C 3.453,-0.635 2.855,0 1.48,0 Z m -4.016,3.277 h 5.955 c 4.051,0 5.534,-2.008 5.534,-5.356 v -5.039 c 0,-3.348 -1.483,-5.391 -5.534,-5.391 H 0 v -8.105 h -4.016 z" /></g><g
           transform="translate(254.9727,250.7813)"
           id="g128"><path
             id="path130"
             style="fill:#ffffff;fill-opacity:1;fill-rule:nonzero;stroke:none"
             d="M 0,0 V -15.012 H -3.381 V 8.879 H 0.564 L 4.9,-4.828 V 8.879 H 8.248 V -15.012 H 4.725 Z" /></g><g
           transform="translate(269.7363,243.3452)"
           id="g132"><path
             id="path134"
             style="fill:#ffffff;fill-opacity:1;fill-rule:nonzero;stroke:none"
             d="M 0,0 H 3.207 L 1.621,9.585 H 1.586 Z m -5.041,-7.576 4.512,23.891 H 4.053 L 8.598,-7.576 H 4.475 l -0.741,4.37 h -4.263 l -0.705,-4.37 z" /></g><g
           transform="translate(80.6953,226.1924)"
           id="g136"><path
             id="path138"
             style="fill:#ffffff;fill-opacity:1;fill-rule:nonzero;stroke:none"
             d="M 0,0 H 9.585 V -3.277 H 4.018 v -6.836 H 8 v -3.242 H 4.018 v -7.259 h 5.567 v -3.277 H 0 Z" /></g><g
           transform="translate(95.8091,217.3125)"
           id="g140"><path
             id="path142"
             style="fill:#ffffff;fill-opacity:1;fill-rule:nonzero;stroke:none"
             d="M 0,0 V -15.011 H -3.383 V 8.88 H 0.564 L 4.898,-4.828 V 8.88 H 8.246 V -15.011 H 4.723 Z" /></g><g
           transform="translate(106.3423,226.1924)"
           id="g144"><path
             id="path146"
             style="fill:#ffffff;fill-opacity:1;fill-rule:nonzero;stroke:none"
             d="M 0,0 H 9.585 V -3.277 H 4.018 v -6.836 h 3.981 v -3.242 H 4.018 v -7.259 h 5.567 v -3.277 H 0 Z" /></g><g
           transform="translate(122.0913,222.915)"
           id="g148"><path
             id="path150"
             style="fill:#ffffff;fill-opacity:1;fill-rule:nonzero;stroke:none"
             d="m 0,0 v -7.436 h 1.338 c 1.374,0 1.974,0.706 1.974,1.975 v 3.523 C 3.312,-0.635 2.712,0 1.338,0 Z M 0,-9.655 V -20.614 H -4.018 V 3.277 h 5.85 c 4.052,0 5.531,-2.008 5.531,-5.356 v -3.066 c 0,-2.572 -0.916,-4.087 -3.206,-4.616 L 7.998,-20.614 H 3.77 Z" /></g><g
           transform="translate(137.6987,215.0571)"
           id="g152"><path
             id="path154"
             style="fill:#ffffff;fill-opacity:1;fill-rule:nonzero;stroke:none"
             d="m 0,0 h 5.708 v -12.756 h -2.89 v 2.608 c -0.528,-1.798 -1.656,-2.89 -3.84,-2.89 -3.454,0 -5.04,2.748 -5.04,6.449 V 4.968 c 0,3.736 1.798,6.449 6.027,6.449 4.439,0 5.743,-2.467 5.743,-5.99 V 3.313 H 2.043 V 5.744 C 2.043,7.223 1.479,8.07 0.035,8.07 -1.41,8.07 -2.044,7.047 -2.044,5.603 V -7.224 c 0,-1.445 0.599,-2.467 1.973,-2.467 1.304,0 1.973,0.741 1.973,2.291 v 4.229 l -1.902,0 z" /></g><path
           id="path156"
           style="fill:#ffffff;fill-opacity:1;fill-rule:nonzero;stroke:none"
           d="m 145.693,226.192 h 4.016 v -23.891 h -4.016 z" /><g
           transform="translate(156.4395,209.877)"
           id="g158"><path
             id="path160"
             style="fill:#ffffff;fill-opacity:1;fill-rule:nonzero;stroke:none"
             d="M 0,0 H 3.207 L 1.621,9.585 H 1.586 Z m -5.041,-7.576 4.512,23.891 H 4.053 L 8.598,-7.576 H 4.475 l -0.741,4.369 h -4.263 l -0.705,-4.369 z" /></g></g></g></g></svg>