<?xml version="1.0" encoding="UTF-8" standalone="no"?>
<svg
   xmlns:dc="http://purl.org/dc/elements/1.1/"
   xmlns:cc="http://creativecommons.org/ns#"
   xmlns:rdf="http://www.w3.org/1999/02/22-rdf-syntax-ns#"
   xmlns:svg="http://www.w3.org/2000/svg"
   xmlns="http://www.w3.org/2000/svg"
   viewBox="0 0 377.94666 377.94666"
   height="377.94666"
   width="377.94666"
   xml:space="preserve"
   id="svg2"
   version="1.1"><metadata
     id="metadata8"><rdf:RDF><cc:Work
         rdf:about=""><dc:format>image/svg+xml</dc:format><dc:type
           rdf:resource="http://purl.org/dc/dcmitype/StillImage" /></cc:Work></rdf:RDF></metadata><defs
     id="defs6"><clipPath
       id="clipPath28"
       clipPathUnits="userSpaceOnUse"><path
         id="path26"
         d="M 0,283.46 H 283.46 V 0 H 0 Z" /></clipPath></defs><g
     transform="matrix(1.3333333,0,0,-1.3333333,0,377.94667)"
     id="g10"><path
       id="path12"
       style="fill:#8c1535;fill-opacity:1;fill-rule:nonzero;stroke:none"
       d="M 0,0 H 283.46 V 283.46 H 0 Z" /><g
       transform="translate(84.2808,250.5342)"
       id="g14"><path
         id="path16"
         style="fill:#ffffff;fill-opacity:1;fill-rule:nonzero;stroke:none"
         d="m 0,0 -2.255,-14.762 h -3.77 L -9.231,9.125 h 3.876 l 1.867,-15.149 h 0.035 L -1.445,9.125 H 1.832 L 4.052,-6.024 H 4.087 L 5.919,9.125 H 9.301 L 6.2,-14.762 H 2.396 L 0.035,0 Z" /></g><g
       transform="translate(99.2183,239.0488)"
       id="g18"><path
         id="path20"
         style="fill:#ffffff;fill-opacity:1;fill-rule:nonzero;stroke:none"
         d="M 0,0 H 6.095 V -3.277 H -4.194 V 0 L 2.113,17.334 H -3.56 v 3.277 h 9.902 v -3.277 z" /></g><g
       id="g22"><g
         clip-path="url(#clipPath28)"
         id="g24"><g
           transform="translate(111.6899,256.3828)"
           id="g30"><path
             id="path32"
             style="fill:#ffffff;fill-opacity:1;fill-rule:nonzero;stroke:none"
             d="m 0,0 v -7.434 h 1.339 c 1.374,0 1.973,0.705 1.973,1.973 v 3.523 C 3.312,-0.634 2.713,0 1.339,0 Z M 0,-9.653 V -20.611 H -4.017 V 3.277 h 5.849 c 4.052,0 5.531,-2.008 5.531,-5.356 v -3.065 c 0,-2.572 -0.916,-4.087 -3.206,-4.615 L 7.998,-20.611 H 3.77 Z" /></g><g
           transform="translate(129.3755,241.3037)"
           id="g34"><path
             id="path36"
             style="fill:#ffffff;fill-opacity:1;fill-rule:nonzero;stroke:none"
             d="m 0,0 v 12.824 c 0,1.445 -0.634,2.467 -2.079,2.467 -1.409,0 -2.043,-1.022 -2.043,-2.467 V 0 c 0,-1.445 0.634,-2.466 2.043,-2.466 C -0.634,-2.466 0,-1.445 0,0 M -8.139,0.634 V 12.19 c 0,3.735 1.832,6.448 6.06,6.448 4.265,0 6.097,-2.713 6.097,-6.448 V 0.634 c 0,-3.699 -1.832,-6.447 -6.097,-6.447 -4.228,0 -6.06,2.748 -6.06,6.447" /></g><g
           transform="translate(135.4692,240.916)"
           id="g38"><path
             id="path40"
             style="fill:#ffffff;fill-opacity:1;fill-rule:nonzero;stroke:none"
             d="M 0,0 V 3.206 H 3.735 V -0.07 c 0,-1.339 0.599,-2.115 1.973,-2.115 1.269,0 1.833,0.846 1.833,2.115 v 0.916 c 0,1.374 -0.564,2.219 -1.798,3.382 l -2.36,2.36 c -2.29,2.255 -3.347,3.629 -3.347,6.377 v 0.811 c 0,2.959 1.726,5.249 5.637,5.249 4.016,0 5.602,-1.973 5.602,-5.425 V 11.662 H 7.611 v 2.079 c 0,1.374 -0.634,2.043 -1.903,2.043 -1.127,0 -1.902,-0.634 -1.902,-1.973 v -0.493 c 0,-1.339 0.74,-2.114 1.902,-3.242 L 8.281,7.54 c 2.183,-2.22 3.24,-3.559 3.24,-6.201 V 0.176 c 0,-3.277 -1.762,-5.602 -5.848,-5.602 C 1.586,-5.426 0,-3.136 0,0" /></g><g
           transform="translate(148.6465,259.6597)"
           id="g42"><path
             id="path44"
             style="fill:#ffffff;fill-opacity:1;fill-rule:nonzero;stroke:none"
             d="M 0,0 H 10.676 V -3.277 H 7.363 V -23.888 H 3.311 v 20.611 l -3.311,0 z" /></g><g
           transform="translate(81.6733,215.0576)"
           id="g46"><path
             id="path48"
             style="fill:#ffffff;fill-opacity:1;fill-rule:nonzero;stroke:none"
             d="m 0,0 h 5.708 v -12.754 h -2.89 v 2.607 c -0.528,-1.797 -1.656,-2.889 -3.84,-2.889 -3.453,0 -5.038,2.748 -5.038,6.447 V 4.968 c 0,3.734 1.797,6.447 6.025,6.447 4.439,0 5.743,-2.466 5.743,-5.989 V 3.312 H 2.043 v 2.431 c 0,1.48 -0.564,2.325 -2.008,2.325 -1.444,0 -2.078,-1.022 -2.078,-2.466 V -7.223 c 0,-1.444 0.598,-2.466 1.973,-2.466 1.303,0 1.972,0.74 1.972,2.29 v 4.228 l -1.902,0 z" /></g><g
           transform="translate(97.8091,207.835)"
           id="g50"><path
             id="path52"
             style="fill:#ffffff;fill-opacity:1;fill-rule:nonzero;stroke:none"
             d="m 0,0 v 12.824 c 0,1.445 -0.634,2.467 -2.08,2.467 -1.409,0 -2.043,-1.022 -2.043,-2.467 V 0 c 0,-1.445 0.634,-2.466 2.043,-2.466 C -0.634,-2.466 0,-1.445 0,0 M -8.14,0.634 V 12.19 c 0,3.735 1.832,6.448 6.06,6.448 4.265,0 6.097,-2.713 6.097,-6.448 V 0.634 c 0,-3.699 -1.832,-6.447 -6.097,-6.447 -4.228,0 -6.06,2.748 -6.06,6.447" /></g><g
           transform="translate(103.9028,207.4473)"
           id="g54"><path
             id="path56"
             style="fill:#ffffff;fill-opacity:1;fill-rule:nonzero;stroke:none"
             d="M 0,0 V 3.206 H 3.735 V -0.07 c 0,-1.339 0.599,-2.115 1.973,-2.115 1.269,0 1.832,0.846 1.832,2.115 v 0.916 c 0,1.374 -0.563,2.219 -1.797,3.382 l -2.36,2.36 c -2.29,2.255 -3.347,3.629 -3.347,6.377 v 0.811 c 0,2.959 1.726,5.249 5.637,5.249 4.016,0 5.601,-1.973 5.601,-5.425 V 11.662 H 7.61 v 2.079 c 0,1.374 -0.633,2.043 -1.902,2.043 -1.127,0 -1.902,-0.634 -1.902,-1.973 v -0.493 c 0,-1.339 0.74,-2.114 1.902,-3.242 L 8.28,7.54 C 10.465,5.32 11.521,3.981 11.521,1.339 V 0.176 C 11.521,-3.101 9.76,-5.426 5.673,-5.426 1.586,-5.426 0,-3.136 0,0" /></g><g
           transform="translate(121.5542,222.9141)"
           id="g58"><path
             id="path60"
             style="fill:#ffffff;fill-opacity:1;fill-rule:nonzero;stroke:none"
             d="m 0,0 v -9.407 h 1.479 c 1.375,0 1.974,0.67 1.974,1.973 v 5.496 C 3.453,-0.634 2.854,0 1.479,0 Z m -4.017,3.277 h 5.955 c 4.051,0 5.531,-2.008 5.531,-5.356 v -5.038 c 0,-3.347 -1.48,-5.39 -5.531,-5.39 H 0 v -8.104 h -4.017 z" /></g><g
           transform="translate(139.2397,207.835)"
           id="g62"><path
             id="path64"
             style="fill:#ffffff;fill-opacity:1;fill-rule:nonzero;stroke:none"
             d="m 0,0 v 12.824 c 0,1.445 -0.634,2.467 -2.079,2.467 -1.409,0 -2.043,-1.022 -2.043,-2.467 V 0 c 0,-1.445 0.634,-2.466 2.043,-2.466 C -0.634,-2.466 0,-1.445 0,0 M -8.139,0.634 V 12.19 c 0,3.735 1.832,6.448 6.06,6.448 4.264,0 6.095,-2.713 6.095,-6.448 V 0.634 c 0,-3.699 -1.831,-6.447 -6.095,-6.447 -4.228,0 -6.06,2.748 -6.06,6.447" /></g><g
           transform="translate(151.2539,205.5801)"
           id="g66"><path
             id="path68"
             style="fill:#ffffff;fill-opacity:1;fill-rule:nonzero;stroke:none"
             d="m 0,0 c 1.654,0 2.289,0.986 2.289,2.431 v 12.507 c 0,1.41 -0.635,2.396 -2.289,2.396 H -1.691 V 0 Z M 6.307,14.198 V 3.135 c 0,-3.664 -1.516,-6.412 -5.815,-6.412 h -6.201 v 23.888 h 6.201 c 4.299,0 5.815,-2.713 5.815,-6.413" /></g><g
           transform="translate(164.2539,209.8784)"
           id="g70"><path
             id="path72"
             style="fill:#ffffff;fill-opacity:1;fill-rule:nonzero;stroke:none"
             d="M 0,0 H 3.205 L 1.619,9.583 H 1.584 Z m -5.039,-7.575 4.51,23.888 h 4.58 L 8.596,-7.575 H 4.475 l -0.741,4.368 h -4.263 l -0.705,-4.368 z" /></g><g
           transform="translate(178.5215,222.9141)"
           id="g74"><path
             id="path76"
             style="fill:#ffffff;fill-opacity:1;fill-rule:nonzero;stroke:none"
             d="m 0,0 v -7.434 h 1.338 c 1.375,0 1.973,0.705 1.973,1.973 v 3.523 C 3.311,-0.634 2.713,0 1.338,0 Z M 0,-9.653 V -20.611 H -4.018 V 3.277 h 5.85 c 4.051,0 5.531,-2.008 5.531,-5.356 v -3.065 c 0,-2.572 -0.916,-4.087 -3.207,-4.615 L 7.998,-20.611 H 3.77 Z" /></g><g
           transform="translate(188.0684,208.4688)"
           id="g78"><path
             id="path80"
             style="fill:#ffffff;fill-opacity:1;fill-rule:nonzero;stroke:none"
             d="m 0,0 v 11.557 c 0,3.734 1.762,6.447 5.988,6.447 4.442,0 5.674,-2.466 5.674,-5.989 V 9.196 H 7.998 v 3.136 c 0,1.48 -0.492,2.325 -1.939,2.325 -1.444,0 -2.043,-1.022 -2.043,-2.467 V -0.634 c 0,-1.445 0.599,-2.466 2.043,-2.466 1.447,0 1.939,0.916 1.939,2.325 v 4.404 h 3.664 v -4.122 c 0,-3.418 -1.408,-5.954 -5.674,-5.954 C 1.762,-6.447 0,-3.699 0,0" /></g><g
           transform="translate(205.8262,205.5801)"
           id="g82"><path
             id="path84"
             style="fill:#ffffff;fill-opacity:1;fill-rule:nonzero;stroke:none"
             d="M 0,0 H 6.094 V -3.277 H -4.193 V 0 l 6.306,17.334 h -5.672 v 3.277 h 9.901 v -3.277 z" /></g><g
           transform="translate(222.1016,211.3931)"
           id="g86"><path
             id="path88"
             style="fill:#ffffff;fill-opacity:1;fill-rule:nonzero;stroke:none"
             d="M 0,0 V -9.09 H -4.018 V 0 l -4.474,14.798 h 4.193 l 2.432,-9.055 h 0.035 L 0.6,14.798 h 3.839 z" /></g><path
           id="path90"
           style="fill:#ffffff;fill-opacity:1;fill-rule:nonzero;stroke:none"
           d="M 75.613,192.723 H 79.63 V 168.835 H 75.613 Z" /><g
           transform="translate(91.7134,181.5889)"
           id="g92"><path
             id="path94"
             style="fill:#ffffff;fill-opacity:1;fill-rule:nonzero;stroke:none"
             d="m 0,0 h 5.709 v -12.754 h -2.89 v 2.608 c -0.529,-1.797 -1.656,-2.89 -3.84,-2.89 -3.454,0 -5.039,2.748 -5.039,6.448 V 4.968 c 0,3.735 1.797,6.448 6.025,6.448 4.439,0 5.744,-2.467 5.744,-5.99 V 3.313 H 2.044 v 2.43 c 0,1.48 -0.564,2.325 -2.009,2.325 -1.444,0 -2.078,-1.021 -2.078,-2.465 V -7.223 c 0,-1.444 0.599,-2.465 1.973,-2.465 1.303,0 1.973,0.739 1.973,2.29 v 4.227 l -1.903,0 z" /></g><g
           transform="translate(107.8491,174.3662)"
           id="g96"><path
             id="path98"
             style="fill:#ffffff;fill-opacity:1;fill-rule:nonzero;stroke:none"
             d="m 0,0 v 12.825 c 0,1.445 -0.634,2.466 -2.079,2.466 -1.409,0 -2.043,-1.021 -2.043,-2.466 V 0 c 0,-1.444 0.634,-2.466 2.043,-2.466 C -0.634,-2.466 0,-1.444 0,0 M -8.139,0.635 V 12.19 c 0,3.736 1.832,6.449 6.06,6.449 4.264,0 6.096,-2.713 6.096,-6.449 V 0.635 c 0,-3.7 -1.832,-6.448 -6.096,-6.448 -4.228,0 -6.06,2.748 -6.06,6.448" /></g><g
           transform="translate(119.8628,172.1113)"
           id="g100"><path
             id="path102"
             style="fill:#ffffff;fill-opacity:1;fill-rule:nonzero;stroke:none"
             d="m 0,0 c 1.655,0 2.29,0.986 2.29,2.432 v 12.506 c 0,1.411 -0.635,2.397 -2.29,2.397 H -1.691 V 0 Z M 6.307,14.199 V 3.136 c 0,-3.664 -1.516,-6.412 -5.814,-6.412 h -6.201 v 23.887 h 6.201 c 4.298,0 5.814,-2.713 5.814,-6.412" /></g><g
           transform="translate(131.8403,183.8438)"
           id="g104"><path
             id="path106"
             style="fill:#ffffff;fill-opacity:1;fill-rule:nonzero;stroke:none"
             d="M 0,0 V -15.009 H -3.383 V 8.879 H 0.564 L 4.897,-4.826 V 8.879 H 8.245 V -15.009 H 4.722 Z" /></g><g
           transform="translate(146.7793,176.4102)"
           id="g108"><path
             id="path110"
             style="fill:#ffffff;fill-opacity:1;fill-rule:nonzero;stroke:none"
             d="M 0,0 H 3.205 L 1.619,9.583 H 1.584 Z m -5.039,-7.575 4.51,23.888 h 4.58 L 8.596,-7.575 H 4.475 l -0.741,4.369 h -4.263 l -0.705,-4.369 z" /></g><g
           transform="translate(164.7461,189.4463)"
           id="g112"><path
             id="path114"
             style="fill:#ffffff;fill-opacity:1;fill-rule:nonzero;stroke:none"
             d="m 0,0 v -9.407 h 1.48 c 1.374,0 1.973,0.669 1.973,1.972 v 5.497 C 3.453,-0.635 2.854,0 1.48,0 Z m -4.018,3.276 h 5.956 c 4.052,0 5.531,-2.007 5.531,-5.355 v -5.038 c 0,-3.347 -1.479,-5.391 -5.531,-5.391 H 0 v -8.103 h -4.018 z" /></g><g
           transform="translate(178.3086,189.4463)"
           id="g116"><path
             id="path118"
             style="fill:#ffffff;fill-opacity:1;fill-rule:nonzero;stroke:none"
             d="m 0,0 v -7.435 h 1.34 c 1.373,0 1.973,0.706 1.973,1.974 v 3.523 C 3.313,-0.635 2.713,0 1.34,0 Z M 0,-9.654 V -20.611 H -4.016 V 3.276 h 5.848 c 4.053,0 5.531,-2.007 5.531,-5.355 v -3.066 c 0,-2.571 -0.916,-4.086 -3.205,-4.615 l 3.84,-10.851 H 3.77 Z" /></g><g
           transform="translate(192.2598,176.4102)"
           id="g120"><path
             id="path122"
             style="fill:#ffffff;fill-opacity:1;fill-rule:nonzero;stroke:none"
             d="M 0,0 H 3.207 L 1.621,9.583 H 1.586 Z m -5.037,-7.575 4.51,23.888 h 4.58 L 8.598,-7.575 H 4.477 l -0.741,4.369 h -4.263 l -0.705,-4.369 z" /></g><g
           transform="translate(202.5117,175.001)"
           id="g124"><path
             id="path126"
             style="fill:#ffffff;fill-opacity:1;fill-rule:nonzero;stroke:none"
             d="m 0,0 v 11.556 c 0,3.735 1.762,6.448 5.99,6.448 4.44,0 5.672,-2.467 5.672,-5.99 V 9.195 H 7.998 v 3.136 c 0,1.48 -0.492,2.325 -1.937,2.325 -1.446,0 -2.043,-1.021 -2.043,-2.466 V -0.635 c 0,-1.444 0.597,-2.466 2.043,-2.466 1.445,0 1.937,0.916 1.937,2.326 v 4.404 h 3.664 v -4.122 c 0,-3.418 -1.408,-5.955 -5.672,-5.955 C 1.762,-6.448 0,-3.7 0,0" /></g><g
           transform="translate(220.7617,176.4102)"
           id="g128"><path
             id="path130"
             style="fill:#ffffff;fill-opacity:1;fill-rule:nonzero;stroke:none"
             d="M 0,0 H 3.207 L 1.621,9.583 H 1.586 Z m -5.037,-7.575 4.51,23.888 h 4.58 L 8.598,-7.575 H 4.475 l -0.741,4.369 h -4.261 l -0.705,-4.369 z" /></g><g
           transform="translate(45.4673,215.5278)"
           id="g132"><path
             id="path134"
             style="fill:#ffffff;fill-opacity:1;fill-rule:nonzero;stroke:none"
             d="m 0,0 c 0,-3.457 -1.266,-5.902 -4.72,-5.902 -3.375,0 -4.635,2.445 -4.635,5.902 v 9.275 c 0,3.454 1.26,5.898 4.635,5.898 3.454,0 4.72,-2.444 4.72,-5.898 z m -9.021,31.607 c 0,3.462 1.184,5.486 4.301,5.486 3.201,0 4.385,-2.024 4.385,-5.486 v -3.872 c 0,-3.456 -1.184,-5.485 -4.385,-5.485 -3.117,0 -4.301,2.029 -4.301,5.485 z M 9.61,1.012 v 6.239 c 0,5.478 -1.935,9.441 -6.406,11.465 3.79,1.85 5.564,5.222 5.564,9.943 v 2.363 c 0,8.937 -4.636,13.741 -13.488,13.741 -8.765,0 -13.32,-4.804 -13.32,-13.741 v -2.363 c 0,-4.636 1.689,-8.093 5.394,-9.943 -4.467,-2.024 -6.322,-5.987 -6.322,-11.465 V 1.012 c 0,-8.683 4.133,-14.753 14.248,-14.753 10.198,0 14.33,6.07 14.33,14.753" /></g><g
           transform="translate(195.5186,131.6758)"
           id="g136"><path
             id="path138"
             style="fill:#ffffff;fill-opacity:1;fill-rule:nonzero;stroke:none"
             d="m 0,0 -28.811,-27.405 c -1.09,-1.084 -1.646,-1.881 -1.646,-4.118 v -76.814 c 0,-0.901 0.736,-1.638 1.646,-1.638 h 29.76 c 0.906,0 1.64,0.737 1.64,1.638 V -0.689 C 2.589,0.215 1.878,1.87 0,0" /></g><g
           transform="translate(112.5137,95.9688)"
           id="g140"><path
             id="path142"
             style="fill:#ffffff;fill-opacity:1;fill-rule:nonzero;stroke:none"
             d="m 0,0 -28.813,-27.404 c -1.086,-1.083 -1.644,-1.878 -1.644,-4.113 V -72.63 c 0,-0.898 0.737,-1.636 1.644,-1.636 H 0.948 c 0.908,0 1.642,0.738 1.642,1.636 V -0.688 C 2.59,0.22 1.875,1.878 0,0" /></g><g
           transform="translate(208.6133,164.9126)"
           id="g144"><path
             id="path146"
             style="fill:#ffffff;fill-opacity:1;fill-rule:nonzero;stroke:none"
             d="M 0,0 C 0.011,0.219 -0.067,0.452 -0.246,0.624 -0.397,0.771 -0.59,0.842 -0.775,0.858 L -0.936,0.847 -1.171,0.835 -23.23,-4.145 -23.633,-4.184 c -0.158,-0.033 -0.307,-0.112 -0.43,-0.225 -0.327,-0.327 -0.327,-0.857 0,-1.187 l 0.248,-0.248 5.04,-5.038 -49.993,-49.989 -23.086,23.089 c -0.262,0.264 -0.677,0.264 -0.941,0 l -6.265,-6.266 c -0.005,0 -0.005,-0.007 -0.005,-0.007 l -37.012,-37.003 c -0.256,-0.262 -0.256,-0.686 0,-0.942 l 6.275,-6.27 c 0.255,-0.26 0.672,-0.26 0.931,0 l 36.552,36.542 16.756,-16.757 c 0.015,-0.025 0.024,-0.053 0.051,-0.079 l 6.267,-6.258 c 0.26,-0.265 0.677,-0.265 0.939,0 l 56.739,56.732 5.29,-5.285 c 0.324,-0.33 0.853,-0.33 1.176,0 0.152,0.153 0.228,0.342 0.238,0.542 l 0.006,0.07 4.845,22.52 z" /></g><g
           transform="translate(154.1797,91.1592)"
           id="g148"><path
             id="path150"
             style="fill:#ffffff;fill-opacity:1;fill-rule:nonzero;stroke:none"
             d="m 0,0 -13.941,-14.054 c -0.266,-0.218 -0.653,-0.213 -0.899,0.033 l -12.629,12.874 c -2.31,2.302 -2.811,0.434 -2.811,-0.47 v -66.2 c 0,-0.902 0.727,-1.639 1.631,-1.639 H 1.123 c 0.898,0 1.635,0.737 1.635,1.639 V -0.52 C 2.758,0.385 2.046,2.047 0,0" /></g></g></g></g></svg>