<?xml version="1.0" encoding="UTF-8" standalone="no"?>
<svg
   xmlns:dc="http://purl.org/dc/elements/1.1/"
   xmlns:cc="http://creativecommons.org/ns#"
   xmlns:rdf="http://www.w3.org/1999/02/22-rdf-syntax-ns#"
   xmlns:svg="http://www.w3.org/2000/svg"
   xmlns="http://www.w3.org/2000/svg"
   viewBox="0 0 377.94666 377.94666"
   height="377.94666"
   width="377.94666"
   xml:space="preserve"
   id="svg2"
   version="1.1"><metadata
     id="metadata8"><rdf:RDF><cc:Work
         rdf:about=""><dc:format>image/svg+xml</dc:format><dc:type
           rdf:resource="http://purl.org/dc/dcmitype/StillImage" /></cc:Work></rdf:RDF></metadata><defs
     id="defs6"><clipPath
       id="clipPath30"
       clipPathUnits="userSpaceOnUse"><path
         id="path28"
         d="M 0,283.46 H 283.46 V 0 H 0 Z" /></clipPath></defs><g
     transform="matrix(1.3333333,0,0,-1.3333333,0,377.94667)"
     id="g10"><path
       id="path12"
       style="fill:#f25a1d;fill-opacity:1;fill-rule:nonzero;stroke:none"
       d="M 0,0 H 283.46 V 283.46 H 0 Z" /><path
       id="path14"
       style="fill:#ffffff;fill-opacity:1;fill-rule:nonzero;stroke:none"
       d="m 68.282,259.659 h 4.017 v -23.888 h -4.017 z" /><g
       transform="translate(77.019,250.7808)"
       id="g16"><path
         id="path18"
         style="fill:#ffffff;fill-opacity:1;fill-rule:nonzero;stroke:none"
         d="M 0,0 V -15.009 H -3.382 V 8.878 H 0.563 L 4.897,-4.827 V 8.878 H 8.245 V -15.009 H 4.721 Z" /></g><g
       transform="translate(89.9482,250.7808)"
       id="g20"><path
         id="path22"
         style="fill:#ffffff;fill-opacity:1;fill-rule:nonzero;stroke:none"
         d="M 0,0 V -15.009 H -3.382 V 8.878 H 0.564 L 4.897,-4.827 V 8.878 H 8.245 V -15.009 H 4.722 Z" /></g><g
       id="g24"><g
         clip-path="url(#clipPath30)"
         id="g26"><g
           transform="translate(107.6338,241.3032)"
           id="g32"><path
             id="path34"
             style="fill:#ffffff;fill-opacity:1;fill-rule:nonzero;stroke:none"
             d="m 0,0 v 12.824 c 0,1.445 -0.634,2.467 -2.079,2.467 -1.409,0 -2.043,-1.022 -2.043,-2.467 V 0 c 0,-1.445 0.634,-2.466 2.043,-2.466 C -0.634,-2.466 0,-1.445 0,0 M -8.139,0.634 V 12.19 c 0,3.735 1.832,6.448 6.06,6.448 4.264,0 6.096,-2.713 6.096,-6.448 V 0.634 c 0,-3.699 -1.832,-6.447 -6.096,-6.447 -4.228,0 -6.06,2.748 -6.06,6.447" /></g><g
           transform="translate(121.6191,250.5337)"
           id="g36"><path
             id="path38"
             style="fill:#ffffff;fill-opacity:1;fill-rule:nonzero;stroke:none"
             d="M 0,0 -2.255,-14.762 H -6.024 L -9.23,9.125 h 3.875 l 1.867,-15.149 h 0.036 L -1.444,9.125 H 1.832 L 4.052,-6.024 H 4.087 L 5.919,9.125 H 9.302 L 6.201,-14.762 H 2.396 L 0.035,0 Z" /></g><g
           transform="translate(136.0635,243.3467)"
           id="g40"><path
             id="path42"
             style="fill:#ffffff;fill-opacity:1;fill-rule:nonzero;stroke:none"
             d="M 0,0 H 3.206 L 1.62,9.583 H 1.585 Z m -5.038,-7.575 4.51,23.888 h 4.58 L 8.597,-7.575 H 4.475 l -0.741,4.368 h -4.262 l -0.705,-4.368 z" /></g><g
           transform="translate(145.3281,241.937)"
           id="g44"><path
             id="path46"
             style="fill:#ffffff;fill-opacity:1;fill-rule:nonzero;stroke:none"
             d="m 0,0 v 11.557 c 0,3.734 1.762,6.447 5.989,6.447 4.44,0 5.673,-2.466 5.673,-5.989 V 9.196 H 7.998 v 3.136 c 0,1.48 -0.493,2.325 -1.938,2.325 -1.445,0 -2.043,-1.022 -2.043,-2.467 V -0.634 c 0,-1.445 0.598,-2.466 2.043,-2.466 1.445,0 1.938,0.916 1.938,2.325 v 4.404 h 3.664 v -4.122 c 0,-3.418 -1.409,-5.954 -5.673,-5.954 C 1.762,-6.447 0,-3.699 0,0" /></g><g
           transform="translate(166.0088,244.8613)"
           id="g48"><path
             id="path50"
             style="fill:#ffffff;fill-opacity:1;fill-rule:nonzero;stroke:none"
             d="M 0,0 V -9.09 H -4.018 V 0 l -4.474,14.798 h 4.193 l 2.432,-9.055 h 0.035 L 0.6,14.798 h 3.839 z" /></g><g
           transform="translate(181.7578,259.6592)"
           id="g52"><path
             id="path54"
             style="fill:#ffffff;fill-opacity:1;fill-rule:nonzero;stroke:none"
             d="m 0,0 v -18.462 c 0,-3.453 -1.516,-5.707 -5.532,-5.707 -4.157,0 -5.284,2.29 -5.284,5.319 v 4.757 h 3.804 v -4.827 c 0,-1.198 0.423,-1.902 1.48,-1.902 1.093,0 1.515,0.704 1.515,1.937 l 0,18.885 z" /></g><g
           transform="translate(186.4063,250.7808)"
           id="g56"><path
             id="path58"
             style="fill:#ffffff;fill-opacity:1;fill-rule:nonzero;stroke:none"
             d="M 0,0 V -15.009 H -3.382 V 8.878 H 0.564 L 4.897,-4.827 V 8.878 H 8.245 V -15.009 H 4.722 Z" /></g><g
           transform="translate(204.0928,241.3032)"
           id="g60"><path
             id="path62"
             style="fill:#ffffff;fill-opacity:1;fill-rule:nonzero;stroke:none"
             d="m 0,0 v 12.824 c 0,1.445 -0.634,2.467 -2.079,2.467 -1.409,0 -2.043,-1.022 -2.043,-2.467 V 0 c 0,-1.445 0.634,-2.466 2.043,-2.466 C -0.634,-2.466 0,-1.445 0,0 M -8.139,0.634 V 12.19 c 0,3.735 1.832,6.448 6.06,6.448 4.264,0 6.096,-2.713 6.096,-6.448 V 0.634 c 0,-3.699 -1.832,-6.447 -6.096,-6.447 -4.228,0 -6.06,2.748 -6.06,6.447" /></g><g
           transform="translate(218.2188,261.3501)"
           id="g64"><path
             id="path66"
             style="fill:#ffffff;fill-opacity:1;fill-rule:nonzero;stroke:none"
             d="M 0,0 -6.306,-0.81 V 1.445 L 0,2.784 Z m -9.02,-20.435 v 3.206 h 3.736 v -3.276 c 0,-1.339 0.598,-2.114 1.972,-2.114 1.269,0 1.833,0.846 1.833,2.114 v 0.916 c 0,1.374 -0.564,2.219 -1.797,3.382 l -2.361,2.361 c -2.29,2.255 -3.346,3.629 -3.346,6.377 v 0.81 c 0,2.96 1.725,5.25 5.636,5.25 4.017,0 5.602,-1.973 5.602,-5.426 v -1.937 h -3.664 v 2.078 c 0,1.374 -0.634,2.044 -1.903,2.044 -1.126,0 -1.902,-0.635 -1.902,-1.974 v -0.493 c 0,-1.339 0.74,-2.114 1.902,-3.241 l 2.573,-2.537 c 2.184,-2.22 3.241,-3.559 3.241,-6.201 v -1.162 c 0,-3.277 -1.762,-5.602 -5.849,-5.602 -4.087,0 -5.673,2.29 -5.673,5.425" /></g><g
           transform="translate(231.043,261.3501)"
           id="g68"><path
             id="path70"
             style="fill:#ffffff;fill-opacity:1;fill-rule:nonzero;stroke:none"
             d="M 0,0 -6.307,-0.81 V 1.445 L 0,2.784 Z m -9.195,-19.413 v 11.557 c 0,3.734 1.761,6.447 5.989,6.447 4.439,0 5.673,-2.466 5.673,-5.989 v -2.819 h -3.664 v 3.135 c 0,1.48 -0.493,2.326 -1.939,2.326 -1.444,0 -2.043,-1.022 -2.043,-2.467 v -12.824 c 0,-1.445 0.599,-2.466 2.043,-2.466 1.446,0 1.939,0.916 1.939,2.325 v 4.404 h 3.664 v -4.122 c 0,-3.418 -1.409,-5.954 -5.673,-5.954 -4.228,0 -5.989,2.748 -5.989,6.447" /></g><g
           transform="translate(238.8281,239.2949)"
           id="g72"><path
             id="path74"
             style="fill:#ffffff;fill-opacity:1;fill-rule:nonzero;stroke:none"
             d="m 0,0 -2.043,-5.391 h -2.255 l 0.493,5.708 3.805,0 z" /></g><g
           transform="translate(72.2988,222.9146)"
           id="g76"><path
             id="path78"
             style="fill:#ffffff;fill-opacity:1;fill-rule:nonzero;stroke:none"
             d="m 0,0 v -9.407 h 1.479 c 1.375,0 1.974,0.67 1.974,1.973 v 5.496 C 3.453,-0.634 2.854,0 1.479,0 Z m -4.017,3.277 h 5.955 c 4.051,0 5.531,-2.008 5.531,-5.356 v -5.038 c 0,-3.347 -1.48,-5.39 -5.531,-5.39 H 0 v -8.104 h -4.017 z" /></g><g
           transform="translate(84.876,222.9146)"
           id="g80"><path
             id="path82"
             style="fill:#ffffff;fill-opacity:1;fill-rule:nonzero;stroke:none"
             d="m 0,0 v -7.434 h 1.339 c 1.374,0 1.973,0.705 1.973,1.973 v 3.523 C 3.312,-0.634 2.713,0 1.339,0 Z M 0,-9.653 V -20.611 H -4.017 V 3.277 h 5.849 c 4.052,0 5.531,-2.008 5.531,-5.356 v -3.065 c 0,-2.572 -0.916,-4.087 -3.206,-4.615 L 7.998,-20.611 H 3.77 Z" /></g><g
           transform="translate(97.3477,205.5806)"
           id="g84"><path
             id="path86"
             style="fill:#ffffff;fill-opacity:1;fill-rule:nonzero;stroke:none"
             d="M 0,0 H 6.095 V -3.277 H -4.193 V 0 l 6.306,17.334 h -5.672 v 3.277 h 9.901 v -3.277 z" /></g><g
           transform="translate(104.8154,226.1914)"
           id="g88"><path
             id="path90"
             style="fill:#ffffff;fill-opacity:1;fill-rule:nonzero;stroke:none"
             d="M 0,0 H 9.583 V -3.277 H 4.017 v -6.835 h 3.981 v -3.241 H 4.017 v -7.258 h 5.566 v -3.277 H 0 Z" /></g><g
           transform="translate(126.623,217.8062)"
           id="g92"><path
             id="path94"
             style="fill:#ffffff;fill-opacity:1;fill-rule:nonzero;stroke:none"
             d="M 0,0 H -0.105 L -2.818,-15.502 H -4.686 L -7.681,0 h -0.07 v -15.502 h -3.312 V 8.385 h 4.686 L -3.77,-5.074 h 0.036 L -1.409,8.385 H 3.665 V -15.502 H 0 Z" /></g><g
           transform="translate(139.4111,211.3936)"
           id="g96"><path
             id="path98"
             style="fill:#ffffff;fill-opacity:1;fill-rule:nonzero;stroke:none"
             d="M 0,0 V -9.09 H -4.017 V 0 l -4.474,14.798 h 4.193 l 2.431,-9.055 h 0.035 L 0.6,14.798 h 3.839 z" /></g><g
           transform="translate(144.2715,207.4478)"
           id="g100"><path
             id="path102"
             style="fill:#ffffff;fill-opacity:1;fill-rule:nonzero;stroke:none"
             d="m 0,0 v 3.206 h 3.735 v -3.277 c 0,-1.338 0.599,-2.114 1.973,-2.114 1.269,0 1.832,0.846 1.832,2.114 v 0.917 c 0,1.374 -0.563,2.219 -1.797,3.382 l -2.36,2.36 c -2.29,2.255 -3.347,3.629 -3.347,6.377 v 0.811 c 0,2.959 1.726,5.249 5.637,5.249 4.016,0 5.601,-1.973 5.601,-5.425 V 11.662 H 7.61 v 2.079 c 0,1.374 -0.633,2.043 -1.902,2.043 -1.127,0 -1.902,-0.634 -1.902,-1.973 v -0.493 c 0,-1.339 0.74,-2.114 1.902,-3.241 L 8.28,7.54 C 10.465,5.32 11.521,3.981 11.521,1.339 V 0.176 C 11.521,-3.101 9.76,-5.426 5.673,-5.426 1.586,-5.426 0,-3.136 0,0" /></g><g
           transform="translate(156.4268,213.2612)"
           id="g104"><path
             id="path106"
             style="fill:#ffffff;fill-opacity:1;fill-rule:nonzero;stroke:none"
             d="M 0,0 1.021,0.458 V 12.93 H 5.038 V 2.325 l 3.277,1.55 V 0.986 l -3.277,-1.55 v -7.117 h 4.793 v -3.277 h -8.81 v 8.527 L 0,-2.889 Z" /></g><g
           transform="translate(171.2236,205.8271)"
           id="g108"><path
             id="path110"
             style="fill:#ffffff;fill-opacity:1;fill-rule:nonzero;stroke:none"
             d="m 0,0 -2.043,-5.391 h -2.255 l 0.493,5.708 3.805,0 z" /></g><path
           id="path112"
           style="fill:#ffffff;fill-opacity:1;fill-rule:nonzero;stroke:none"
           d="m 68.282,192.724 h 4.017 v -23.888 h -4.017 z" /><g
           transform="translate(77.019,183.8447)"
           id="g114"><path
             id="path116"
             style="fill:#ffffff;fill-opacity:1;fill-rule:nonzero;stroke:none"
             d="M 0,0 V -15.009 H -3.382 V 8.879 H 0.563 L 4.897,-4.826 V 8.879 H 8.245 V -15.009 H 4.721 Z" /></g><g
           transform="translate(86.5664,192.7236)"
           id="g118"><path
             id="path120"
             style="fill:#ffffff;fill-opacity:1;fill-rule:nonzero;stroke:none"
             d="m 0,0 h 9.407 v -3.276 h -5.39 v -6.835 h 4.016 v -3.243 H 4.017 V -23.888 H 0 Z" /></g><g
           transform="translate(100.7637,189.4473)"
           id="g122"><path
             id="path124"
             style="fill:#ffffff;fill-opacity:1;fill-rule:nonzero;stroke:none"
             d="m 0,0 v -7.435 h 1.339 c 1.374,0 1.973,0.706 1.973,1.974 v 3.523 C 3.312,-0.635 2.713,0 1.339,0 Z M 0,-9.654 V -20.611 H -4.017 V 3.276 h 5.849 c 4.052,0 5.531,-2.007 5.531,-5.355 v -3.066 c 0,-2.571 -0.916,-4.086 -3.206,-4.615 L 7.998,-20.611 H 3.77 Z" /></g><g
           transform="translate(113.7285,176.4111)"
           id="g126"><path
             id="path128"
             style="fill:#ffffff;fill-opacity:1;fill-rule:nonzero;stroke:none"
             d="M 0,0 H 3.206 L 1.62,9.583 H 1.585 Z m -5.038,-7.575 4.51,23.888 h 4.58 L 8.597,-7.575 H 4.475 l -0.741,4.369 h -4.262 l -0.705,-4.369 z" /></g><g
           transform="translate(122.7813,173.9795)"
           id="g130"><path
             id="path132"
             style="fill:#ffffff;fill-opacity:1;fill-rule:nonzero;stroke:none"
             d="M 0,0 V 3.207 H 3.735 V -0.07 c 0,-1.339 0.599,-2.114 1.973,-2.114 1.269,0 1.832,0.845 1.832,2.114 v 0.916 c 0,1.374 -0.563,2.219 -1.797,3.383 l -2.36,2.36 c -2.29,2.255 -3.347,3.629 -3.347,6.377 v 0.81 c 0,2.96 1.726,5.25 5.637,5.25 4.016,0 5.601,-1.973 5.601,-5.425 V 11.662 H 7.61 v 2.079 c 0,1.374 -0.633,2.043 -1.902,2.043 -1.127,0 -1.902,-0.634 -1.902,-1.972 v -0.494 c 0,-1.339 0.74,-2.114 1.902,-3.241 L 8.28,7.54 C 10.465,5.32 11.521,3.981 11.521,1.339 V 0.177 C 11.521,-3.1 9.76,-5.426 5.673,-5.426 1.586,-5.426 0,-3.136 0,0" /></g><g
           transform="translate(134.9707,192.7236)"
           id="g134"><path
             id="path136"
             style="fill:#ffffff;fill-opacity:1;fill-rule:nonzero;stroke:none"
             d="M 0,0 H 10.676 V -3.276 H 7.363 V -23.888 H 3.312 V -3.276 H 0 Z" /></g><g
           transform="translate(150.543,189.4473)"
           id="g138"><path
             id="path140"
             style="fill:#ffffff;fill-opacity:1;fill-rule:nonzero;stroke:none"
             d="m 0,0 v -7.435 h 1.339 c 1.374,0 1.973,0.706 1.973,1.974 v 3.523 C 3.312,-0.635 2.713,0 1.339,0 Z M 0,-9.654 V -20.611 H -4.017 V 3.276 h 5.849 c 4.052,0 5.531,-2.007 5.531,-5.355 v -3.066 c 0,-2.571 -0.916,-4.086 -3.206,-4.615 L 7.998,-20.611 H 3.77 Z" /></g><g
           transform="translate(170.7656,192.7236)"
           id="g142"><path
             id="path144"
             style="fill:#ffffff;fill-opacity:1;fill-rule:nonzero;stroke:none"
             d="m 0,0 v -18.074 c 0,-3.699 -1.586,-6.096 -5.673,-6.096 -4.228,0 -5.99,2.397 -5.99,6.096 V 0 h 4.017 v -18.462 c 0,-1.409 0.564,-2.36 1.973,-2.36 1.409,0 1.974,0.951 1.974,2.36 V 0 Z" /></g><g
           transform="translate(176.085,180.4629)"
           id="g146"><path
             id="path148"
             style="fill:#ffffff;fill-opacity:1;fill-rule:nonzero;stroke:none"
             d="M 0,0 V -11.627 H -4.017 V 12.261 H 0 V 1.762 L 4.369,12.261 H 8.314 L 3.664,1.515 8.421,-11.627 H 4.192 Z" /></g><g
           transform="translate(184.5752,192.7236)"
           id="g150"><path
             id="path152"
             style="fill:#ffffff;fill-opacity:1;fill-rule:nonzero;stroke:none"
             d="M 0,0 H 10.676 V -3.276 H 7.363 V -23.888 H 3.312 V -3.276 H 0 Z" /></g><g
           transform="translate(207.792,192.7236)"
           id="g154"><path
             id="path156"
             style="fill:#ffffff;fill-opacity:1;fill-rule:nonzero;stroke:none"
             d="m 0,0 v -18.074 c 0,-3.699 -1.586,-6.096 -5.673,-6.096 -4.227,0 -5.989,2.397 -5.989,6.096 V 0 h 4.016 v -18.462 c 0,-1.409 0.564,-2.36 1.973,-2.36 1.409,0 1.974,0.951 1.974,2.36 l 0,18.462 z" /></g><g
           transform="translate(213.1113,189.4473)"
           id="g158"><path
             id="path160"
             style="fill:#ffffff;fill-opacity:1;fill-rule:nonzero;stroke:none"
             d="m 0,0 v -7.435 h 1.339 c 1.374,0 1.973,0.706 1.973,1.974 v 3.523 C 3.312,-0.635 2.713,0 1.339,0 Z M 0,-9.654 V -20.611 H -4.017 V 3.276 h 5.849 c 4.052,0 5.531,-2.007 5.531,-5.355 v -3.066 c 0,-2.571 -0.916,-4.086 -3.206,-4.615 L 7.998,-20.611 H 3.77 Z" /></g><g
           transform="translate(226.0762,176.4111)"
           id="g162"><path
             id="path164"
             style="fill:#ffffff;fill-opacity:1;fill-rule:nonzero;stroke:none"
             d="M 0,0 H 3.206 L 1.62,9.583 H 1.585 Z m -5.038,-7.575 4.51,23.888 h 4.58 L 8.597,-7.575 H 4.475 l -0.741,4.369 h -4.262 l -0.705,-4.369 z" /></g><g
           transform="translate(42.3945,236.564)"
           id="g166"><path
             id="path168"
             style="fill:#ffffff;fill-opacity:1;fill-rule:nonzero;stroke:none"
             d="m 0,0 c -0.169,-3.199 -1.515,-5.221 -4.549,-5.221 -3.281,0 -4.55,2.022 -4.55,5.73 v 9.942 c 0,3.621 1.346,5.726 4.635,5.726 3.201,0 4.464,-2.19 4.464,-5.726 z m 9.524,8.763 c 0,8.85 -3.878,15.249 -13.988,15.249 -10.198,0 -14.154,-5.557 -14.154,-14.405 V 1.18 c 0,-9.354 3.703,-14.069 10.617,-14.069 4.044,0 6.486,1.855 7.918,4.631 H 0 v -12.297 c 0,-3.454 -1.35,-5.899 -4.803,-5.899 -3.454,0 -4.718,2.022 -4.718,5.561 v 3.789 h -8.764 v -3.034 c 0,-8.423 3.036,-14.32 13.654,-14.32 10.106,0 14.155,6.488 14.155,15.418 z" /></g><g
           transform="translate(210.6982,40.3984)"
           id="g170"><path
             id="path172"
             style="fill:#ffffff;fill-opacity:1;fill-rule:nonzero;stroke:none"
             d="m 0,0 -30.25,-17.458 v 34.92 L 0,34.927 Z m -99.93,-17.458 v 32.266 l 27.945,-16.136 z m -4.596,0 L -134.772,0 v 34.927 l 30.246,-17.465 z M -71.985,79.137 -99.93,63 V 95.269 Z M -34.848,63 -62.787,79.137 -34.848,95.269 Z M -62.787,38.907 -32.549,56.365 -2.301,38.909 -32.549,21.444 Z m -6.899,3.983 -27.944,16.13 27.944,16.136 z M -37.146,59.018 -65.088,42.89 V 75.156 Z M -69.686,2.654 -97.633,18.79 -69.686,34.927 Z M 3.447,40.899 -30.25,60.346 v 38.905 c 0,0.82 -0.438,1.579 -1.15,1.99 l -34.838,20.114 c -0.711,0.407 -1.586,0.407 -2.298,0 l -34.841,-20.114 c -0.713,-0.411 -1.149,-1.17 -1.149,-1.99 V 60.346 l -33.693,-19.447 c -0.712,-0.411 -1.149,-1.17 -1.149,-1.99 V -1.328 c 0,-0.822 0.437,-1.579 1.149,-1.991 l 34.842,-20.112 c 0.356,-0.203 0.75,-0.307 1.148,-0.307 0.397,0 0.793,0.104 1.15,0.307 l 33.692,19.449 33.69,-19.449 c 0.353,-0.203 0.752,-0.307 1.148,-0.307 0.397,0 0.793,0.101 1.149,0.307 L 3.447,-3.319 c 0.711,0.411 1.147,1.169 1.147,1.991 v 40.237 c 0,0.82 -0.436,1.579 -1.147,1.99" /></g></g></g></g></svg>