<svg id="Warstwa_1" data-name="Warstwa 1" xmlns="http://www.w3.org/2000/svg" xmlns:xlink="http://www.w3.org/1999/xlink" viewBox="0 0 177.93 180.23"><defs><style>.cls-1{fill:none;}.cls-2{clip-path:url(#clip-path);}.cls-3{fill:#5d2f88;}.cls-4{fill:#382259;}.cls-5{fill:#f8c409;}.cls-6{fill:#fff;}</style><clipPath id="clip-path"><rect class="cls-1" width="177.93" height="180.23"/></clipPath></defs><title>tropy-H</title><g class="cls-2"><g class="cls-2"><path class="cls-3" d="M89,177.29a14.72,14.72,0,0,1-10.58-4.43L7.17,100.53a14.92,14.92,0,0,1,0-20.83L78.39,7.37a14.85,14.85,0,0,1,21.16,0l71.21,72.32a14.91,14.91,0,0,1,0,20.84L99.55,172.86A14.72,14.72,0,0,1,89,177.29"/><path class="cls-4" d="M89,5.87a11.89,11.89,0,0,1,8.49,3.56l71.21,72.33a11.92,11.92,0,0,1,0,16.71L97.46,170.8a11.93,11.93,0,0,1-17,0L9.27,98.47a11.9,11.9,0,0,1,0-16.71L80.48,9.43A11.87,11.87,0,0,1,89,5.87M89,0A17.67,17.67,0,0,0,76.29,5.31L5.08,77.64a17.86,17.86,0,0,0,0,25l71.21,72.33a17.78,17.78,0,0,0,25.35,0l71.21-72.33a17.84,17.84,0,0,0,0-25L101.64,5.31A17.67,17.67,0,0,0,89,0"/><path class="cls-5" d="M133,86.53c7.86-10,10.14-19,6.41-25.51-2.05-3.55-6.8-7.78-17.81-7.78h0a58.7,58.7,0,0,0-12.05,1.42,62.55,62.55,0,0,0-3.17-8A4.94,4.94,0,0,1,103,48.52a60.58,60.58,0,0,1,2.78,7,104.42,104.42,0,0,0-11.19,3.64A31,31,0,0,1,100.73,61c2.09-.7,4.14-1.31,6.13-1.83.55,2,1,4.08,1.49,6.25A31.69,31.69,0,0,1,113,69.88a99.69,99.69,0,0,0-2.46-11.62,55.15,55.15,0,0,1,11-1.25c7,0,12.26,1.91,14.56,5.89,3.38,5.86-.27,14.94-8.74,24.43a102.23,102.23,0,0,0-8.81-7.92,31.65,31.65,0,0,1,1.56,6.31c1.65,1.46,3.2,2.93,4.64,4.39q-2.16,2.2-4.64,4.4a31.35,31.35,0,0,1-1.54,6.23,103.13,103.13,0,0,0,8.76-7.88c1.4,1.56,2.66,3.12,3.79,4.65a5,5,0,0,1,3.24-2A66.76,66.76,0,0,0,130,90.08c1.06-1.18,2.07-2.36,3-3.55"/><path class="cls-5" d="M135.73,105.38c2,4.63,2.2,8.77.37,11.94-2.3,4-7.53,5.9-14.56,5.9a54.48,54.48,0,0,1-11-1.26A99,99,0,0,0,113,110.38a30.28,30.28,0,0,1-2.12,2.28,30.75,30.75,0,0,1-2.41,2.12l-.14.11q-.66,3.24-1.49,6.21c-2-.51-4-1.12-6.13-1.82a32,32,0,0,1-6.14,1.78,106.71,106.71,0,0,0,11.19,3.64c-4,12.11-10,19.83-16.81,19.83s-12.82-7.72-16.81-19.83a107.48,107.48,0,0,0,11.19-3.64,32,32,0,0,1-6.14-1.78c-2.09.7-4.14,1.31-6.13,1.82q-.83-3-1.49-6.21l-.17-.13a29.61,29.61,0,0,1-2.27-2l-.1-.09a31,31,0,0,1-2.14-2.3A101.11,101.11,0,0,0,67.36,122a60.4,60.4,0,0,1-7.48,1.1,4.91,4.91,0,0,1,.63,2.38,5,5,0,0,1-.21,1.36,63.35,63.35,0,0,0,8.14-1.23C73,139.56,80.37,148.3,89,148.3s16-8.74,20.52-22.73A58.64,58.64,0,0,0,121.54,127c11,0,15.77-4.23,17.82-7.77,2.49-4.32,2.23-9.74-.34-15.66a4.93,4.93,0,0,1-3.29,1.83"/><path class="cls-5" d="M51.28,122.82c-4.44-.74-7.74-2.55-9.44-5.5-3.38-5.85.28-14.95,8.76-24.46a103.13,103.13,0,0,0,8.76,7.88c-.14-.39-.28-.78-.41-1.2a31.93,31.93,0,0,1-1.12-5q-2.47-2.2-4.64-4.41c1.44-1.46,3-2.93,4.63-4.39a31.67,31.67,0,0,1,1.57-6.31,102.42,102.42,0,0,0-8.82,7.92c-8.46-9.49-12.11-18.57-8.73-24.43,2.3-4,7.52-5.89,14.55-5.89a55,55,0,0,1,11,1.25,101.85,101.85,0,0,0-2.45,11.62,31.14,31.14,0,0,1,4.67-4.51c.45-2.17,1-4.26,1.5-6.25,2,.52,4,1.13,6.13,1.83a30.31,30.31,0,0,1,6.14-1.78,102.93,102.93,0,0,0-11.19-3.64c4-12.11,10-19.84,16.81-19.84,3.32,0,6.47,1.87,9.28,5.2a5,5,0,0,1,3.07-2.17C97.7,34.36,93.51,31.93,89,31.93c-8.6,0-16,8.74-20.53,22.73a58.7,58.7,0,0,0-12-1.42c-11,0-15.76,4.23-17.81,7.78C34.85,67.48,37.12,76.54,45,86.53q1.4,1.78,3,3.55c-9.81,11-13.7,21.68-9.4,29.13,1.65,2.85,5.06,6.15,12.07,7.33a5,5,0,0,1-.13-1.1,4.92,4.92,0,0,1,.76-2.62"/><path class="cls-6" d="M101.68,115.58a29,29,0,0,0,4.95-3.15,27.25,27.25,0,0,0,2.18-1.92,28.19,28.19,0,0,0,6.34-9.23,28.46,28.46,0,1,0-53.34-2.64,27.22,27.22,0,0,0,1,2.63,28.3,28.3,0,0,0,6.35,9.25l.1.09c.25.24.91.88,2.07,1.81a28.48,28.48,0,0,0,30.38,3.16m-31.5-14.07c-5.72-4.1-1.33-10.13,3.08-14s-2.43-5.82-4.17-10.27S73.55,75.66,77,72c2-2.13-.63-3.43-3.19-4.15A26.93,26.93,0,0,1,107,70.08c-2.63.48-5.95,1.35-8.17,2.9-4.18,2.93-8.63-.83-11.13,2.62s1.28,4.28,0,6.53,1.16,4.15-3.34,4-6.18,6.29-1.45,9.95,4.61,11.62,6.77,10.25,8.25-11.1,7-13.78-4.12-2.2-2.14-5.26,5.31-.93,7,2.65,3.32,8.15,6.72-.31c2-5,5.1-4.9,7.3-4a27,27,0,0,1-1.77,15.06,27,27,0,0,1-6,8.74c-.69.66-1.43,1.31-2.06,1.81a27.49,27.49,0,0,1-4.68,3,27,27,0,0,1-24.06,0,27.92,27.92,0,0,1-4.11-2.55c.58-3.46.53-7.87-2.65-10.15"/><path class="cls-6" d="M89.29,67c-3.56.58-2.07,2.33-1.22,3.08a2.52,2.52,0,0,0,3.05.35c1.26-.81,2.29.12,3-.44s-.28-3.74-4.87-3"/><path class="cls-6" d="M59.88,123.06a5,5,0,0,0-8.6-.24,4.9,4.9,0,0,0-.76,2.62,5,5,0,0,0,10,0,4.91,4.91,0,0,0-.63-2.38"/><path class="cls-6" d="M98.25,40.89a5,5,0,0,0,4.2,7.68,4.89,4.89,0,0,0,.55,0,5,5,0,0,0,4.45-5,5,5,0,0,0-5-5,4.73,4.73,0,0,0-1.13.14,5,5,0,0,0-3.07,2.17"/><path class="cls-6" d="M131.12,97.51a4.9,4.9,0,0,0-1,2.94,5,5,0,0,0,5,5,5.87,5.87,0,0,0,.59,0,5,5,0,0,0,4.4-4.94,5,5,0,0,0-5-5,4.91,4.91,0,0,0-.78.08,5,5,0,0,0-3.24,2"/><path class="cls-4" d="M172.09,90.11a11.89,11.89,0,0,1-3.42,8.36L97.46,170.8A11.88,11.88,0,0,1,89,174.35v5.88a17.67,17.67,0,0,0,12.67-5.31l71.22-72.33a17.77,17.77,0,0,0,5.08-12.48Z"/><path class="cls-4" d="M89,5.87a11.89,11.89,0,0,1,8.49,3.56l71.21,72.33a11.85,11.85,0,0,1,3.42,8.35h5.85a17.73,17.73,0,0,0-5.09-12.47L101.64,5.31A17.67,17.67,0,0,0,89,0Z"/><path class="cls-4" d="M9.27,81.76,80.48,9.43A11.87,11.87,0,0,1,89,5.87V0A17.67,17.67,0,0,0,76.29,5.31L5.08,77.64A17.72,17.72,0,0,0,0,90.11H5.84a11.82,11.82,0,0,1,3.43-8.35"/><path class="cls-4" d="M80.48,170.8,9.27,98.47a11.86,11.86,0,0,1-3.43-8.36H0a17.72,17.72,0,0,0,5.08,12.48l71.21,72.33A17.67,17.67,0,0,0,89,180.23v-5.88a11.86,11.86,0,0,1-8.49-3.55"/></g></g></svg>