<svg id="Warstwa_1" data-name="Warstwa 1" xmlns="http://www.w3.org/2000/svg" xmlns:xlink="http://www.w3.org/1999/xlink" viewBox="0 0 177.93 180.23"><defs><style>.cls-1{fill:none;}.cls-2{clip-path:url(#clip-path);}.cls-3{fill:#5d2f88;}.cls-4{fill:#382259;}.cls-5{fill:#f8c409;}.cls-6{fill:#fff;}</style><clipPath id="clip-path"><rect class="cls-1" width="177.93" height="180.23"/></clipPath></defs><title>tropy-H</title><g class="cls-2"><g class="cls-2"><path class="cls-3" d="M89,177.29a14.72,14.72,0,0,1-10.58-4.43L7.17,100.53a14.92,14.92,0,0,1,0-20.83L78.39,7.37a14.85,14.85,0,0,1,21.16,0L170.76,79.7a14.9,14.9,0,0,1,0,20.83L99.55,172.86A14.72,14.72,0,0,1,89,177.29"/><path class="cls-4" d="M89,5.87a11.89,11.89,0,0,1,8.49,3.56l71.21,72.33a11.92,11.92,0,0,1,0,16.71L97.46,170.8a11.93,11.93,0,0,1-17,0L9.27,98.47a11.9,11.9,0,0,1,0-16.71L80.48,9.43A11.87,11.87,0,0,1,89,5.87M89,0A17.63,17.63,0,0,0,76.29,5.31L5.08,77.64a17.86,17.86,0,0,0,0,25l71.21,72.33a17.78,17.78,0,0,0,25.35,0l71.21-72.33a17.84,17.84,0,0,0,0-25L101.64,5.31A17.63,17.63,0,0,0,89,0"/><path class="cls-5" d="M85.74,46l-1.36,4.29a.61.61,0,0,0,.93.67L89,48.39,92.62,51a.6.6,0,0,0,.93-.67L92.2,46l3.61-2.67a.6.6,0,0,0-.35-1.09l-4.5,0L89.54,38a.61.61,0,0,0-1.15,0L87,42.24l-4.49,0a.6.6,0,0,0-.36,1.09Z"/><path class="cls-5" d="M95.46,133.82l-4.5,0-1.42-4.27a.61.61,0,0,0-1.15,0L87,133.79l-4.49,0a.61.61,0,0,0-.36,1.1l3.62,2.67-1.36,4.28a.61.61,0,0,0,.93.68L89,139.93l3.65,2.62a.61.61,0,0,0,.93-.68l-1.35-4.28,3.61-2.67a.61.61,0,0,0-.35-1.1"/><path class="cls-5" d="M141.23,88.05l-4.49,0-1.43-4.27a.6.6,0,0,0-1.14,0L132.74,88l-4.49,0a.61.61,0,0,0-.36,1.09l3.62,2.67-1.36,4.29a.61.61,0,0,0,.93.67l3.66-2.61,3.66,2.61a.61.61,0,0,0,.93-.67L138,91.81l3.61-2.67a.6.6,0,0,0-.35-1.09"/><path class="cls-5" d="M46.85,96.77a.6.6,0,0,0,.93-.67l-1.35-4.29L50,89.14a.6.6,0,0,0-.35-1.09l-4.5,0-1.42-4.27a.61.61,0,0,0-1.15,0L41.2,88l-4.49,0a.6.6,0,0,0-.36,1.09L40,91.81,38.61,96.1a.6.6,0,0,0,.93.67l3.66-2.61Z"/><path class="cls-5" d="M51.73,64.05l.28-.11-1.37-4.09a.61.61,0,0,0-1.15,0l-1.42,4.26-4.49,0a.6.6,0,0,0-.36,1.09l3.62,2.67L45.48,72.2a.61.61,0,0,0,.93.67l3.34-2.39-.23-3a3.4,3.4,0,0,1,2.21-3.45"/><path class="cls-5" d="M135.84,109.92l-4.5,0-1.42-4.27a.61.61,0,0,0-1.15,0l-1.42,4.27h-2.41l-1,2.19,2.16,1.59L124.76,118a.61.61,0,0,0,.93.67l3.66-2.61,3.65,2.61a.6.6,0,0,0,.93-.67l-1.35-4.29,3.61-2.67a.6.6,0,0,0-.35-1.09"/><path class="cls-5" d="M109.36,51.16,108,55.44a.61.61,0,0,0,.93.68l3.65-2.62,3.66,2.62a.61.61,0,0,0,.93-.68l-1.36-4.28,3.62-2.67a.61.61,0,0,0-.36-1.1l-4.49,0-1.42-4.27a.61.61,0,0,0-1.15,0l-1.42,4.27-4.5,0a.61.61,0,0,0-.35,1.1Z"/><path class="cls-5" d="M73.31,126.67l-4.49,0-1.42-4.27a.61.61,0,0,0-1.15,0l-1.43,4.27-4.49,0a.61.61,0,0,0-.35,1.1l3.61,2.67-1.36,4.28a.61.61,0,0,0,.93.68l3.66-2.62,3.66,2.62a.61.61,0,0,0,.93-.68l-1.36-4.28,3.62-2.67a.61.61,0,0,0-.36-1.1"/><path class="cls-5" d="M126.12,67.91l-1.36,4.29a.61.61,0,0,0,.93.67l3.66-2.61L133,72.87a.6.6,0,0,0,.93-.67l-1.35-4.29,3.61-2.67a.6.6,0,0,0-.35-1.09l-4.5,0-1.42-4.26a.61.61,0,0,0-1.15,0l-1.42,4.26-4.49,0a.6.6,0,0,0-.36,1.09Z"/><path class="cls-5" d="M56.56,109.92l-4.5,0-1.42-4.27a.61.61,0,0,0-1.15,0l-1.42,4.27-4.49,0a.6.6,0,0,0-.36,1.09l3.62,2.67L45.48,118a.61.61,0,0,0,.93.67L50.07,116l3.65,2.61a.6.6,0,0,0,.93-.67l-1.35-4.29L56.91,111a.6.6,0,0,0-.35-1.09"/><path class="cls-5" d="M63.59,51.16l-1.35,4.28a.6.6,0,0,0,.92.68l3.66-2.62,3.66,2.62a.61.61,0,0,0,.93-.68l-1.36-4.28,3.62-2.67a.61.61,0,0,0-.36-1.1l-4.49,0L67.4,43.09a.61.61,0,0,0-1.15,0l-1.43,4.27-4.49,0a.61.61,0,0,0-.35,1.1Z"/><path class="cls-5" d="M114.82,127.61a2.75,2.75,0,0,1-.57,0l-5.34-.91-2.81,0a.61.61,0,0,0-.35,1.1l3.61,2.67L108,134.72a.61.61,0,0,0,.93.68l3.65-2.62,3.66,2.62a.61.61,0,0,0,.93-.68l-1.36-4.28,3.62-2.67a.61.61,0,0,0-.36-1.1h-1.91a3.38,3.38,0,0,1-2.35,1"/><polygon class="cls-6" points="92.43 120.38 114.82 124.21 123.51 104.77 116.34 85.17 121.2 80.55 114.03 62.46 83.83 63.1 89.41 56.99 79.63 57.31 52.91 67.24 55.62 102.53 92.43 120.38"/><path class="cls-4" d="M172.09,90.11a11.89,11.89,0,0,1-3.42,8.36L97.46,170.8A11.88,11.88,0,0,1,89,174.35v5.88a17.67,17.67,0,0,0,12.67-5.31l71.22-72.33a17.77,17.77,0,0,0,5.08-12.48Z"/><path class="cls-4" d="M89,5.87a11.89,11.89,0,0,1,8.49,3.56l71.21,72.33a11.85,11.85,0,0,1,3.42,8.35h5.85a17.71,17.71,0,0,0-5.09-12.47L101.64,5.31A17.63,17.63,0,0,0,89,0Z"/><path class="cls-4" d="M9.27,81.76,80.48,9.43A11.87,11.87,0,0,1,89,5.87V0A17.63,17.63,0,0,0,76.29,5.31L5.08,77.64A17.7,17.7,0,0,0,0,90.11H5.84a11.82,11.82,0,0,1,3.43-8.35"/><path class="cls-4" d="M80.48,170.8,9.27,98.47a11.86,11.86,0,0,1-3.43-8.36H0a17.72,17.72,0,0,0,5.08,12.48l71.21,72.33A17.67,17.67,0,0,0,89,180.23v-5.87a11.87,11.87,0,0,1-8.49-3.56"/></g></g></svg>