<?xml version="1.0" encoding="iso-8859-1"?>
<!-- Generator: Adobe Illustrator 24.2.3, SVG Export Plug-In . SVG Version: 6.00 Build 0)  -->
<svg version="1.1" xmlns="http://www.w3.org/2000/svg" xmlns:xlink="http://www.w3.org/1999/xlink" x="0px" y="0px"
	 viewBox="0 0 90.709 90.709" style="enable-background:new 0 0 90.709 90.709;" xml:space="preserve">
<g id="ratownik-1">
	<g>
		<g>
			<path style="fill:#194093;" d="M45.354,88.874c-23.997,0-43.52-19.522-43.52-43.52s19.522-43.52,43.52-43.52
				s43.521,19.522,43.521,43.52S69.351,88.874,45.354,88.874z"/>
			<g>
				<path style="fill:#000000; stroke:#000000;" d="M45.354,2.835c23.483,0,42.52,19.037,42.52,42.52s-19.037,42.52-42.52,42.52
					c-23.483,0-42.52-19.037-42.52-42.52S21.871,2.835,45.354,2.835 M45.354,0.835c-24.548,0-44.52,19.971-44.52,44.52
					s19.971,44.52,44.52,44.52s44.52-19.971,44.52-44.52S69.903,0.835,45.354,0.835L45.354,0.835z"/>
			</g>
		</g>
	</g>
</g>
<g id="Warstwa_4">
	<g>
		<g>
			<g>
				<path style="fill:#F8C409;" d="M58.354,24c11.928,0,21.598,9.67,21.598,21.598c0,0.255-0.03,0.503-0.038,0.756
					c-1.224-1.652-3.171-2.737-5.385-2.737c-2.218,0-4.169,1.088-5.392,2.746c-1.223-1.658-3.174-2.746-5.392-2.746
					c-2.218,0-4.169,1.088-5.392,2.746c-1.223-1.658-3.174-2.746-5.392-2.746s-4.169,1.088-5.392,2.746
					c-1.223-1.658-3.174-2.746-5.392-2.746c-2.214,0-4.161,1.085-5.385,2.737c-0.009-0.253-0.038-0.5-0.038-0.756
					C36.756,33.67,46.426,24,58.354,24"/>
			</g>
		</g>
		<path style="fill:#FFFFFF;" d="M78.238,49.194c-0.688-0.459-1.619-0.275-2.08,0.414l-12.845,19.23l5.976-17.915
			c0.263-0.786-0.162-1.636-0.948-1.897c-0.786-0.265-1.635,0.163-1.897,0.948l-6.589,19.751V50.449c0-0.828-0.672-1.5-1.5-1.5
			s-1.5,0.672-1.5,1.5v19.276l-6.588-19.75c-0.262-0.786-1.112-1.211-1.897-0.948c-0.786,0.262-1.21,1.111-0.948,1.897l5.965,17.883
			l-12.8-19.197c-0.46-0.689-1.392-0.876-2.08-0.416c-0.689,0.46-0.876,1.391-0.416,2.08l19.017,28.521
			c0.278,0.417,0.746,0.668,1.247,0.668c0.001,0,0.001,0,0.001,0c0.501,0,0.969-0.25,1.247-0.667l19.051-28.521
			C79.112,50.586,78.927,49.654,78.238,49.194z"/>
		<path style="fill:#F8C409;" d="M32.377,39.363c0.423-0.074,0.833-0.184,1.232-0.316c0.449-1.696,1.071-3.322,1.842-4.862
			c-0.751,1.011-1.825,1.769-3.074,2.11v-4.001l4.124,0c0.809-1.324,1.732-2.57,2.761-3.722c-0.863-3.248-3.532-5.762-6.884-6.348
			v-3.828c4.427,0.533,8.135,3.39,9.891,7.309c0.791-0.641,1.622-1.234,2.486-1.778c-2.325-4.68-6.941-8.029-12.377-8.554v-3.762
			c0-0.828-0.672-1.5-1.5-1.5s-1.5,0.672-1.5,1.5v3.762c-7.348,0.71-13.21,6.571-13.919,13.92h-3.762c-0.828,0-1.5,0.672-1.5,1.5
			s0.672,1.5,1.5,1.5h3.762c0.71,7.349,6.571,13.211,13.919,13.92v3.762c0,0.828,0.672,1.5,1.5,1.5s1.5-0.672,1.5-1.5V39.363z
			 M32.377,25.292c1.942,0.53,3.471,2.059,4.001,4.001h-4.001V25.292z M29.377,43.19c-5.691-0.685-10.211-5.205-10.896-10.897h3.827
			c0.629,3.6,3.47,6.441,7.069,7.069V43.19z M29.377,36.295c-1.942-0.53-3.471-2.059-4.001-4.001h4.001V36.295z M29.377,29.293
			h-4.001c0.53-1.942,2.059-3.471,4.001-4.001V29.293z M29.377,22.224c-3.6,0.629-6.441,3.47-7.069,7.069h-3.827
			c0.685-5.692,5.205-10.212,10.896-10.897V22.224z"/>
	</g>
</g>
</svg>
