<?xml version="1.0" encoding="UTF-8" standalone="no"?>
<svg
   xmlns:dc="http://purl.org/dc/elements/1.1/"
   xmlns:cc="http://creativecommons.org/ns#"
   xmlns:rdf="http://www.w3.org/1999/02/22-rdf-syntax-ns#"
   xmlns:svg="http://www.w3.org/2000/svg"
   xmlns="http://www.w3.org/2000/svg"
   viewBox="15 15 158.976 158.976"
   height="188.976"
   width="188.976"
   xml:space="preserve"
   id="svg2"
   version="1.1"><metadata
     id="metadata8"><rdf:RDF><cc:Work
         rdf:about=""><dc:format>image/svg+xml</dc:format><dc:type
           rdf:resource="http://purl.org/dc/dcmitype/StillImage" /></cc:Work></rdf:RDF></metadata><defs
     id="defs6"><clipPath
       id="clipPath18"
       clipPathUnits="userSpaceOnUse"><path
         id="path16"
         d="M 0,141.732 H 141.732 V 0 H 0 Z" /></clipPath></defs><g
     transform="matrix(1.3333333,0,0,-1.3333333,0,188.976)"
     id="g10"><g
       id="g12"><g
         clip-path="url(#clipPath18)"
         id="g14"><g
           transform="translate(128.0697,70.8661)"
           id="g20"><path
             id="path22"
             style="fill:#194093;fill-opacity:1;fill-rule:nonzero;stroke:none"
             d="m 0,0 c 0,-31.311 -25.382,-56.693 -56.693,-56.693 -31.311,0 -56.693,25.382 -56.693,56.693 0,31.311 25.382,56.693 56.693,56.693 C -25.382,56.693 0,31.311 0,0" /></g><g
           transform="translate(71.377,126.5589)"
           id="g24"><path
             id="path26"
             style="fill:#000000;fill-opacity:1;fill-rule:nonzero;stroke:#000000;stroke-width:2;"
             d="m 0,0 c -30.709,0 -55.693,-24.984 -55.693,-55.693 0,-30.709 24.984,-55.692 55.693,-55.692 30.709,0 55.692,24.983 55.692,55.692 C 55.692,-24.984 30.709,0 0,0 m 0,-113.385 c -31.812,0 -57.693,25.881 -57.693,57.692 C -57.693,-23.881 -31.812,2 0,2 31.812,2 57.692,-23.881 57.692,-55.693 57.692,-87.504 31.812,-113.385 0,-113.385" /></g><g
           transform="translate(55.9515,88.8745)"
           id="g28"><path
             id="path30"
             style="fill:#f6c20a;fill-opacity:1;fill-rule:nonzero;stroke:none"
             d="m 0,0 c -5.528,4.831 -9.805,4.962 -15.065,0.463 -1.491,5.063 2.158,17.115 10.416,23.986 C 5.415,32.824 19.423,34.22 30.699,27.76 40.626,22.072 47.604,9.689 46.016,0.297 43.844,2.464 41.353,3.808 38.329,3.703 35.294,3.597 32.808,2.236 30.899,-0.111 25.847,4.764 21.22,4.968 16.144,0.604 15.668,0.194 15.475,-0.092 14.783,0.451 8.965,5.008 5.168,4.863 0,0" /></g><g
           transform="translate(69.2003,56.3839)"
           id="g32"><path
             id="path34"
             style="fill:#fafbfc;fill-opacity:1;fill-rule:nonzero;stroke:none"
             d="m 0,0 c 0,8.298 -0.001,16.595 0.001,24.893 0,0.577 -0.053,1.166 0.041,1.729 0.187,1.112 0.832,1.846 2.018,1.884 1.288,0.042 2.008,-0.695 2.218,-1.908 C 4.376,26.036 4.32,25.447 4.32,24.87 4.322,16.572 4.321,8.275 4.321,-0.275 5.16,0.657 5.257,1.663 5.555,2.546 c 2.647,7.846 5.26,15.703 7.858,23.565 0.492,1.489 1.148,2.872 2.994,2.288 1.849,-0.585 1.613,-2.099 1.115,-3.588 -2.466,-7.368 -4.918,-14.74 -7.402,-22.193 1.157,-0.37 1.326,0.776 1.728,1.372 4.998,7.412 9.956,14.851 14.926,22.281 0.36,0.539 0.673,1.131 1.122,1.585 0.8,0.809 1.778,0.974 2.74,0.294 0.932,-0.659 1.247,-1.576 0.72,-2.649 C 31.103,24.986 30.768,24.51 30.448,24.031 21.883,11.2 13.316,-1.631 4.746,-14.46 c -1.94,-2.903 -3.217,-2.926 -5.118,-0.075 -8.602,12.896 -17.196,25.796 -25.789,38.698 -0.319,0.479 -0.646,0.962 -0.885,1.482 -0.465,1.009 -0.091,1.841 0.728,2.466 0.853,0.652 1.783,0.612 2.575,-0.081 0.476,-0.417 0.829,-0.988 1.187,-1.524 4.926,-7.374 9.841,-14.754 14.765,-22.129 0.426,-0.638 0.893,-1.249 1.382,-1.929 0.681,0.788 0.188,1.348 0.003,1.907 -2.236,6.766 -4.472,13.531 -6.735,20.288 -0.329,0.981 -0.675,1.952 -0.104,2.91 0.436,0.731 1.163,1.057 2.038,0.955 1.202,-0.14 1.666,-1.03 1.996,-2.019 C -7.293,20.753 -5.388,15.013 -3.476,9.275 -2.437,6.157 -1.393,3.04 -0.351,-0.077 -0.234,-0.051 -0.117,-0.026 0,0" /></g><g
           transform="translate(71.377,33.3944)"
           id="g36"><path
             id="path38"
             style="fill:#f6c20a;fill-opacity:1;fill-rule:nonzero;stroke:none"
             d="m 0,0 c -2.99,0 -5.422,-2.433 -5.422,-5.422 0,-2.989 2.432,-5.422 5.422,-5.422 2.989,0 5.422,2.433 5.422,5.422 C 5.422,-2.433 2.989,0 0,0 m 0,-13.844 c -4.644,0 -8.422,3.779 -8.422,8.422 C -8.422,-0.778 -4.644,3 0,3 4.644,3 8.422,-0.778 8.422,-5.422 8.422,-10.065 4.644,-13.844 0,-13.844" /></g></g></g></g></svg>