<?xml version="1.0" encoding="UTF-8"?>
<!DOCTYPE svg PUBLIC "-//W3C//DTD SVG 1.1//EN" "http://www.w3.org/Graphics/SVG/1.1/DTD/svg11.dtd">
<svg version="1.2" width="38.8mm" height="38.8mm" viewBox="0 0 3880 3880" preserveAspectRatio="xMidYMid" fill-rule="evenodd" stroke-width="28.222" stroke-linejoin="round" xmlns="http://www.w3.org/2000/svg" xmlns:ooo="http://xml.openoffice.org/svg/export" xmlns:xlink="http://www.w3.org/1999/xlink" xmlns:presentation="http://sun.com/xmlns/staroffice/presentation" xmlns:smil="http://www.w3.org/2001/SMIL20/" xmlns:anim="urn:oasis:names:tc:opendocument:xmlns:animation:1.0" xml:space="preserve">
 <defs class="ClipPathGroup">
  <clipPath id="presentation_clip_path" clipPathUnits="userSpaceOnUse">
   <rect x="0" y="0" width="3880" height="3880"/>
  </clipPath>
  <clipPath id="presentation_clip_path_shrink" clipPathUnits="userSpaceOnUse">
   <rect x="3" y="3" width="3873" height="3873"/>
  </clipPath>
 </defs>
 <defs class="TextShapeIndex">
  <g ooo:slide="id1" ooo:id-list="id3 id4 id5 id6 id7"/>
 </defs>
 <defs class="EmbeddedBulletChars">
  <g id="bullet-char-template-57356" transform="scale(0.00048828125,-0.00048828125)">
   <path d="M 580,1141 L 1163,571 580,0 -4,571 580,1141 Z"/>
  </g>
  <g id="bullet-char-template-57354" transform="scale(0.00048828125,-0.00048828125)">
   <path d="M 8,1128 L 1137,1128 1137,0 8,0 8,1128 Z"/>
  </g>
  <g id="bullet-char-template-10146" transform="scale(0.00048828125,-0.00048828125)">
   <path d="M 174,0 L 602,739 174,1481 1456,739 174,0 Z M 1358,739 L 309,1346 659,739 1358,739 Z"/>
  </g>
  <g id="bullet-char-template-10132" transform="scale(0.00048828125,-0.00048828125)">
   <path d="M 2015,739 L 1276,0 717,0 1260,543 174,543 174,936 1260,936 717,1481 1274,1481 2015,739 Z"/>
  </g>
  <g id="bullet-char-template-10007" transform="scale(0.00048828125,-0.00048828125)">
   <path d="M 0,-2 C -7,14 -16,27 -25,37 L 356,567 C 262,823 215,952 215,954 215,979 228,992 255,992 264,992 276,990 289,987 310,991 331,999 354,1012 L 381,999 492,748 772,1049 836,1024 860,1049 C 881,1039 901,1025 922,1006 886,937 835,863 770,784 769,783 710,716 594,584 L 774,223 C 774,196 753,168 711,139 L 727,119 C 717,90 699,76 672,76 641,76 570,178 457,381 L 164,-76 C 142,-110 111,-127 72,-127 30,-127 9,-110 8,-76 1,-67 -2,-52 -2,-32 -2,-23 -1,-13 0,-2 Z"/>
  </g>
  <g id="bullet-char-template-10004" transform="scale(0.00048828125,-0.00048828125)">
   <path d="M 285,-33 C 182,-33 111,30 74,156 52,228 41,333 41,471 41,549 55,616 82,672 116,743 169,778 240,778 293,778 328,747 346,684 L 369,508 C 377,444 397,411 428,410 L 1163,1116 C 1174,1127 1196,1133 1229,1133 1271,1133 1292,1118 1292,1087 L 1292,965 C 1292,929 1282,901 1262,881 L 442,47 C 390,-6 338,-33 285,-33 Z"/>
  </g>
  <g id="bullet-char-template-9679" transform="scale(0.00048828125,-0.00048828125)">
   <path d="M 813,0 C 632,0 489,54 383,161 276,268 223,411 223,592 223,773 276,916 383,1023 489,1130 632,1184 813,1184 992,1184 1136,1130 1245,1023 1353,916 1407,772 1407,592 1407,412 1353,268 1245,161 1136,54 992,0 813,0 Z"/>
  </g>
  <g id="bullet-char-template-8226" transform="scale(0.00048828125,-0.00048828125)">
   <path d="M 346,457 C 273,457 209,483 155,535 101,586 74,649 74,723 74,796 101,859 155,911 209,963 273,989 346,989 419,989 480,963 531,910 582,859 608,796 608,723 608,648 583,586 532,535 482,483 420,457 346,457 Z"/>
  </g>
  <g id="bullet-char-template-8211" transform="scale(0.00048828125,-0.00048828125)">
   <path d="M -4,459 L 1135,459 1135,606 -4,606 -4,459 Z"/>
  </g>
  <g id="bullet-char-template-61548" transform="scale(0.00048828125,-0.00048828125)">
   <path d="M 173,740 C 173,903 231,1043 346,1159 462,1274 601,1332 765,1332 928,1332 1067,1274 1183,1159 1299,1043 1357,903 1357,740 1357,577 1299,437 1183,322 1067,206 928,148 765,148 601,148 462,206 346,322 231,437 173,577 173,740 Z"/>
  </g>
 </defs>
 <defs class="TextEmbeddedBitmaps"/>
 <g>
  <g id="id2" class="Master_Slide">
   <g id="bg-id2" class="Background"/>
   <g id="bo-id2" class="BackgroundObjects"/>
  </g>
 </g>
 <g class="SlideGroup">
  <g>
   <g id="container-id1">
    <g id="id1" class="Slide" clip-path="url(#presentation_clip_path)">
     <g class="Page">
      <g class="com.sun.star.drawing.ClosedBezierShape">
       <g id="id3">
        <rect class="BoundingBox" stroke="none" fill="none" x="0" y="4" width="3878" height="3878"/>
        <path fill="#d51c24" stroke="#d51c24" d="M 3780,1945 C 3786,939 2950,68 1877,103 1394,118 977,299 637,641 246,1035 67,1516 101,2072 155,2964 916,3802 1978,3784 2958,3766 3779,2959 3780,1945 Z M 2031,3878 C 883,3931 44,3013 2,2040 -48,896 852,58 1821,7 2994,-54 3838,878 3875,1856 3919,2993 3014,3845 2031,3878 Z"/>
       </g>
      </g>
      <g class="com.sun.star.drawing.ClosedBezierShape">
       <g id="id4">
        <rect class="BoundingBox" stroke="none" fill="none" x="96" y="99" width="3685" height="3685"/>
        <path fill="rgb(27,64,146)" stroke="none" d="M 3779,1943 C 3778,2957 2957,3765 1978,3782 916,3800 154,2962 100,2070 66,1514 245,1033 636,639 976,297 1394,116 1877,100 2949,67 3785,937 3779,1943 Z"/>
       </g>
      </g>
      <g class="com.sun.star.drawing.ClosedBezierShape">
       <g id="id5">
        <rect class="BoundingBox" stroke="none" fill="none" x="785" y="779" width="2337" height="2857"/>
        <path fill="rgb(255,255,255)" stroke="none" d="M 2120,3551 L 1951,3635 1784,3552 C 1170,3246 785,2640 785,1978 L 785,779 1234,823 C 1727,871 2222,871 2713,821 L 3121,779 3121,1976 C 3121,2639 2735,3246 2120,3551 Z"/>
       </g>
      </g>
      <g class="com.sun.star.drawing.ClosedBezierShape">
       <g id="id6">
        <rect class="BoundingBox" stroke="none" fill="none" x="1039" y="1044" width="1829" height="2335"/>
        <path fill="rgb(249,195,24)" stroke="none" d="M 2084,3309 L 1952,3378 1821,3310 C 1340,3060 1039,2565 1039,2023 L 1039,1044 1391,1079 C 1776,1119 2164,1118 2548,1077 L 2867,1044 2867,2021 C 2867,2564 2565,3060 2084,3309 Z"/>
       </g>
      </g>
      <g class="com.sun.star.drawing.ClosedBezierShape">
       <g id="id7">
        <rect class="BoundingBox" stroke="none" fill="none" x="1426" y="1243" width="1275" height="1774"/>
        <path fill="rgb(27,64,146)" stroke="none" d="M 2658,2149 L 2653,2146 C 2604,2109 2535,2119 2498,2166 L 2409,2281 C 2402,2266 2395,2251 2386,2238 L 2386,1455 C 2386,1400 2341,1355 2286,1355 L 2269,1355 C 2214,1355 2169,1400 2169,1455 L 2169,2037 C 2162,2033 2154,2030 2147,2026 L 2147,1343 C 2147,1288 2102,1243 2047,1243 L 2030,1243 C 1975,1243 1930,1288 1930,1343 L 1930,1985 C 1916,1985 1904,1986 1890,1987 L 1890,1415 C 1890,1360 1845,1315 1790,1315 L 1773,1315 C 1718,1315 1673,1360 1673,1415 L 1673,2060 C 1663,2066 1653,2073 1643,2079 L 1643,1582 C 1643,1526 1598,1481 1543,1481 L 1527,1481 C 1471,1481 1426,1526 1426,1582 L 1426,2478 C 1426,2480 1427,2482 1427,2484 1427,2485 1427,2487 1427,2488 1427,2488 1426,2488 1427,2489 1426,2492 1426,2497 1426,2500 1426,2757 1613,2970 1859,3009 1887,3014 1914,3016 1943,3016 2020,3016 2093,2999 2159,2968 2266,2919 2352,2835 2405,2730 2465,2609 2531,2491 2613,2384 L 2677,2303 C 2714,2256 2705,2186 2658,2149 Z"/>
       </g>
      </g>
     </g>
    </g>
   </g>
  </g>
 </g>
</svg>