<?xml version="1.0" encoding="iso-8859-1"?>
<!-- Generator: Adobe Illustrator 22.1.0, SVG Export Plug-In . SVG Version: 6.00 Build 0)  -->
<svg version="1.1" xmlns="http://www.w3.org/2000/svg" xmlns:xlink="http://www.w3.org/1999/xlink" x="0px" y="0px"
	 viewBox="0 0 90.709 90.709" style="enable-background:new 0 0 90.709 90.709;" xml:space="preserve">
<g id="ratownik-1">
	<g>
		<g>
			<circle style="fill:#194093;" cx="45.354" cy="45.355" r="43.52"/>
			<g>
				<path style="fill:#d51c24; stroke:#d51c24;" d="M45.354,2.835c23.483,0,42.52,19.037,42.52,42.52s-19.037,42.52-42.52,42.52
					s-42.52-19.037-42.52-42.52S21.871,2.835,45.354,2.835 M45.354,0.835c-24.548,0-44.52,19.971-44.52,44.52
					s19.971,44.52,44.52,44.52s44.52-19.971,44.52-44.52S69.903,0.835,45.354,0.835L45.354,0.835z"/>
			</g>
		</g>
	</g>
</g>
<g id="Warstwa_4">
	<g>
		<path style="fill:#F8C409;" d="M69.702,61.147c0.468-1.121,0.775-2.331,0.879-3.607c0.108-1.318-0.013-2.599-0.314-3.816
			c-1.191-4.821-5.339-8.568-10.562-8.994l-1.934,23.686c3.151,0.257,6.109-0.749,8.395-2.583c-2.552,5.493-7.889,9.09-13.926,9.4v3
			c7.477-0.324,14.084-4.9,16.993-11.898l1.989-5.159c-0.224,0.023-0.452,0.032-0.685,0.013L69.702,61.147z"/>
		<path style="fill:#F8C409;" d="M74.186,55.884c4.403-7.553,4.837-18.054,0.351-26.731c-2.547-5.251-6.763-9.719-11.838-12.894
			c-2.561-1.548-5.338-2.793-8.25-3.596c-2.902-0.876-5.935-1.146-8.942-1.268c-3.008,0.11-6.039,0.397-8.945,1.257
			c-2.914,0.8-5.688,2.055-8.255,3.593c-5.072,3.181-9.304,7.638-11.846,12.898c-4.44,8.574-4.073,18.939,0.193,26.47
			c0.592-1.017,1.651-1.74,2.912-1.843l0.058-0.003c-0.965-2.822-1.464-5.775-1.464-8.827c0-1.359,0.103-2.695,0.296-4.001
			c0.168-0.681,0.371-1.355,0.531-2.037c0.755-2.228,1.645-4.431,2.94-6.404c2.438-4.04,6.013-7.326,10.092-9.639
			c4.107-2.29,8.805-3.43,13.488-3.465c4.684,0.033,9.381,1.174,13.489,3.464c4.08,2.314,7.655,5.6,10.092,9.64
			c1.295,1.974,2.185,4.177,2.94,6.404c0.16,0.681,0.361,1.353,0.53,2.033c0.193,1.308,0.296,2.645,0.296,4.005
			c0,3.068-0.504,6.037-1.479,8.872C72.636,53.996,73.665,54.796,74.186,55.884z"/>
		<path style="fill:#FFFFFF;" d="M71.374,53.812c-0.078-0.011-0.151-0.036-0.231-0.042l-0.875-0.045
			c0.301,1.216,0.422,2.498,0.314,3.816c-0.104,1.276-0.412,2.486-0.879,3.607l0.834,0.043c0.233,0.019,0.461,0.01,0.685-0.013
			c1.75-0.179,3.18-1.578,3.328-3.394c0.056-0.68-0.089-1.325-0.364-1.899C73.665,54.796,72.636,53.996,71.374,53.812z"/>
		<path style="fill:#FFFFFF;" d="M56.817,44.495c-1.923-0.157-3.608,1.274-3.765,3.197l-1.366,16.723
			c-0.157,1.923,1.274,3.609,3.197,3.766l2.889,0.236l1.934-23.686L56.817,44.495z"/>
		<path style="fill:#FFFFFF;" d="M16.654,55.613c-0.369,0.635-0.559,1.382-0.495,2.17c0.167,2.049,1.964,3.574,4.013,3.407
			l0.834-0.043c-0.468-1.121-0.775-2.331-0.879-3.607c-0.108-1.318,0.013-2.599,0.314-3.816l-0.817,0.042l-0.058,0.003
			C18.304,53.873,17.245,54.596,16.654,55.613z"/>
		<path style="fill:#F8C409;" d="M20.127,57.54c0.104,1.276,0.412,2.486,0.879,3.607c1.929,4.625,6.666,7.699,11.931,7.269
			L31.003,44.73c-5.223,0.427-9.371,4.173-10.562,8.994C20.14,54.941,20.019,56.223,20.127,57.54z"/>
		<path style="fill:#FFFFFF;" d="M35.826,68.18c1.923-0.157,3.354-1.843,3.197-3.766l-1.366-16.723
			c-0.157-1.923-1.843-3.354-3.765-3.197l-2.889,0.236l1.934,23.686L35.826,68.18z"/>
		<path style="fill:#FFFFFF;" d="M52.24,75.19l-8.846-1.43c-1.851-0.299-3.529,1.13-3.529,3.005s1.679,3.304,3.529,3.005l8.846-1.43
			v-0.106v-3V75.19z"/>
	</g>
</g>
</svg>
