<?xml version="1.0" encoding="iso-8859-1"?>
<!-- Generator: Adobe Illustrator 22.1.0, SVG Export Plug-In . SVG Version: 6.00 Build 0)  -->
<svg version="1.1" xmlns="http://www.w3.org/2000/svg" xmlns:xlink="http://www.w3.org/1999/xlink" x="0px" y="0px"
	 viewBox="0 0 90.709 90.709" style="enable-background:new 0 0 90.709 90.709;" xml:space="preserve">
<g id="ratownik-1">
	<g>
		<g>
			<circle style="fill:#194093;" cx="45.354" cy="45.355" r="43.52"/>
			<g>
				<path style="fill:#0083ac; stroke:#0083ac;" d="M45.354,2.835c23.483,0,42.52,19.037,42.52,42.52s-19.037,42.52-42.52,42.52
					s-42.52-19.037-42.52-42.52S21.871,2.835,45.354,2.835 M45.354,0.835c-24.548,0-44.52,19.971-44.52,44.52
					s19.971,44.52,44.52,44.52s44.52-19.971,44.52-44.52S69.903,0.835,45.354,0.835L45.354,0.835z"/>
			</g>
		</g>
	</g>
</g>
<g id="Warstwa_4">
	<g>
		<g>
			<path style="fill:#FFFFFF;" d="M60.405,26.602c-1.176-1.791-1.135-3.376-1.029-4.105c-0.155,0.295-0.36,0.592-0.615,0.889
				c-0.678,0.791-2.354,0.789-2.354,0.789s-1.263,0.013-1.312,0.013c-2.361,1.398-5.406,3.586-8.457,6.877
				c-1.459,1.574-2.934,3.085-3.746,4.363c0,0-1.12-0.798-2.159-1.435c0.003-0.004,0.008-0.01,0.011-0.014
				c-0.301-2.606-1.985-2.965-2.859-3.912c2.142-0.426,8.89-2.406,12.49-3.677c0.629-0.222,1.178-1.214,1.36-2.245
				c-0.124,0.03-2.241,0.639-2.241,0.639l-0.241-1.806c0,0,3.981-1.014,3.995-1.009c0.368,0.147,0.581,0.377,1.252,0.405
				c0.064,0.003,2.567,0.225,2.893-0.159c0.299-0.351,0.75-0.881,0.43-1.52c-1.033-2.065-1.392-2.518-1.924-2.703
				c-0.007-0.003-18.822,5.508-19.57,5.576c-0.748,0.068-1.999,0.126-1.999,0.126c-0.179,0-0.424,0.02-0.702,0.051
				c-0.142,1.195-0.433,2.343-0.777,3.012c-0.357,0.696-0.824,1.145-1.295,1.44c0.362,0.462,0.638,1,0.675,1.633
				c0.002,0.028-0.01,2.523-1.102,3.989c0,0-0.868,2.793-0.844,2.822c0.482,0.581,0.596,1.383,0.295,2.075
				c0,0-0.718,1.623-1.491,3.297c0.089,0.085,0.166,0.158,0.258,0.246c2.022,1.943,3.729,1.325,3.729,1.325s0.063-0.081,0.16-0.206
				l2.051,1.647c0,0-0.79,2.684-1.134,6.665c-0.227,2.63,1.542,16.504,1.542,17.683c0,1.179,0.097,5.3,0.097,6.298
				c0.338,0.061,2.87,0.333,5.159,0.333c1.091,0,2.127-0.062,2.844-0.237c-0.045-2.312,0.152-18.862,0.786-23.986
				c0.249-1.179,2.249-6.427,4.278-9.267c2.812-3.935,11.931-11.321,15.078-13.716C62.742,28.594,61.322,28,60.405,26.602z"/>
			<path style="fill:#FFFFFF;" d="M70.321,18.833c-0.722,0.138-2.181,0.178-5.059,1.146c-0.403,0.136-1.922,0.759-3.667,1.487
				c-0.098,0.581-0.201,1.141-0.234,1.237c-0.039,0.192-0.222,1.371,0.716,2.801c0.026,0.039,0.061,0.063,0.088,0.1
				c1.062-0.736,2.389-1.388,3.145-0.619c0.531,0.539,0.985,0.944,1.949,0.513c1.149-0.513,7.66-3.418,7.314-4.342
				C73.679,18.771,71.183,18.669,70.321,18.833z"/>
		</g>
		<path style="fill:#FFFFFF;" d="M22.162,33.107c0.15-0.208,0.335-0.381,0.543-0.513c0.251-0.161,1.518-0.267,1.667-0.222
			c0.01-0.024-0.089-1.557-0.274-2.095c-0.351-1.016-0.131-2.049,0.529-2.837c-0.161-0.105-0.291-0.213-0.439-0.32
			c-0.223,0.256-3.854,3.223-4.273,3.607c-0.422,0.387-0.637,0.706-0.669,1.028c-0.164,0.772,0.17,3.102,0.635,5.55
			C20.891,35.012,22.136,33.143,22.162,33.107z"/>
		<path style="fill:#FFFFFF;" d="M28.341,28.253c-0.349-0.148-0.589-0.217-0.808-0.217c-0.292,0-0.544,0.124-0.962,0.351
			c-0.604,0.328-0.74,0.785-0.584,1.237c0.331,0.959,0.466,2.629,0.402,3.029c-0.035,0.223-0.323,0.839-0.614,1.448
			c-0.325,0.681,0.823,2.178,2.521,1.866c0.239-0.744,1.067-3.172,1.067-3.172c0.623-0.467,0.895-2.437,0.871-2.851
			C30.207,29.421,29.334,28.674,28.341,28.253z"/>
		<g>
			<path style="fill:#FFFFFF;" d="M27.917,38.011c-2.48,0-4.563-2.446-4.134-3.732c-0.554,0.989-3.979,6.257-3.027,8.808
				c0.789,2.112,2.003,2.564,2.894,2.564c0.793,0,1.381-0.456,2.105-1.34c0.612-0.748,2.535-5.34,2.992-6.393
				C28.468,37.981,28.19,38.011,27.917,38.011z"/>
		</g>
		<path style="fill:#FFFFFF;" d="M33.712,77.463c-1.511,0.415-2.556,1.79-2.552,3.357h9.906c1.429,0,2.587-1.158,2.587-2.587v-0.524
			L33.712,77.463z"/>
		<polygon style="fill:#F8C409;" points="51.988,48.727 40.603,38.364 42.892,35.428 40.772,33.954 38.271,37.084 37.932,36.823 
			35.526,39.946 35.809,40.164 33.077,43.583 35.116,45.406 36.897,43.12 37.821,56.629 41.049,54.189 39.928,41.976 48.07,49.741 
					"/>
		<g>
			<path style="fill:#FFFFFF;" d="M26.853,15.504c2.546,0,4.271,1.412,4.459,3.187c0.205,1.933-0.191,1.365,0.228,2.231
				c0.419,0.866,0.096,3.826-0.466,4.92c-0.389,0.757-0.969,0.887-1.57,0.94c-0.174,0.015-0.344,0.023-0.51,0.023
				c-2.596,0-4.246-1.795-5.278-2.644c-0.947-0.778-2.073-2.073-2.229-3.801c-0.335-3.722,1.736-4.538,4.663-4.822
				C26.392,15.515,26.626,15.504,26.853,15.504"/>
		</g>
	</g>
</g>
</svg>
