<?xml version="1.0" encoding="iso-8859-1"?>
<!-- Generator: Adobe Illustrator 22.1.0, SVG Export Plug-In . SVG Version: 6.00 Build 0)  -->
<svg version="1.1" xmlns="http://www.w3.org/2000/svg" xmlns:xlink="http://www.w3.org/1999/xlink" x="0px" y="0px"
	 viewBox="0 0 90.709 90.709" style="enable-background:new 0 0 90.709 90.709;" xml:space="preserve">
<g id="ratownik-1">
	<g>
		<g>
			<circle style="fill:#194093;" cx="45.354" cy="45.354" r="43.52"/>
			<path style="fill:#d51c24; stroke:#d51c24;" d="M45.354,2.835c23.483,0,42.52,19.037,42.52,42.52s-19.037,42.52-42.52,42.52
				s-42.52-19.037-42.52-42.52S21.871,2.835,45.354,2.835 M45.354,0.835c-24.548,0-44.52,19.971-44.52,44.52
				s19.971,44.52,44.52,44.52s44.52-19.971,44.52-44.52S69.903,0.835,45.354,0.835L45.354,0.835z"/>
		</g>
	</g>
</g>
<g id="Warstwa_4">
	<g>
		<g>
			<path style="fill:#FFFFFF;" d="M45.354,68.772c4.602,0,9.003,0.856,13.061,2.405L45.354,45.354L32.293,71.177
				C36.352,69.628,40.752,68.772,45.354,68.772z"/>
			<path style="fill:#FFFFFF;" d="M45.354,22.003c-4.602,0-9.003-0.856-13.061-2.405L45.354,45.42l13.061-25.823
				C54.357,21.146,49.957,22.003,45.354,22.003z"/>
			<path style="fill:#FFFFFF;" d="M21.97,45.387c0,4.602-0.856,9.003-2.405,13.061l25.823-13.061L19.565,32.326
				C21.113,36.385,21.97,40.785,21.97,45.387z"/>
			<path style="fill:#FFFFFF;" d="M68.739,45.387c0-4.602,0.856-9.003,2.405-13.061L45.321,45.387l25.823,13.061
				C69.595,54.39,68.739,49.99,68.739,45.387z"/>
		</g>
		<path style="fill:#F8C409;" d="M63.89,15.591L52.398,38.31l22.72-11.491c-2.198,5.759-3.413,12.004-3.413,18.536
			c0,6.532,1.215,12.776,3.413,18.535l-22.72-11.491l11.491,22.72c-5.759-2.198-12.004-3.413-18.536-3.413
			c-6.531,0-12.776,1.215-18.535,3.413l11.491-22.72L15.591,63.89c2.198-5.759,3.413-12.004,3.413-18.536
			c0-6.532-1.215-12.776-3.413-18.535L38.31,38.31l-11.491-22.72c5.759,2.198,12.004,3.413,18.536,3.413
			C51.886,19.004,58.131,17.789,63.89,15.591 M75.118,26.819h0.005 M63.889,13.862c-0.207,0-0.415,0.037-0.616,0.114
			c-5.737,2.19-11.765,3.3-17.919,3.3s-12.183-1.11-17.919-3.3c-0.201-0.077-0.409-0.114-0.616-0.114c-0.48,0-0.95,0.2-1.284,0.571
			c-0.478,0.53-0.581,1.3-0.258,1.937l9.115,18.021l-18.021-9.115c-0.247-0.125-0.514-0.186-0.78-0.186
			c-0.419,0-0.833,0.152-1.158,0.445c-0.53,0.478-0.712,1.233-0.458,1.9c2.19,5.737,3.3,11.766,3.3,17.919
			c0,6.154-1.11,12.182-3.3,17.919c-0.255,0.667-0.073,1.422,0.458,1.9c0.325,0.293,0.739,0.445,1.157,0.445
			c0.265,0,0.532-0.061,0.78-0.186l18.021-9.115l-9.115,18.021c-0.322,0.637-0.22,1.407,0.258,1.937
			c0.334,0.371,0.804,0.571,1.284,0.571c0.207,0,0.415-0.037,0.616-0.114c5.737-2.19,11.765-3.3,17.919-3.3
			c6.154,0,12.183,1.11,17.919,3.3c0.201,0.077,0.409,0.114,0.616,0.114c0.48,0,0.95-0.2,1.284-0.571
			c0.478-0.53,0.581-1.3,0.258-1.937l-9.115-18.021l18.021,9.115c0.247,0.125,0.514,0.186,0.78,0.186
			c0.419,0,0.833-0.152,1.158-0.445c0.53-0.478,0.712-1.233,0.458-1.9c-2.19-5.737-3.3-11.766-3.3-17.919
			c0-6.124,1.1-12.125,3.268-17.837c0.095-0.214,0.148-0.45,0.148-0.699c0-0.952-0.768-1.725-1.719-1.728c-0.004,0-0.008,0-0.012,0
			c-0.035,0-0.07,0.001-0.104,0.003c-0.254,0.015-0.493,0.085-0.706,0.198l-17.99,9.099l9.115-18.021
			c0.322-0.637,0.22-1.407-0.258-1.937C64.839,14.063,64.37,13.862,63.889,13.862L63.889,13.862z M63.89,17.319h0.005H63.89
			L63.89,17.319z"/>
	</g>
</g>
</svg>
