<?xml version="1.0" encoding="UTF-8"?>
<!DOCTYPE svg PUBLIC "-//W3C//DTD SVG 1.1//EN" "http://www.w3.org/Graphics/SVG/1.1/DTD/svg11.dtd">
<svg version="1.2" width="38.8mm" height="38.8mm" viewBox="0 0 3880 3880" preserveAspectRatio="xMidYMid" fill-rule="evenodd" stroke-width="28.222" stroke-linejoin="round" xmlns="http://www.w3.org/2000/svg" xmlns:ooo="http://xml.openoffice.org/svg/export" xmlns:xlink="http://www.w3.org/1999/xlink" xmlns:presentation="http://sun.com/xmlns/staroffice/presentation" xmlns:smil="http://www.w3.org/2001/SMIL20/" xmlns:anim="urn:oasis:names:tc:opendocument:xmlns:animation:1.0" xml:space="preserve">
 <defs class="ClipPathGroup">
  <clipPath id="presentation_clip_path" clipPathUnits="userSpaceOnUse">
   <rect x="0" y="0" width="3880" height="3880"/>
  </clipPath>
  <clipPath id="presentation_clip_path_shrink" clipPathUnits="userSpaceOnUse">
   <rect x="3" y="3" width="3873" height="3873"/>
  </clipPath>
 </defs>
 <defs class="TextShapeIndex">
  <g ooo:slide="id1" ooo:id-list="id3 id4 id5 id6 id7 id8 id9 id10"/>
 </defs>
 <defs class="EmbeddedBulletChars">
  <g id="bullet-char-template-57356" transform="scale(0.00048828125,-0.00048828125)">
   <path d="M 580,1141 L 1163,571 580,0 -4,571 580,1141 Z"/>
  </g>
  <g id="bullet-char-template-57354" transform="scale(0.00048828125,-0.00048828125)">
   <path d="M 8,1128 L 1137,1128 1137,0 8,0 8,1128 Z"/>
  </g>
  <g id="bullet-char-template-10146" transform="scale(0.00048828125,-0.00048828125)">
   <path d="M 174,0 L 602,739 174,1481 1456,739 174,0 Z M 1358,739 L 309,1346 659,739 1358,739 Z"/>
  </g>
  <g id="bullet-char-template-10132" transform="scale(0.00048828125,-0.00048828125)">
   <path d="M 2015,739 L 1276,0 717,0 1260,543 174,543 174,936 1260,936 717,1481 1274,1481 2015,739 Z"/>
  </g>
  <g id="bullet-char-template-10007" transform="scale(0.00048828125,-0.00048828125)">
   <path d="M 0,-2 C -7,14 -16,27 -25,37 L 356,567 C 262,823 215,952 215,954 215,979 228,992 255,992 264,992 276,990 289,987 310,991 331,999 354,1012 L 381,999 492,748 772,1049 836,1024 860,1049 C 881,1039 901,1025 922,1006 886,937 835,863 770,784 769,783 710,716 594,584 L 774,223 C 774,196 753,168 711,139 L 727,119 C 717,90 699,76 672,76 641,76 570,178 457,381 L 164,-76 C 142,-110 111,-127 72,-127 30,-127 9,-110 8,-76 1,-67 -2,-52 -2,-32 -2,-23 -1,-13 0,-2 Z"/>
  </g>
  <g id="bullet-char-template-10004" transform="scale(0.00048828125,-0.00048828125)">
   <path d="M 285,-33 C 182,-33 111,30 74,156 52,228 41,333 41,471 41,549 55,616 82,672 116,743 169,778 240,778 293,778 328,747 346,684 L 369,508 C 377,444 397,411 428,410 L 1163,1116 C 1174,1127 1196,1133 1229,1133 1271,1133 1292,1118 1292,1087 L 1292,965 C 1292,929 1282,901 1262,881 L 442,47 C 390,-6 338,-33 285,-33 Z"/>
  </g>
  <g id="bullet-char-template-9679" transform="scale(0.00048828125,-0.00048828125)">
   <path d="M 813,0 C 632,0 489,54 383,161 276,268 223,411 223,592 223,773 276,916 383,1023 489,1130 632,1184 813,1184 992,1184 1136,1130 1245,1023 1353,916 1407,772 1407,592 1407,412 1353,268 1245,161 1136,54 992,0 813,0 Z"/>
  </g>
  <g id="bullet-char-template-8226" transform="scale(0.00048828125,-0.00048828125)">
   <path d="M 346,457 C 273,457 209,483 155,535 101,586 74,649 74,723 74,796 101,859 155,911 209,963 273,989 346,989 419,989 480,963 531,910 582,859 608,796 608,723 608,648 583,586 532,535 482,483 420,457 346,457 Z"/>
  </g>
  <g id="bullet-char-template-8211" transform="scale(0.00048828125,-0.00048828125)">
   <path d="M -4,459 L 1135,459 1135,606 -4,606 -4,459 Z"/>
  </g>
  <g id="bullet-char-template-61548" transform="scale(0.00048828125,-0.00048828125)">
   <path d="M 173,740 C 173,903 231,1043 346,1159 462,1274 601,1332 765,1332 928,1332 1067,1274 1183,1159 1299,1043 1357,903 1357,740 1357,577 1299,437 1183,322 1067,206 928,148 765,148 601,148 462,206 346,322 231,437 173,577 173,740 Z"/>
  </g>
 </defs>
 <defs class="TextEmbeddedBitmaps"/>
 <g>
  <g id="id2" class="Master_Slide">
   <g id="bg-id2" class="Background"/>
   <g id="bo-id2" class="BackgroundObjects"/>
  </g>
 </g>
 <g class="SlideGroup">
  <g>
   <g id="container-id1">
    <g id="id1" class="Slide" clip-path="url(#presentation_clip_path)">
     <g class="Page">
      <g class="com.sun.star.drawing.ClosedBezierShape">
       <g id="id3">
        <rect class="BoundingBox" stroke="none" fill="none" x="-1" y="4" width="3878" height="3877"/>
        <path fill="#d51c24" stroke="#d51c24" d="M 3779,1854 C 3770,1411 3579,957 3191,596 2803,235 2337,70 1807,107 1329,139 922,334 596,683 230,1074 63,1544 101,2079 135,2555 331,2960 679,3284 1070,3649 1540,3815 2075,3779 2964,3720 3775,2970 3779,1854 Z M 3876,1973 C 3869,2427 3714,2857 3392,3221 3039,3619 2594,3841 2063,3875 1532,3910 1060,3748 660,3397 261,3048 40,2603 5,2074 -32,1514 144,1023 528,614 895,225 1352,24 1886,6 2234,-6 2563,75 2869,243 3164,405 3402,629 3581,915 3777,1228 3873,1572 3876,1973 Z"/>
       </g>
      </g>
      <g class="com.sun.star.drawing.ClosedBezierShape">
       <g id="id4">
        <rect class="BoundingBox" stroke="none" fill="none" x="927" y="389" width="2019" height="2861"/>
        <path fill="rgb(247,195,10)" stroke="none" d="M 1102,1943 L 1103,1943 C 1103,2312 1103,2681 1102,3050 1102,3067 1106,3073 1125,3073 1666,3073 2207,3073 2749,3073 2765,3073 2770,3070 2770,3053 2770,2314 2770,1575 2770,835 2770,817 2765,814 2749,814 2208,815 1667,815 1127,814 1109,814 1102,818 1102,838 1103,1206 1102,1575 1102,1943 Z M 928,656 C 928,653 928,650 928,646 929,645 929,643 929,642 L 930,641 C 933,641 936,640 939,639 944,640 950,641 956,641 1124,641 1291,641 1459,641 1464,641 1470,640 1476,639 1484,638 1501,653 1499,629 1500,594 1501,559 1499,524 1500,521 1501,518 1502,515 1575,515 1649,515 1722,515 1734,515 1741,513 1748,501 1830,355 2033,351 2119,494 2129,510 2138,516 2157,515 2222,514 2287,515 2353,514 2367,514 2372,518 2371,533 2370,561 2372,589 2371,617 2370,636 2375,642 2395,642 2564,641 2732,641 2900,641 2943,641 2943,641 2943,684 2943,1525 2943,2366 2943,3207 2943,3213 2942,3219 2943,3225 2947,3244 2939,3252 2920,3248 2917,3247 2914,3248 2911,3249 2902,3248 2892,3248 2882,3248 2231,3248 1581,3248 931,3248 L 930,3248 C 930,3244 929,3240 928,3236 928,3228 929,3220 929,3212 929,2371 929,1530 929,688 929,680 929,672 928,664 928,661 928,659 928,656 Z"/>
       </g>
      </g>
      <g class="com.sun.star.drawing.ClosedBezierShape">
       <g id="id5">
        <rect class="BoundingBox" stroke="none" fill="none" x="95" y="102" width="3686" height="3684"/>
        <path fill="rgb(27,65,146)" stroke="none" d="M 2921,3247 C 2918,3246 2915,3247 2912,3248 2909,3250 2905,3251 2902,3252 2905,3251 2909,3250 2912,3248 2903,3247 2893,3247 2883,3247 2233,3247 1583,3247 932,3247 L 931,3247 C 931,3243 930,3239 929,3236 929,3235 929,3235 929,3235 929,3227 930,3219 930,3211 930,2370 930,1529 930,688 930,680 930,672 929,664 929,661 929,659 929,656 929,653 929,650 929,646 930,645 930,643 930,642 L 931,641 C 931,639 931,637 932,635 931,637 931,639 931,641 934,640 937,640 940,639 945,640 951,641 957,641 1125,641 1293,641 1461,641 1466,641 1472,640 1478,639 1481,637 1485,637 1489,636 1490,636 1492,636 1493,635 1492,636 1490,636 1489,636 1485,637 1481,637 1478,639 1486,638 1503,653 1501,629 1502,594 1503,559 1501,524 1500,523 1500,523 1499,523 1500,523 1500,523 1501,524 1502,521 1503,518 1504,515 1577,515 1651,515 1724,515 1736,515 1743,513 1750,501 1832,355 2035,351 2121,494 2131,510 2140,516 2159,515 2224,514 2289,515 2355,514 2369,514 2374,518 2373,533 2372,561 2374,589 2373,617 2372,636 2377,642 2397,642 2565,641 2733,641 2901,641 2944,641 2944,641 2944,684 2944,1524 2944,2365 2944,3206 2944,3212 2943,3218 2944,3224 2948,3243 2940,3251 2921,3247 Z M 928,3247 L 928,3247 Z M 922,3244 C 922,3244 922,3243 923,3243 L 923,3242 C 923,3243 923,3243 923,3243 922,3243 922,3244 922,3244 922,3245 922,3245 923,3246 922,3245 922,3245 922,3244 Z M 926,3246 C 925,3246 925,3246 925,3246 L 926,3246 Z M 926,3240 C 925,3240 925,3241 924,3241 925,3241 925,3240 926,3240 Z M 928,658 C 928,659 927,659 927,660 927,659 928,659 928,658 Z M 3191,596 C 2803,235 2337,70 1807,107 1330,139 922,334 596,683 230,1074 63,1544 101,2079 135,2555 331,2960 679,3284 1070,3650 1540,3815 2075,3780 2964,3721 3775,2970 3779,1854 3770,1411 3579,957 3191,596 Z"/>
       </g>
      </g>
      <g class="com.sun.star.drawing.ClosedBezierShape">
       <g id="id6">
        <rect class="BoundingBox" stroke="none" fill="none" x="1101" y="814" width="1670" height="2260"/>
        <path fill="rgb(253,253,253)" stroke="none" d="M 1939,1566 C 1922,1566 1906,1566 1890,1566 1712,1566 1535,1566 1358,1566 1341,1566 1334,1569 1335,1587 1337,1615 1337,1643 1335,1671 1334,1691 1341,1696 1361,1696 1647,1696 1934,1696 2221,1696 2320,1696 2418,1695 2516,1696 2533,1696 2538,1692 2537,1675 2536,1647 2535,1618 2537,1590 2538,1570 2532,1565 2513,1566 2322,1566 2130,1566 1939,1566 Z M 1935,1426 C 2129,1426 2323,1425 2516,1426 2533,1426 2538,1422 2537,1405 2536,1378 2537,1351 2537,1324 2536,1295 2536,1295 2509,1295 2133,1295 1756,1295 1379,1295 1371,1295 1362,1296 1353,1295 1340,1294 1335,1299 1336,1313 1336,1343 1337,1373 1335,1403 1334,1421 1340,1426 1358,1426 1550,1425 1743,1426 1935,1426 Z M 1936,1025 C 1743,1025 1550,1025 1357,1025 1341,1025 1334,1028 1335,1046 1337,1074 1337,1102 1335,1130 1334,1151 1340,1156 1362,1156 1744,1156 2128,1156 2510,1156 2513,1156 2516,1156 2519,1156 2532,1158 2537,1153 2537,1139 2536,1109 2535,1079 2537,1049 2538,1029 2533,1025 2513,1025 2321,1025 2129,1025 1936,1025 Z M 2445,2855 C 2457,2854 2470,2853 2482,2852 2523,2847 2538,2820 2517,2784 2505,2761 2486,2743 2469,2724 2359,2602 2250,2480 2140,2358 2129,2346 2130,2340 2141,2330 2178,2294 2215,2257 2251,2220 2289,2181 2289,2123 2252,2086 2216,2050 2157,2050 2119,2088 2083,2124 2046,2160 2011,2197 1999,2209 1992,2209 1980,2198 1872,2102 1766,2005 1658,1909 1626,1881 1597,1848 1560,1825 1521,1799 1490,1814 1485,1861 1485,1865 1485,1870 1485,1874 1483,1955 1518,2024 1561,2088 1631,2191 1702,2294 1772,2397 1777,2405 1783,2412 1774,2424 1709,2508 1644,2593 1580,2679 1571,2691 1565,2691 1553,2685 1523,2671 1493,2657 1463,2644 1443,2636 1423,2617 1405,2622 1387,2627 1375,2650 1359,2664 1349,2673 1346,2681 1352,2694 1381,2756 1409,2818 1436,2880 1442,2892 1450,2898 1461,2903 1519,2929 1577,2953 1633,2981 1655,2992 1668,2990 1682,2971 1689,2962 1698,2954 1707,2947 1719,2938 1719,2929 1713,2917 1693,2873 1674,2830 1653,2787 1647,2773 1649,2766 1661,2757 1742,2696 1823,2635 1903,2573 1920,2560 1931,2559 1950,2571 2056,2645 2162,2717 2270,2789 2323,2824 2380,2850 2445,2855 Z M 1102,1942 C 1102,1574 1103,1206 1102,838 1102,818 1109,814 1127,814 1667,815 2209,815 2749,814 2765,814 2770,817 2770,835 2770,1574 2770,2314 2770,3053 2770,3070 2765,3073 2749,3073 2208,3073 1666,3073 1125,3073 1106,3073 1102,3067 1102,3050 1103,2681 1103,2312 1103,1942 L 1102,1942 Z"/>
       </g>
      </g>
      <g class="com.sun.star.drawing.ClosedBezierShape">
       <g id="id7">
        <rect class="BoundingBox" stroke="none" fill="none" x="1349" y="1812" width="1179" height="1177"/>
        <path fill="rgb(27,65,146)" stroke="none" d="M 2445,2854 C 2380,2849 2322,2823 2269,2788 2161,2716 2055,2644 1949,2570 1931,2558 1920,2559 1903,2572 1823,2634 1742,2695 1661,2756 1649,2765 1647,2772 1654,2786 1674,2829 1693,2872 1713,2916 1719,2929 1719,2938 1707,2947 1698,2954 1689,2962 1682,2971 1668,2990 1655,2992 1633,2981 1577,2953 1519,2929 1461,2902 1450,2897 1442,2891 1436,2879 1409,2817 1381,2755 1353,2693 1346,2680 1349,2672 1359,2663 1375,2649 1387,2626 1405,2621 1423,2616 1443,2635 1463,2643 1493,2656 1523,2670 1553,2684 1565,2690 1571,2690 1580,2678 1644,2592 1709,2507 1774,2423 1783,2411 1777,2404 1772,2396 1702,2293 1631,2190 1561,2087 1518,2023 1483,1955 1485,1874 1485,1870 1485,1865 1485,1861 1490,1814 1521,1799 1560,1825 1597,1848 1626,1881 1658,1909 1766,2005 1872,2101 1979,2197 1991,2208 1998,2208 2010,2196 2045,2159 2082,2123 2118,2087 2156,2049 2215,2049 2251,2085 2288,2123 2288,2180 2250,2219 2214,2256 2177,2293 2140,2329 2129,2339 2128,2345 2139,2357 2249,2479 2358,2601 2469,2723 2486,2742 2505,2760 2517,2783 2538,2819 2523,2846 2482,2851 2470,2852 2457,2853 2445,2854 Z"/>
       </g>
      </g>
      <g class="com.sun.star.drawing.ClosedBezierShape">
       <g id="id8">
        <rect class="BoundingBox" stroke="none" fill="none" x="1335" y="1025" width="1204" height="134"/>
        <path fill="rgb(27,65,146)" stroke="none" d="M 1936,1025 C 2128,1025 2320,1025 2513,1025 2533,1025 2538,1029 2537,1049 2535,1079 2536,1109 2537,1140 2537,1154 2532,1159 2519,1157 2516,1157 2513,1157 2510,1157 2127,1157 1744,1157 1362,1157 1340,1157 1334,1152 1335,1131 1337,1102 1337,1074 1335,1046 1334,1028 1341,1025 1357,1025 1550,1025 1743,1025 1936,1025 Z"/>
       </g>
      </g>
      <g class="com.sun.star.drawing.ClosedBezierShape">
       <g id="id9">
        <rect class="BoundingBox" stroke="none" fill="none" x="1334" y="1295" width="1205" height="134"/>
        <path fill="rgb(27,65,146)" stroke="none" d="M 1935,1427 C 1743,1427 1550,1426 1358,1427 1340,1427 1334,1422 1335,1404 1337,1374 1336,1344 1336,1313 1335,1299 1340,1294 1353,1295 1362,1296 1371,1295 1379,1295 1755,1295 2132,1295 2509,1295 2537,1295 2537,1295 2537,1324 2537,1352 2536,1379 2537,1406 2538,1423 2533,1427 2516,1427 2322,1426 2128,1427 1935,1427 Z"/>
       </g>
      </g>
      <g class="com.sun.star.drawing.ClosedBezierShape">
       <g id="id10">
        <rect class="BoundingBox" stroke="none" fill="none" x="1335" y="1566" width="1204" height="133"/>
        <path fill="rgb(25,64,145)" stroke="none" d="M 1938,1566 C 2129,1566 2321,1566 2513,1566 2532,1565 2538,1570 2537,1591 2535,1619 2536,1648 2537,1676 2538,1693 2533,1697 2516,1697 2417,1696 2319,1697 2220,1697 1934,1697 1647,1697 1361,1697 1341,1697 1334,1692 1335,1672 1337,1644 1337,1616 1335,1588 1334,1569 1341,1566 1358,1566 1535,1566 1712,1566 1890,1566 1906,1566 1922,1566 1938,1566 Z"/>
       </g>
      </g>
     </g>
    </g>
   </g>
  </g>
 </g>
</svg>