<?xml version="1.0" encoding="UTF-8" standalone="no"?>
<svg
   xmlns:dc="http://purl.org/dc/elements/1.1/"
   xmlns:cc="http://creativecommons.org/ns#"
   xmlns:rdf="http://www.w3.org/1999/02/22-rdf-syntax-ns#"
   xmlns:svg="http://www.w3.org/2000/svg"
   xmlns="http://www.w3.org/2000/svg"
   viewBox="0 0 680.32001 75.587196"
   height="75.587196"
   width="680.32001"
   xml:space="preserve"
   id="svg2"
   version="1.1"><metadata
     id="metadata8"><rdf:RDF><cc:Work
         rdf:about=""><dc:format>image/svg+xml</dc:format><dc:type
           rdf:resource="http://purl.org/dc/dcmitype/StillImage" /></cc:Work></rdf:RDF></metadata><defs
     id="defs6"><clipPath
       id="clipPath18"
       clipPathUnits="userSpaceOnUse"><path
         id="path16"
         d="M 0,56.69 H 510.24 V 0 H 0 Z" /></clipPath></defs><g
     transform="matrix(1.3333333,0,0,-1.3333333,0,75.5872)"
     id="g10"><g
       id="g12"><g
         clip-path="url(#clipPath18)"
         id="g14"><g
           transform="translate(69.3105,32.3096)"
           id="g20"><path
             id="path22"
             style="fill:#5a8fd2;fill-opacity:1;fill-rule:nonzero;stroke:none"
             d="m 0,0 c -1.199,5.288 -4.797,8.014 -9.485,8.014 -6.651,0 -10.684,-6.378 -10.684,-14.01 0,-8.667 4.251,-13.9 10.902,-13.9 3.925,0 7.741,2.617 9.158,7.25 l 8.395,-0.6 c -2.835,-9.157 -9.485,-13.955 -17.88,-13.955 -11.121,0 -19.08,7.522 -19.08,21.26 0,12.374 7.796,21.259 19.08,21.259 8.613,0 15.699,-4.252 17.825,-14.772 z" /></g><g
           transform="translate(81.8477,46.8652)"
           id="g24"><path
             id="path26"
             style="fill:#5a8fd2;fill-opacity:1;fill-rule:nonzero;stroke:none"
             d="M 0,0 H 26.166 V -7.305 H 8.177 v -9.322 h 17.499 v -7.304 H 8.177 v -9.757 h 17.989 v -7.305 l -26.166,0 z" /></g><g
           transform="translate(112.1558,46.8652)"
           id="g28"><path
             id="path30"
             style="fill:#5a8fd2;fill-opacity:1;fill-rule:nonzero;stroke:none"
             d="m 0,0 h 8.177 v -33.361 h 15.754 v -7.632 l -23.931,0 z" /></g><g
           transform="translate(139.4658,46.8652)"
           id="g32"><path
             id="path34"
             style="fill:#5a8fd2;fill-opacity:1;fill-rule:nonzero;stroke:none"
             d="M 0,0 H 26.167 V -7.305 H 8.177 v -9.322 h 17.498 v -7.304 H 8.177 v -9.757 h 17.99 v -7.305 l -26.167,0 z" /></g><g
           transform="translate(180.769,32.4336)"
           id="g36"><path
             id="path38"
             style="fill:#41b43c;fill-opacity:1;fill-rule:nonzero;stroke:none"
             d="m 0,0 c 0.529,0.898 1.171,1.724 1.906,2.452 l -6.25,6.854 C -5.916,7.803 -7.258,6.061 -8.312,4.141 Z" /></g><g
           transform="translate(196.0903,37.2754)"
           id="g40"><path
             id="path42"
             style="fill:#cd9b18;fill-opacity:1;fill-rule:nonzero;stroke:none"
             d="M 0,0 C 0.946,-0.434 1.826,-0.987 2.62,-1.643 L 8.887,5.201 C 7.237,6.624 5.365,7.799 3.333,8.666 Z" /></g><g
           transform="translate(210.4424,35.2148)"
           id="g44"><path
             id="path46"
             style="fill:#c31b32;fill-opacity:1;fill-rule:nonzero;stroke:none"
             d="m 0,0 -8.307,-4.141 c 0.398,-0.925 0.679,-1.909 0.832,-2.935 l 9.241,0.873 C 1.493,-4.017 0.887,-1.931 0,0" /></g><g
           transform="translate(201.54,32.2744)"
           id="g48"><path
             id="path50"
             style="fill:#369e3e;fill-opacity:1;fill-rule:nonzero;stroke:none"
             d="M 0,0 8.306,4.141 C 7.276,6.052 5.965,7.789 4.425,9.294 L -1.843,2.452 C -1.129,1.718 -0.509,0.896 0,0" /></g><g
           transform="translate(179.1177,26.3711)"
           id="g52"><path
             id="path54"
             style="fill:#407534;fill-opacity:1;fill-rule:nonzero;stroke:none"
             d="M 0,0 C 0,0.188 0.007,0.374 0.015,0.56 L -9.228,1.387 C -9.257,0.929 -9.274,0.467 -9.274,0 c 0,-1.772 0.219,-3.494 0.629,-5.141 l 8.926,2.562 C 0.099,-1.748 0,-0.886 0,0" /></g><g
           transform="translate(200.377,18.7744)"
           id="g56"><path
             id="path58"
             style="fill:#f9b00b;fill-opacity:1;fill-rule:nonzero;stroke:none"
             d="m 0,0 c -0.657,-0.799 -1.416,-1.512 -2.254,-2.119 l 4.88,-7.902 c 1.811,1.227 3.424,2.726 4.778,4.439 z" /></g><g
           transform="translate(203.0967,26.3711)"
           id="g60"><path
             id="path62"
             style="fill:#ef3028;fill-opacity:1;fill-rule:nonzero;stroke:none"
             d="m 0,0 c 0,-0.875 -0.094,-1.728 -0.275,-2.551 l 8.926,-2.562 c 0.407,1.637 0.623,3.35 0.623,5.113 0,0.438 -0.013,0.873 -0.041,1.306 L -0.009,0.433 C -0.003,0.288 0,0.146 0,0" /></g><g
           transform="translate(181.9888,18.5977)"
           id="g64"><path
             id="path66"
             style="fill:#f79118;fill-opacity:1;fill-rule:nonzero;stroke:none"
             d="m 0,0 -7.388,-5.614 c 1.374,-1.692 3.001,-3.166 4.825,-4.37 l 4.878,7.892 C 1.456,-1.497 0.677,-0.792 0,0" /></g><g
           transform="translate(179.2681,28.2646)"
           id="g68"><path
             id="path70"
             style="fill:#1c7bc1;fill-opacity:1;fill-rule:nonzero;stroke:none"
             d="M 0,0 C 0.165,1.044 0.468,2.042 0.886,2.977 L -7.418,7.113 C -8.335,5.161 -8.965,3.048 -9.251,0.83 Z" /></g><g
           transform="translate(201.8682,8.0391)"
           id="g72"><path
             id="path74"
             style="fill:#8c1535;fill-opacity:1;fill-rule:nonzero;stroke:none"
             d="M 0,0 -4.873,7.891 C -5.759,7.391 -6.711,6.999 -7.717,6.735 l 1.72,-9.129 C -3.858,-1.901 -1.841,-1.085 0,0" /></g><g
           transform="translate(202.4668,22.5293)"
           id="g76"><path
             id="path78"
             style="fill:#30b1dc;fill-opacity:1;fill-rule:nonzero;stroke:none"
             d="m 0,0 c -0.324,-0.95 -0.761,-1.846 -1.297,-2.672 l 7.41,-5.59 c 1.203,1.731 2.156,3.647 2.805,5.699 z" /></g><g
           transform="translate(192.8374,14.5078)"
           id="g80"><path
             id="path82"
             style="fill:#f25a1d;fill-opacity:1;fill-rule:nonzero;stroke:none"
             d="m 0,0 c -0.564,-0.082 -1.142,-0.127 -1.729,-0.127 -0.473,0 -0.939,0.029 -1.396,0.083 l -1.719,-9.128 c 1.017,-0.149 2.057,-0.227 3.115,-0.227 1.172,0 2.325,0.095 3.447,0.278 z" /></g><g
           transform="translate(191.8745,38.3379)"
           id="g84"><path
             id="path86"
             style="fill:#eb1a2d;fill-opacity:1;fill-rule:nonzero;stroke:none"
             d="M 0,0 C 1.029,-0.066 2.024,-0.263 2.967,-0.574 L 6.3,8.09 C 4.316,8.79 2.201,9.206 0,9.282 Z" /></g><g
           transform="translate(188.3911,14.6924)"
           id="g88"><path
             id="path90"
             style="fill:#e10a85;fill-opacity:1;fill-rule:nonzero;stroke:none"
             d="m 0,0 c -1.04,0.242 -2.027,0.619 -2.943,1.113 l -4.882,-7.897 c 1.878,-1.074 3.931,-1.87 6.107,-2.333 z" /></g><g
           transform="translate(187.5044,37.8076)"
           id="g92"><path
             id="path94"
             style="fill:#203465;fill-opacity:1;fill-rule:nonzero;stroke:none"
             d="M 0,0 C 0.964,0.304 1.979,0.489 3.029,0.538 V 9.819 C 0.798,9.761 -1.346,9.354 -3.356,8.656 Z" /></g><g
           transform="translate(181.1743,19.6641)"
           id="g96"><path
             id="path98"
             style="fill:#cb841a;fill-opacity:1;fill-rule:nonzero;stroke:none"
             d="m 0,0 c -0.588,0.871 -1.068,1.823 -1.414,2.836 l -8.92,-2.561 c 0.676,-2.126 1.677,-4.109 2.946,-5.888 z" /></g><g
           transform="translate(183.6792,35.7764)"
           id="g100"><path
             id="path102"
             style="fill:#20518e;fill-opacity:1;fill-rule:nonzero;stroke:none"
             d="m 0,0 c 0.784,0.62 1.646,1.144 2.57,1.556 l -3.353,8.652 C -2.781,9.37 -4.622,8.234 -6.255,6.858 Z" /></g><g
           transform="translate(216.668,31.5664)"
           id="g104"><path
             id="path106"
             style="fill:#00adef;fill-opacity:1;fill-rule:nonzero;stroke:none"
             d="M 0,0 8.651,12.393 H 0.596 v 3.321 H 13.36 V 12.789 L 4.686,0.396 h 8.674 v -3.321 l -13.36,0 z" /></g><g
           transform="translate(238.0088,39.0264)"
           id="g108"><path
             id="path110"
             style="fill:#00adef;fill-opacity:1;fill-rule:nonzero;stroke:none"
             d="m 0,0 c 2.553,0 3.197,1.363 3.197,2.553 0,1.339 -0.644,2.528 -3.321,2.528 H -2.479 V 0 Z m -0.297,-3.023 h -2.182 v -7.362 H -6.197 V 8.254 h 6.966 c 3.916,0 6.146,-2.454 6.146,-5.552 0,-1.958 -1.065,-4.512 -3.47,-5.23 l 4.338,-7.857 H 3.346 Z" /></g><g
           transform="translate(255.4326,44.3057)"
           id="g112"><path
             id="path114"
             style="fill:#00adef;fill-opacity:1;fill-rule:nonzero;stroke:none"
             d="m 0,0 c -3.47,0 -5.205,-2.999 -5.205,-6.345 0,-3.346 1.735,-6.345 5.205,-6.345 3.471,0 5.205,2.999 5.205,6.345 C 5.205,-2.999 3.471,0 0,0 m 0,3.322 c 5.8,0 9.072,-4.66 9.072,-9.667 0,-5.007 -3.272,-9.667 -9.072,-9.667 -5.8,0 -9.071,4.66 -9.071,9.667 0,5.007 3.271,9.667 9.071,9.667" /></g><g
           transform="translate(277.0449,41.6289)"
           id="g116"><path
             id="path118"
             style="fill:#00adef;fill-opacity:1;fill-rule:nonzero;stroke:none"
             d="m 0,0 h -0.05 l -3.073,-12.987 h -3.94 l -4.81,18.638 h 3.966 l 2.9,-13.707 h 0.05 L -2.032,5.651 H 1.983 L 5.032,-8.056 H 5.081 L 7.783,5.651 h 3.942 L 6.965,-12.987 H 3.024 Z" /></g><g
           transform="translate(293.874,41.3564)"
           id="g120"><path
             id="path122"
             style="fill:#00adef;fill-opacity:1;fill-rule:nonzero;stroke:none"
             d="M 0,0 H -0.05 V -12.715 H -3.619 V 5.924 H 0.372 L 7.932,-6.593 H 7.981 V 5.924 h 3.57 V -12.715 H 7.709 Z" /></g><g
           transform="translate(316.627,44.3057)"
           id="g124"><path
             id="path126"
             style="fill:#00adef;fill-opacity:1;fill-rule:nonzero;stroke:none"
             d="m 0,0 c -3.47,0 -5.205,-2.999 -5.205,-6.345 0,-3.346 1.735,-6.345 5.205,-6.345 3.471,0 5.205,2.999 5.205,6.345 C 5.205,-2.999 3.471,0 0,0 m 0,3.322 c 5.8,0 9.071,-4.66 9.071,-9.667 0,-5.007 -3.271,-9.667 -9.071,-9.667 -5.8,0 -9.071,4.66 -9.071,9.667 0,5.007 3.271,9.667 9.071,9.667" /></g><g
           transform="translate(338.2393,41.6289)"
           id="g128"><path
             id="path130"
             style="fill:#00adef;fill-opacity:1;fill-rule:nonzero;stroke:none"
             d="m 0,0 h -0.05 l -3.073,-12.987 h -3.941 l -4.808,18.638 h 3.966 l 2.899,-13.707 h 0.05 L -2.032,5.651 H 1.983 L 5.032,-8.056 H 5.081 L 7.783,5.651 h 3.941 L 6.965,-12.987 H 3.024 Z" /></g><g
           transform="translate(357.3984,42.7939)"
           id="g132"><path
             id="path134"
             style="fill:#00adef;fill-opacity:1;fill-rule:nonzero;stroke:none"
             d="M 0,0 H -0.05 L -2.404,-7.237 H 2.38 Z m 3.371,-10.262 h -6.816 l -1.214,-3.89 H -8.675 L -1.884,4.486 H 2.032 L 8.726,-14.152 H 4.635 Z" /></g><g
           transform="translate(366.0967,31.5664)"
           id="g136"><path
             id="path138"
             style="fill:#00adef;fill-opacity:1;fill-rule:nonzero;stroke:none"
             d="M 0,0 8.65,12.393 H 0.596 v 3.321 H 13.36 V 12.789 L 4.685,0.396 h 8.675 v -3.321 l -13.36,0 z" /></g><g
           transform="translate(389.4941,44.3057)"
           id="g140"><path
             id="path142"
             style="fill:#00adef;fill-opacity:1;fill-rule:nonzero;stroke:none"
             d="m 0,0 c -3.47,0 -5.205,-2.999 -5.205,-6.345 0,-3.346 1.735,-6.345 5.205,-6.345 3.471,0 5.205,2.999 5.205,6.345 C 5.205,-2.999 3.471,0 0,0 m 0,3.322 c 5.8,0 9.071,-4.66 9.071,-9.667 0,-5.007 -3.271,-9.667 -9.071,-9.667 -5.8,0 -9.071,4.66 -9.071,9.667 0,5.007 3.271,9.667 9.071,9.667" /></g><g
           transform="translate(404.3154,41.3564)"
           id="g144"><path
             id="path146"
             style="fill:#00adef;fill-opacity:1;fill-rule:nonzero;stroke:none"
             d="M 0,0 H -0.05 V -12.715 H -3.619 V 5.924 h 3.99 L 7.932,-6.593 H 7.981 V 5.924 h 3.57 V -12.715 H 7.708 Z" /></g><g
           transform="translate(418.8145,47.2803)"
           id="g148"><path
             id="path150"
             style="fill:#00adef;fill-opacity:1;fill-rule:nonzero;stroke:none"
             d="M 0,0 H 11.897 V -3.321 H 3.718 V -7.56 h 7.956 v -3.321 H 3.718 v -4.436 h 8.179 v -3.322 H 0 Z" /></g><g
           transform="translate(441.543,38.6797)"
           id="g152"><path
             id="path154"
             style="fill:#00adef;fill-opacity:1;fill-rule:nonzero;stroke:none"
             d="m 0,0 h 8.601 c -0.149,-6.915 -3.966,-10.386 -9.097,-10.386 -5.527,0 -9.071,4.66 -9.071,9.667 0,5.007 3.544,9.667 9.071,9.667 6.122,0 7.808,-3.817 8.502,-5.801 L 4.114,2.899 c -0.669,1.637 -2.008,2.727 -4.61,2.727 -2.925,0 -5.205,-2.379 -5.205,-6.345 0,-3.346 2.106,-6.345 5.453,-6.345 2.999,0 4.387,2.131 4.709,3.891 H 0 Z" /></g><g
           transform="translate(460.5283,44.3057)"
           id="g156"><path
             id="path158"
             style="fill:#00adef;fill-opacity:1;fill-rule:nonzero;stroke:none"
             d="m 0,0 c -3.471,0 -5.206,-2.999 -5.206,-6.345 0,-3.346 1.735,-6.345 5.206,-6.345 3.47,0 5.205,2.999 5.205,6.345 C 5.205,-2.999 3.47,0 0,0 m 0,3.322 c 5.8,0 9.071,-4.66 9.071,-9.667 0,-5.007 -3.271,-9.667 -9.071,-9.667 -5.801,0 -9.072,4.66 -9.072,9.667 0,5.007 3.271,9.667 9.072,9.667" /></g><g
           transform="translate(224.0303,15.8408)"
           id="g160"><path
             id="path162"
             style="fill:#00adef;fill-opacity:1;fill-rule:nonzero;stroke:none"
             d="m 0,0 c 2.553,0 3.197,1.363 3.197,2.553 0,1.338 -0.644,2.528 -3.321,2.528 H -2.479 V 0 Z m -0.298,-3.024 h -2.181 v -7.362 h -3.718 v 18.64 h 6.966 c 3.916,0 6.146,-2.454 6.146,-5.553 0,-1.958 -1.066,-4.511 -3.471,-5.229 l 4.338,-7.858 H 3.346 Z" /></g><g
           transform="translate(241.4541,21.1201)"
           id="g164"><path
             id="path166"
             style="fill:#00adef;fill-opacity:1;fill-rule:nonzero;stroke:none"
             d="m 0,0 c -3.471,0 -5.206,-2.999 -5.206,-6.346 0,-3.345 1.735,-6.344 5.206,-6.344 3.47,0 5.205,2.999 5.205,6.344 C 5.205,-2.999 3.47,0 0,0 m 0,3.321 c 5.8,0 9.071,-4.66 9.071,-9.667 0,-5.007 -3.271,-9.667 -9.071,-9.667 -5.8,0 -9.072,4.66 -9.072,9.667 0,5.007 3.272,9.667 9.072,9.667" /></g><g
           transform="translate(251.4912,8.3799)"
           id="g168"><path
             id="path170"
             style="fill:#00adef;fill-opacity:1;fill-rule:nonzero;stroke:none"
             d="M 0,0 8.65,12.393 H 0.595 v 3.322 H 13.359 V 12.79 L 4.685,0.396 h 8.674 V -2.925 L 0,-2.925 Z" /></g><g
           transform="translate(277.0449,18.4434)"
           id="g172"><path
             id="path174"
             style="fill:#00adef;fill-opacity:1;fill-rule:nonzero;stroke:none"
             d="m 0,0 h -0.05 l -3.073,-12.988 h -3.941 l -4.809,18.639 h 3.966 l 2.9,-13.707 h 0.049 L -2.033,5.651 H 1.982 L 5.031,-8.056 h 0.05 L 7.783,5.651 h 3.941 L 6.965,-12.988 H 3.023 Z" /></g><g
           transform="translate(298.5088,21.1201)"
           id="g176"><path
             id="path178"
             style="fill:#00adef;fill-opacity:1;fill-rule:nonzero;stroke:none"
             d="m 0,0 c -3.471,0 -5.205,-2.999 -5.205,-6.346 0,-3.345 1.734,-6.344 5.205,-6.344 3.47,0 5.205,2.999 5.205,6.344 C 5.205,-2.999 3.47,0 0,0 m 0,3.321 c 5.8,0 9.071,-4.66 9.071,-9.667 0,-5.007 -3.271,-9.667 -9.071,-9.667 -5.8,0 -9.072,4.66 -9.072,9.667 0,5.007 3.272,9.667 9.072,9.667" /></g><g
           transform="translate(308.248,24.0947)"
           id="g180"><path
             id="path182"
             style="fill:#00adef;fill-opacity:1;fill-rule:nonzero;stroke:none"
             d="m 0,0 h 8.526 v -12.295 c 0,-5.898 -3.519,-6.493 -7.287,-6.493 H 0.05 v 3.172 h 1.908 c 1.81,0 2.851,0.546 2.851,2.479 v 9.815 l -4.809,0 z" /></g><g
           transform="translate(331.1748,24.0947)"
           id="g184"><path
             id="path186"
             style="fill:#00adef;fill-opacity:1;fill-rule:nonzero;stroke:none"
             d="m 0,0 h 3.718 v -10.906 c 0,-5.825 -3.694,-8.081 -7.758,-8.081 -4.064,0 -7.758,2.256 -7.758,8.081 V 0 h 3.718 v -10.932 c 0,-3.097 1.388,-4.733 4.04,-4.733 2.652,0 4.04,1.636 4.04,4.733 z" /></g><g
           transform="translate(256.9473,51.5859)"
           id="g188"><path
             id="path190"
             style="fill:#00adef;fill-opacity:1;fill-rule:nonzero;stroke:none"
             d="M 0,0 H 3.07 L -0.113,-3.184 H -2.001 Z" /></g><g
           transform="translate(372.918,50.9385)"
           id="g192"><path
             id="path194"
             style="fill:#00adef;fill-opacity:1;fill-rule:nonzero;stroke:none"
             d="m 0,0 c 0.724,0 1.322,-0.599 1.322,-1.322 0,-0.725 -0.598,-1.324 -1.322,-1.324 -0.725,0 -1.323,0.599 -1.323,1.324 C -1.323,-0.599 -0.725,0 0,0" /></g></g></g></g></svg>