<svg id="Warstwa_1" data-name="Warstwa 1" xmlns="http://www.w3.org/2000/svg" viewBox="0 0 3640 1200"><defs><style>.cls-1{fill:#2a255e;}</style></defs><path class="cls-1" d="M700.94,921.3c0-14.47-8.62-36.35-16.22-52-8.74-17.83-18.45-38.54-18.45-38.54l9-10.18s4.15,14.95,27.28,44.77c36.26,46.8,33.53,87.42,33.53,87.42,0,50.29-49.27,117.57-161.27,117.57,0,0-24.89,2.22-70.1-11.8-195.34-60.73-337.22-243-337.22-458.48,0-265,214.89-480,480-480s480,215,480,480c0,261-208.23,473.31-467.58,479.92a78.57,78.57,0,0,0,15.05-5.3c9.37-4.15,20.28-10.38,33.79-20.31a77,77,0,0,0,20.78-23.48C932.44,992.54,1086,814.24,1086,600.06c0-242.18-196.28-438.46-438.46-438.46S209,357.88,209,600.06c0,186.08,116,345.21,279.55,408.82,0,0,43.52,20.23,84.21,19.27,0,0,128.15,5.92,128.15-106.85M647.51,380.73,627.57,563.47s-3.5,20-3.5,36.57,11.56,33.69,26.45,33.69,25.34-16.3,25.34-33.69c0-9.91-3.48-31.53-3.48-31.53L647.51,380.73M818.34,575.14l-11.58,35.79H768.64l31.12,23.17-12.08,36.67,30.66-22.58,30.73,22.58L837.14,634.1,868,610.93H829.71Zm-332.57,0-11.58,35.79H436l31.08,23.17-12,36.67,30.67-22.58,30.76,22.58L504.58,634.1l30.78-23.17H497ZM713.54,714.83C757.92,818.77,826.85,869.64,885.2,869.64c58.51,0,95-44.95,95-94.91s-51-103.37-51-103.37l-11.45,8.52c17.94,20.39,26.39,52,26.39,59s.52,61.93-70.88,61.93c-88.41,0-142.36-96.46-142.36-96.46l-17.37,10.53m-132,0L564.07,704.3s-54,96.46-142.34,96.46c-71.45,0-70.93-55-70.93-61.93s8.51-38.56,26.52-59l-11.49-8.52S314.9,724.81,314.9,774.73s36.44,94.91,94.85,94.91,127.39-50.87,171.77-154.81M540.26,524.45c-87-72.06-171.64-85.81-223.52-59.12s-63.82,83.47-40.95,127.86,92.6,68.6,92.6,68.6L374.68,649c-25.29-10-47.31-34.21-50.49-40.39S295.43,553.85,359,521.13c78.56-40.42,170.64,20.57,170.64,20.57l10.64-17.25m214.46,0,10.71,17.25s92.07-61,170.64-20.57c63.51,32.72,37.92,81.39,34.65,87.51S945.6,639,920.25,649l6.28,12.76s69.81-24.19,92.64-68.6,11-101-40.94-127.86-136.5-12.94-223.51,59.12m-203-9.07,13.75-15s-83.28-72.47-65.33-159c14.53-69.85,68.23-58.21,75.08-56.79s36,16.14,52.32,37.88l10.63-9.54s-42-60.64-90.84-70.9S447.11,258.48,435.15,315.6c-11.89,57.3,23.91,135.2,116.6,199.78m191.55,0C835.91,450.8,871.75,372.9,859.9,315.6,848,258.48,796.54,231.84,747.64,242s-90.79,70.9-90.79,70.9l10.63,9.54c16.36-21.74,45.44-36.44,52.27-37.88s60.55-13.06,75.11,56.79c18,86.57-65.45,159-65.45,159l13.89,15M649.9,683.13s4.42,7,4.42,13.68-8.87,18.85-12.85,24.69c-4,5.68-16.26,23.83-16.26,23.83S608.94,770,608.94,793.78s12.25,48.09,28.54,62.21,31.89,27.79,31.89,27.79l4.73-5.34s-26.56-35.44-26.56-83.5c0,0-1.41-22.84,16.93-59.43a52.32,52.32,0,0,0,5.72-23.72c0-2.66-3.6-22.94-15.08-33.14l-5.21,4.48"/><path class="cls-1" d="M1327.28,285.24c-2,0-3,.69-3.22,2L1299.9,390.39a3.86,3.86,0,0,1-4.09,2.93h-21.26c-2.34,0-3.79-1.47-4.37-4.38l-39-193.41c-.59-2.93.67-4.38,3.79-4.38h31.16a4.06,4.06,0,0,1,4.36,3.22l15.16,79.8a4.05,4.05,0,0,0,4.36,3.21,3.9,3.9,0,0,0,4.09-3.21l19.52-80.11c.58-1.93,2-2.91,4.36-2.91h18.65c2.32,0,3.79,1,4.36,2.91l20.11,79.52a4,4,0,0,0,4.37,3.21,4.12,4.12,0,0,0,4.36-3.5l14.56-78.92c.39-2.14,1.85-3.22,4.37-3.22h30.89c3.09,0,4.35,1.45,3.78,4.38l-39,193.41c-.57,2.91-2,4.38-4.36,4.38h-21c-2.33,0-3.79-1-4.36-2.93l-24.19-103.11c-.2-1.35-1.26-2-3.19-2"/><path class="cls-1" d="M1442.72,218.39a56.16,56.16,0,0,1,14.55-17.18,72.47,72.47,0,0,1,20.1-11.21,63.55,63.55,0,0,1,44.86,0,70.17,70.17,0,0,1,20.1,11.36,58.08,58.08,0,0,1,14.57,17.31,44.93,44.93,0,0,1,5.54,22V342.05q0,13.69-5,24.16a49.24,49.24,0,0,1-13.54,17.49,60.34,60.34,0,0,1-20,10.63A78.65,78.65,0,0,1,1499.8,398a82.52,82.52,0,0,1-24.47-3.5A56.74,56.74,0,0,1,1455.52,384a49.91,49.91,0,0,1-13.39-17.46q-5-10.5-5-24.47V240.38a44.62,44.62,0,0,1,5.54-22M1478,342.05a16.6,16.6,0,0,0,6.59,13.68,22.79,22.79,0,0,0,14.51,5.25,26.46,26.46,0,0,0,15.55-5q7-4.95,7-14V240.67a12.11,12.11,0,0,0-2.18-7A25,25,0,0,0,1514,228a24.13,24.13,0,0,0-7-3.77,20.86,20.86,0,0,0-14.66,0,29.13,29.13,0,0,0-7,3.48,17.77,17.77,0,0,0-5.27,5.54,13.51,13.51,0,0,0-2,7.13Z"/><path class="cls-1" d="M1718.22,389c0,2.91-1.47,4.36-4.38,4.36H1678a5.14,5.14,0,0,1-2.32-.58,3.72,3.72,0,0,1-1.75-1.75l-26.22-69.9a3.93,3.93,0,0,0-2.76-2.48,19.37,19.37,0,0,0-4.81-.89q-2.62-.12-5.1,0c-1.65.12-3.06.15-4.22.15-1.75,0-2.63.79-2.63,2.34v68.46q0,4.65-4.38,4.65h-31.73c-3.12,0-4.67-1.55-4.67-4.65V195.53c0-2.92,1.55-4.37,4.67-4.37h42.81a79.9,79.9,0,0,1,27.53,4.51,61.17,61.17,0,0,1,21.41,13.11,59.63,59.63,0,0,1,14,20.53,69.53,69.53,0,0,1,5,26.81,115.36,115.36,0,0,1-2.78,24.75,44.11,44.11,0,0,1-11.51,21.56,11.15,11.15,0,0,1-1.75,1.9,2.9,2.9,0,0,0-1.16,2.17,43.36,43.36,0,0,0,2.18,6.13c1.47,3.68,3.25,8.3,5.39,13.83s4.53,11.56,7.13,18.06,5.1,12.67,7.43,18.51,4.37,10.87,6.12,15.15,2.91,7,3.5,8.14c.19.39.39.83.57,1.31a3.39,3.39,0,0,1,.31,1.32m-90-111a5.5,5.5,0,0,0,5.49,5.54q12.42,0,20.36-7t7.94-20.38q0-12.52-7.94-18.65t-19.22-6.11a16.74,16.74,0,0,0-4.76.57c-1.25.41-1.87,1.94-1.87,4.67Z"/><path class="cls-1" d="M1844.16,364.18v24.47c0,3.1-1.54,4.67-4.66,4.67h-99.32c-3.11,0-4.66-1.57-4.66-4.67V195.53c0-2.91,1.55-4.38,4.66-4.38h31.74c2.93,0,4.37,1.47,4.37,4.38V355.45c0,2.91,1.45,4.36,4.38,4.36h58.83c3.12,0,4.66,1.46,4.66,4.37"/><path class="cls-1" d="M1865.61,388.65V195.52q0-4.36,4.65-4.36h58.85c10.67,0,20,1.6,27.81,4.81a54.41,54.41,0,0,1,19.53,13.1,52.85,52.85,0,0,1,11.49,20,80.74,80.74,0,0,1,3.8,25.05V336.8a58.44,58.44,0,0,1-4.81,24.31,49.44,49.44,0,0,1-13.26,17.78,57.31,57.31,0,0,1-19.81,10.78,80.33,80.33,0,0,1-24.75,3.64h-58.85q-4.65,0-4.65-4.66m44.56-28.55h17.19q11.07,0,16.89-7a24.68,24.68,0,0,0,5.82-16.32V254.08a39.54,39.54,0,0,0-1.44-10.5,36.57,36.57,0,0,0-4.09-9.46,20.55,20.55,0,0,0-6.55-6.69,16.88,16.88,0,0,0-9.17-2.48h-18.65q-4.37,0-4.37,4.65V355.44c0,3.12,1.46,4.66,4.37,4.66"/><path class="cls-1" d="M2173.24,393.31a3.22,3.22,0,0,1-3.2-1.73l-7.3-27.69c-.57-1.93-2.22-2.91-4.93-2.91h-37c-2.51,0-4.07,1.08-4.66,3.2l-7,27.4c-.39,1.16-1.45,1.73-3.22,1.73H2071c-3.12,0-4.2-1.84-3.22-5.54l51.85-194.57c.19-1.37,1.26-2,3.21-2h31.46c1.93,0,3,.67,3.2,2l52.72,195.73v1.75c0,1.75-1.16,2.63-3.5,2.63Zm-34.08-119.72q-4.08,0-5,3.48l-11.35,44a6.28,6.28,0,0,0,0,4.63,5.54,5.54,0,0,0,1.17,2,2.85,2.85,0,0,0,2,.57h23.29a5.24,5.24,0,0,0,4.38-2.31,6.77,6.77,0,0,0,.3-5.21l-9.91-43.76c-.57-2.32-2.24-3.48-5-3.48"/><path class="cls-1" d="M2278.49,398a82.78,82.78,0,0,1-20.84-2.76,65.88,65.88,0,0,1-19.37-8.45A47.71,47.71,0,0,1,2224,372.49c-3.68-5.74-5.52-12.57-5.52-20.55,0-2.5,1.35-3.78,4.06-3.78H2253c1.53,0,2.46.33,2.74,1a19,19,0,0,0,1.6,2.76c2.7,3.89,5.74,6.52,9.12,7.86a32.23,32.23,0,0,0,12.07,2.06,27.44,27.44,0,0,0,14.22-3.79c4.24-2.52,6.38-6.8,6.38-12.82a14.74,14.74,0,0,0-2.48-8.74,42.13,42.13,0,0,0-5.94-6.7L2244,285.54a71,71,0,0,1-15.36-20.68,57.14,57.14,0,0,1-5.52-25.35,54.26,54.26,0,0,1,4.37-22.13,48.57,48.57,0,0,1,12.22-16.91,55.56,55.56,0,0,1,18.8-10.77,71.85,71.85,0,0,1,23.74-3.79,57.55,57.55,0,0,1,20.1,3.65A59.81,59.81,0,0,1,2320,199.61,51.08,51.08,0,0,1,2332.52,215a41,41,0,0,1,4.82,19.52,3.26,3.26,0,0,1-1.32,2.91,5.42,5.42,0,0,1-3.06.88h-29.13a4.4,4.4,0,0,1-4.38-2.44c-.79-1.62-1.7-3.38-2.76-5.28a16.44,16.44,0,0,0-5.09-5.29q-3.49-2.44-11.08-2.44a20.19,20.19,0,0,0-12.67,3.92q-5.1,3.94-5.1,11.5a22.56,22.56,0,0,0,3.2,11.78,39.23,39.23,0,0,0,7.89,9.45l42.8,39.84a129,129,0,0,1,10.19,10.75,57,57,0,0,1,7.29,11.06,52.69,52.69,0,0,1,4.36,12.5,69.29,69.29,0,0,1,1.46,14.83q0,13.39-5.23,22.7a46.59,46.59,0,0,1-13.7,15.26,57.68,57.68,0,0,1-19.67,8.72,95.27,95.27,0,0,1-22.85,2.76"/><path class="cls-1" d="M2414.34,398a82.65,82.65,0,0,1-20.83-2.76,65.77,65.77,0,0,1-19.37-8.45,47.6,47.6,0,0,1-14.27-14.27c-3.69-5.74-5.52-12.57-5.52-20.55,0-2.5,1.34-3.78,4.05-3.78h30.5c1.53,0,2.45.33,2.74,1a19,19,0,0,0,1.6,2.76c2.69,3.89,5.74,6.52,9.12,7.86a32.19,32.19,0,0,0,12.07,2.06,27.49,27.49,0,0,0,14.22-3.79c4.24-2.52,6.38-6.8,6.38-12.82a14.74,14.74,0,0,0-2.48-8.74,43.14,43.14,0,0,0-5.94-6.7l-46.73-44.27a71.25,71.25,0,0,1-15.37-20.68,57.28,57.28,0,0,1-5.52-25.35,54.26,54.26,0,0,1,4.38-22.13,48.44,48.44,0,0,1,12.22-16.91,55.41,55.41,0,0,1,18.79-10.77,72,72,0,0,1,23.75-3.79,57.45,57.45,0,0,1,20.09,3.65,59.73,59.73,0,0,1,17.64,10.05A51.23,51.23,0,0,1,2468.38,215a41,41,0,0,1,4.81,19.52,3.25,3.25,0,0,1-1.31,2.91,5.42,5.42,0,0,1-3.06.88h-29.13a4.4,4.4,0,0,1-4.38-2.44c-.79-1.62-1.7-3.38-2.76-5.28a16.59,16.59,0,0,0-5.1-5.29c-2.32-1.63-6-2.44-11.07-2.44a20.19,20.19,0,0,0-12.67,3.92q-5.1,3.94-5.1,11.5a22.56,22.56,0,0,0,3.2,11.78,39.15,39.15,0,0,0,7.87,9.45l42.81,39.84a127.58,127.58,0,0,1,10.2,10.75A57.89,57.89,0,0,1,2470,321.2a53.13,53.13,0,0,1,4.36,12.5,69.94,69.94,0,0,1,1.46,14.83q0,13.39-5.23,22.7a46.59,46.59,0,0,1-13.7,15.26,57.68,57.68,0,0,1-19.67,8.72,95.35,95.35,0,0,1-22.86,2.76"/><path class="cls-1" d="M2499.87,218.39a56.19,56.19,0,0,1,14.56-17.18A72.27,72.27,0,0,1,2534.52,190a63.55,63.55,0,0,1,44.86,0,70.54,70.54,0,0,1,20.12,11.36,58,58,0,0,1,14.55,17.31,44.93,44.93,0,0,1,5.54,22V342.05q0,13.69-5,24.16a49.38,49.38,0,0,1-13.55,17.49,60.39,60.39,0,0,1-20,10.63A78.7,78.7,0,0,1,2557,398a82.61,82.61,0,0,1-24.49-3.5,56.61,56.61,0,0,1-19.8-10.49,49.94,49.94,0,0,1-13.4-17.46q-5-10.5-5-24.47V240.38a44.84,44.84,0,0,1,5.54-22m35.24,123.66a16.61,16.61,0,0,0,6.6,13.68,22.74,22.74,0,0,0,14.5,5.25,26.39,26.39,0,0,0,15.55-5q7-4.95,7-14V240.67a12.12,12.12,0,0,0-2.19-7,25.16,25.16,0,0,0-5.42-5.69,24.36,24.36,0,0,0-7.05-3.77,20.86,20.86,0,0,0-14.66,0,29.13,29.13,0,0,0-7.05,3.48,18,18,0,0,0-5.27,5.54,13.51,13.51,0,0,0-2,7.13Z"/><path class="cls-1" d="M2761.56,243.59c0,2.72-1.47,4.09-4.38,4.09h-32q-4.37,0-4.37-4.14c0-4.13-.62-7.43-1.89-9.88a17.09,17.09,0,0,0-4.81-5.91,15.93,15.93,0,0,0-6.41-2.94,32.51,32.51,0,0,0-6.7-.75,17.57,17.57,0,0,0-12.23,5.14,16.56,16.56,0,0,0-5.54,12.72V346.65c0,3.51,1.83,6.63,5.54,9.37a20,20,0,0,0,12.23,4.09,33.13,33.13,0,0,0,6.26-.59,11.75,11.75,0,0,0,5.39-2.47,13.17,13.17,0,0,0,3.78-5.69c1-2.51,1.47-6,1.47-10.49q0-3.78,4.37-3.78h32c2.9,0,4.36,1.26,4.36,3.78q0,30.22-15.43,43.66T2701,398a73.66,73.66,0,0,1-22.43-3.34,58.43,58.43,0,0,1-18.63-9.77,44.64,44.64,0,0,1-12.82-16,51,51,0,0,1-4.67-22.43V242.12a50.38,50.38,0,0,1,4.82-21.84,58.38,58.38,0,0,1,12.82-17.76,60,60,0,0,1,18.63-11.94A57.88,57.88,0,0,1,2701,186.2a88,88,0,0,1,22.59,2.91,52.73,52.73,0,0,1,19.35,9.61,47.64,47.64,0,0,1,13.55,17.79q5.1,11.06,5.1,27.08"/><path class="cls-1" d="M2820.52,393.32h-31.46c-3.11,0-4.66-1.55-4.66-4.67V195.53c0-2.91,1.46-4.38,4.38-4.38h31.74c3.11,0,4.64,1.47,4.64,4.38V388.65c0,3.12-1.53,4.67-4.64,4.67"/><path class="cls-1" d="M2948.07,393.31a3.22,3.22,0,0,1-3.2-1.73l-7.3-27.69c-.58-1.93-2.23-2.91-4.93-2.91h-37c-2.51,0-4.07,1.08-4.66,3.2l-7,27.4c-.38,1.16-1.44,1.73-3.21,1.73h-34.94c-3.11,0-4.19-1.84-3.21-5.54l51.85-194.57c.18-1.37,1.26-2,3.21-2h31.45c1.94,0,3,.67,3.2,2l52.73,195.73v1.75c0,1.75-1.16,2.63-3.5,2.63ZM2914,273.59c-2.73,0-4.38,1.16-5,3.48l-11.34,44a6.18,6.18,0,0,0,0,4.63,5.69,5.69,0,0,0,1.16,2,2.88,2.88,0,0,0,2,.57h23.29a5.26,5.26,0,0,0,4.38-2.31,6.77,6.77,0,0,0,.3-5.21l-9.91-43.76c-.58-2.32-2.24-3.48-5-3.48"/><path class="cls-1" d="M3058.52,393.32H3025c-3.12,0-4.68-1.55-4.68-4.67V227.27c0-2.9-1.45-4.36-4.36-4.36h-39.33q-4.66,0-4.66-4.66V195.53c0-2.91,1.55-4.38,4.66-4.38h130.2c3.12,0,4.67,1.47,4.67,4.38v22.72c0,3.11-1.55,4.66-4.67,4.66h-39.31c-2.93,0-4.39,1.46-4.39,4.36V388.65c0,3.12-1.53,4.67-4.65,4.67"/><path class="cls-1" d="M3166.34,393.32h-31.47c-3.12,0-4.66-1.55-4.66-4.67V195.53c0-2.91,1.46-4.38,4.37-4.38h31.76c3.09,0,4.64,1.47,4.64,4.38V388.65c0,3.12-1.55,4.67-4.64,4.67"/><path class="cls-1" d="M3201.36,218.39a56.47,56.47,0,0,1,14.56-17.18A72.52,72.52,0,0,1,3236,190a63.58,63.58,0,0,1,44.87,0A70.25,70.25,0,0,1,3301,201.36a57.76,57.76,0,0,1,14.56,17.31,44.81,44.81,0,0,1,5.53,22V342.05c0,9.13-1.63,17.18-4.94,24.16a49.16,49.16,0,0,1-13.55,17.49,60.49,60.49,0,0,1-19.94,10.63,78.85,78.85,0,0,1-24.19,3.64,82.68,82.68,0,0,1-24.48-3.5A56.74,56.74,0,0,1,3214.19,384a49.82,49.82,0,0,1-13.4-17.46q-5-10.5-4.95-24.47V240.38a44.93,44.93,0,0,1,5.52-22m35.26,123.66a16.61,16.61,0,0,0,6.6,13.68,22.76,22.76,0,0,0,14.5,5.25,26.36,26.36,0,0,0,15.54-5q7.06-4.95,7-14V240.67a12.07,12.07,0,0,0-2.21-7,25,25,0,0,0-12.45-9.46,20.86,20.86,0,0,0-14.66,0,29.31,29.31,0,0,0-7,3.48,17.77,17.77,0,0,0-5.27,5.54,13.33,13.33,0,0,0-2.05,7.13Z"/><path class="cls-1" d="M3392.11,291.36a3.64,3.64,0,0,0-3.8-2.34c-2.9,0-4.36,1.47-4.36,4.38v95.25c0,3.11-1.47,4.66-4.38,4.66h-28.83q-4.66,0-4.66-4.66V195.52c0-2.91,1.47-4.37,4.38-4.37H3374a4.12,4.12,0,0,1,4.09,2.93l48.35,103.39c.59,1.18,1.85,1.75,3.79,1.75,2.93,0,4.38-1.45,4.38-4.36V195.52q0-4.36,4.37-4.37h28.83q4.66,0,4.66,4.37V388.94c0,2.92-1.55,4.37-4.66,4.37h-21.27a4.18,4.18,0,0,1-4.08-2.91Z"/><path class="cls-1" d="M1251.46,526.16A56.52,56.52,0,0,1,1266,509a73.42,73.42,0,0,1,20.09-11.2,63.72,63.72,0,0,1,44.87,0,70.91,70.91,0,0,1,20.09,11.35,58.23,58.23,0,0,1,14.58,17.34,44.94,44.94,0,0,1,5.53,22V649.8a56,56,0,0,1-5,24.19,49,49,0,0,1-13.55,17.46,60.13,60.13,0,0,1-19.94,10.64,79,79,0,0,1-24.18,3.65,83.13,83.13,0,0,1-24.47-3.5,57.26,57.26,0,0,1-19.81-10.5,49.77,49.77,0,0,1-13.4-17.47c-3.29-7-4.94-15.14-4.94-24.47V548.14a44.68,44.68,0,0,1,5.53-22M1286.7,649.8a16.61,16.61,0,0,0,6.6,13.69,22.78,22.78,0,0,0,14.51,5.26,26.47,26.47,0,0,0,15.55-5q7-4.95,7-14V548.44a12.11,12.11,0,0,0-2.19-7,25.1,25.1,0,0,0-5.43-5.67,24.72,24.72,0,0,0-7-3.79,21.13,21.13,0,0,0-14.65,0,29.65,29.65,0,0,0-7.06,3.51,17.71,17.71,0,0,0-5.26,5.53,13.37,13.37,0,0,0-2.06,7.12Z"/><path class="cls-1" d="M1483.85,587.19v27.66c0,3.12-1.46,4.67-4.38,4.67H1441c-2.75,0-4.09,1.36-4.09,4.08v72.81c0,3.11-1.47,4.67-4.36,4.67h-31.76q-4.66,0-4.66-4.67V503.3q0-4.38,4.66-4.38h95q4.37,0,4.36,4.38v28.82q0,4.68-4.36,4.68h-54.48q-4.36,0-4.37,4.36v37c0,2.93,1.34,4.38,4.09,4.38h38.43c2.92,0,4.38,1.54,4.38,4.66"/><path class="cls-1" d="M1710.52,548.15c0,2.52-1.46,3.79-4.37,3.79h-32.33q-4.07,0-4.07-3.74a13.58,13.58,0,0,0-2.19-7.61,19.43,19.43,0,0,0-5.39-5.45,24.84,24.84,0,0,0-7.28-3.31,29.29,29.29,0,0,0-7.88-1.15,19.4,19.4,0,0,0-6.55,1.3,33.45,33.45,0,0,0-7,3.48,21.37,21.37,0,0,0-5.54,5.08,10.48,10.48,0,0,0-2.18,6.38V652.77q0,7.58,7,11.77a28.81,28.81,0,0,0,15.16,4.2,27.6,27.6,0,0,0,14.84-4.34q7-4.36,7-11.88v-26q0-4.62-2.63-5.5a15.51,15.51,0,0,0-4.95-.88h-8.75a8.26,8.26,0,0,1-4.64-1.31c-1.37-.88-2.06-2.37-2.06-4.51V585.14c0-3.1,1.57-4.66,4.67-4.66h54.47c3.11,0,4.66,1.56,4.66,4.66v67.57q0,14-5,24A45,45,0,0,1,1692,693.21a58,58,0,0,1-20,9.46,92.62,92.62,0,0,1-24.17,3.06,86.61,86.61,0,0,1-24.47-3.34,61.18,61.18,0,0,1-20-9.9A46.79,46.79,0,0,1,1589.93,676q-5-9.91-5-23V546.7a46.69,46.69,0,0,1,5.1-22,51.39,51.39,0,0,1,13.68-16.61,64.33,64.33,0,0,1,20-10.64,76.31,76.31,0,0,1,24.18-3.79,77.5,77.5,0,0,1,25.19,3.94,58.45,58.45,0,0,1,19.81,11.21,52.3,52.3,0,0,1,13,17.18,51.41,51.41,0,0,1,4.66,22.15"/><path class="cls-1" d="M1769.77,701.08h-31.46c-3.11,0-4.66-1.57-4.66-4.66V503.29c0-2.91,1.47-4.36,4.38-4.36h31.74q4.67,0,4.66,4.36V696.42c0,3.09-1.55,4.66-4.66,4.66"/><path class="cls-1" d="M1932.2,696.69c0,2.93-1.47,4.38-4.38,4.38H1892a5.22,5.22,0,0,1-2.32-.57,3.81,3.81,0,0,1-1.75-1.75l-26.22-69.91a3.94,3.94,0,0,0-2.76-2.47,18.5,18.5,0,0,0-4.81-.88,36.16,36.16,0,0,0-5.1,0c-1.65.1-3.07.15-4.23.15-1.75,0-2.62.78-2.62,2.32v68.45c0,3.11-1.47,4.66-4.38,4.66h-31.74q-4.66,0-4.66-4.66V503.3c0-2.91,1.55-4.38,4.66-4.38h42.82a79.94,79.94,0,0,1,27.53,4.51,61.43,61.43,0,0,1,21.4,13.11,59.52,59.52,0,0,1,14,20.53,69.57,69.57,0,0,1,5,26.81,115.43,115.43,0,0,1-2.77,24.76,43.83,43.83,0,0,1-11.51,21.55,9.51,9.51,0,0,1-1.75,1.91,2.86,2.86,0,0,0-1.17,2.17,43.06,43.06,0,0,0,2.19,6.11c1.47,3.7,3.25,8.31,5.39,13.85s4.52,11.56,7.13,18,5.1,12.67,7.44,18.51,4.36,10.88,6.11,15.15,2.91,7,3.5,8.15c.19.38.39.82.57,1.29a3.71,3.71,0,0,1,.31,1.31m-90-111a5.46,5.46,0,0,0,5.48,5.54q12.42,0,20.37-7t7.94-20.4q0-12.52-7.94-18.65t-19.22-6.1a16.48,16.48,0,0,0-4.76.57c-1.25.4-1.87,1.95-1.87,4.68Z"/><path class="cls-1" d="M2058.12,672V696.4c0,3.11-1.56,4.68-4.66,4.68h-99.3c-3.12,0-4.67-1.57-4.67-4.68V503.29c0-2.91,1.55-4.36,4.67-4.36h31.75q4.36,0,4.36,4.36V663.2q0,4.37,4.38,4.37h58.81c3.1,0,4.66,1.47,4.66,4.38"/><path class="cls-1" d="M2268.46,548.15c0,2.52-1.47,3.79-4.38,3.79h-32.33q-4.07,0-4.07-3.74a13.58,13.58,0,0,0-2.19-7.61,19.27,19.27,0,0,0-5.38-5.45,24.9,24.9,0,0,0-7.29-3.31,29.26,29.26,0,0,0-7.86-1.15,19.45,19.45,0,0,0-6.56,1.3,33,33,0,0,0-7,3.48,21.37,21.37,0,0,0-5.54,5.08,10.3,10.3,0,0,0-2.19,6.38V652.77c0,5.05,2.32,9,7,11.77a28.72,28.72,0,0,0,15.15,4.2,27.62,27.62,0,0,0,14.84-4.34q7-4.36,7-11.88v-26q0-4.62-2.62-5.5a15.51,15.51,0,0,0-4.95-.88h-8.75a8.32,8.32,0,0,1-4.65-1.31c-1.36-.88-2-2.37-2-4.51V585.14c0-3.1,1.54-4.66,4.64-4.66h54.49c3.08,0,4.65,1.56,4.65,4.66v67.57q0,14-4.95,24A45.11,45.11,0,0,1,2250,693.21a58,58,0,0,1-20,9.46,92.55,92.55,0,0,1-24.16,3.06,86.46,86.46,0,0,1-24.47-3.34,61.08,61.08,0,0,1-20-9.9A46.6,46.6,0,0,1,2147.86,676a50.93,50.93,0,0,1-5-23V546.7a46.7,46.7,0,0,1,5.11-22,51,51,0,0,1,13.69-16.61,64.05,64.05,0,0,1,20-10.64,76.46,76.46,0,0,1,24.19-3.79,77.5,77.5,0,0,1,25.19,3.94,58.55,58.55,0,0,1,19.81,11.21,52.6,52.6,0,0,1,13,17.18,51.85,51.85,0,0,1,4.65,22.15"/><path class="cls-1" d="M2294.27,498.64H2326c3.11,0,4.68,1.44,4.68,4.37V647.49a15.13,15.13,0,0,0,6.1,12.21,21.16,21.16,0,0,0,13.7,5,21.37,21.37,0,0,0,14-4.81,15.33,15.33,0,0,0,5.82-12.37V503c0-2.93,1.45-4.37,4.38-4.37h31.74c3.09,0,4.66,1.44,4.66,4.37v146.8q0,14-4.95,24.47a50.55,50.55,0,0,1-13.4,17.48,57.44,57.44,0,0,1-19.52,10.49,77.27,77.27,0,0,1-23.31,3.48,69.34,69.34,0,0,1-23-3.77A58.57,58.57,0,0,1,2307.82,691a51,51,0,0,1-13.11-17.47,55.79,55.79,0,0,1-4.82-23.74V503c0-2.93,1.47-4.37,4.38-4.37"/><path class="cls-1" d="M2472.8,701.08h-31.47c-3.11,0-4.66-1.57-4.66-4.66V503.29q0-4.37,4.38-4.36h31.75q4.65,0,4.65,4.36V696.42c0,3.09-1.55,4.66-4.65,4.66"/><path class="cls-1" d="M2504.43,696.4V503.29q0-4.37,4.65-4.36h58.85q16,0,27.82,4.8a54.14,54.14,0,0,1,19.52,13.11,53,53,0,0,1,11.49,19.94,80.51,80.51,0,0,1,3.81,25.06v82.73a58.24,58.24,0,0,1-4.82,24.32,49.58,49.58,0,0,1-13.26,17.77,57.64,57.64,0,0,1-19.81,10.79,80.85,80.85,0,0,1-24.75,3.63h-58.85q-4.65,0-4.65-4.68M2549,667.86h17.18q11.09,0,16.9-7a24.74,24.74,0,0,0,5.84-16.31V561.84a39.46,39.46,0,0,0-1.47-10.49,36,36,0,0,0-4.09-9.47,20.39,20.39,0,0,0-6.54-6.68,16.68,16.68,0,0,0-9.18-2.49H2549c-2.91,0-4.38,1.56-4.38,4.66V663.22c0,3.09,1.47,4.64,4.38,4.64"/><path class="cls-1" d="M2756,503.29v28.85c0,3.09-1.57,4.66-4.65,4.66h-51c-2.91,0-4.36,1.44-4.36,4.36v37a2.05,2.05,0,0,0,2.33,2.33H2735c2.91,0,4.38,1.57,4.38,4.67v27.38c0,2.91-1.47,4.35-4.38,4.35h-34.67c-2.91,0-4.36,1.47-4.36,4.38v37.58q0,4.36,4.36,4.36h51c3.08,0,4.65,1.46,4.65,4.37v28.85c0,3.09-1.57,4.66-4.65,4.66h-91.48c-3.11,0-4.66-1.57-4.66-4.66V503.29q0-4.37,4.66-4.37h91.48c3.08,0,4.65,1.46,4.65,4.37"/><path class="cls-1" d="M2831.89,705.73a83.07,83.07,0,0,1-20.82-2.75,65.58,65.58,0,0,1-19.37-8.47,46.92,46.92,0,0,1-14.27-14.27q-5.55-8.58-5.53-20.53c0-2.53,1.34-3.79,4.07-3.79h30.48c1.54,0,2.45.34,2.74,1a18.6,18.6,0,0,0,1.6,2.76q4.07,5.84,9.14,7.86a32.22,32.22,0,0,0,12.05,2,27.5,27.5,0,0,0,14.22-3.8q6.38-3.77,6.39-12.81a14.69,14.69,0,0,0-2.49-8.73,41.7,41.7,0,0,0-5.94-6.7l-46.72-44.28a71.29,71.29,0,0,1-15.38-20.68,57.21,57.21,0,0,1-5.5-25.35,54.26,54.26,0,0,1,4.36-22.13,48.08,48.08,0,0,1,12.23-16.89,55.21,55.21,0,0,1,18.8-10.79,72,72,0,0,1,23.74-3.78,57.71,57.71,0,0,1,20.08,3.65,59.36,59.36,0,0,1,17.64,10,51.06,51.06,0,0,1,12.52,15.44,41,41,0,0,1,4.81,19.52,3.25,3.25,0,0,1-1.31,2.91,5.36,5.36,0,0,1-3.06.87h-29.13c-2.14,0-3.61-.8-4.36-2.42s-1.72-3.4-2.78-5.3a16.47,16.47,0,0,0-5.1-5.29c-2.32-1.63-6-2.44-11.07-2.44a20.11,20.11,0,0,0-12.66,3.94c-3.4,2.61-5.11,6.45-5.11,11.48a22.74,22.74,0,0,0,3.19,11.78,39.74,39.74,0,0,0,7.88,9.46l42.83,39.83a139.67,139.67,0,0,1,10.2,10.75,57.47,57.47,0,0,1,7.27,11.06,52.48,52.48,0,0,1,4.36,12.51,68.51,68.51,0,0,1,1.48,14.82c0,8.92-1.77,16.49-5.25,22.7a46.29,46.29,0,0,1-13.7,15.27,58.19,58.19,0,0,1-19.66,8.72,95.87,95.87,0,0,1-22.87,2.75"/><path class="cls-1" d="M1336.8,1008.84a3.27,3.27,0,0,1-3.2-1.75l-7.28-27.66q-.88-2.91-5-2.91h-37c-2.53,0-4.09,1.07-4.66,3.19l-7,27.38c-.39,1.16-1.45,1.75-3.2,1.75h-35c-3.12,0-4.19-1.83-3.22-5.53l51.85-194.58c.19-1.36,1.26-2.05,3.22-2.05h31.45c1.93,0,3,.69,3.21,2.05l52.71,195.74v1.75q0,2.63-3.48,2.62Zm-34.08-119.72c-2.71,0-4.37,1.16-5,3.49l-11.35,44a6.19,6.19,0,0,0,0,4.63,5.88,5.88,0,0,0,1.16,2,2.8,2.8,0,0,0,2,.57h23.31a5.22,5.22,0,0,0,4.36-2.3,6.75,6.75,0,0,0,.3-5.24l-9.91-43.73c-.57-2.33-2.24-3.49-5-3.49"/><path class="cls-1" d="M1437.13,906.89c-.59-1.55-1.84-2.32-3.79-2.32-2.91,0-4.38,1.44-4.38,4.35v95.26c0,3.11-1.44,4.66-4.37,4.66h-28.83q-4.66,0-4.66-4.66V811.07q0-4.38,4.37-4.38h23.6a4.14,4.14,0,0,1,4.07,2.91L1471.51,913c.57,1.17,1.83,1.75,3.78,1.75,2.92,0,4.36-1.46,4.36-4.37V811.07c0-2.92,1.47-4.38,4.38-4.38h28.84q4.65,0,4.65,4.38v193.41q0,4.37-4.65,4.36H1491.6a4.15,4.15,0,0,1-4.09-2.91Z"/><path class="cls-1" d="M1544.67,1004.18V811.05q0-4.37,4.66-4.37h58.84q16,0,27.82,4.83a53.89,53.89,0,0,1,19.52,13.09,53,53,0,0,1,11.51,20,81,81,0,0,1,3.78,25.06v82.71a58.17,58.17,0,0,1-4.81,24.32,49.56,49.56,0,0,1-13.24,17.77,57.66,57.66,0,0,1-19.83,10.79,80.29,80.29,0,0,1-24.75,3.63h-58.84q-4.66,0-4.66-4.66m44.56-28.54h17.19c7.39,0,13-2.32,16.89-7a24.67,24.67,0,0,0,5.84-16.31V869.62a39.46,39.46,0,0,0-1.46-10.5,37.52,37.52,0,0,0-4.07-9.48,20.77,20.77,0,0,0-6.57-6.68,16.63,16.63,0,0,0-9.17-2.47h-18.65c-2.91,0-4.37,1.54-4.37,4.64V971q0,4.65,4.37,4.65"/><path class="cls-1" d="M1887,855.92q0,3.78-4.37,3.78h-32.33c-2.73,0-4.07-1.24-4.07-3.73a13.54,13.54,0,0,0-2.19-7.62,19.24,19.24,0,0,0-5.4-5.46,24.91,24.91,0,0,0-7.27-3.3,29.78,29.78,0,0,0-7.88-1.14,19.4,19.4,0,0,0-6.55,1.3,32.5,32.5,0,0,0-7,3.48,21.51,21.51,0,0,0-5.54,5.07,10.36,10.36,0,0,0-2.18,6.39V960.56q0,7.53,7,11.75a28.8,28.8,0,0,0,15.15,4.2,27.66,27.66,0,0,0,14.86-4.34q7-4.33,7-11.88v-26q0-4.65-2.63-5.5a15.8,15.8,0,0,0-5-.88h-8.74a8.44,8.44,0,0,1-4.66-1.29q-2-1.32-2-4.53V892.91c0-3.1,1.57-4.66,4.67-4.66h54.47c3.11,0,4.66,1.56,4.66,4.66v67.58q0,14-5,24A45.1,45.1,0,0,1,1868.5,1001a58.41,58.41,0,0,1-20,9.46,92.64,92.64,0,0,1-24.18,3.08,85.87,85.87,0,0,1-24.46-3.37,60.77,60.77,0,0,1-20-9.89,46.79,46.79,0,0,1-13.54-16.46,50.84,50.84,0,0,1-5-23V854.47a46.6,46.6,0,0,1,5.12-22,51.28,51.28,0,0,1,13.68-16.59,64.33,64.33,0,0,1,20-10.64,76.29,76.29,0,0,1,24.17-3.79,78.06,78.06,0,0,1,25.2,3.92,58.69,58.69,0,0,1,19.8,11.23,52.12,52.12,0,0,1,13,17.18,51.41,51.41,0,0,1,4.66,22.15"/><path class="cls-1" d="M1946.24,1008.84h-31.46q-4.66,0-4.66-4.64V811.07c0-2.93,1.47-4.39,4.38-4.39h31.74q4.66,0,4.66,4.39V1004.2q0,4.63-4.66,4.64"/><path class="cls-1" d="M2108.62,1004.47c0,2.92-1.44,4.36-4.36,4.36h-35.82a4.89,4.89,0,0,1-2.33-.57,3.78,3.78,0,0,1-1.76-1.75l-26.21-69.91a4,4,0,0,0-2.77-2.47,19.68,19.68,0,0,0-4.8-.88,43.38,43.38,0,0,0-5.1,0c-1.65.11-3,.16-4.21.16-1.76,0-2.64.77-2.64,2.32v68.46c0,3.11-1.46,4.64-4.37,4.64h-31.73c-3.09,0-4.66-1.53-4.66-4.64V811.06c0-2.91,1.57-4.37,4.66-4.37h42.8a79.34,79.34,0,0,1,27.53,4.52,60.74,60.74,0,0,1,21.41,13.11,59.31,59.31,0,0,1,14,20.52,69.11,69.11,0,0,1,5,26.8,114.27,114.27,0,0,1-2.76,24.78A43.92,43.92,0,0,1,2078.92,918a9.23,9.23,0,0,1-1.75,1.9A2.91,2.91,0,0,0,2076,922a42.26,42.26,0,0,0,2.19,6.13c1.46,3.7,3.24,8.29,5.38,13.83s4.53,11.56,7.14,18.06,5.1,12.67,7.43,18.51,4.36,10.87,6.11,15.14,2.92,7,3.49,8.15a13.69,13.69,0,0,1,.59,1.31,3.55,3.55,0,0,1,.28,1.31m-90-111a5.43,5.43,0,0,0,5.49,5.54q12.42,0,20.36-7t7.94-20.38q0-12.51-7.94-18.64t-19.22-6.11a16.48,16.48,0,0,0-4.76.57c-1.23.4-1.87,1.95-1.87,4.68Z"/><path class="cls-1" d="M2234.58,979.71v24.47q0,4.67-4.66,4.66h-99.33q-4.66,0-4.66-4.66V811.07c0-2.91,1.55-4.39,4.66-4.39h31.76c2.91,0,4.36,1.48,4.36,4.39V971q0,4.37,4.37,4.36h58.84q4.66,0,4.66,4.37"/><path class="cls-1" d="M2370.65,1013.51a81.93,81.93,0,0,1-20.84-2.78,65.6,65.6,0,0,1-19.37-8.44A47.37,47.37,0,0,1,2316.17,988c-3.68-5.73-5.52-12.56-5.52-20.55q0-3.76,4.06-3.77h30.49c1.54,0,2.46.34,2.75,1a16.86,16.86,0,0,0,1.6,2.76q4,5.84,9.12,7.87a32.19,32.19,0,0,0,12.06,2,27.34,27.34,0,0,0,14.22-3.79c4.24-2.52,6.38-6.78,6.38-12.8a14.79,14.79,0,0,0-2.47-8.75,42.63,42.63,0,0,0-5.94-6.69l-46.74-44.29a71,71,0,0,1-15.36-20.68,57,57,0,0,1-5.52-25.33,54.29,54.29,0,0,1,4.37-22.15A48.62,48.62,0,0,1,2331.89,816a55.6,55.6,0,0,1,18.8-10.79,72.47,72.47,0,0,1,23.75-3.79,57.78,57.78,0,0,1,20.09,3.66,59.49,59.49,0,0,1,17.64,10,51.67,51.67,0,0,1,12.52,15.44,41.09,41.09,0,0,1,4.81,19.52,3.33,3.33,0,0,1-1.31,2.93,5.55,5.55,0,0,1-3.07.87H2396a4.4,4.4,0,0,1-4.37-2.44c-.79-1.63-1.7-3.38-2.76-5.3a16.9,16.9,0,0,0-5.1-5.29c-2.32-1.61-6-2.42-11.08-2.42a20.21,20.21,0,0,0-12.67,3.92c-3.4,2.61-5.1,6.47-5.1,11.5a22.61,22.61,0,0,0,3.2,11.78,39.62,39.62,0,0,0,7.89,9.45l42.8,39.82a130.78,130.78,0,0,1,10.2,10.77,56.46,56.46,0,0,1,7.28,11.06,52.38,52.38,0,0,1,4.36,12.5,69.13,69.13,0,0,1,1.47,14.83q0,13.38-5.24,22.68a46.29,46.29,0,0,1-13.69,15.27,57.55,57.55,0,0,1-19.68,8.73,95.21,95.21,0,0,1-22.85,2.76"/><path class="cls-1" d="M2569.77,859.12c0,2.73-1.47,4.07-4.38,4.07h-32c-2.91,0-4.38-1.38-4.38-4.12,0-4.12-.62-7.42-1.88-9.88a17.22,17.22,0,0,0-4.82-5.91,16.21,16.21,0,0,0-6.41-2.94,32.48,32.48,0,0,0-6.7-.74,17.58,17.58,0,0,0-12.23,5.13,16.58,16.58,0,0,0-5.54,12.72V962.18c0,3.5,1.84,6.63,5.54,9.36a20,20,0,0,0,12.23,4.1,31.57,31.57,0,0,0,6.26-.59,11.86,11.86,0,0,0,5.39-2.47,13.3,13.3,0,0,0,3.79-5.69,30.05,30.05,0,0,0,1.46-10.48q0-3.79,4.38-3.79h32c2.89,0,4.36,1.26,4.36,3.79q0,30.21-15.44,43.67t-42.24,13.43a73.66,73.66,0,0,1-22.43-3.35,58.52,58.52,0,0,1-18.63-9.76,44.81,44.81,0,0,1-12.82-16q-4.65-9.63-4.66-22.44V857.66a50.42,50.42,0,0,1,4.81-21.85A58.84,58.84,0,0,1,2468.27,818a60.58,60.58,0,0,1,18.63-11.95,58.09,58.09,0,0,1,22.28-4.36,88,88,0,0,1,22.59,2.91,52.57,52.57,0,0,1,19.35,9.61A47.6,47.6,0,0,1,2564.67,832q5.1,11.07,5.1,27.09"/><path class="cls-1" d="M2596.75,833.92a56.19,56.19,0,0,1,14.56-17.18,73.21,73.21,0,0,1,20.09-11.22,63.72,63.72,0,0,1,44.87,0,70.86,70.86,0,0,1,20.11,11.37,58.09,58.09,0,0,1,14.56,17.32,44.94,44.94,0,0,1,5.53,22V957.58q0,13.68-4.94,24.17A49.57,49.57,0,0,1,2698,999.23a60.8,60.8,0,0,1-20,10.64,79,79,0,0,1-24.17,3.65,82.49,82.49,0,0,1-24.48-3.52,56.89,56.89,0,0,1-19.81-10.48,50.17,50.17,0,0,1-13.4-17.49q-4.93-10.47-4.94-24.45V855.92a45,45,0,0,1,5.53-22M2632,957.58a16.61,16.61,0,0,0,6.6,13.68,22.77,22.77,0,0,0,14.51,5.25,26.47,26.47,0,0,0,15.55-4.94c4.69-3.32,7-8,7-14V856.2a12.15,12.15,0,0,0-2.19-7,25.27,25.27,0,0,0-5.42-5.67,24.36,24.36,0,0,0-7.05-3.77,21.13,21.13,0,0,0-14.65,0,28.86,28.86,0,0,0-7.06,3.49,17.94,17.94,0,0,0-5.26,5.53,13.44,13.44,0,0,0-2.06,7.14Z"/><path class="cls-1" d="M2744,806.39h31.74c3.11,0,4.68,1.45,4.68,4.38V955.26a15.15,15.15,0,0,0,6.11,12.22,22,22,0,0,0,27.68.15,15.38,15.38,0,0,0,5.82-12.37V810.77c0-2.93,1.45-4.38,4.38-4.38h31.74c3.09,0,4.66,1.45,4.66,4.38V957.58q0,14-4.95,24.47a50.5,50.5,0,0,1-13.39,17.48A57.45,57.45,0,0,1,2822.9,1010a77.22,77.22,0,0,1-23.3,3.5,69.1,69.1,0,0,1-23-3.78,59.2,59.2,0,0,1-19.06-10.93,51.07,51.07,0,0,1-13.11-17.48,55.68,55.68,0,0,1-4.82-23.73V810.77c0-2.93,1.47-4.38,4.38-4.38"/><path class="cls-1" d="M2964.59,1008.84H2931.1c-3.11,0-4.68-1.55-4.68-4.64V842.81q0-4.37-4.36-4.36h-39.33q-4.67,0-4.66-4.68v-22.7q0-4.4,4.66-4.39h130.21c3.11,0,4.68,1.46,4.68,4.39v22.7c0,3.12-1.57,4.68-4.68,4.68h-39.32c-2.92,0-4.39,1.45-4.39,4.36V1004.2c0,3.09-1.53,4.64-4.64,4.64"/><path class="cls-1" d="M3087.24,1013.51a81.64,81.64,0,0,1-20.81-2.78,65,65,0,0,1-19.37-8.44A47,47,0,0,1,3032.78,988c-3.7-5.73-5.53-12.56-5.53-20.55,0-2.51,1.34-3.77,4.07-3.77h30.48c1.55,0,2.45.34,2.74,1a18.49,18.49,0,0,0,1.6,2.76q4.07,5.84,9.14,7.87a32,32,0,0,0,12,2,27.39,27.39,0,0,0,14.22-3.79q6.39-3.78,6.39-12.8a14.8,14.8,0,0,0-2.49-8.75,41.64,41.64,0,0,0-5.94-6.69l-46.72-44.29a71.29,71.29,0,0,1-15.38-20.68,57.15,57.15,0,0,1-5.5-25.33,54.29,54.29,0,0,1,4.36-22.15A48.26,48.26,0,0,1,3048.5,816a55.21,55.21,0,0,1,18.8-10.79,72.3,72.3,0,0,1,23.75-3.79,57.67,57.67,0,0,1,20.07,3.66,59.24,59.24,0,0,1,17.64,10,51.06,51.06,0,0,1,12.52,15.44,41,41,0,0,1,4.81,19.52,3.31,3.31,0,0,1-1.31,2.93,5.49,5.49,0,0,1-3.06.87h-29.13c-2.14,0-3.6-.82-4.36-2.44s-1.72-3.38-2.78-5.3a16.67,16.67,0,0,0-5.1-5.29c-2.32-1.61-6-2.42-11.07-2.42a20.18,20.18,0,0,0-12.66,3.92c-3.4,2.61-5.11,6.47-5.11,11.5a22.8,22.8,0,0,0,3.2,11.78,40,40,0,0,0,7.87,9.45l42.83,39.82a137.94,137.94,0,0,1,10.2,10.77,56.86,56.86,0,0,1,7.27,11.06,51.94,51.94,0,0,1,4.36,12.5,68.47,68.47,0,0,1,1.48,14.83c0,8.92-1.77,16.47-5.25,22.68a46,46,0,0,1-13.7,15.27,57.53,57.53,0,0,1-19.66,8.73,95.37,95.37,0,0,1-22.87,2.76"/></svg>