<svg id="Warstwa_1" data-name="Warstwa 1" xmlns="http://www.w3.org/2000/svg" viewBox="0 0 3640 1200"><defs><style>.cls-1{fill:#622599;}.cls-2,.cls-3{fill:#fff;}.cls-3{fill-rule:evenodd;}</style></defs><rect class="cls-1" width="3640" height="1200"/><path class="cls-2" d="M555.81,838.76s-16.07-12.49-11.09-18"/><path class="cls-2" d="M499.32,874.51c-15.12-5.81-35.61-7.45-47-3l2.87,5.13,7.63,10.53,8.8-.91c.24,0,6.87.23,11.72,2.66,0,0,14.45-15,16-14.39"/><path class="cls-2" d="M547.66,237.7a17.77,17.77,0,0,0-4.11,3.4,29.6,29.6,0,0,0-2.56,6.1c-.55,1.71-.6,4-2.08,6a21.59,21.59,0,0,1-4.49,3.92,297,297,0,0,1,30,2.93l-.31-.11a20.41,20.41,0,0,0,4.76-3.45c1.76-1.89,1.94-4.11,2.69-5.74a26.71,26.71,0,0,1,3.15-5.8,17.37,17.37,0,0,1,4.46-3h0a310.2,310.2,0,0,0-31.33-4.35l-.18.16"/><path class="cls-2" d="M588,243.92a17.94,17.94,0,0,0-4.53,2.82,29,29,0,0,0-3.35,5.76c-.82,1.58-1.13,3.78-2.9,5.59a19.23,19.23,0,0,1-4.87,3.31,285.21,285.21,0,0,1,29.29,6.88l-.29-.19a20.13,20.13,0,0,0,5.16-2.79c2-1.68,2.52-3.87,3.45-5.36a27.3,27.3,0,0,1,3.87-5.4,19.47,19.47,0,0,1,4.79-2.43l0,.08a297.79,297.79,0,0,0-30.45-8.42l-.2.15"/><path class="cls-2" d="M627.2,255.33a17.73,17.73,0,0,0-4.88,2.26,29.64,29.64,0,0,0-4.1,5.22c-1,1.5-1.56,3.66-3.56,5.23a19.35,19.35,0,0,1-5.27,2.61,270,270,0,0,1,28.11,10.62l-.19-.27a19.21,19.21,0,0,0,5.48-2c2.16-1.37,2.92-3.5,4.05-4.9a29.9,29.9,0,0,1,4.56-4.82,17.69,17.69,0,0,1,5.07-1.76l0,.05a311,311,0,0,0-29.1-12.31l-.21.1"/><path class="cls-2" d="M664.54,271.8a18,18,0,0,0-5.11,1.57,29.37,29.37,0,0,0-4.68,4.61c-1.22,1.4-2.06,3.43-4.27,4.79a20.34,20.34,0,0,1-5.58,1.85,287.6,287.6,0,0,1,26.49,14.19l-.17-.28a18.26,18.26,0,0,0,5.7-1.29c2.34-1.07,3.39-3,4.66-4.33a27.54,27.54,0,0,1,5.16-4.16,18.5,18.5,0,0,1,5.26-1.1l0,.05a301.49,301.49,0,0,0-27.3-16l-.21.11"/><path class="cls-2" d="M699.49,293a18.76,18.76,0,0,0-5.34.89,28.38,28.38,0,0,0-5.29,4c-1.32,1.18-2.48,3.1-4.8,4.14a18.67,18.67,0,0,1-5.79,1.12,285.25,285.25,0,0,1,24.42,17.54l-.17-.26a20.33,20.33,0,0,0,5.88-.61c2.42-.81,3.71-2.58,5.18-3.68a26.54,26.54,0,0,1,5.66-3.45,18.11,18.11,0,0,1,5.35-.39v0A309.85,309.85,0,0,0,699.7,292.9l-.21.1"/><path class="cls-2" d="M731.29,318.5a19,19,0,0,0-5.41.2,29.28,29.28,0,0,0-5.77,3.25c-1.43,1-2.79,2.79-5.32,3.47a19.52,19.52,0,0,1-5.83.42,281,281,0,0,1,21.91,20.54l-.1-.31a18.88,18.88,0,0,0,5.82.2c2.53-.45,4.14-2.08,5.66-2.94a30.23,30.23,0,0,1,6.06-2.71,18.3,18.3,0,0,1,5.36.33v0a292.15,292.15,0,0,0-22.17-22.51l-.21,0"/><path class="cls-2" d="M759.48,348a16.63,16.63,0,0,0-5.33-.48,27.85,27.85,0,0,0-6.16,2.43c-1.6.83-3.2,2.39-5.74,2.81a19.49,19.49,0,0,1-5.82-.42c6.78,7.5,13.1,15.24,19.07,23.22l-.11-.26a19.57,19.57,0,0,0,5.75.9c2.6-.13,4.31-1.5,6-2.17a26.3,26.3,0,0,1,6.43-1.87,17,17,0,0,1,5.23,1h0a312.29,312.29,0,0,0-19-25.17h-.26"/><path class="cls-2" d="M783.64,380.87a18.25,18.25,0,0,0-5.21-1.16,28.58,28.58,0,0,0-6.51,1.63c-1.66.6-3.47,2-6,2a19.67,19.67,0,0,1-5.77-1.18A276.44,276.44,0,0,1,776,407.7v-.27a19.12,19.12,0,0,0,5.66,1.64c2.53.23,4.45-.92,6.2-1.37a30.08,30.08,0,0,1,6.5-1.08,18.09,18.09,0,0,1,5.08,1.71l0,0a302.87,302.87,0,0,0-15.59-27.44l-.21-.05"/><path class="cls-2" d="M803.23,416.66a17.48,17.48,0,0,0-5-1.89,29.84,29.84,0,0,0-6.58.81c-1.77.37-3.72,1.47-6.28,1.19a18.33,18.33,0,0,1-5.55-1.92,298.48,298.48,0,0,1,12.43,27.37v-.28a19.1,19.1,0,0,0,5.32,2.39c2.52.55,4.53-.34,6.32-.53a27.12,27.12,0,0,1,6.66-.21,17.83,17.83,0,0,1,4.79,2.35v0a293.41,293.41,0,0,0-11.88-29.26l-.21,0"/><path class="cls-2" d="M818,454.66a18.2,18.2,0,0,0-4.73-2.49,25.74,25.74,0,0,0-6.64,0c-1.79.12-3.87.94-6.35.31a19.31,19.31,0,0,1-5.26-2.63c3.37,9.51,6.32,19.11,8.71,28.78v-.32a20,20,0,0,0,5,3.09c2.38.88,4.53.25,6.32.25a28.12,28.12,0,0,1,6.62.71,17.87,17.87,0,0,1,4.47,3v.05a310.55,310.55,0,0,0-8-30.58l-.21-.09"/><path class="cls-2" d="M827.67,494.29a17.12,17.12,0,0,0-4.34-3.09,25.83,25.83,0,0,0-6.55-.91c-1.79-.16-4,.44-6.38-.5a20.29,20.29,0,0,1-4.87-3.25,283.86,283.86,0,0,1,4.87,29.6l.05-.27a20.24,20.24,0,0,0,4.58,3.7c2.25,1.15,4.46.83,6.24,1.07a27.23,27.23,0,0,1,6.48,1.56,17.34,17.34,0,0,1,4.08,3.48l-.07.05a313.52,313.52,0,0,0-3.85-31.36l-.24-.08"/><path class="cls-2" d="M832.11,534.81a18.24,18.24,0,0,0-3.92-3.64,28.23,28.23,0,0,0-6.35-1.76c-1.83-.32-4,0-6.24-1.29a19.73,19.73,0,0,1-4.44-3.88,290,290,0,0,1,1,30l.1-.2a18.88,18.88,0,0,0,4,4.2c2.1,1.45,4.34,1.41,6.06,1.87a27.34,27.34,0,0,1,6.23,2.43,19.36,19.36,0,0,1,3.54,4v0a293.64,293.64,0,0,0,.25-31.55l-.21-.17"/><path class="cls-2" d="M831.18,575.61a16.91,16.91,0,0,0-3.39-4.11,25.43,25.43,0,0,0-6.09-2.58c-1.73-.55-4-.63-6-2.12a18.68,18.68,0,0,1-3.84-4.43,297.23,297.23,0,0,1-3,29.88L809,592a21.35,21.35,0,0,0,3.43,4.74c1.92,1.69,4.16,2,5.79,2.67a28.23,28.23,0,0,1,5.85,3.16,19.83,19.83,0,0,1,3,4.39v.08c1.93-10.3,3.42-20.72,4.34-31.28l-.21-.16"/><path class="cls-2" d="M825,615.9a17.16,17.16,0,0,0-2.84-4.51,26.89,26.89,0,0,0-5.74-3.37c-1.58-.78-3.87-1.1-5.66-2.89a18.7,18.7,0,0,1-3.23-4.85c-1.83,9.9-4.08,19.65-6.86,29.26l.19-.24a18.61,18.61,0,0,0,2.76,5.11c1.66,2,3.87,2.49,5.38,3.37a29,29,0,0,1,5.34,4c1.3,1.37,2.45,4.74,2.45,4.74l0,0a301.3,301.3,0,0,0,8.43-30.42l-.17-.2"/><path class="cls-2" d="M814.31,655.4a17.85,17.85,0,0,0-1.89-5,28.28,28.28,0,0,0-4.9-4.48c-1.42-1-3.53-1.84-5-4a20.75,20.75,0,0,1-2.24-5.42,276.87,276.87,0,0,1-12.61,27.27l.21-.17a19.29,19.29,0,0,0,1.73,5.57c1.21,2.25,3.22,3.24,4.54,4.4a26.49,26.49,0,0,1,4.49,4.9,18.16,18.16,0,0,1,1.4,5.18,308.31,308.31,0,0,0,14.33-28.07l-.09-.25"/><path class="cls-2" d="M797.07,692.4a18.67,18.67,0,0,0-1.56-5.11,27,27,0,0,0-4.66-4.74c-1.37-1.18-3.45-2-4.77-4.24a21.89,21.89,0,0,1-1.87-5.57A285.18,285.18,0,0,1,770,699.22l.21-.16a20.25,20.25,0,0,0,1.39,5.72c1.13,2.24,3.08,3.37,4.32,4.63a30,30,0,0,1,4.19,5.14,18.29,18.29,0,0,1,1.06,5.23v0c5.74-8.72,11.08-17.85,16-27.22l-.08-.19"/><path class="cls-2" d="M775.81,727.22A16.85,16.85,0,0,0,775,722a27.71,27.71,0,0,0-4-5.32c-1.22-1.29-3.13-2.47-4.13-4.77a21,21,0,0,1-1.17-5.76c-5.44,8.48-11.31,16.56-17.5,24.4l.23-.16a19.59,19.59,0,0,0,.63,5.78c.74,2.5,2.56,3.81,3.62,5.21a27.44,27.44,0,0,1,3.49,5.65,17.89,17.89,0,0,1,.38,5.33v.08c6.9-8,13.33-16.31,19.43-24.94l-.12-.24"/><path class="cls-2" d="M750.33,759a17.5,17.5,0,0,0-.24-5.27,26.06,26.06,0,0,0-3.26-5.76c-1.05-1.53-2.8-3-3.51-5.37a20.48,20.48,0,0,1-.36-5.88,276.35,276.35,0,0,1-20.57,21.89l.26-.13a20.37,20.37,0,0,0-.15,5.89c.44,2.51,2.08,4,2.92,5.64a27.8,27.8,0,0,1,2.74,6.08c.42,1.85-.31,5.35-.31,5.35l0,0q11.73-10.49,22.51-22.23V759"/><path class="cls-2" d="M720.79,787.19a18.15,18.15,0,0,0,.54-5.33,31.16,31.16,0,0,0-2.5-6.08c-.82-1.58-2.44-3.23-2.78-5.77a19.11,19.11,0,0,1,.39-5.84,287.52,287.52,0,0,1-23.28,19l.32-.08a19.57,19.57,0,0,0-1,5.78c.15,2.58,1.58,4.33,2.2,6a27.75,27.75,0,0,1,1.9,6.37,18.22,18.22,0,0,1-1,5.25,312.63,312.63,0,0,0,25.21-19v-.25"/><path class="cls-2" d="M687.87,811.31a17.05,17.05,0,0,0,1.15-5.17,26.91,26.91,0,0,0-1.63-6.5c-.61-1.64-1.93-3.43-2-6a19.54,19.54,0,0,1,1.12-5.81A270.73,270.73,0,0,1,661,803.7l.34,0a18.89,18.89,0,0,0-1.72,5.64c-.18,2.52,1,4.47,1.42,6.23a30.21,30.21,0,0,1,1.06,6.53,18.16,18.16,0,0,1-1.69,5.06h0c9.35-4.71,18.52-9.87,27.49-15.57l0-.25"/><path class="cls-2" d="M652.06,830.93a19.32,19.32,0,0,0,1.87-5,28.83,28.83,0,0,0-.84-6.62c-.37-1.71-1.42-3.66-1.16-6.21a17.86,17.86,0,0,1,1.92-5.53,298.93,298.93,0,0,1-27.43,12.37h.31a26.81,26.81,0,0,0-2.68,5.25,15.87,15.87,0,0,0-.32,6.39c.24,2-.48,5.09-.76,6.69a27.27,27.27,0,0,1-2.05,5.4c9.89-3.45,21.42-7.93,31-12.45l.1-.27"/><path class="cls-2" d="M611.65,845.49A37.94,37.94,0,0,0,613,841.6a20.62,20.62,0,0,0,.76-5.61c-.11-1.85-1.44-3.26-.76-5.69,0,0,1.82-5.48,3.6-7.72-9.6,3.17-23.45,8.62-32.3,13.41-2.08,1-4.09,2-4.09,2a17.54,17.54,0,0,0-1.33,6.08c-.11,1.93-.4,4.79-.4,6.79.06,4.22-3.9,10.12-3.9,10.12,10.3-1.82,23.34-7.77,32.05-12.86l5.06-2.63"/><path class="cls-2" d="M413.39,841.17s3.41-1,4.82-2.2a27.87,27.87,0,0,0,4.18-5.18c.95-1.48,1.52-3.69,3.55-5.26a19.41,19.41,0,0,1,5.27-2.62q-14.46-4.65-28.1-10.56l.21.19a19.24,19.24,0,0,0-5.53,2.08c-2.12,1.35-2.94,3.47-4,4.84a26,26,0,0,1-4.61,4.82,16.3,16.3,0,0,1-5,1.77l-.05,0a286.34,286.34,0,0,0,29.14,12.29l.17-.12"/><path class="cls-2" d="M376,824.77a18.86,18.86,0,0,0,5.16-1.53,30.18,30.18,0,0,0,4.69-4.7c1.18-1.31,2.05-3.47,4.24-4.71a19.78,19.78,0,0,1,5.55-1.92,279.23,279.23,0,0,1-26.51-14.19l.21.27a19.19,19.19,0,0,0-5.72,1.33c-2.29,1.09-3.39,3.06-4.7,4.35a25.29,25.29,0,0,1-5.12,4.16c-1.71.9-5.24,1-5.24,1,8.73,5.77,17.86,11,27.2,16l.24-.09"/><path class="cls-2" d="M341.15,803.55s3.53,0,5.22-.85a27.88,27.88,0,0,0,5.37-4c1.31-1.22,2.45-3.13,4.76-4.14a21.65,21.65,0,0,1,5.79-1.13c-8.5-5.5-16.61-11.37-24.38-17.46l.11.17a21.21,21.21,0,0,0-5.82.63c-2.42.78-3.74,2.58-5.19,3.65a27.73,27.73,0,0,1-5.66,3.45,17.75,17.75,0,0,1-5.31.38l-.08,0a303.71,303.71,0,0,0,25,19.45l.21-.12"/><path class="cls-2" d="M309.29,778a17.56,17.56,0,0,0,5.37-.19,30.44,30.44,0,0,0,5.79-3.24c1.46-1,2.87-2.77,5.28-3.48a19.09,19.09,0,0,1,5.89-.39,293.14,293.14,0,0,1-21.93-20.56l.13.28a19.33,19.33,0,0,0-5.88-.16c-2.5.43-4,2.11-5.58,2.93a29.48,29.48,0,0,1-6.11,2.69,18.4,18.4,0,0,1-5.31-.35h0a296,296,0,0,0,22.17,22.51l.21,0"/><path class="cls-2" d="M281.12,748.51a18.62,18.62,0,0,0,5.36.47c1.58-.19,4.4-1.56,6.17-2.46,1.6-.79,3.19-2.39,5.71-2.74a18.61,18.61,0,0,1,5.87.35,293.9,293.9,0,0,1-19.06-23.22l.08.31a19.42,19.42,0,0,0-5.82-1c-2.53.17-4.26,1.59-6,2.25a28,28,0,0,1-6.3,1.88,17.5,17.5,0,0,1-5.27-1l-.05,0c5.92,8.66,12.25,17,19,25.21h.26"/><path class="cls-2" d="M257,715.62a17.67,17.67,0,0,0,5.18,1.17,30,30,0,0,0,6.49-1.69c1.65-.58,3.47-1.92,6-2a19.37,19.37,0,0,1,5.76,1.13,293.41,293.41,0,0,1-15.85-25.51v.32a19,19,0,0,0-5.6-1.69c-2.49-.19-4.43,1-6.14,1.37a24.68,24.68,0,0,1-6.58,1.06,18.2,18.2,0,0,1-5.08-1.69l0,0c4.69,9.38,9.9,18.51,15.56,27.47l.29,0"/><path class="cls-2" d="M237.39,679.84a18.52,18.52,0,0,0,5,1.88,27.14,27.14,0,0,0,6.56-.82c1.84-.4,3.74-1.5,6.32-1.17a19.79,19.79,0,0,1,5.53,1.87,294.1,294.1,0,0,1-12.35-27.37v.31a19.88,19.88,0,0,0-5.38-2.39c-2.49-.54-4.55.36-6.34.59a32.45,32.45,0,0,1-6.63.16,18.89,18.89,0,0,1-4.82-2.36v0a308.13,308.13,0,0,0,11.87,29.3l.21,0"/><path class="cls-2" d="M222.63,641.83a18.11,18.11,0,0,0,4.75,2.51,26.33,26.33,0,0,0,6.61.07c1.78-.15,3.87-.94,6.39-.34a18,18,0,0,1,5.24,2.58,294.76,294.76,0,0,1-8.72-28.75v.27a19.62,19.62,0,0,0-5-3c-2.47-.87-4.6-.21-6.42-.28a27.86,27.86,0,0,1-6.63-.71c-1.77-.55-4.43-2.95-4.43-2.95v0a291.44,291.44,0,0,0,8,30.59l.2.08"/><path class="cls-2" d="M213,602.2a18,18,0,0,0,4.34,3.12,35.65,35.65,0,0,0,6.58.91c1.79.08,4-.47,6.39.47a18.36,18.36,0,0,1,4.86,3.28,285.63,285.63,0,0,1-4.86-29.63l-.13.27a20.14,20.14,0,0,0-4.5-3.67c-2.26-1.18-4.5-.82-6.29-1.11a26,26,0,0,1-6.45-1.57c-1.69-.77-4-3.48-4-3.48v0a312.91,312.91,0,0,0,3.89,31.34l.2.12"/><path class="cls-2" d="M208.53,561.7a18,18,0,0,0,3.9,3.57,24.62,24.62,0,0,0,6.45,1.8c1.74.31,4,.08,6.22,1.34a19.17,19.17,0,0,1,4.37,3.82,284.62,284.62,0,0,1-.9-30l-.1.31a21.57,21.57,0,0,0-4.05-4.26c-2.12-1.45-4.37-1.42-6.11-1.92a25.92,25.92,0,0,1-6.16-2.38,17.6,17.6,0,0,1-3.58-4,304.35,304.35,0,0,0-.19,31.55l.15.19"/><path class="cls-2" d="M209.48,520.87A16.59,16.59,0,0,0,212.9,525a30.55,30.55,0,0,0,6.09,2.58c1.68.52,3.95.58,5.95,2.06a19.49,19.49,0,0,1,3.89,4.44c.5-10.11,1.51-20,3-29.88l-.14.28a19.56,19.56,0,0,0-3.44-4.74c-1.93-1.73-4.11-2-5.8-2.71a27.13,27.13,0,0,1-5.85-3.16,17.35,17.35,0,0,1-3-4.44l.05,0a294.45,294.45,0,0,0-4.33,31.28l.16.16"/><path class="cls-2" d="M215.7,480.59a18.25,18.25,0,0,0,2.8,4.5,25.69,25.69,0,0,0,5.78,3.4c1.58.71,3.78,1.09,5.64,2.87a19.75,19.75,0,0,1,3.26,4.88c1.82-9.93,4.07-19.68,6.83-29.24l-.16.19a19.36,19.36,0,0,0-2.76-5.11c-1.66-2-3.85-2.52-5.37-3.39a29.61,29.61,0,0,1-5.4-3.92A17.71,17.71,0,0,1,224,450v0a315.22,315.22,0,0,0-8.4,30.46l.15.16"/><path class="cls-2" d="M227.14,441.44a17.88,17.88,0,0,0,2.23,4.88,28.59,28.59,0,0,0,5.24,4.08c1.48,1,3.64,1.57,5.25,3.56a20.52,20.52,0,0,1,2.6,5.25,282.11,282.11,0,0,1,10.61-28.08l-.18.25a20.82,20.82,0,0,0-2.13-5.49c-1.34-2.16-3.51-3-4.87-4.08a27.24,27.24,0,0,1-4.88-4.56,18.72,18.72,0,0,1-1.71-5,311.06,311.06,0,0,0-12.27,29l.11.2"/><path class="cls-2" d="M243.57,404.17a18.67,18.67,0,0,0,1.61,5.09,29.61,29.61,0,0,0,4.63,4.7c1.4,1.17,3.43,2.08,4.74,4.25a20.81,20.81,0,0,1,1.9,5.52,290.93,290.93,0,0,1,14.18-26.44l-.23.19a19.6,19.6,0,0,0-1.37-5.76c-1.1-2.22-3-3.32-4.29-4.62a27.51,27.51,0,0,1-4.18-5.12,18.91,18.91,0,0,1-1.11-5.25l0-.05a312.52,312.52,0,0,0-15.94,27.22l0,.27"/><path class="cls-2" d="M264.77,369.31a18,18,0,0,0,.9,5.23,31.5,31.5,0,0,0,4,5.37c1.18,1.25,3.11,2.45,4.16,4.8a20.76,20.76,0,0,1,1.11,5.73A276.35,276.35,0,0,1,292.49,366l-.28.16a19.17,19.17,0,0,0-.58-5.84c-.82-2.43-2.58-3.75-3.64-5.17a26.81,26.81,0,0,1-3.5-5.68,17.54,17.54,0,0,1-.36-5.32l0,0a308.8,308.8,0,0,0-19.44,24.89l.06.26"/><path class="cls-2" d="M290.36,337.5a16.78,16.78,0,0,0,.19,5.3,26.65,26.65,0,0,0,3.24,5.82c1,1.47,2.84,2.86,3.49,5.32a18.28,18.28,0,0,1,.38,5.89,287.72,287.72,0,0,1,20.56-21.91l-.29.1a19.68,19.68,0,0,0,.24-5.89c-.48-2.51-2.13-4-3-5.59a28.06,28.06,0,0,1-2.7-6.05,18.34,18.34,0,0,1,.3-5.37l0-.06c-7.82,7-15.31,14.36-22.46,22.17l0,.27"/><path class="cls-2" d="M319.84,309.27a18.4,18.4,0,0,0-.5,5.36,28.54,28.54,0,0,0,2.52,6.18c.79,1.58,2.35,3.22,2.7,5.71a18,18,0,0,1-.38,5.85,292.59,292.59,0,0,1,23.28-19l-.29.08a19,19,0,0,0,.93-5.81c-.11-2.51-1.58-4.3-2.19-5.95a26.62,26.62,0,0,1-1.89-6.35,17.66,17.66,0,0,1,1-5.27c-8.61,5.87-17.06,12.22-25.2,19v.2"/><path class="cls-2" d="M352.76,285.23a19.27,19.27,0,0,0-1.21,5.18,31.67,31.67,0,0,0,1.68,6.48c.59,1.64,2,3.45,2,6a20,20,0,0,1-1.14,5.71q12.42-8.57,25.5-15.79l-.25.05a21.78,21.78,0,0,0,1.69-5.64c.18-2.52-1-4.45-1.44-6.18a30.4,30.4,0,0,1-1-6.53,17.7,17.7,0,0,1,1.72-5.09l0-.05A309.62,309.62,0,0,0,352.82,285l-.06.24"/><path class="cls-2" d="M388.61,265.61a18.3,18.3,0,0,0-1.91,5,29,29,0,0,0,.83,6.58c.4,1.74,1.49,3.66,1.17,6.25a18.73,18.73,0,0,1-1.88,5.57,276.31,276.31,0,0,1,27.39-12.37h-.32a19.7,19.7,0,0,0,2.43-5.34c.55-2.51-.39-4.54-.59-6.38a31.07,31.07,0,0,1-.2-6.61,18.26,18.26,0,0,1,2.34-4.77h.05a294.88,294.88,0,0,0-29.25,11.85l-.06.19"/><path class="cls-2" d="M426.64,250.89a18,18,0,0,0-2.5,4.7,25.91,25.91,0,0,0,0,6.66c.09,1.77.95,3.83.33,6.3a21.13,21.13,0,0,1-2.61,5.27c9.48-3.38,19.08-6.29,28.73-8.72h-.25a19.37,19.37,0,0,0,3.06-5c.89-2.4.26-4.55.26-6.32a27.4,27.4,0,0,1,.71-6.59,18.3,18.3,0,0,1,2.9-4.47h.06a299.48,299.48,0,0,0-30.55,7.93l-.11.24"/><path class="cls-2" d="M466.28,241.23a19.18,19.18,0,0,0-3.08,4.33,27,27,0,0,0-.95,6.55c-.07,1.81.45,4-.5,6.34a19.13,19.13,0,0,1-3.24,4.88,296.51,296.51,0,0,1,29.65-4.82l-.25-.14a18.83,18.83,0,0,0,3.7-4.54c1.14-2.25.82-4.46,1.06-6.27a28.67,28.67,0,0,1,1.55-6.41,18.1,18.1,0,0,1,3.48-4.08h.1c-10.47.82-20.95,2.06-31.39,3.9l-.13.26"/><path class="cls-2" d="M506.86,236.8a18.85,18.85,0,0,0-3.62,3.88,25.89,25.89,0,0,0-1.82,6.42c-.27,1.76-.05,4-1.29,6.19a20,20,0,0,1-3.87,4.42,283,283,0,0,1,30.06-.95l-.28-.07a21.57,21.57,0,0,0,4.28-4.06c1.41-2.1,1.38-4.37,1.88-6.06a26.88,26.88,0,0,1,2.37-6.21,17,17,0,0,1,4-3.53h.08A300.43,300.43,0,0,0,507,236.6l-.14.2"/><path class="cls-2" d="M431.06,840s3.29,16.82,14.37,17.32c2.13-6.86,11.59-15.05,17.32-19.09l2.13-2.49c-1.81-14,4.51-21.57,4.51-21.57l-6.22,1.45a54.88,54.88,0,0,0-32.3,24.43l.19,0"/><path class="cls-2" d="M451.06,895.65a13.37,13.37,0,0,0,5.24-3.48h.1a32.1,32.1,0,0,1-12.4-26c-14.08-1.64-17.25-17.54-17.25-17.54l0,0a52.45,52.45,0,0,0,5.32,46.87h.19s10.89,2.33,18.77.11"/><path class="cls-2" d="M481.53,898.39a28.48,28.48,0,0,1-6.08.44,31.49,31.49,0,0,1-11.15-2.2h-.12c-3,9.61-24.81,7.55-24.81,7.55a54.36,54.36,0,0,0,29.41,14.61l-.12-.2S481,916,481.4,898.23l.13.16"/><path class="cls-2" d="M488.12,897.25a4,4,0,0,0,.39-.27l9.35,2.08c17.42,4.48,20.69,7.14,20.69,7.14s-19.88,18.64-37.33,14.16c0,0,13.06-9.48,7.29-23.38"/><path class="cls-2" d="M546.69,892.87c-13.24-10.63-26.1-12.37-35.75-15.58l-19.33,13.46,23,7.65c7,1.83,8.76,5.14,17.56,10.83,0,0,20.33-11.7,14.51-16.36"/><path class="cls-2" d="M586.19,912.28c-7.5,7.53-19.85,8-19.85,8-8.73.23-17-.47-27-6.66,0,0,17-11.35,16.21-17.15,3.84,1.06,15.72,3,18.78.87,0,0,4.11,10.15,11.85,14.94"/><path class="cls-2" d="M555.81,838.76c8.79-7.2,16.48-10,22.4-8.19,20.39-8.82,23.7-9.53,23.7-9.53-8-8.94-16.25-10.78-30.14-10.31-6.27.24-25.44,7.33-28.44,11.62"/><path class="cls-2" d="M549.38,843.13S536,831.86,538.57,823.87c-14.93,13.09-21,19.65-33.32,19.65-3.09.55-.38.13-.38.13a25.66,25.66,0,0,0-4.36,11.87c-.16,5.22.25,6.67.25,6.67,13.48.79,12.6,1.26,25-2.09a52.6,52.6,0,0,0,16.75-11.05c1.41-1.37,5.5-4.51,6.9-5.92"/><path class="cls-2" d="M494.39,863s-1.46-.08.2-8a34.15,34.15,0,0,1,2.05-5.67,20.29,20.29,0,0,1,3.12-5.92h0l-3.79.16A207.25,207.25,0,0,1,471,840h0c-3.15,1-7.6,3.86-8.37,5.45-.86,1.78-2.58,2.36-3.69,3.53-.81.87-3.62,4.39-3.62,4.39h0c10.18,4.51,28.91,10,39.13,9.62"/><path class="cls-2" d="M482.2,816c1.59-2.52,4.87-1.65,7.25-1.92,12.11-1.34,29.2,6.72,32.69,14.56l-5.47,4.11c-4.66,4-11.19,4.79-11.19,4.79l-3.1-1.11c-3.78-1.65-9.41-2.2-13.83-2.31s-9.11-1.13-12.91.31c-4.49-4.74,6.56-18.35,6.56-18.35V816"/><path class="cls-2" d="M432.43,905.35a76.13,76.13,0,0,0-7.08,5.72l-4.42,4.23.23-.15s-14.09-16.48-25.12-7l-.12.08c4.71-5.82,8.82-11.16,11.18-13.46a36.56,36.56,0,0,1,9.62-7.32l-1.21.8a26.59,26.59,0,0,1,4.55-1.79s2.92,13.76,12.37,18.87"/><path class="cls-2" d="M388.66,917.34c14.39-11.84,26.17,3.8,26.17,3.8l-10.72,10.37-15.45-14.17"/><polygon class="cls-2" points="397.57 937.85 399.55 935.66 385.41 922 383.41 924.21 397.57 937.85"/><path class="cls-2" d="M379.67,927a68.26,68.26,0,0,0-8,6l15.85,18.51,6.63-9.89L379.67,927"/><path class="cls-2" d="M642.43,931.93a79,79,0,0,1,7.8,6.36L633.7,956.22l-6.28-10.16,15-14.13"/><polygon class="cls-2" points="638.13 929.62 636.06 927.46 621.31 940.52 623.4 942.67 638.13 929.62"/><path class="cls-2" d="M633.82,922c-13.87-12.35-26.32,2.84-26.32,2.84l10.35,10.79,16-13.63"/><path class="cls-2" d="M606.93,891.14C588,881,578,895.49,578,895.49c11.72,5.68,20.77,18.43,20.77,18.43l2.93,4.87-.24-.19s14.71-16,25.35-6l.13.08c-4.53-6-8.45-11.24-10.68-13.62a64.79,64.79,0,0,0-9.32-7.92"/><path class="cls-2" d="M536.44,860.71c-1.64.66,10,4.82,28.48,2.16l.16-.21a18.11,18.11,0,0,0,3.18-4.2,30,30,0,0,0,2.06-7.1c.16-1.76.72-2.9.77-5.37a14.28,14.28,0,0,1,.84-4.58c-2.09,1.07-13.11,4.74-13.11,4.74-3,.71-5.06,1.13-5.06,1.13-1.69,1.23-3,2.84-4.37,4-.93.71-3,2.6-5.42,4.47-1.17,1-6.82,4.43-7.53,5"/><path class="cls-2" d="M613.85,886.75c11.45-13,6.54-28.44,4.48-35.89l-22.49,10.32c.35,1,3.72,7.4-2.6,14.66,0,0,21.87,9.46,20.61,10.91"/><path class="cls-2" d="M569.94,892.35c0,.17,15.17-14.09,24.86-9.72l-2.18-1.93A52.76,52.76,0,0,0,563,870.15c-9.37-.3-25.72,2.44-29.49,8.55,0,0,14.12,2.79,23,11.74.81.82,4.5-.25,13.48,1.91"/><path class="cls-2" d="M338,542.64l9.06-18,19.91,3.09-14.35-14.25,9.08-18-18,9.24-14.37-14.14,3.29,19.89-17.9,9.27,19.95,3L338,542.64M475.06,596l-.5.09c-10.41,1-23.71,2.11-35.95,4.82-5.89-22.95-22.53-52.36-51.11-48.24-24.51,3.56-34.78,28.7-28.93,51-34.92,4.85-64.26-23.44-71.33-55.67-10.53-48.16,24.62-96.66,75.52-96.63,71.42.13,109.9,94.19,112.3,144.62"/><path class="cls-2" d="M702.58,542.76l3.32-19.89,20-3-17.9-9.3,3.29-19.85-14.35,14.09L679,495.59l9,18-14.38,14.14,20-3,9,18m-137,53.32c2.39-50.41,40.87-144.54,112.35-144.58,50.88-.12,86,48.47,75.5,96.63C746.34,580.31,717,608.61,682,603.76c5.88-22.32-4.37-47.49-28.88-51-28.57-4.14-45.19,25.3-51,48-12.31-2.42-25.66-3.59-36-4.58Z"/><path class="cls-2" d="M520.49,628.34c46.16,0,83.29-4.3,83.29-7.19s-37.41-7.45-83.55-7.45-83.58,4.55-83.58,7.45,37.68,7.19,83.84,7.19m-.26,10.47c-53.35,0-96.63-7.89-96.63-17.66s43.28-17.59,96.63-17.59,96.59,7.87,96.59,17.59-43.24,17.66-96.59,17.66"/><path class="cls-2" d="M598.78,642.06a309.73,309.73,0,0,1-33.7,4.85l.1-.14c2.37,21.22,19.91,66.85,50,66.85,22,0,39.18-19.34,40.92-40.36C630.25,685.51,604,672.74,598.6,642l.18.08"/><path class="cls-2" d="M475.1,646.92c-12.27-1.18-23.55-2.79-33.34-4.74l-.06-.27c-5.05,31.26-31.57,44.24-57.53,31.89,1.71,21.07,18.88,40.37,40.89,40.37,30.31,0,47.88-46.34,50-67.33l0,.08"/><path class="cls-3" d="M520.23,304.48c12.86,13.83,34.21,30.08,38.6,33.39,32.92,24.68,48.43,58.59,48.61,88.18.47,54.77-45.71,102.85-51.51,169a278.66,278.66,0,0,0-29.8-1.62c1.19-67.08-1.35-158-5.9-223.64-4.56,65.64-7.14,156.56-5.93,223.64a278.72,278.72,0,0,0-29.75,1.62c-5.76-66.17-51.95-114.25-51.6-169,.28-29.59,15.74-63.5,48.66-88.18,4.42-3.31,25.77-19.56,38.62-33.39"/><path class="cls-3" d="M520.23,774.75c25.76-11.32,52.22-35.29,63.57-59.91-16.35-22.64-24.63-47.21-27.23-67.06-9.51.66-19.51,1.1-29.89,1.1-1.32,17.84-1.29,55.67-6.45,76.15-5.21-20.48-5.13-58.31-6.4-76.15-10.43,0-20.48-.44-29.93-1.1-2.56,19.85-10.88,44.42-27.2,67.06,11.31,24.62,37.8,48.59,63.53,59.91"/><path class="cls-2" d="M3398.38,340.36c18.33,0,33.65,14.36,33.65,33.19a33.33,33.33,0,0,1-33.65,33.54c-18.28,0-33.68-14.35-33.68-33.18a33.4,33.4,0,0,1,33.68-33.55m0,61.89c15.7,0,28.26-12.36,28.26-28.7a28,28,0,0,0-28.26-28.34c-15.7,0-28.28,12.27-28.28,28.7a28.05,28.05,0,0,0,28.28,28.34m-12.48-47.62h14.19c9.24,0,13.62,3.38,13.62,11.09,0,6.93-4.45,9.87-10.2,10.49l11.11,17.08h-5.84l-10.59-16.61h-6.9v16.61h-5.39Zm5.39,17.2H3398c5.38,0,10.41-.27,10.41-6.35,0-5.4-4.61-6-8.72-6h-8.35Z"/><path class="cls-2" d="M1958.63,692.74c-77.07,0-127.6-58.2-127.6-147.48,0-87.58,51.08-145.69,127.6-145.69,76.35,0,127.29,58.11,127.29,145.69,0,89.28-50.38,147.48-127.29,147.48m.24-350.92c-57.07,0-106.38,17.77-143,50.43-41.39,36.73-64.67,92.13-64.67,157.43,0,67.16,24.7,122.8,69.17,160.12,35.71,30,83.33,47.08,137.93,46.45,56.74-.62,105.69-17.84,142-49.51,42.92-37.45,66.49-92.16,66.49-158,0-62.09-21.1-115.61-59.72-152.72-37.29-35.81-88.4-54.66-148.19-54.21"/><path class="cls-2" d="M2251.69,350l76.44,0V592.32c0,2.08.13,14.26.42,16.42,1.15,25.92,9.4,47.41,25.41,61.72s38.62,22.46,67.17,22.46c32.36,0,56.66-8.86,73-24.62,14.34-13.87,21.62-34.07,22.56-58.87.24-1.87.24-12.92.24-14.75V350l76.18,0V599.64c0,46-13.46,82.47-39.71,109.37-30.18,31-74.92,47.24-133.26,47.24-55.56,0-99.72-15.06-127.24-42.08-26.61-25.95-41.2-63.43-41.2-108.38V350"/><polygon class="cls-2" points="2987.75 410.36 2872.1 410.38 2872.1 747.31 2796.22 747.31 2796.14 410.36 2672.51 410.36 2672.51 350.03 3022.21 350.03 2987.75 410.36"/><path class="cls-2" d="M1431.77,398.08c35.72-34.79,85.76-55.6,145.45-57.91,6.72-.27,13.46-.29,20.19,0,31,1.26,65.33,13,92.88,27.77,4.1,2.27,8.08,5.11,8.08,5.4-3.27,5.43-28.2,49.56-28.2,49.56a75.35,75.35,0,0,1-7.14-4.16c-19-10.61-39.89-16.15-64.25-16.88-4.19-.08-8.47-.08-12.69.08-39.29,1.34-72.85,16.61-96.63,42.87-21.36,23.63-34.1,55.48-35.89,91.71-.32,6-.32,12-.08,18,3.32,80,54.27,135,129.15,139a131.88,131.88,0,0,0,15.14,0c27.75-1.59,52.53-10.22,76-25.47.26-.36.38-.36.66-.71,2.11,3.42,28.89,54.25,30.38,56.64-29.48,18.2-78.64,32.41-125.8,32.41-62.15,0-113.93-20.48-150.19-56.37s-57-87.11-57-148.62c0-63.24,21.8-116.09,59.91-153.18"/><path class="cls-2" d="M1219.85,638.18c0-37.79-38.16-55.56-77.08-72.56-26-11.28-48.66-20.17-69.64-39.14-22-19.35-33.1-46-33.1-79.25,0-67,52.34-107.28,133.65-107.28,58.59,0,98.37,20.07,118.79,34.28-.9,1.83-27.55,48.8-28.34,50.45-23.83-15.31-53.32-28.29-78.59-27.56-41.84,1.24-67,21.14-67,48.93,0,34.3,35.17,48.47,72.37,63.43l0,0c52.09,21,111.14,46.56,111.14,126.85,0,70.56-61.27,119.88-149,119.88-49.92,0-91.85-11.85-134.11-34,.82-1.73,30.1-55.16,30.89-56.88,33.86,18.23,65.72,30.32,94.63,30.32,45.59,0,75.32-24.62,75.32-57.54"/><path class="cls-2" d="M3246.66,638.18c0-37.79-38.16-55.56-77.13-72.56-26-11.28-48.68-20.17-69.59-39.14-22-19.35-33.13-46-33.13-79.25,0-67,52.35-107.28,133.64-107.28,58.61,0,98.42,20.07,118.8,34.28-.9,1.83-27.56,48.8-28.35,50.45-23.83-15.31-53.33-28.29-78.56-27.56-41.86,1.24-67,21.14-67,48.93,0,34.3,35.14,48.47,72.36,63.43v0c52.09,21,111.15,46.56,111.15,126.85,0,70.56-61.24,119.88-149,119.88-49.95,0-91.84-11.85-134.13-34,.82-1.73,30.09-55.16,30.91-56.88,33.87,18.23,65.67,30.32,94.61,30.32,45.61,0,75.36-24.62,75.36-57.54"/><path class="cls-2" d="M1846.19,874a49.58,49.58,0,0,0-35.31-15.38c-25.8,0-46.7,22.43-46.7,47.9s21,47.94,47,47.94c13,0,25.8-6.16,35-15.35v15.93a59.43,59.43,0,0,1-34.54,11.38c-32.73,0-60.36-26.55-60.36-59.41a60.54,60.54,0,0,1,60.36-60.34,55.88,55.88,0,0,1,34.54,11.37v16"/><path class="cls-2" d="M1879.67,900.15h.31c4.32-5.72,8-9.86,16-9.86,4.14,0,7.53,1.4,11.09,3.4l-5.88,11.19c-2.47-1.7-4.16-3.19-7.37-3.19-13.5,0-14.13,17.33-14.13,26.68v36.12h-12.3V892.32h12.3v7.83"/><path class="cls-2" d="M1925.6,931c.16,13.37,9.66,24.07,23.65,24.07,10.4,0,17.19-6.27,22-14.86l10.46,6c-6.93,13-18.59,20.28-33.31,20.28-21.54,0-35.37-16.43-35.37-37.18,0-21.29,12.46-39,35.06-39,23.16,0,35.43,19.24,34.2,40.73H1925.6m43.78-10.45c-1.73-10.41-10.47-18.86-21.19-18.86s-20.43,8.45-22,18.86Z"/><path class="cls-2" d="M2065.05,964.48h-12.27v-10h-.32a30.36,30.36,0,0,1-24.9,12c-21.18,0-34.55-18-34.55-37.91,0-20.59,13-38.28,34.75-38.28a31.37,31.37,0,0,1,24.7,12.3h.32V892.31h12.27v72.17m-59.46-36.86c0,14.14,8.3,27.46,23.65,27.46,15.85,0,24.12-12.72,24.12-27.29s-9.05-26.11-24.28-26.11c-14.27,0-23.49,12.45-23.49,25.94"/><polygon class="cls-2" points="2100.65 964.48 2088.39 964.48 2088.39 903.62 2080.86 903.62 2080.86 892.31 2088.39 892.31 2088.39 866.32 2100.65 866.32 2100.65 892.31 2113.56 892.31 2113.56 903.62 2100.65 903.62 2100.65 964.48"/><path class="cls-2" d="M2141.81,865.09a8.75,8.75,0,1,1-17.5,0,8.75,8.75,0,1,1,17.5,0m-2.58,99.39h-12.29V892.31h12.29Z"/><path class="cls-2" d="M2177.15,901.05h.33c5-6.9,11.65-10.77,20.54-10.77,20,0,24.6,14.44,24.6,31.41v42.79h-12.3V923.79c0-11.66-.9-22.11-15.19-22.11-16.88,0-18,15.66-18,28.53v34.27h-12.3V892.32h12.3v8.73"/><path class="cls-2" d="M2311,961c0,11.51,0,21.49-7.33,31-6.76,8.61-17.21,12.77-28,12.77-20.12,0-35-12.77-35.45-33.22h12.28c.15,13.4,9.82,21.82,23,21.82,19.06,0,23.17-13.93,23.17-30.22v-8.62h-.28a31.86,31.86,0,0,1-25,12c-21.06,0-34.41-17.66-34.41-37.78,0-20.28,13.51-38.41,34.86-38.41a30.07,30.07,0,0,1,24.57,12.3h.28V892.31H2311V961m-59.43-33.33c0,14.14,8.31,27.46,23.7,27.46,15.81,0,24.08-12.72,24.08-27.29s-9-26.11-24.29-26.11c-14.23,0-23.49,12.45-23.49,25.94"/><path class="cls-2" d="M2448.2,964.48H2436v-10h-.32a30.35,30.35,0,0,1-24.88,12c-21.19,0-34.6-18-34.6-37.91,0-20.59,13.11-38.28,34.76-38.28a31.43,31.43,0,0,1,24.72,12.3h.32V892.31h12.25v72.17m-59.43-36.86c0,14.14,8.29,27.46,23.66,27.46,15.81,0,24.1-12.72,24.1-27.29s-9.08-26.11-24.27-26.11c-14.3,0-23.49,12.45-23.49,25.94"/><path class="cls-2" d="M2518.25,848.66h19c21,0,38.71,7.69,38.71,31.32,0,9.4-3.58,17.38-11.4,22.61,13.82,3.38,22,15.8,22,29.62,0,23.07-18.56,32.28-41.47,32.28h-26.84V848.66m12.88,51h4.93c14.58,0,27-1.7,27-19.71,0-17.51-11-19.31-26.85-19.31h-5.09Zm0,52.8H2544c14.43,0,29.65-3.53,29.65-21.19,0-18-17.17-20.55-31.33-20.55h-11.22Z"/><path class="cls-2" d="M2611.63,931c.14,13.37,9.67,24.07,23.63,24.07,10.44,0,17.19-6.27,22-14.86l10.45,6c-6.92,13-18.61,20.28-33.33,20.28-21.52,0-35.34-16.43-35.34-37.18,0-21.29,12.45-39,35-39,23.19,0,35.43,19.24,34.22,40.73h-56.64m43.76-10.45c-1.73-10.41-10.44-18.86-21.17-18.86s-20.45,8.45-22,18.86Z"/><polygon class="cls-2" points="2698.07 964.48 2685.78 964.48 2685.78 903.62 2678.26 903.62 2678.26 892.31 2685.78 892.31 2685.78 866.32 2698.07 866.32 2698.07 892.31 2710.95 892.31 2710.95 903.62 2698.07 903.62 2698.07 964.48"/><polygon class="cls-2" points="2734.9 964.48 2722.66 964.48 2722.66 903.62 2715.1 903.62 2715.1 892.31 2722.66 892.31 2722.66 866.32 2734.9 866.32 2734.9 892.31 2747.85 892.31 2747.85 903.62 2734.9 903.62 2734.9 964.48"/><path class="cls-2" d="M2765,931c.17,13.37,9.71,24.07,23.66,24.07,10.43,0,17.17-6.27,22-14.86l10.45,6c-6.89,13-18.61,20.28-33.32,20.28-21.49,0-35.34-16.43-35.34-37.18,0-21.29,12.43-39,35-39,23.19,0,35.47,19.24,34.25,40.73H2765m43.78-10.45c-1.69-10.41-10.48-18.86-21.19-18.86s-20.42,8.45-22,18.86Z"/><path class="cls-2" d="M2850.25,900.15h.32c4.31-5.72,8-9.86,16-9.86,4.12,0,7.53,1.4,11,3.4l-5.84,11.19c-2.46-1.7-4.16-3.19-7.36-3.19-13.5,0-14.13,17.33-14.13,26.68v36.12H2838V892.32h12.3v7.83"/><polygon class="cls-2" points="2972.02 935.46 3009.53 842.67 3046.98 935.46 3077.4 848.65 3091.35 848.65 3046.98 970.45 3009.53 877.24 2972.02 970.45 2927.67 848.65 2941.63 848.65 2972.02 935.46"/><path class="cls-2" d="M3083.14,928.56a37.92,37.92,0,1,1,37.92,37.91,37.89,37.89,0,0,1-37.92-37.91m12.24-.19c0,14.77,10.44,26.7,25.68,26.7s25.62-11.93,25.62-26.7c0-14.56-10.48-26.69-25.62-26.69s-25.68,12.13-25.68,26.69"/><path class="cls-2" d="M3187.55,900.15h.26c4.35-5.72,8-9.86,16-9.86,4.11,0,7.53,1.4,11.09,3.4L3209,904.88c-2.46-1.7-4.16-3.19-7.36-3.19-13.5,0-14.13,17.33-14.13,26.68v36.12h-12.32V892.32h12.32v7.83"/><rect class="cls-2" x="3227.02" y="837.78" width="12.29" height="126.7"/><path class="cls-2" d="M3315.76,954.49h-.3a30.73,30.73,0,0,1-24.88,12c-21.16,0-34.56-18-34.56-37.91,0-20.59,13.08-38.28,34.72-38.28a31.34,31.34,0,0,1,24.72,12.3h.3V837.79h12.3V964.48h-12.3v-10m-47.13-26.87c0,14.14,8.31,27.46,23.64,27.46,15.85,0,24.14-12.72,24.14-27.29s-9.11-26.11-24.29-26.11c-14.28,0-23.49,12.45-23.49,25.94"/></svg>