<?xml version="1.0" encoding="UTF-8" standalone="no"?>
<!-- Created with Inkscape (http://www.inkscape.org/) -->

<svg
   xmlns:dc="http://purl.org/dc/elements/1.1/"
   xmlns:cc="http://creativecommons.org/ns#"
   xmlns:rdf="http://www.w3.org/1999/02/22-rdf-syntax-ns#"
   xmlns:svg="http://www.w3.org/2000/svg"
   xmlns="http://www.w3.org/2000/svg"
   xmlns:sodipodi="http://sodipodi.sourceforge.net/DTD/sodipodi-0.dtd"
   xmlns:inkscape="http://www.inkscape.org/namespaces/inkscape"
   version="1.1"
   id="svg2"
   xml:space="preserve"
   width="39.127998"
   height="39.129333"
   viewBox="0 0 39.127997 39.129334"
   sodipodi:docname="sim-wzw-1.svg"
   inkscape:version="0.92.4 (5da689c313, 2019-01-14)"
   inkscape:export-filename="/home/aws/ownCloud/zhp/podstawy wychowawcze i metodyka/ZIM/regulamin SIM/3_wyzwania-prop-3.png"
   inkscape:export-xdpi="300"
   inkscape:export-ydpi="300"><metadata
     id="metadata8"><rdf:RDF><cc:Work
         rdf:about=""><dc:format>image/svg+xml</dc:format><dc:type
           rdf:resource="http://purl.org/dc/dcmitype/StillImage" /><dc:title></dc:title></cc:Work></rdf:RDF></metadata><defs
     id="defs6"><clipPath
       clipPathUnits="userSpaceOnUse"
       id="clipPath18"><path
         d="M 0,31.181 H 90.709 V 0 H 0 Z"
         id="path16"
         inkscape:connector-curvature="0" /></clipPath></defs><sodipodi:namedview
     pagecolor="#ffffff"
     bordercolor="#666666"
     borderopacity="1"
     objecttolerance="10"
     gridtolerance="10"
     guidetolerance="10"
     inkscape:pageopacity="0"
     inkscape:pageshadow="2"
     inkscape:window-width="1272"
     inkscape:window-height="704"
     id="namedview4"
     showgrid="false"
     inkscape:zoom="4.6754449"
     inkscape:cx="32.332447"
     inkscape:cy="-0.64164979"
     inkscape:window-x="48"
     inkscape:window-y="27"
     inkscape:window-maximized="0"
     inkscape:current-layer="g10"
     showguides="false"
     fit-margin-top="0"
     fit-margin-left="0"
     fit-margin-right="0"
     fit-margin-bottom="0"><inkscape:grid
       type="xygrid"
       id="grid894"
       originx="-1.2486499"
       originy="-1.7178562" /></sodipodi:namedview><g
     id="g10"
     inkscape:groupmode="layer"
     inkscape:label="3_wyzwania-prop-2"
     transform="matrix(1.3333333,0,0,-1.3333333,-1.2486499,40.847191)"><g
       id="g973"
       transform="translate(-0.16041252,0.48123786)"><g
         style="stroke:#a11218;stroke-opacity:1"
         inkscape:export-ydpi="300"
         inkscape:export-xdpi="300"
         transform="translate(29.9429,15.481156)"
         id="g20"><path
           inkscape:connector-curvature="0"
           id="path22"
           style="fill:#cf181f;fill-opacity:1;fill-rule:nonzero;stroke:#a11218;stroke-opacity:1"
           d="m 0,0 c 0,-7.828 -6.345,-14.174 -14.173,-14.174 -7.827,0 -14.173,6.346 -14.173,14.174 0,7.827 6.346,14.173 14.173,14.173 C -6.345,14.173 0,7.827 0,0" /></g><g
         inkscape:export-ydpi="300"
         inkscape:export-xdpi="300"
         transform="translate(15.7701,26.820056)"
         id="g24"><path
           inkscape:connector-curvature="0"
           id="path26"
           style="fill:#ffffff;fill-opacity:1;fill-rule:nonzero;stroke:none"
           d="m 0,0 c -0.248,0 -1.979,-2.626 -2.203,-5.172 0.192,-0.398 0.999,-1.357 0.999,-1.357 l -1.148,0.846 c 0,0 -0.121,-0.498 -0.153,-0.666 -0.297,-1.549 -0.373,-3.244 -0.373,-4.744 0,-0.275 -0.031,-1.261 0.015,-1.398 0.252,-0.741 1.899,-2.491 1.899,-2.491 l -1.761,1.171 c 0,0 0.153,-1.013 0.219,-1.262 0.378,-1.425 1.65,-2.162 1.65,-2.162 l -1.129,0.383 0.269,-0.479 c 0.327,-0.585 1.038,-1.052 1.456,-1.241 l -0.149,-3.917 c -0.008,-0.202 0.272,-0.263 0.349,-0.076 l 0.295,0.716 c 0.032,0.073 0.053,0.177 0.051,0.255 l 0.014,3.022 c 0.232,0.087 0.645,0.267 0.856,0.477 0.2,0.2 0.388,0.457 0.56,0.763 l 0.268,0.48 -1.128,-0.383 c 0,0 1.226,0.689 1.515,1.545 0.13,0.384 0.433,1.185 0.354,1.879 -0.314,-0.538 -1.761,-1.171 -1.761,-1.171 0,0 1.646,1.75 1.898,2.491 0.047,0.137 0.015,1.123 0.015,1.398 0,2.099 -0.686,6.669 -0.729,6.628 C 1.932,-4.674 1.043,-4.84 1.043,-4.84 c 0,0 0.72,0.617 0.938,0.963 C 1.987,-3.851 1.919,-3.57 1.919,-3.57 1.373,-1.637 0.727,0 0,0" /></g></g><g
       id="g36"
       transform="translate(52.9727,25.4023)" /></g></svg>