<?xml version="1.0" encoding="UTF-8" standalone="no"?>
<!-- Created with Inkscape (http://www.inkscape.org/) -->

<svg
   xmlns:dc="http://purl.org/dc/elements/1.1/"
   xmlns:cc="http://creativecommons.org/ns#"
   xmlns:rdf="http://www.w3.org/1999/02/22-rdf-syntax-ns#"
   xmlns:svg="http://www.w3.org/2000/svg"
   xmlns="http://www.w3.org/2000/svg"
   xmlns:sodipodi="http://sodipodi.sourceforge.net/DTD/sodipodi-0.dtd"
   xmlns:inkscape="http://www.inkscape.org/namespaces/inkscape"
   version="1.1"
   id="svg2"
   xml:space="preserve"
   width="39.127998"
   height="39.129333"
   viewBox="0 0 39.127997 39.129334"
   sodipodi:docname="sim-wzw-5.svg"
   inkscape:version="0.92.4 (5da689c313, 2019-01-14)"
   inkscape:export-filename="/home/aws/ownCloud/zhp/podstawy wychowawcze i metodyka/ZIM/regulamin SIM/3_wyzwania-prop-3.png"
   inkscape:export-xdpi="300"
   inkscape:export-ydpi="300"><metadata
     id="metadata8"><rdf:RDF><cc:Work
         rdf:about=""><dc:format>image/svg+xml</dc:format><dc:type
           rdf:resource="http://purl.org/dc/dcmitype/StillImage" /><dc:title></dc:title></cc:Work></rdf:RDF></metadata><defs
     id="defs6"><clipPath
       clipPathUnits="userSpaceOnUse"
       id="clipPath18"><path
         d="M 0,31.181 H 90.709 V 0 H 0 Z"
         id="path16"
         inkscape:connector-curvature="0" /></clipPath></defs><sodipodi:namedview
     pagecolor="#ffffff"
     bordercolor="#666666"
     borderopacity="1"
     objecttolerance="10"
     gridtolerance="10"
     guidetolerance="10"
     inkscape:pageopacity="0"
     inkscape:pageshadow="2"
     inkscape:window-width="1272"
     inkscape:window-height="704"
     id="namedview4"
     showgrid="false"
     inkscape:zoom="4.6754449"
     inkscape:cx="32.118564"
     inkscape:cy="-0.64164979"
     inkscape:window-x="48"
     inkscape:window-y="27"
     inkscape:window-maximized="0"
     inkscape:current-layer="g10"
     showguides="false"
     fit-margin-top="0"
     fit-margin-left="0"
     fit-margin-right="0"
     fit-margin-bottom="0"><inkscape:grid
       type="xygrid"
       id="grid894"
       originx="-1.2486499"
       originy="-1.7178562" /></sodipodi:namedview><g
     id="g10"
     inkscape:groupmode="layer"
     inkscape:label="3_wyzwania-prop-2"
     transform="matrix(1.3333333,0,0,-1.3333333,-1.2486499,40.847191)"><g
       id="g36"
       transform="translate(52.9727,25.4023)" /><g
       id="g1028"
       transform="translate(-58.182022,35.451173)"><g
         style="stroke:#a11218;stroke-opacity:1"
         inkscape:export-ydpi="300"
         inkscape:export-xdpi="300"
         transform="translate(87.965009,-19.488779)"
         id="g48"><path
           inkscape:connector-curvature="0"
           id="path50"
           style="fill:#cf181f;fill-opacity:1;fill-rule:nonzero;stroke:#a11218;stroke-opacity:1"
           d="m 0,0 c 0,-7.828 -6.346,-14.174 -14.173,-14.174 -7.828,0 -14.174,6.346 -14.174,14.174 0,7.827 6.346,14.173 14.174,14.173 C -6.346,14.173 0,7.827 0,0" /></g><g
         inkscape:export-ydpi="300"
         inkscape:export-xdpi="300"
         transform="translate(85.358109,-14.503379)"
         id="g52"><path
           inkscape:connector-curvature="0"
           id="path54"
           style="fill:#ffffff;fill-opacity:1;fill-rule:nonzero;stroke:none"
           d="m 0,0 c -0.189,0.158 -3.203,-0.74 -5.012,-2.546 -0.109,-0.429 -0.107,-1.682 -0.107,-1.682 l -0.335,1.386 c 0,0 -0.413,-0.304 -0.546,-0.411 -1.223,-0.996 -2.37,-2.246 -3.334,-3.394 -0.177,-0.211 -0.835,-0.947 -0.888,-1.082 -0.283,-0.73 -0.147,-3.128 -0.147,-3.128 l -0.595,2.029 c 0,0 -0.534,-0.875 -0.644,-1.109 -0.627,-1.334 -0.126,-2.715 -0.126,-2.715 l -0.618,1.018 -0.103,-0.54 c -0.125,-0.658 0.12,-1.472 0.318,-1.886 l -2.632,-2.905 c -0.136,-0.149 0.039,-0.376 0.219,-0.282 l 0.687,0.359 c 0.071,0.034 2.156,2.468 2.156,2.468 0.233,-0.083 0.665,-0.21 0.962,-0.184 0.282,0.025 0.591,0.1 0.919,0.224 l 0.514,0.195 -1.11,0.432 c 0,0 1.381,-0.261 2.153,0.209 0.347,0.211 1.094,0.63 1.479,1.213 -0.585,-0.211 -2.102,0.233 -2.102,0.233 0,0 2.386,0.283 3.056,0.689 0.124,0.075 0.733,0.851 0.91,1.062 1.349,1.608 3.761,5.549 3.702,5.545 -0.3,-0.02 -1.088,0.423 -1.088,0.423 0,0 0.949,0.011 1.338,0.135 0.021,0.017 0.15,0.275 0.15,0.275 C 0,-2.136 0.557,-0.468 0,0" /></g><g
         inkscape:export-ydpi="300"
         inkscape:export-xdpi="300"
         transform="translate(62.074409,-14.617679)"
         id="g56"><path
           inkscape:connector-curvature="0"
           id="path58"
           style="fill:#ffffff;fill-opacity:1;fill-rule:nonzero;stroke:none"
           d="M 0,0 C -0.189,-0.159 0.172,-3.283 1.637,-5.378 2.04,-5.56 3.274,-5.775 3.274,-5.775 l -1.423,-0.09 c 0,0 0.228,-0.459 0.311,-0.609 0.768,-1.378 1.799,-2.724 2.764,-3.873 0.177,-0.211 0.786,-0.986 0.91,-1.061 0.67,-0.407 3.056,-0.689 3.056,-0.689 L 6.79,-12.33 c 0,0 0.769,-0.679 0.979,-0.827 1.206,-0.849 2.653,-0.596 2.653,-0.596 l -1.11,-0.432 0.514,-0.195 c 0.626,-0.236 1.47,-0.138 1.912,-0.014 l 0.429,0.361 c 0.123,0.215 0.323,0.618 0.349,0.915 0.025,0.282 0.004,0.599 -0.061,0.944 l -0.103,0.54 -0.618,-1.018 c 0,0 0.496,1.315 0.168,2.157 -0.148,0.378 -0.431,1.186 -0.938,1.668 0.106,-0.614 -0.595,-2.03 -0.595,-2.03 0,0 0.136,2.398 -0.147,3.128 -0.053,0.135 -0.711,0.871 -0.888,1.082 C 7.985,-5.04 4.522,-1.98 4.516,-2.039 4.484,-2.339 3.91,-3.037 3.91,-3.037 c 0,0 0.155,0.935 0.1,1.341 C 3.997,-1.673 3.765,-1.501 3.765,-1.501 2.104,-0.371 0.557,0.468 0,0" /></g><g
         inkscape:export-ydpi="300"
         inkscape:export-xdpi="300"
         transform="translate(74.043609,-28.292479)"
         id="g60"><path
           inkscape:connector-curvature="0"
           id="path62"
           style="fill:#ffffff;fill-opacity:1;fill-rule:nonzero;stroke:none"
           d="M 0,0 2.672,-3.431 C 2.797,-3.59 2.607,-3.804 2.435,-3.697 l -0.661,0.406 c -0.067,0.039 -1.978,2.612 -1.978,2.612 z" /></g><g
         inkscape:export-ydpi="300"
         inkscape:export-xdpi="300"
         transform="translate(73.511909,-27.861779)"
         id="g64"><path
           inkscape:connector-curvature="0"
           id="path66"
           style="fill:#ffffff;fill-opacity:1;fill-rule:nonzero;stroke:none"
           d="m 0,0 c -0.025,0 -0.064,0.006 -0.088,0.014 -1.442,0.452 -3.139,2.221 -3.571,2.849 -0.894,1.298 -1.596,2.719 -2.146,4.345 -0.312,0.921 -1.804,6.631 -1.601,6.914 0.048,0.067 0.125,0.105 0.204,0.105 0.034,0 0.069,-0.007 0.101,-0.022 0.003,-10e-4 0.018,-0.008 0.055,-0.014 -0.138,0.073 -0.263,0.147 -0.355,0.218 -0.087,0.112 -0.103,0.138 -0.143,0.488 -0.208,2.82 0.021,4.134 0.765,4.406 0.028,0.009 0.075,0.017 0.105,0.017 0.504,0 3.067,-2.023 4.171,-4.387 0.019,-0.04 0.027,-0.086 0.022,-0.131 -0.005,-0.056 -0.016,-0.12 -0.031,-0.192 0.033,0.016 0.07,0.025 0.108,0.025 0.084,0 0.162,-0.042 0.208,-0.112 0,0 0.298,-0.449 0.39,-0.602 0.714,-1.196 1.387,-2.673 2.057,-4.515 L 0.354,9.134 C 0.659,8.339 0.743,8.088 0.746,7.964 0.753,7.618 0.605,7.058 0.422,6.5 L 0.627,6.778 C 0.674,6.843 0.75,6.88 0.828,6.88 0.846,6.88 0.864,6.878 0.882,6.874 0.979,6.853 1.054,6.776 1.073,6.68 1.095,6.571 1.286,5.62 1.31,5.349 1.369,4.693 1.237,4.104 1.058,3.632 1.097,3.654 1.14,3.666 1.184,3.666 1.228,3.666 1.271,3.654 1.31,3.632 1.399,3.58 1.448,3.478 1.431,3.376 L 1.339,2.816 C 1.312,2.646 0.599,0 0,0" /></g><g
         inkscape:export-ydpi="300"
         inkscape:export-xdpi="300"
         transform="translate(66.837609,-8.291479)"
         id="g68"><path
           inkscape:connector-curvature="0"
           id="path70"
           style="fill:#cf181f;fill-opacity:1;fill-rule:nonzero;stroke:none"
           d="m 0,0 c -0.058,0 -0.135,-0.013 -0.19,-0.033 -0.881,-0.321 -1.15,-1.667 -0.929,-4.649 0.042,-0.375 0.061,-0.445 0.117,-0.538 0.018,-0.032 0.04,-0.06 0.065,-0.087 -0.15,-0.21 -0.169,-0.26 0.466,-3.002 0.241,-1.038 0.705,-2.956 1.104,-4.134 0.558,-1.649 1.27,-3.09 2.177,-4.407 0.346,-0.502 2.08,-2.437 3.701,-2.946 0.049,-0.015 0.113,-0.024 0.164,-0.024 0.908,0 1.58,2.995 1.586,3.025 l 0.083,0.512 c 0.011,0.041 0.017,0.085 0.017,0.129 0,0.2 -0.116,0.373 -0.286,0.453 0.13,0.437 0.209,0.948 0.158,1.502 -0.025,0.278 -0.205,1.178 -0.24,1.357 -0.039,0.194 -0.189,0.347 -0.383,0.389 -0.022,0.005 -0.045,0.009 -0.068,0.011 0.082,0.324 0.133,0.619 0.128,0.84 -0.003,0.164 -0.079,0.398 -0.406,1.249 l -0.103,0.274 C 6.484,-8.221 5.805,-6.73 5.083,-5.521 4.989,-5.365 4.687,-4.909 4.687,-4.909 4.627,-4.82 4.542,-4.754 4.444,-4.718 4.441,-4.653 4.425,-4.59 4.398,-4.531 3.344,-2.274 0.717,0 0,0 M 7.858,-16.154 H 7.863 M 0,-0.5 c 0.333,0 2.852,-1.904 3.945,-4.243 -0.046,-0.454 -0.49,-1.67 -0.49,-1.67 l 0.815,1.226 c 0,0 0.293,-0.44 0.384,-0.591 0.835,-1.399 1.507,-3.017 2.037,-4.472 0.097,-0.268 0.476,-1.213 0.479,-1.362 0.018,-0.809 -0.962,-3.089 -0.962,-3.089 l 1.294,1.76 c 0,0 0.21,-1.038 0.234,-1.303 0.137,-1.517 -0.837,-2.681 -0.837,-2.681 l 0.959,0.771 -0.091,-0.561 c -0.109,-0.67 -0.837,-2.605 -1.092,-2.605 -0.005,0 -0.01,0 -0.014,0.002 -1.386,0.434 -3.045,2.179 -3.439,2.752 -0.678,0.984 -1.463,2.354 -2.116,4.283 -0.692,2.048 -1.684,6.689 -1.634,6.689 h 0.001 c 0.083,-0.037 0.22,-0.051 0.374,-0.051 0.37,0 0.831,0.078 0.831,0.078 0,0 -0.917,0.344 -1.251,0.602 -0.014,0.025 -0.048,0.32 -0.048,0.32 -0.153,2.07 -0.104,3.885 0.602,4.142 C -0.014,-0.501 -0.007,-0.5 0,-0.5" /></g><g
         inkscape:export-ydpi="300"
         inkscape:export-xdpi="300"
         transform="translate(74.130609,-27.859879)"
         id="g72"><path
           inkscape:connector-curvature="0"
           id="path74"
           style="fill:#ffffff;fill-opacity:1;fill-rule:nonzero;stroke:none"
           d="m 0,0 c -0.073,0 -0.144,0.031 -0.192,0.09 -0.701,0.84 -1.07,2.364 -1.123,2.696 l -0.092,0.56 c -0.016,0.101 0.032,0.204 0.121,0.256 0.039,0.022 0.082,0.034 0.126,0.034 0.008,0 0.016,0 0.024,-0.001 -0.143,0.323 -0.247,0.678 -0.239,1.02 l 10e-4,0.107 c 0.009,0.455 0.024,1.303 0.346,1.949 0.043,0.086 0.13,0.139 0.224,0.139 0.012,0 0.023,-10e-4 0.035,-0.003 0.107,-0.015 0.192,-0.097 0.211,-0.203 0.027,-0.149 0.141,-0.352 0.296,-0.571 -0.24,0.673 -0.469,1.433 -0.46,1.861 0.003,0.124 0.087,0.375 0.39,1.167 l 0.104,0.275 c 0.27,0.74 2.869,6.339 3.282,6.339 0.096,0 0.183,-0.055 0.225,-0.141 0.007,-0.014 0.019,-0.031 0.035,-0.051 -0.059,0.146 -0.108,0.286 -0.133,0.4 0.004,0.139 0.009,0.171 0.204,0.467 1.462,2.027 2.431,2.928 3.149,2.928 0.093,0 0.184,-0.015 0.269,-0.046 C 7.328,19.082 7.911,15.578 7.27,13.177 7.258,13.133 7.235,13.094 7.203,13.063 7.163,13.023 7.112,12.98 7.055,12.935 7.091,12.926 7.125,12.908 7.153,12.884 7.217,12.83 7.25,12.748 7.241,12.665 c 0,0 -0.06,-0.535 -0.089,-0.713 C 6.896,10.359 6.291,8.339 5.824,7.165 5.455,6.235 4.578,4.35 4.043,3.403 2.704,1.036 0.195,0.057 0.089,0.017 0.06,0.005 0.03,0 0,0" /></g><g
         inkscape:export-ydpi="300"
         inkscape:export-xdpi="300"
         transform="translate(80.664209,-8.291479)"
         id="g76"><path
           inkscape:connector-curvature="0"
           id="path78"
           style="fill:#cf181f;fill-opacity:1;fill-rule:nonzero;stroke:none"
           d="m 0,0 v 0 c -0.817,0 -1.817,-0.905 -3.345,-3.025 -0.21,-0.316 -0.24,-0.382 -0.257,-0.491 -0.005,-0.031 -0.007,-0.063 -0.006,-0.095 -0.252,-0.042 -0.435,-0.358 -1.584,-2.593 -0.492,-0.957 -1.379,-2.736 -1.804,-3.903 l -0.103,-0.273 c -0.327,-0.852 -0.403,-1.087 -0.406,-1.251 -0.005,-0.221 0.046,-0.516 0.128,-0.84 -0.172,-0.013 -0.329,-0.116 -0.408,-0.275 -0.348,-0.697 -0.363,-1.583 -0.372,-2.059 l -0.002,-0.103 c -0.007,-0.296 0.059,-0.596 0.16,-0.878 -0.144,-0.111 -0.218,-0.294 -0.188,-0.477 l 0.091,-0.56 c 0.056,-0.347 0.444,-1.935 1.179,-2.816 0.097,-0.116 0.238,-0.179 0.384,-0.179 0.059,0 0.12,0.01 0.178,0.033 0.109,0.041 2.7,1.052 4.082,3.497 0.54,0.955 1.424,2.855 1.796,3.792 0.456,1.148 1.071,3.152 1.343,4.84 0.024,0.147 0.069,0.536 0.085,0.675 0.007,0.034 0.011,0.069 0.011,0.105 0,0.091 -0.025,0.177 -0.066,0.25 0.037,0.051 0.065,0.107 0.082,0.169 0.633,2.372 0.146,6.115 -0.623,6.395 C 0.243,-0.021 0.124,0 0,0 M 0.459,-6.876 H 0.464 M 0,-0.5 c 0.064,0 0.125,-0.01 0.184,-0.031 0.24,-0.088 0.992,-3.247 0.311,-5.797 -0.328,-0.318 -1.449,-0.964 -1.449,-0.964 l 1.413,0.416 c 0,0 -0.059,-0.526 -0.086,-0.7 -0.26,-1.609 -0.861,-3.594 -1.314,-4.736 -0.382,-0.959 -1.26,-2.832 -1.767,-3.73 -1.31,-2.316 -3.825,-3.276 -3.825,-3.276 -0.641,0.768 -1.011,2.217 -1.07,2.575 l -0.091,0.56 0.96,-0.77 c 0,0 -0.946,1.101 -0.925,2.034 0.01,0.419 -0.001,1.304 0.321,1.949 0.114,-0.633 1.295,-1.759 1.295,-1.759 0,0 -0.98,2.28 -0.962,3.087 0.003,0.151 0.382,1.096 0.479,1.364 0.736,2.022 2.991,6.174 3.047,6.174 h 10e-4 c 0.137,-0.28 0.94,-0.755 0.94,-0.755 0,0 -0.481,0.853 -0.57,1.266 0.004,0.027 0.169,0.276 0.169,0.276 C -1.826,-1.772 -0.72,-0.5 0,-0.5" /></g><g
         inkscape:export-ydpi="300"
         inkscape:export-xdpi="300"
         transform="translate(73.537309,-32.494579)"
         id="g80"><path
           inkscape:connector-curvature="0"
           id="path82"
           style="fill:#ffffff;fill-opacity:1;fill-rule:nonzero;stroke:none"
           d="m 0,0 c -0.126,0 -0.248,0.052 -0.333,0.141 -0.085,0.088 -0.129,0.206 -0.125,0.332 l 0.163,4.258 c -0.479,0.248 -1.229,0.758 -1.606,1.432 l -0.303,0.541 c -0.051,0.09 -0.041,0.202 0.025,0.282 0.049,0.058 0.12,0.09 0.193,0.09 0.027,0 0.053,-0.004 0.08,-0.014 L -1.867,7.05 c -0.376,0.421 -0.757,0.995 -0.949,1.721 -0.077,0.292 -0.246,1.404 -0.253,1.452 -0.015,0.097 0.029,0.195 0.113,0.248 0.041,0.026 0.088,0.039 0.134,0.039 0.049,0 0.097,-0.014 0.139,-0.042 l 0.438,-0.291 c -0.431,0.537 -0.839,1.109 -0.969,1.492 -0.042,0.124 -0.05,0.423 -0.035,1.334 l 0.005,0.325 c 0,2.142 0.139,3.909 0.425,5.402 0.037,0.194 0.175,0.763 0.175,0.763 0.02,0.082 0.079,0.148 0.158,0.177 0.028,0.01 0.056,0.015 0.085,0.015 0.026,0 0.05,-0.004 0.075,-0.012 -0.054,0.086 -0.1,0.164 -0.132,0.23 -0.019,0.04 -0.027,0.086 -0.023,0.13 0.237,2.696 2.13,6.067 2.735,6.067 0.842,0 1.585,-1.299 2.408,-4.212 0.091,-0.38 0.085,-0.411 0.074,-0.463 -0.1,-0.17 -0.257,-0.361 -0.422,-0.539 0.092,0.037 0.16,0.073 0.192,0.103 0.049,0.047 0.111,0.071 0.174,0.071 0.064,0 0.128,-0.025 0.177,-0.074 0.234,-0.233 0.895,-5.887 0.895,-7.658 L 3.757,13.004 C 3.772,12.092 3.764,11.793 3.722,11.669 3.563,11.198 2.983,10.441 2.457,9.814 c 0.304,0.198 0.558,0.402 0.657,0.572 0.046,0.078 0.128,0.124 0.216,0.124 0.017,0 0.034,-0.002 0.051,-0.005 C 3.487,10.482 3.566,10.396 3.579,10.288 3.668,9.51 3.367,8.635 3.205,8.165 L 3.168,8.057 C 3.044,7.692 2.793,7.358 2.515,7.075 2.581,7.07 2.643,7.039 2.687,6.986 2.753,6.906 2.763,6.794 2.713,6.704 L 2.41,6.163 C 2.204,5.797 1.978,5.489 1.736,5.247 1.5,5.011 1.102,4.821 0.841,4.714 0.805,1.209 0.774,1.142 0.747,1.083 L 0.418,0.282 C 0.346,0.107 0.186,0 0,0" /></g><g
         inkscape:export-ydpi="300"
         inkscape:export-xdpi="300"
         transform="translate(73.791709,-6.144979)"
         id="g84"><path
           inkscape:connector-curvature="0"
           id="path86"
           style="fill:#cf181f;fill-opacity:1;fill-rule:nonzero;stroke:none"
           d="m 0,0 c -0.858,0 -2.756,-3.701 -2.984,-6.295 -0.007,-0.074 0.003,-0.149 0.029,-0.22 -0.091,-0.068 -0.158,-0.168 -0.186,-0.282 0,0 -0.14,-0.58 -0.178,-0.775 -0.289,-1.509 -0.43,-3.291 -0.43,-5.45 0,-0.072 -10e-4,-0.186 -0.003,-0.322 -0.017,-0.989 -0.008,-1.255 0.047,-1.418 0.08,-0.235 0.255,-0.534 0.475,-0.852 -0.04,-0.013 -0.078,-0.031 -0.114,-0.054 -0.167,-0.106 -0.256,-0.301 -0.226,-0.496 0.018,-0.12 0.179,-1.181 0.258,-1.48 0.159,-0.598 0.438,-1.099 0.743,-1.502 -0.02,-0.018 -0.038,-0.038 -0.056,-0.058 -0.132,-0.159 -0.153,-0.383 -0.051,-0.564 l 0.303,-0.542 c 0.369,-0.659 1.063,-1.169 1.568,-1.455 l -0.156,-4.103 c -0.008,-0.194 0.061,-0.377 0.193,-0.515 0.133,-0.138 0.32,-0.217 0.514,-0.217 0.284,0 0.539,0.171 0.649,0.437 l 0.333,0.809 c 0.046,0.103 0.071,0.158 0.108,3.552 0.276,0.125 0.602,0.303 0.822,0.523 0.259,0.258 0.499,0.584 0.715,0.969 l 0.303,0.542 c 0.096,0.171 0.083,0.383 -0.032,0.54 0.215,0.255 0.401,0.543 0.506,0.855 l 0.037,0.106 c 0.168,0.489 0.481,1.399 0.386,2.234 -0.023,0.196 -0.158,0.359 -0.343,0.419 0.22,0.318 0.395,0.617 0.475,0.852 0.055,0.163 0.064,0.429 0.047,1.42 -0.002,0.135 -0.003,0.249 -0.003,0.32 0,1.356 -0.248,3.519 -0.395,4.688 -0.325,2.57 -0.401,3.135 -0.658,3.259 0.014,0.033 0.025,0.067 0.032,0.103 0.021,0.109 0.014,0.186 -0.075,0.559 C 1.766,-1.273 0.999,0 0,0 m 0,-0.5 c 0.821,0 1.55,-1.847 2.167,-4.03 0,0 0.076,-0.317 0.07,-0.347 -0.246,-0.39 -1.059,-1.087 -1.059,-1.087 0,0 1.003,0.188 1.248,0.424 v 0 c 0.054,0 0.823,-5.124 0.823,-7.482 0,-0.311 0.035,-1.424 -0.018,-1.579 -0.284,-0.837 -2.143,-2.812 -2.143,-2.812 0,0 1.634,0.716 1.988,1.323 0.09,-0.784 -0.252,-1.688 -0.399,-2.123 -0.327,-0.966 -1.71,-1.743 -1.71,-1.743 l 1.273,0.433 -0.303,-0.541 C 1.743,-20.41 1.531,-20.7 1.305,-20.926 c -0.238,-0.238 -0.704,-0.441 -0.966,-0.539 0,0 -0.037,-3.618 -0.073,-3.698 l -0.334,-0.81 c -0.036,-0.088 -0.111,-0.127 -0.186,-0.127 -0.107,0 -0.213,0.079 -0.208,0.213 l 0.169,4.422 c -0.472,0.214 -1.274,0.74 -1.644,1.401 l -0.303,0.541 1.273,-0.433 c 0,0 -1.435,0.832 -1.861,2.44 -0.075,0.282 -0.248,1.426 -0.248,1.426 l 1.988,-1.323 c 0,0 -1.859,1.975 -2.143,2.812 -0.053,0.155 -0.018,1.268 -0.018,1.579 0,1.693 0.086,3.606 0.421,5.355 0.036,0.189 0.173,0.752 0.173,0.752 l 1.296,-0.955 c 0,0 -0.911,1.082 -1.127,1.531 C -2.233,-3.465 -0.279,-0.5 0,-0.5" /></g><g
         inkscape:export-ydpi="300"
         inkscape:export-xdpi="300"
         transform="translate(69.129609,-19.765079)"
         id="g88"><path
           inkscape:connector-curvature="0"
           id="path90"
           style="fill:#cf181f;fill-opacity:1;fill-rule:nonzero;stroke:none"
           d="M 0,0 C -0.899,-0.082 -1.908,0.34 -1.908,0.34 V 1.246 C -1.908,1.246 -0.899,0.373 0,0" /></g><g
         inkscape:export-ydpi="300"
         inkscape:export-xdpi="300"
         transform="translate(80.548009,-22.089379)"
         id="g92"><path
           inkscape:connector-curvature="0"
           id="path94"
           style="fill:#cf181f;fill-opacity:1;fill-rule:nonzero;stroke:none"
           d="M 0,0 C 0.857,-0.43 2.018,-0.405 2.018,-0.405 L 2.37,0.491 C 2.37,0.491 1.034,0.02 0,0" /></g><g
         inkscape:export-ydpi="300"
         inkscape:export-xdpi="300"
         transform="translate(67.624209,-23.263179)"
         id="g96"><path
           inkscape:connector-curvature="0"
           id="path98"
           style="fill:#cf181f;fill-opacity:1;fill-rule:nonzero;stroke:none"
           d="m 0,0 c -0.739,-0.518 -1.824,-0.652 -1.824,-0.652 l -0.45,0.786 c 0,0 1.309,-0.256 2.274,-0.134" /></g><g
         inkscape:export-ydpi="300"
         inkscape:export-xdpi="300"
         transform="translate(78.722309,-18.421379)"
         id="g100"><path
           inkscape:connector-curvature="0"
           id="path102"
           style="fill:#cf181f;fill-opacity:1;fill-rule:nonzero;stroke:none"
           d="M 0,0 C 0.873,-0.23 1.974,0.234 1.974,0.234 L 2.088,0.911 C 2.088,0.911 0.948,0.219 0,0" /></g><g
         inkscape:export-ydpi="300"
         inkscape:export-xdpi="300"
         transform="translate(78.197009,-21.587379)"
         id="g104"><path
           inkscape:connector-curvature="0"
           id="path106"
           style="fill:#cf181f;fill-opacity:1;fill-rule:nonzero;stroke:none"
           d="M 0,0 C 0.47,-0.057 1.165,-0.048 1.396,0.068 1.446,0.119 1.514,0.302 1.514,0.572 1.116,0.377 0.46,0.105 0,0" /></g></g></g></svg>