<?xml version="1.0" encoding="UTF-8" standalone="no"?>
<!-- Created with Inkscape (http://www.inkscape.org/) -->

<svg
   xmlns:dc="http://purl.org/dc/elements/1.1/"
   xmlns:cc="http://creativecommons.org/ns#"
   xmlns:rdf="http://www.w3.org/1999/02/22-rdf-syntax-ns#"
   xmlns:svg="http://www.w3.org/2000/svg"
   xmlns="http://www.w3.org/2000/svg"
   xmlns:sodipodi="http://sodipodi.sourceforge.net/DTD/sodipodi-0.dtd"
   xmlns:inkscape="http://www.inkscape.org/namespaces/inkscape"
   width="36.548359mm"
   height="36.548359mm"
   viewBox="0 0 36.548359 36.548359"
   version="1.1"
   id="svg2554"
   inkscape:version="0.92.4 (5da689c313, 2019-01-14)"
   sodipodi:docname="sim_metodyka_harc.svg">
  <defs
     id="defs2548">
    <clipPath
       id="clipPath891"
       clipPathUnits="userSpaceOnUse">
      <path
         inkscape:connector-curvature="0"
         id="path889"
         d="m 58.352,806.544 -45.9,-45.9 v -3.638 l 46.621,-46.622 h 2.916 l 46.622,46.623 v 3.636 L 62.71,806.544 Z" />
    </clipPath>
  </defs>
  <sodipodi:namedview
     id="base"
     pagecolor="#ffffff"
     bordercolor="#666666"
     borderopacity="1.0"
     inkscape:pageopacity="0.0"
     inkscape:pageshadow="2"
     inkscape:zoom="0.35"
     inkscape:cx="-463.78939"
     inkscape:cy="-65.217959"
     inkscape:document-units="mm"
     inkscape:current-layer="layer1"
     showgrid="false"
     fit-margin-top="0"
     fit-margin-left="0"
     fit-margin-right="0"
     fit-margin-bottom="0"
     inkscape:window-width="1920"
     inkscape:window-height="1027"
     inkscape:window-x="1912"
     inkscape:window-y="-8"
     inkscape:window-maximized="1" />
  <metadata
     id="metadata2551">
    <rdf:RDF>
      <cc:Work
         rdf:about="">
        <dc:format>image/svg+xml</dc:format>
        <dc:type
           rdf:resource="http://purl.org/dc/dcmitype/StillImage" />
        <dc:title></dc:title>
      </cc:Work>
    </rdf:RDF>
  </metadata>
  <g
     inkscape:label="Layer 1"
     inkscape:groupmode="layer"
     id="layer1"
     transform="translate(-105.70201,-95.02939)">
    <g
       transform="translate(155.81505,187.91238)"
       id="g3133">
      <g
         transform="matrix(0.35277777,0,0,-0.35277777,-31.838821,-91.443014)"
         id="g881">
        <path
           inkscape:connector-curvature="0"
           id="path883"
           style="fill:#99d420;fill-opacity:1;fill-rule:nonzero;stroke:none"
           d="M 0,0 -48.08,-48.08 0,-96.16 48.08,-48.08 Z" />
      </g>
      <g
         transform="matrix(0.35277777,0,0,-0.35277777,-53.192918,193.08778)"
         id="g885">
        <g
           clip-path="url(#clipPath891)"
           id="g887">
          <g
             transform="translate(62.2272,744.6887)"
             id="g893">
            <path
               inkscape:connector-curvature="0"
               id="path895"
               style="fill:#ffffff;fill-opacity:1;fill-rule:nonzero;stroke:none"
               d="m 0,0 h -0.613 v -20.763 c 1.733,1.571 4.939,5.016 4.939,9.021 0,1.863 -0.695,3.606 -1.613,5.095 C 1.553,-4.586 0.59,-2.353 0,0" />
          </g>
          <g
             transform="translate(58.8348,744.6887)"
             id="g897">
            <path
               inkscape:connector-curvature="0"
               id="path899"
               style="fill:#6ea31b;fill-opacity:1;fill-rule:nonzero;stroke:none"
               d="m 0,0 c -0.591,-2.353 -1.553,-4.586 -2.714,-6.647 -0.917,-1.489 -1.612,-3.232 -1.612,-5.095 0,-4.005 3.207,-7.451 4.939,-9.022 L 0.613,0 Z" />
          </g>
          <g
             transform="translate(49.6039,775.8906)"
             id="g901">
            <path
               inkscape:connector-curvature="0"
               id="path903"
               style="fill:#6ea31b;fill-opacity:1;fill-rule:nonzero;stroke:none"
               d="m 0,0 c 0,-4.336 2.072,-8.313 4.412,-11.422 2.309,-3.237 4.336,-7.087 5.112,-11.275 h 0.32 V 17.149 C 7.088,14.812 0,8.021 0,0" />
          </g>
          <g
             transform="translate(61.9343,753.1933)"
             id="g905">
            <path
               inkscape:connector-curvature="0"
               id="path907"
               style="fill:#ffffff;fill-opacity:1;fill-rule:nonzero;stroke:none"
               d="m 0,0 c 0.775,4.189 2.802,8.038 5.111,11.275 2.341,3.11 4.413,7.087 4.413,11.423 0,8.018 -7.087,14.809 -9.844,17.148 L -0.32,0 Z" />
          </g>
          <g
             transform="translate(57.0416,744.6887)"
             id="g909">
            <path
               inkscape:connector-curvature="0"
               id="path911"
               style="fill:#6ea31b;fill-opacity:1;fill-rule:nonzero;stroke:none"
               d="m 0,0 h -1.286 c -0.975,0 -1.865,0.363 -2.549,0.957 -0.532,-1.292 -1.325,-2.422 -2.301,-3.294 -0.254,-0.207 -0.589,-0.34 -0.926,-0.34 -0.851,0 -1.54,0.775 -1.54,1.732 0,0.421 0.129,0.81 0.351,1.111 -0.512,0.264 -1.086,0.414 -1.686,0.414 -2.233,0 -4.043,-2.036 -4.043,-4.547 0,-1.059 0.322,-2.032 0.861,-2.805 1.088,-1.602 2.768,-2.667 4.674,-2.784 2.505,0.136 4.709,1.561 6.097,3.7 C -1.297,-4.086 -0.497,-2.113 0,0" />
          </g>
          <g
             transform="translate(42.1614,754.7533)"
             id="g913">
            <path
               inkscape:connector-curvature="0"
               id="path915"
               style="fill:#6ea31b;fill-opacity:1;fill-rule:nonzero;stroke:none"
               d="M 0,0 C 0.35,2.243 2.174,3.78 4.155,3.567 7.448,3.415 10.224,1.01 11.3,-2.315 c 0.645,0.473 1.436,0.755 2.294,0.755 h 1.594 C 14.375,3.573 11.792,8.017 8.173,10.943 6.24,12.704 3.893,13.952 1.268,14.47 -3.646,15.44 -8.33,11.744 -9.192,6.214 -10.054,0.684 -6.769,-4.584 -1.854,-5.555 -0.118,-5.897 1.599,-5.686 3.118,-4.99 1.023,-4.576 -0.367,-2.358 0,0" />
          </g>
          <g
             transform="translate(88.0928,760.9672)"
             id="g917">
            <path
               inkscape:connector-curvature="0"
               id="path919"
               style="fill:#ffffff;fill-opacity:1;fill-rule:nonzero;stroke:none"
               d="m 0,0 c -0.863,5.53 -5.546,9.226 -10.461,8.256 -2.624,-0.518 -4.972,-1.766 -6.904,-3.527 -3.62,-2.926 -6.203,-7.37 -7.015,-12.503 h 1.593 c 0.858,0 1.65,-0.282 2.295,-0.754 1.075,3.324 3.851,5.729 7.145,5.881 1.981,0.213 3.805,-1.324 4.155,-3.567 0.367,-2.358 -1.023,-4.575 -3.119,-4.989 1.521,-0.697 3.237,-0.908 4.973,-0.566 C -2.423,-10.798 0.862,-5.53 0,0" />
          </g>
          <g
             transform="translate(73.9583,745.269)"
             id="g921">
            <path
               inkscape:connector-curvature="0"
               id="path923"
               style="fill:#ffffff;fill-opacity:1;fill-rule:nonzero;stroke:none"
               d="m 0,0 c -0.6,0 -1.175,-0.151 -1.687,-0.414 0.222,-0.301 0.351,-0.69 0.351,-1.112 0,-0.956 -0.689,-1.732 -1.539,-1.732 -0.337,0 -0.673,0.133 -0.927,0.341 -0.975,0.872 -1.769,2.001 -2.3,3.294 -0.685,-0.594 -1.575,-0.958 -2.551,-0.958 h -1.284 c 0.496,-2.112 1.296,-4.085 2.346,-5.855 1.39,-2.139 3.594,-3.565 6.099,-3.7 1.904,0.116 3.585,1.182 4.674,2.784 0.538,0.772 0.86,1.746 0.86,2.805 C 4.042,-2.036 2.232,0 0,0" />
          </g>
          <g
             transform="translate(55.7558,751.9897)"
             id="g925">
            <path
               inkscape:connector-curvature="0"
               id="path927"
               style="fill:#6ea31b;fill-opacity:1;fill-rule:nonzero;stroke:none"
               d="m 0,0 c -1.48,0 -2.692,-1.211 -2.692,-2.692 v -0.713 c 0,-1.481 1.212,-2.693 2.692,-2.693 H 3.692 V 0 Z" />
          </g>
          <g
             transform="translate(65.3058,745.8919)"
             id="g929">
            <path
               inkscape:connector-curvature="0"
               id="path931"
               style="fill:#ffffff;fill-opacity:1;fill-rule:nonzero;stroke:none"
               d="M 0,0 C 1.481,0 2.692,1.212 2.692,2.692 V 3.406 C 2.692,4.886 1.481,6.098 0,6.098 H -3.691 V 0 Z" />
          </g>
        </g>
      </g>
      <g
         transform="matrix(0.35277777,0,0,-0.35277777,-31.838856,-92.211716)"
         id="g933">
        <path
           inkscape:connector-curvature="0"
           id="path935"
           style="fill:none;stroke:#ffffff;stroke-width:2.69099998;stroke-linecap:butt;stroke-linejoin:miter;stroke-miterlimit:4;stroke-dasharray:none;stroke-opacity:1"
           d="M 0,0 -49.898,-49.898 0,-99.796 49.898,-49.898 Z" />
      </g>
    </g>
  </g>
</svg>
