<?xml version="1.0" encoding="UTF-8" standalone="no"?>
<svg
   xmlns:dc="http://purl.org/dc/elements/1.1/"
   xmlns:cc="http://creativecommons.org/ns#"
   xmlns:rdf="http://www.w3.org/1999/02/22-rdf-syntax-ns#"
   xmlns:svg="http://www.w3.org/2000/svg"
   xmlns="http://www.w3.org/2000/svg"
   xmlns:sodipodi="http://sodipodi.sourceforge.net/DTD/sodipodi-0.dtd"
   xmlns:inkscape="http://www.inkscape.org/namespaces/inkscape"
   version="1.1"
   id="svg2"
   xml:space="preserve"
   width="755.90533"
   height="755.90533"
   viewBox="0 0 755.90533 755.90533"
   sodipodi:docname="metodyczne.ai"><metadata
     id="metadata8"><rdf:RDF><cc:Work
         rdf:about=""><dc:format>image/svg+xml</dc:format><dc:type
           rdf:resource="http://purl.org/dc/dcmitype/StillImage" /></cc:Work></rdf:RDF></metadata><defs
     id="defs6"><clipPath
       clipPathUnits="userSpaceOnUse"
       id="clipPath22"><path
         d="M 0,566.929 H 566.929 V 0 H 0 Z"
         id="path20" /></clipPath></defs><sodipodi:namedview
     pagecolor="#ffffff"
     bordercolor="#666666"
     borderopacity="1"
     objecttolerance="10"
     gridtolerance="10"
     guidetolerance="10"
     inkscape:pageopacity="0"
     inkscape:pageshadow="2"
     inkscape:window-width="640"
     inkscape:window-height="480"
     id="namedview4" /><g
     id="g10"
     inkscape:groupmode="layer"
     inkscape:label="metodyczne"
     transform="matrix(1.3333333,0,0,-1.3333333,0,755.90533)"><g
       id="g12"
       transform="translate(151.191,132.2739)"><path
         d="M 0,0 132.274,-132.274 264.548,0 132.274,132.273 Z"
         style="fill:#e30613;fill-opacity:1;fill-rule:nonzero;stroke:none"
         id="path14" /></g><g
       id="g16"><g
         id="g18"
         clip-path="url(#clipPath22)"><g
           id="g24"
           transform="translate(255.8256,127.25)"><path
             d="m 0,0 c -7.755,10.25 -16.361,15.739 -19.164,32.907 -2.969,-9.2 -4.314,-18.43 -4.314,-25.855 0,-21.524 16.621,-33.764 38.543,-37.505 C 14.784,-19.545 8.241,-10.892 0,0"
             style="fill:#ffffff;fill-opacity:1;fill-rule:nonzero;stroke:none"
             id="path26" /></g><g
           id="g28"
           transform="translate(241.4638,178.5801)"><path
             d="m 0,0 c 0,-31.674 39.441,-50.822 39.472,-82.479 0.014,0 0.029,0 0.044,0 C 78.807,-49.51 19.939,-25.412 19.938,34.075 10.636,22.124 1.693,13.145 0,0"
             style="fill:#ffffff;fill-opacity:1;fill-rule:nonzero;stroke:none"
             id="path30" /></g><g
           id="g32"
           transform="translate(289.7523,243.0938)"><path
             d="m 0,0 c -6.698,-6.194 -18.318,-18.067 -18.318,-30.437 0,-23.148 10.016,-39.084 18.854,-56.134 6.462,-12.469 12.567,-18.594 13.946,-30.326 1.162,-9.867 -1.106,-18.731 -6.897,-26.83 17.102,6.575 29.144,16.615 29.144,34.935 C 36.729,-84.554 -13.945,-48.43 0,0"
             style="fill:#ffffff;fill-opacity:1;fill-rule:nonzero;stroke:none"
             id="path34" /></g><g
           id="g36"
           transform="translate(275.0165,72.0684)"><path
             d="M 0,0 V -31.312 H 16.896 V 0 L 8.448,8.448 Z"
             style="fill:#9c1006;fill-opacity:1;fill-rule:nonzero;stroke:none"
             id="path38" /></g><g
           id="g40"
           transform="translate(297.6947,75.0635)"><path
             d="M 0,0 20.945,-20.946 32.894,-8.998 11.947,11.947 H 0 Z"
             style="fill:#9c1006;fill-opacity:1;fill-rule:nonzero;stroke:none"
             id="path42" /></g><g
           id="g44"
           transform="translate(236.3412,66.0655)"><path
             d="M 0,0 20.946,20.945 H 32.894 V 8.998 L 11.948,-11.948 Z"
             style="fill:#9c1006;fill-opacity:1;fill-rule:nonzero;stroke:none"
             id="path46" /></g><g
           id="g48"
           transform="translate(434.6556,415.7378)"><path
             d="M 0,0 -132.272,-132.273 0,-264.546 132.273,-132.273 Z"
             style="fill:#194093;fill-opacity:1;fill-rule:nonzero;stroke:none"
             id="path50" /></g><g
           id="g52"
           transform="translate(511.0795,258.8321)"><path
             d="m 0,0 c -3.918,-15.899 -12.583,-30.767 -26.25,-41.83 -13.308,-10.772 -29.151,-16.156 -45.08,-16.917 l 3.652,10.905 c 11.796,1.771 23.448,6.656 33.99,15.197 10.937,8.862 18.276,19.705 22.38,31.353 z"
             style="fill:#27b4e7;fill-opacity:1;fill-rule:nonzero;stroke:none"
             id="path54" /></g><g
           id="g56"
           transform="translate(502.3734,295.8428)"><path
             d="M 0,0 C -4.764,24.602 -21.418,47.363 -46.836,58.236 -13.97,51.464 5.507,25.492 10.095,-3.381 Z"
             style="fill:#27b4e7;fill-opacity:1;fill-rule:nonzero;stroke:none"
             id="path58" /></g><g
           id="g60"
           transform="translate(407.2611,204.9356)"><path
             d="m 0,0 c -28.221,10.052 -50.616,34.861 -50.423,69.218 5.487,-27.912 25.236,-49.365 49.228,-58.75 z"
             style="fill:#27b4e7;fill-opacity:1;fill-rule:nonzero;stroke:none"
             id="path62" /></g><g
           id="g64"
           transform="translate(439.3881,279.8711)"><path
             d="m 0,0 15.441,-19.068 79.543,9.085 z"
             style="fill:#27b4e7;fill-opacity:1;fill-rule:nonzero;stroke:none"
             id="path66" /></g><g
           id="g68"
           transform="translate(329.3851,291.4331)"><path
             d="M 0,0 75.915,-25.424 94.983,-9.983 Z"
             style="fill:#ffffff;fill-opacity:1;fill-rule:nonzero;stroke:none"
             id="path70" /></g><g
           id="g72"
           transform="translate(409.5804,306.7403)"><path
             d="m 0,0 -79.54,-9.085 94.981,-9.983 z"
             style="fill:#27b4e7;fill-opacity:1;fill-rule:nonzero;stroke:none"
             id="path74" /></g><g
           id="g76"
           transform="translate(439.8676,386.5923)"><path
             d="M 0,0 -25.426,-75.916 -9.983,-94.984 Z"
             style="fill:#ffffff;fill-opacity:1;fill-rule:nonzero;stroke:none"
             id="path78" /></g><g
           id="g80"
           transform="translate(424.5443,180.9522)"><path
             d="M 0,0 25.424,75.913 9.983,94.981 Z"
             style="fill:#ffffff;fill-opacity:1;fill-rule:nonzero;stroke:none"
             id="path82" /></g><g
           id="g84"
           transform="translate(455.1742,306.396)"><path
             d="m 0,0 -9.085,79.541 -9.983,-94.982 z"
             style="fill:#27b4e7;fill-opacity:1;fill-rule:nonzero;stroke:none"
             id="path86" /></g><g
           id="g88"
           transform="translate(535.0248,276.1104)"><path
             d="M 0,0 -75.913,25.424 -94.982,9.983 Z"
             style="fill:#ffffff;fill-opacity:1;fill-rule:nonzero;stroke:none"
             id="path90" /></g><g
           id="g92"
           transform="translate(409.2367,261.1465)"><path
             d="m 0,0 9.086,-79.542 9.982,94.984 z"
             style="fill:#27b4e7;fill-opacity:1;fill-rule:nonzero;stroke:none"
             id="path94" /></g><g
           id="g96"
           transform="translate(132.2728,415.7378)"><path
             d="M 0,0 -132.273,-132.273 0,-264.546 132.273,-132.273 Z"
             style="fill:#f8c40b;fill-opacity:1;fill-rule:nonzero;stroke:none"
             id="path98" /></g><g
           id="g100"
           transform="translate(99.5585,202.0293)"><path
             d="m 0,0 c 3.399,7.475 7.668,11.864 13.803,17.884 -0.239,0.024 -0.476,0.035 -0.713,0.035 -3.72,0 -7.197,-2.812 -8.42,-4.5 -0.227,4.773 -0.678,9.625 -2.984,14.486 z m -18.765,49.05 c -3.04,5.213 -6.067,7.836 -9.505,9.896 6.468,-10.206 8.526,-19.678 8.549,-29.972 4.924,9.436 5.824,29.149 8.858,35.613 -4.464,-4.341 -5.239,-10.665 -7.902,-15.537 m -2.815,75.148 c 10.232,0.46 15.736,4.096 15.926,4.199 0.239,-3.698 3.882,-6.233 7.47,-6.233 3.516,0 6.98,2.435 7.138,8.596 2.861,-0.218 5.773,-0.527 8.776,-0.54 -3.139,1.665 -9.985,4.711 -16.252,4.711 -4.699,0 -8.274,-2.569 -9.657,-3.526 -2.909,-2.014 -13.425,-7.207 -13.401,-7.207 m 19.9,21.581 c 7.831,0 18.012,-3.466 22.458,-8.213 0.444,-1.589 0.802,-3.222 0.795,-4.694 -0.005,-0.723 -0.225,-1.397 -0.504,-1.574 -0.134,-0.094 -1.113,0.195 -4.546,-2.751 -1.52,-1.303 -3.469,-4.095 -2.933,-6.029 3.027,5.401 7.471,6.091 7.794,6.224 2.411,0.99 2.012,3.466 1.815,4.331 -0.453,1.997 -1.885,3.853 -2.421,4.493 2.055,0.245 6.801,-0.235 10.442,-1.02 12.967,-2.796 17.012,-16.753 17.756,-23.94 0,0 -5.556,0.37 -7.229,2.043 -3.34,3.068 -8.657,3.381 -10.002,3.371 -5.092,-0.041 -10.608,-1.631 -14.969,-2.119 -4.355,-0.488 -7.833,-0.119 -9.788,0.107 2.73,-2.175 7.152,-3.57 11.351,-3.566 4.999,0.006 13.427,2.34 16.445,2.339 3.798,0 6.665,-1.559 6.864,-1.651 -8.34,-6.742 -14.899,-7.153 -22.886,-10.624 -2.572,-1.11 -13.989,-19.074 -8.443,-34.902 7.65,-21.83 24.363,-49.307 21.34,-94.057 -0.145,-2.146 -0.481,-4.183 -0.915,-6.053 l -84.683,84.685 c 1.228,3.387 2.338,7.292 3.412,12.366 -4.191,-1.547 -7.445,-3.329 -10.11,-5.669 0.878,15.272 9.248,21.763 13.247,37.541 -1.732,-0.739 -4.332,-2.16 -7.127,-2.16 -0.735,0 -1.485,0.098 -2.236,0.334 6.01,7.962 8.53,20.354 28.434,40.24 7.893,7.888 17.713,10.948 26.639,10.948"
             style="fill:#ffffff;fill-opacity:1;fill-rule:nonzero;stroke:none"
             id="path102" /></g><g
           id="g104"
           transform="translate(124.8754,299.187)"><path
             d="m 0,0 v -34.658 c 4.965,0.383 9.91,0.374 14.795,-0.002 V 6.012 C 10.48,3.533 0.955,0.338 0,0"
             style="fill:#f6a119;fill-opacity:1;fill-rule:nonzero;stroke:none"
             id="path106" /></g><g
           id="g108"
           transform="translate(132.2728,399.3819)"><path
             d="m 0,0 -7.397,-7.397 v -45.135 c 2.402,-0.187 11.154,-0.431 14.795,-3.858 v 48.992 z"
             style="fill:#f6a119;fill-opacity:1;fill-rule:nonzero;stroke:none"
             id="path110" /></g><g
           id="g112"
           transform="translate(209.4657,322.1895)"><path
             d="m 0,0 -36.563,-66.337 c 4.479,-2.071 8.798,-4.483 12.918,-7.214 l 34.536,62.66 z"
             style="fill:#f6a119;fill-opacity:1;fill-rule:nonzero;stroke:none"
             id="path114" /></g><g
           id="g116"
           transform="translate(175.537,356.1177)"><path
             d="m 0,0 -24.936,-93.062 c 4.862,-0.941 9.631,-2.257 14.268,-3.918 l 22.749,84.9 z"
             style="fill:#f6a119;fill-opacity:1;fill-rule:nonzero;stroke:none"
             id="path118" /></g><g
           id="g120"
           transform="translate(190.8344,226.1084)"><path
             d="m 0,0 c -2.81,2.821 -26.54,27.06 -65.295,24.082 7.58,-19.037 15.097,-43.908 12.897,-76.48 z"
             style="fill:#f6a119;fill-opacity:1;fill-rule:nonzero;stroke:none"
             id="path122" /></g><g
           id="g124"
           transform="translate(239.246,293.6045)"><path
             d="m 0,0 -47.841,-47.841 c 3.48,-2.653 6.793,-5.545 9.903,-8.669 L 9.286,-9.286 Z"
             style="fill:#f6a119;fill-opacity:1;fill-rule:nonzero;stroke:none"
             id="path126" /></g><g
           id="g128"
           transform="translate(283.4647,566.9292)"><path
             d="M 0,0 -132.273,-132.273 0,-264.546 132.273,-132.273 Z"
             style="fill:#afca0b;fill-opacity:1;fill-rule:nonzero;stroke:none"
             id="path130" /></g><g
           id="g132"
           transform="translate(288.1302,396.7583)"><path
             d="m 0,0 h -1.686 v -57.122 c 4.768,4.322 13.587,13.801 13.587,24.82 0,5.124 -1.913,9.918 -4.436,14.017 C 4.273,-12.618 1.625,-6.474 0,0"
             style="fill:#ffffff;fill-opacity:1;fill-rule:nonzero;stroke:none"
             id="path134" /></g><g
           id="g136"
           transform="translate(278.7977,396.7583)"><path
             d="m 0,0 c -1.625,-6.474 -4.274,-12.618 -7.467,-18.285 -2.521,-4.099 -4.435,-8.893 -4.435,-14.017 0,-11.021 8.822,-20.502 13.589,-24.823 L 1.687,0 Z"
             style="fill:#85a315;fill-opacity:1;fill-rule:nonzero;stroke:none"
             id="path138" /></g><g
           id="g140"
           transform="translate(253.4022,482.5987)"><path
             d="m 0,0 c 0,-11.928 5.701,-22.87 12.139,-31.424 6.353,-8.906 11.928,-19.495 14.064,-31.019 h 0.879 V 47.178 C 19.501,40.748 0,22.066 0,0"
             style="fill:#85a315;fill-opacity:1;fill-rule:nonzero;stroke:none"
             id="path142" /></g><g
           id="g144"
           transform="translate(287.3246,420.1553)"><path
             d="m 0,0 c 2.133,11.524 7.708,22.114 14.063,31.019 6.438,8.555 12.138,19.497 12.138,31.424 0,22.06 -19.496,40.742 -27.081,47.177 L -0.88,0 Z"
             style="fill:#ffffff;fill-opacity:1;fill-rule:nonzero;stroke:none"
             id="path146" /></g><g
           id="g148"
           transform="translate(273.8641,396.7583)"><path
             d="m 0,0 h -3.537 c -2.682,0 -5.132,0.999 -7.015,2.633 -1.462,-3.555 -3.645,-6.663 -6.328,-9.063 -0.699,-0.57 -1.622,-0.936 -2.549,-0.936 -2.341,0 -4.237,2.134 -4.237,4.765 0,1.16 0.356,2.231 0.967,3.058 -1.41,0.726 -2.989,1.139 -4.64,1.139 -6.142,0 -11.12,-5.6 -11.12,-12.511 0,-2.911 0.884,-5.59 2.366,-7.714 2.994,-4.409 7.616,-7.34 12.859,-7.661 6.891,0.373 12.954,4.296 16.776,10.18 C -3.568,-11.241 -1.367,-5.812 0,0"
             style="fill:#85a315;fill-opacity:1;fill-rule:nonzero;stroke:none"
             id="path150" /></g><g
           id="g152"
           transform="translate(232.9271,424.4473)"><path
             d="m 0,0 c 0.963,6.17 5.982,10.397 11.432,9.813 9.06,-0.419 16.696,-7.035 19.655,-16.181 1.774,1.299 3.953,2.076 6.313,2.076 h 4.383 C 39.548,9.83 32.442,22.055 22.485,30.104 17.167,34.95 10.709,38.382 3.489,39.809 -10.031,42.477 -22.917,32.308 -25.288,17.095 -27.66,1.883 -18.622,-12.612 -5.101,-15.282 -0.326,-16.224 4.398,-15.644 8.58,-13.727 2.814,-12.588 -1.01,-6.486 0,0"
             style="fill:#85a315;fill-opacity:1;fill-rule:nonzero;stroke:none"
             id="path154" /></g><g
           id="g156"
           transform="translate(359.2894,441.5425)"><path
             d="M 0,0 C -2.372,15.213 -15.257,25.382 -28.779,22.713 -35.997,21.287 -42.456,17.855 -47.773,13.009 -57.731,4.96 -64.838,-7.265 -67.072,-21.387 h 4.383 c 2.361,0 4.539,-0.778 6.313,-2.076 2.959,9.146 10.595,15.761 19.656,16.18 5.449,0.585 10.469,-3.642 11.432,-9.812 1.01,-6.486 -2.815,-12.588 -8.58,-13.727 4.182,-1.917 8.905,-2.497 13.681,-1.555 C -6.665,-29.708 2.372,-15.212 0,0"
             style="fill:#ffffff;fill-opacity:1;fill-rule:nonzero;stroke:none"
             id="path158" /></g><g
           id="g160"
           transform="translate(320.4037,398.3545)"><path
             d="m 0,0 c -1.651,0 -3.232,-0.414 -4.642,-1.14 0.613,-0.826 0.968,-1.897 0.968,-3.057 0,-2.632 -1.896,-4.765 -4.237,-4.765 -0.926,0 -1.85,0.366 -2.548,0.936 -2.684,2.4 -4.867,5.507 -6.329,9.063 -1.883,-1.634 -4.333,-2.633 -7.016,-2.633 h -3.535 c 1.366,-5.813 3.568,-11.241 6.456,-16.11 3.824,-5.884 9.886,-9.807 16.778,-10.18 5.24,0.321 9.864,3.252 12.858,7.66 1.483,2.125 2.367,4.804 2.367,7.715 C 11.12,-5.601 6.142,0 0,0"
             style="fill:#ffffff;fill-opacity:1;fill-rule:nonzero;stroke:none"
             id="path162" /></g><g
           id="g164"
           transform="translate(270.327,416.8443)"><path
             d="m 0,0 c -4.072,0 -7.405,-3.333 -7.405,-7.406 v -1.963 c 0,-4.073 3.333,-7.407 7.405,-7.407 H 10.157 V 0 Z"
             style="fill:#85a315;fill-opacity:1;fill-rule:nonzero;stroke:none"
             id="path166" /></g><g
           id="g168"
           transform="translate(296.6,400.0684)"><path
             d="M 0,0 C 4.074,0 7.406,3.334 7.406,7.407 V 9.37 c 0,4.073 -3.332,7.406 -7.406,7.406 H -10.155 V 0 Z"
             style="fill:#ffffff;fill-opacity:1;fill-rule:nonzero;stroke:none"
             id="path170" /></g></g></g></g></svg>
