<?xml version="1.0" encoding="UTF-8" standalone="no"?>
<!-- Created with Inkscape (http://www.inkscape.org/) -->

<svg
   xmlns:dc="http://purl.org/dc/elements/1.1/"
   xmlns:cc="http://creativecommons.org/ns#"
   xmlns:rdf="http://www.w3.org/1999/02/22-rdf-syntax-ns#"
   xmlns:svg="http://www.w3.org/2000/svg"
   xmlns="http://www.w3.org/2000/svg"
   xmlns:sodipodi="http://sodipodi.sourceforge.net/DTD/sodipodi-0.dtd"
   xmlns:inkscape="http://www.inkscape.org/namespaces/inkscape"
   width="81.499878mm"
   height="81.499878mm"
   viewBox="0 0 81.499878 81.499878"
   version="1.1"
   id="svg2826"
   inkscape:version="0.92.4 (5da689c313, 2019-01-14)"
   sodipodi:docname="sim_metodyka_zuch.svg">
  <defs
     id="defs2820">
    <clipPath
       id="clipPath2352"
       clipPathUnits="userSpaceOnUse">
      <path
         inkscape:connector-curvature="0"
         id="path2350"
         d="M 430.963,704.506 H 560.028 V 819.579 H 430.963 Z" />
    </clipPath>
    <clipPath
       id="clipPath1325"
       clipPathUnits="userSpaceOnUse">
      <path
         inkscape:connector-curvature="0"
         id="path1323"
         d="M 430.963,704.506 H 560.028 V 819.579 H 430.963 Z" />
    </clipPath>
    <clipPath
       id="clipPath3567"
       clipPathUnits="userSpaceOnUse">
      <path
         inkscape:connector-curvature="0"
         id="path3565"
         d="M 205.612,534.441 103.259,432.087 v -8.11 L 207.221,320.013 h 6.502 l 103.963,103.964 v 8.11 L 215.332,534.441 Z" />
    </clipPath>
  </defs>
  <sodipodi:namedview
     id="base"
     pagecolor="#ffffff"
     bordercolor="#666666"
     borderopacity="1.0"
     inkscape:pageopacity="0.0"
     inkscape:pageshadow="2"
     inkscape:zoom="0.35"
     inkscape:cx="430.05867"
     inkscape:cy="359.30112"
     inkscape:document-units="mm"
     inkscape:current-layer="layer1"
     showgrid="false"
     fit-margin-top="0"
     fit-margin-left="0"
     fit-margin-right="0"
     fit-margin-bottom="0"
     inkscape:window-width="1920"
     inkscape:window-height="1027"
     inkscape:window-x="1912"
     inkscape:window-y="-8"
     inkscape:window-maximized="1" />
  <metadata
     id="metadata2823">
    <rdf:RDF>
      <cc:Work
         rdf:about="">
        <dc:format>image/svg+xml</dc:format>
        <dc:type
           rdf:resource="http://purl.org/dc/dcmitype/StillImage" />
        <dc:title></dc:title>
      </cc:Work>
    </rdf:RDF>
  </metadata>
  <g
     inkscape:label="Layer 1"
     inkscape:groupmode="layer"
     id="layer1"
     transform="translate(130.79529,-162.39855)">
    <g
       transform="translate(68.601049,-78.035964)"
       id="g3739">
      <g
         transform="matrix(0.35277777,0,0,-0.35277777,-158.64651,243.64572)"
         id="g3557">
        <path
           inkscape:connector-curvature="0"
           id="path3559"
           style="fill:#f4bd18;fill-opacity:1;fill-rule:nonzero;stroke:none"
           d="M 0,0 -107.213,-107.213 0,-214.428 107.214,-107.213 Z" />
      </g>
      <g
         transform="matrix(0.35277777,0,0,-0.35277777,-232.89642,432.18452)"
         id="g3561">
        <g
           clip-path="url(#clipPath3567)"
           id="g3563">
          <g
             transform="translate(183.9557,361.2198)"
             id="g3569">
            <path
               inkscape:connector-curvature="0"
               id="path3571"
               style="fill:#ffffff;fill-opacity:1;fill-rule:nonzero;stroke:none"
               d="m 0,0 c 2.755,6.058 6.215,9.616 11.188,14.496 -0.193,0.019 -0.386,0.028 -0.578,0.028 -3.016,0 -5.834,-2.279 -6.825,-3.647 -0.184,3.868 -0.549,7.801 -2.419,11.742 z m -15.21,39.757 c -2.464,4.225 -4.917,6.352 -7.704,8.022 5.242,-8.272 6.91,-15.951 6.929,-24.295 3.991,7.649 4.721,23.628 7.18,28.867 -3.618,-3.519 -4.247,-8.645 -6.405,-12.594 m -2.282,60.911 c 8.294,0.374 12.755,3.321 12.909,3.405 0.194,-2.998 3.146,-5.053 6.055,-5.053 2.85,0 5.658,1.973 5.785,6.968 2.32,-0.178 4.68,-0.428 7.115,-0.438 -2.546,1.349 -8.094,3.819 -13.174,3.819 -3.809,0 -6.706,-2.083 -7.828,-2.859 -2.357,-1.632 -10.882,-5.842 -10.862,-5.842 m 16.13,17.493 c 6.347,0 14.6,-2.809 18.204,-6.657 0.359,-1.288 0.65,-2.612 0.644,-3.805 -0.004,-0.585 -0.182,-1.132 -0.408,-1.275 -0.11,-0.077 -0.903,0.158 -3.685,-2.23 -1.232,-1.057 -2.812,-3.319 -2.377,-4.887 2.453,4.378 6.055,4.937 6.317,5.045 1.954,0.803 1.63,2.81 1.471,3.51 -0.368,1.619 -1.528,3.123 -1.962,3.642 1.665,0.199 5.512,-0.19 8.463,-0.827 10.511,-2.266 13.789,-13.579 14.393,-19.404 0,0 -4.504,0.299 -5.86,1.656 -2.707,2.486 -7.016,2.74 -8.108,2.731 -4.126,-0.032 -8.598,-1.321 -12.132,-1.717 -3.53,-0.395 -6.35,-0.096 -7.934,0.087 2.213,-1.763 5.797,-2.894 9.201,-2.89 4.052,0.005 10.883,1.896 13.329,1.896 3.079,0 5.403,-1.264 5.564,-1.339 C 26.997,86.233 21.681,85.9 15.207,83.087 13.123,82.186 3.869,67.625 8.364,54.797 14.565,37.103 28.112,14.83 25.661,-21.442 c -0.117,-1.739 -0.39,-3.39 -0.742,-4.905 l -68.64,68.64 c 0.996,2.746 1.896,5.911 2.767,10.024 -3.398,-1.254 -6.035,-2.699 -8.195,-4.595 0.711,12.379 7.496,17.64 10.737,30.428 -1.404,-0.598 -3.511,-1.75 -5.777,-1.75 -0.596,0 -1.204,0.08 -1.812,0.27 4.871,6.454 6.914,16.498 23.047,32.617 6.397,6.394 14.357,8.874 21.592,8.874" />
          </g>
          <g
             transform="translate(204.4764,439.9711)"
             id="g3573">
            <path
               inkscape:connector-curvature="0"
               id="path3575"
               style="fill:#f7961d;fill-opacity:1;fill-rule:nonzero;stroke:none"
               d="m 0,0 v -28.092 c 4.025,0.31 8.032,0.304 11.992,-0.002 V 4.873 C 8.494,2.863 0.773,0.274 0,0" />
          </g>
          <g
             transform="translate(210.4725,521.1841)"
             id="g3577">
            <path
               inkscape:connector-curvature="0"
               id="path3579"
               style="fill:#f7961d;fill-opacity:1;fill-rule:nonzero;stroke:none"
               d="M 0,0 -5.996,-5.996 V -42.58 c 1.947,-0.151 9.041,-0.35 11.992,-3.126 v 39.71 z" />
          </g>
          <g
             transform="translate(273.0412,458.6156)"
             id="g3581">
            <path
               inkscape:connector-curvature="0"
               id="path3583"
               style="fill:#f7961d;fill-opacity:1;fill-rule:nonzero;stroke:none"
               d="m 0,0 -29.636,-53.77 c 3.63,-1.678 7.131,-3.634 10.47,-5.847 L 8.828,-8.828 Z" />
          </g>
          <g
             transform="translate(245.5403,486.1163)"
             id="g3585">
            <path
               inkscape:connector-curvature="0"
               id="path3587"
               style="fill:#f7961d;fill-opacity:1;fill-rule:nonzero;stroke:none"
               d="m 0,0 -20.212,-75.432 c 3.941,-0.763 7.806,-1.829 11.565,-3.175 L 9.792,-9.792 Z" />
          </g>
          <g
             transform="translate(257.9394,380.7369)"
             id="g3589">
            <path
               inkscape:connector-curvature="0"
               id="path3591"
               style="fill:#f7961d;fill-opacity:1;fill-rule:nonzero;stroke:none"
               d="m 0,0 c -2.277,2.287 -21.512,21.933 -52.925,19.52 6.144,-15.431 12.237,-35.59 10.453,-61.991 z" />
          </g>
          <g
             transform="translate(297.1794,435.446)"
             id="g3593">
            <path
               inkscape:connector-curvature="0"
               id="path3595"
               style="fill:#f7961d;fill-opacity:1;fill-rule:nonzero;stroke:none"
               d="m 0,0 -38.777,-38.777 c 2.82,-2.151 5.505,-4.494 8.026,-7.027 L 7.526,-7.527 Z" />
          </g>
        </g>
      </g>
      <g
         transform="matrix(0.35277777,0,0,-0.35277777,-158.6464,241.93122)"
         id="g3597">
        <path
           inkscape:connector-curvature="0"
           id="path3599"
           style="fill:none;stroke:#ffffff;stroke-width:6;stroke-linecap:butt;stroke-linejoin:miter;stroke-miterlimit:4;stroke-dasharray:none;stroke-opacity:1"
           d="M 0,0 -111.269,-111.269 0,-222.538 111.269,-111.269 Z" />
      </g>
    </g>
  </g>
</svg>
