<svg id="Warstwa_1" data-name="Warstwa 1" xmlns="http://www.w3.org/2000/svg" viewBox="0 0 105.48 94.04"><defs><style>.cls-1{fill:#5d2f88;}.cls-2{fill:#382259;}.cls-3{fill:#f0ae00;}.cls-4{fill:#fff;}.cls-5{fill:#c90c0f;}</style></defs><title>tropy-zuchowe-znaczki-popr-krz</title><path class="cls-1" d="M53.15,92.49a8.54,8.54,0,0,1-7.47-4.31L3.13,14.48A8.63,8.63,0,0,1,10.59,1.54H95.7a8.63,8.63,0,0,1,7.47,12.94L60.62,88.18a8.54,8.54,0,0,1-7.47,4.31"/><path class="cls-2" d="M95.7,3.09a7.08,7.08,0,0,1,6.13,10.62L59.28,87.41a7.08,7.08,0,0,1-12.26,0L4.46,13.71A7.08,7.08,0,0,1,10.59,3.09H95.7M95.7,0H10.59a10.17,10.17,0,0,0-8.8,15.25L44.34,89A10.16,10.16,0,0,0,62,89l42.56-73.7A10.17,10.17,0,0,0,95.7,0"/><path class="cls-1" d="M53.15,92.49a8.54,8.54,0,0,1-7.47-4.31L3.13,14.48A8.63,8.63,0,0,1,10.59,1.54H95.7a8.63,8.63,0,0,1,7.47,12.94L60.62,88.18a8.54,8.54,0,0,1-7.47,4.31"/><path class="cls-2" d="M95.7,3.09a7.08,7.08,0,0,1,6.13,10.62L59.28,87.41a7.08,7.08,0,0,1-12.26,0L4.46,13.71A7.08,7.08,0,0,1,10.59,3.09H95.7M95.7,0H10.59a10.17,10.17,0,0,0-8.8,15.25L44.34,89A10.16,10.16,0,0,0,62,89l42.56-73.7A10.17,10.17,0,0,0,95.7,0"/><path class="cls-3" d="M64.28,40.83c0,5.75-5.17,10.41-11.54,10.41S41.2,46.58,41.2,40.83s5.17-10.4,11.54-10.4,11.54,4.66,11.54,10.4"/><path class="cls-4" d="M39.39,65.12A18,18,0,0,1,35.67,55a3,3,0,0,1-2.56-1.58,3.59,3.59,0,0,1,.72-3.22c-1.24-1.87,1-3.59,3.06-6,1.27-1.47,2.71-6.13,2.71-6.13l3.31-2s-.42,1.77-.48,2.12a11.83,11.83,0,0,0,.2,5.11c1.46,4.92,6.34,5.48,10.11,5.29s7.79-1.23,9.48-4.42a16.7,16.7,0,0,0,1-6.09c0-.24-.24-1.85-.24-1.85l2.9,1.87s1.47,4.64,2.71,6.13c.29.35,2.77,2.7,3.19,3.61a2.37,2.37,0,0,1-.13,2.39,3.72,3.72,0,0,1,.75,3.16A2.94,2.94,0,0,1,69.82,55h0c-.11,2.22-1.06,10.06-8.59,14.2-2.11,1.16-6.28,1.7-8.47,1.7A19.41,19.41,0,0,1,39.39,65.12Z"/><path class="cls-5" d="M53.07,36.22a37.43,37.43,0,0,0-13.89,3.11s1-4.74,1.26-5.56C42.83,25,51.31,9.42,51.4,9.27a2.93,2.93,0,0,1,1-.87,2,2,0,0,1,.81-.17,2.07,2.07,0,0,1,1.36.51c7.75,6.7,11.77,30.59,11.77,30.59S57.3,36.22,53.07,36.22Z"/><path class="cls-1" d="M50.2,41a2.84,2.84,0,1,1-2.84-2.83A2.84,2.84,0,0,1,50.2,41"/><path class="cls-1" d="M61,41a2.84,2.84,0,1,1-2.83-2.83A2.84,2.84,0,0,1,61,41"/><path class="cls-4" d="M61.22,45.14a1.61,1.61,0,0,0-.4.07,20,20,0,0,1-3.43,1.25,5.58,5.58,0,0,1-.73,0,17.49,17.49,0,0,1-4-.67,17.75,17.75,0,0,1-4,.67,5.58,5.58,0,0,1-.73,0,19.63,19.63,0,0,1-3.42-1.25,1.76,1.76,0,0,0-.41-.07c-.61,0-.76.62-.74,1.25a4.49,4.49,0,0,0,1.36,2.84,5.48,5.48,0,0,0,4,1.87,5.42,5.42,0,0,0,4-2,5.1,5.1,0,0,0,8,.08A4.49,4.49,0,0,0,62,46.39C62,45.76,61.83,45.14,61.22,45.14Z"/><path class="cls-1" d="M42.7,43.5a4.59,4.59,0,0,0-.57.45,3.3,3.3,0,0,0-.81,2.53,6.39,6.39,0,0,0,1.91,4.14,7.46,7.46,0,0,0,5.4,2.48,7,7,0,0,0,4-1.3,7,7,0,0,0,4,1.3A7.44,7.44,0,0,0,62,50.62,6.46,6.46,0,0,0,64,46.48,3.33,3.33,0,0,0,63.14,44a4.58,4.58,0,0,0-.65-.49,3.56,3.56,0,0,1-1.27,1.68c.61,0,.76.62.74,1.25a4.49,4.49,0,0,1-1.36,2.84,5.1,5.1,0,0,1-8-.08,5.42,5.42,0,0,1-4,2,5.48,5.48,0,0,1-4-1.87,4.49,4.49,0,0,1-1.36-2.84,1.5,1.5,0,0,1,.27-1.06.63.63,0,0,1,.47-.19A2.74,2.74,0,0,1,42.7,43.5Z"/></svg>