<svg id="Warstwa_1" data-name="Warstwa 1" xmlns="http://www.w3.org/2000/svg" viewBox="0 0 105.48 94.04"><defs><style>.cls-1{fill:#5d2f88;}.cls-2{fill:#382259;}.cls-3{fill:#fff;}.cls-4{fill:#f0ae00;}</style></defs><title>tropy-zuchowe-znaczki-popr-krz</title><path class="cls-1" d="M52.74,92.49a8.54,8.54,0,0,1-7.47-4.31L2.72,14.48A8.63,8.63,0,0,1,10.19,1.54h85.1a8.63,8.63,0,0,1,7.47,12.94L60.21,88.18a8.54,8.54,0,0,1-7.47,4.31"/><path class="cls-2" d="M95.29,3.09a7.08,7.08,0,0,1,6.13,10.62L58.87,87.41a7.08,7.08,0,0,1-12.26,0L4.06,13.71A7.08,7.08,0,0,1,10.19,3.09h85.1m0-3.09H10.19A10.17,10.17,0,0,0,1.38,15.25L43.93,89a10.16,10.16,0,0,0,17.61,0l42.56-73.7A10.17,10.17,0,0,0,95.29,0"/><path class="cls-3" d="M52.69,24.88a29.77,29.77,0,0,0-7.24-.39,3.39,3.39,0,0,0-2.87,3.69,5.76,5.76,0,0,1,5.86,4.45s8.3.14,9.15,5.55c0,0,.48,3.79-4.67,1.31,0,0-2.89-1.55-5-.19,1.31.75,3.42,1.84,3.95,2.51A5,5,0,0,1,53,46.37c-.79,3.1-3.3,5.14-5.68,6.4a2,2,0,0,0,1.07,2.47c-.61,1-5.8,6.84-8.44,12l8.58,14.87a4.88,4.88,0,0,0,8.45,0L67.72,63.44a3.06,3.06,0,0,1-2-1.54c-1.07-2.27.69-11.85.87-14.15.38-4.79,2-11.69-.61-15.11.43-.3,1.81-4.59.82-5.18-.35,1.3-3,1.09-3.59.16,1.67-.47,1.93-3.79.31-4.51a3.87,3.87,0,0,1-2.15,2.36S60.73,26.49,52.69,24.88Zm-1.4,6.63c-3.1-.52-3.46-2.73-3.22-5.27,0,0,7.81,2.3,7.77,2.58A4.23,4.23,0,0,1,51.29,31.51Z"/><path class="cls-3" d="M36.58,61.41a5.06,5.06,0,0,0,.93-1A10.36,10.36,0,0,0,39,54c-.27-4.77-3.1-8.87-5.38-11.73a49.55,49.55,0,0,0-8.51-8.61A40.39,40.39,0,0,0,18,29.27Z"/><path class="cls-3" d="M78.26,37.57C75,41.08,71.55,45.3,69.91,50.48c-.89,2.82-1.2,6.22.1,8.87l0,.06L86.36,31.15A34,34,0,0,0,78.26,37.57Z"/><path class="cls-3" d="M53.64,37.86s1.55.22.78-1c0,0-2.25-3.34-9.53-1.17-2.08.36-3.93,2-6.35,2a4.35,4.35,0,0,1-2.77-1.28,2.49,2.49,0,0,0,.51,2.41c2.39,2.4,7.75.22,10.61-.31C46.89,38.53,48,35,53.64,37.86Z"/><path class="cls-1" d="M51.29,31.51a4.23,4.23,0,0,0,4.55-2.69c0-.28-7.77-2.58-7.77-2.58C47.83,28.78,48.19,31,51.29,31.51Z"/><path class="cls-4" d="M52.92,39.49c5.15,2.48,4.67-1.31,4.67-1.31-.85-5.41-9.15-5.55-9.15-5.55a5.76,5.76,0,0,0-5.86-4.45C40,28.3,38,29.24,37.77,31.72a9.17,9.17,0,0,0,.82,3.94,5,5,0,0,1,3.89-1.53,3,3,0,0,1,2.41,1.58c7.28-2.17,9.53,1.17,9.53,1.17.77,1.2-.78,1-.78,1-5.68-2.88-6.75.67-6.75.67-.15.3-.16.9.1,1.08a.75.75,0,0,0,.73-.15L48,39.3C50,37.94,52.92,39.49,52.92,39.49Z"/><path class="cls-4" d="M40.43,11.48s3.68,8.34,5,13a29.77,29.77,0,0,1,7.24.39c8,1.61,8.65.59,8.65.59.68-2.68,5.38-14.35,5.38-14.35l-8.41,3.43L53.24,8l-4.76,7.1Z"/></svg>