<svg id="Warstwa_1" data-name="Warstwa 1" xmlns="http://www.w3.org/2000/svg" viewBox="0 0 105.48 94.04"><defs><style>.cls-1{fill:#5d2f88;}.cls-2{fill:#382259;}.cls-3{fill:#f8c409;}</style></defs><title>tropy-zuchowe-znaczki-popr-krz</title><path class="cls-1" d="M52.74,92.49a8.54,8.54,0,0,1-7.47-4.31L2.72,14.48A8.63,8.63,0,0,1,10.19,1.54h85.1a8.63,8.63,0,0,1,7.47,12.94L60.21,88.18a8.54,8.54,0,0,1-7.47,4.31"/><path class="cls-2" d="M95.29,3.09a7.08,7.08,0,0,1,6.13,10.62L58.87,87.41a7.08,7.08,0,0,1-12.26,0L4.06,13.71A7.08,7.08,0,0,1,10.19,3.09h85.1m0-3.09H10.19A10.17,10.17,0,0,0,1.38,15.25L43.93,89a10.16,10.16,0,0,0,17.61,0l42.56-73.7A10.17,10.17,0,0,0,95.29,0"/><path class="cls-3" d="M53.05,7.54l.75,2.27,2.4,0a.32.32,0,0,1,.19.58l-1.93,1.43.73,2.28a.33.33,0,0,1-.5.36l-1.95-1.39-2,1.39a.33.33,0,0,1-.5-.36L51,11.84l-1.93-1.43a.32.32,0,0,1,.19-.58l2.39,0,.76-2.27A.33.33,0,0,1,53.05,7.54Z"/><path class="cls-3" d="M53.05,56.37l.75,2.28h2.4a.33.33,0,0,1,.19.59l-1.93,1.42L55.19,63a.33.33,0,0,1-.5.36l-1.95-1.4-2,1.4a.33.33,0,0,1-.5-.36L51,60.67l-1.93-1.42a.33.33,0,0,1,.19-.59h2.39l.76-2.28A.33.33,0,0,1,53.05,56.37Z"/><path class="cls-3" d="M77.46,32l.76,2.28,2.4,0a.32.32,0,0,1,.19.58l-1.93,1.42.72,2.29a.32.32,0,0,1-.49.36l-2-1.39-2,1.39a.32.32,0,0,1-.5-.36l.72-2.29L73.5,34.83a.32.32,0,0,1,.19-.58l2.4,0L76.85,32A.32.32,0,0,1,77.46,32Z"/><path class="cls-3" d="M28.63,32l.76,2.28,2.39,0a.32.32,0,0,1,.19.58L30,36.25l.73,2.29a.33.33,0,0,1-.5.36l-1.95-1.39L26.37,38.9a.33.33,0,0,1-.5-.36l.73-2.29-1.93-1.42a.32.32,0,0,1,.19-.58l2.4,0L28,32A.33.33,0,0,1,28.63,32Z"/><path class="cls-3" d="M32.29,19.2l.76,2.28,2.4,0a.32.32,0,0,1,.19.58L33.71,23.5l.72,2.29a.32.32,0,0,1-.49.36L32,24.76,30,26.15a.32.32,0,0,1-.5-.36l.72-2.29-1.93-1.42a.32.32,0,0,1,.19-.58l2.4,0,.76-2.28A.32.32,0,0,1,32.29,19.2Z"/><path class="cls-3" d="M74.59,43.62l.75,2.27,2.4,0a.33.33,0,0,1,.19.59L76,47.92l.73,2.29a.33.33,0,0,1-.5.36l-2-1.4-2,1.4a.33.33,0,0,1-.5-.36l.73-2.29L70.63,46.5a.33.33,0,0,1,.19-.59l2.39,0L74,43.62A.33.33,0,0,1,74.59,43.62Z"/><path class="cls-3" d="M65.65,10.27l.76,2.27,2.39,0a.32.32,0,0,1,.19.58l-1.93,1.43.73,2.28a.33.33,0,0,1-.5.36l-2-1.39-2,1.39a.32.32,0,0,1-.49-.36l.72-2.28-1.93-1.43a.32.32,0,0,1,.19-.58l2.4,0L65,10.27A.33.33,0,0,1,65.65,10.27Z"/><path class="cls-3" d="M41.23,52.56,42,54.83l2.4,0a.32.32,0,0,1,.19.58l-1.93,1.43.72,2.28a.32.32,0,0,1-.5.36l-1.95-1.39L39,59.5a.32.32,0,0,1-.49-.36l.72-2.28-1.93-1.43a.32.32,0,0,1,.19-.58l2.4,0,.76-2.27A.32.32,0,0,1,41.23,52.56Z"/><path class="cls-3" d="M74,19.2l-.76,2.28-2.39,0a.32.32,0,0,0-.19.58l1.93,1.42-.73,2.29a.33.33,0,0,0,.5.36l2-1.39,2,1.39a.33.33,0,0,0,.5-.36L76,23.5l1.93-1.42a.32.32,0,0,0-.19-.58l-2.4,0-.75-2.28A.33.33,0,0,0,74,19.2Z"/><path class="cls-3" d="M31.68,43.62l-.76,2.27-2.4,0a.33.33,0,0,0-.19.59l1.93,1.42-.72,2.29a.33.33,0,0,0,.5.36L32,49.17l1.95,1.4a.32.32,0,0,0,.49-.36l-.72-2.29,1.93-1.42a.33.33,0,0,0-.19-.59l-2.4,0-.76-2.27A.32.32,0,0,0,31.68,43.62Z"/><path class="cls-3" d="M40.62,10.27l-.76,2.27-2.4,0a.32.32,0,0,0-.19.58l1.93,1.43-.72,2.28a.32.32,0,0,0,.49.36l2-1.39,1.95,1.39a.32.32,0,0,0,.5-.36l-.72-2.28,1.93-1.43a.32.32,0,0,0-.19-.58l-2.4,0-.76-2.27A.32.32,0,0,0,40.62,10.27Z"/><path class="cls-3" d="M65,52.56l-.75,2.27-2.4,0a.32.32,0,0,0-.19.58l1.93,1.43-.72,2.28a.32.32,0,0,0,.49.36l2-1.39,2,1.39a.33.33,0,0,0,.5-.36l-.73-2.28L69,55.43a.32.32,0,0,0-.19-.58l-2.39,0-.76-2.27A.33.33,0,0,0,65,52.56Z"/></svg>