<?xml version="1.0"?>
<svg width="170" height="250" xmlns="http://www.w3.org/2000/svg" xmlns:svg="http://www.w3.org/2000/svg" xmlns:xlink="http://www.w3.org/1999/xlink">
 <!-- Created with SVG-edit - https://github.com/SVG-Edit/svgedit-->

 <g class="layer">
  <title>Layer 1</title>
  <rect fill="#e20a17" height="250" id="svg_1" stroke="#e20a17" stroke-width="5" width="170" y="-1"/>
  <polygon cx="18" cy="93" fill="#ffffff" id="svg_2" orient="point" point="5" points="42.071990966796875,107.41146850585938 45.58900451660156,120.521240234375 59.14398193359375,119.81498718261719 47.76264953613281,127.21101379394531 52.62306213378906,139.88430786132812 42.071990966796875,131.34552001953125 31.520919799804688,139.88430786132812 36.38133239746094,127.21101379394531 25,119.81498718261719 38.554962158203125,120.521240234375 42.071990966796875,107.41146850585938 45.58900451660156,120.521240234375 " r="17.950549" r2="5.983516" radialshift="0" shape="star" starRadiusMultiplier="3" stroke="#ffffff" stroke-width="5" strokeWidth="5" strokecolor="#e5e5e5" x="0"/>
  <polygon cx="18" cy="93" fill="#ffffff" id="svg_5" orient="point" point="5" points="127.92800903320312,108.76358032226562 131.44503784179688,121.87335205078125 145,121.16709899902344 133.61868286132812,128.56312561035156 138.47909545898438,141.23641967773438 127.92800903320312,132.6976318359375 117.37692260742188,141.23641967773438 122.23733520507812,128.56312561035156 110.85601806640625,121.16709899902344 124.41098022460938,121.87335205078125 127.92800903320312,108.76358032226562 131.44503784179688,121.87335205078125 " r="17.950549" r2="5.983516" radialshift="0" shape="star" starRadiusMultiplier="3" stroke="#ffffff" stroke-width="5" strokeWidth="5" strokecolor="#e5e5e5" x="0" y="0"/>
  <image height="0" id="svg_10" width="0" x="155.00001" xlink:href="data:," y="126.408453"/>
 </g>
</svg>