<?xml version="1.0"?>
<svg width="400" height="100" xmlns="http://www.w3.org/2000/svg" xmlns:svg="http://www.w3.org/2000/svg">
 <!-- Created with SVG-edit - https://github.com/SVG-Edit/svgedit-->

 <g class="layer">
  <title>Layer 1</title>
  <rect fill="#f7c313" height="100" id="svg_1" stroke="#f7c313" stroke-width="5" width="400" x="0" y="0"/>
  <polygon cx="131" cy="22" fill="#ffffff" id="svg_4" orient="point" point="5" points="131.47918701171875,20.06151580810547 137.96426391601562,44.23474884033203 162.9583740234375,42.93250274658203 141.97222900390625,56.570106506347656 150.93438720703125,79.93848419189453 131.47918701171875,64.19376373291016 112.02398681640625,79.93848419189453 120.98611450195312,56.570106506347656 100,42.93250274658203 124.99411010742188,44.23474884033203 131.47918701171875,20.06151580810547 137.96426391601562,44.23474884033203 " r="33.099178" r2="11.033059" radialshift="0" shape="star" starRadiusMultiplier="3" stroke="#ffffff" stroke-width="5" strokeWidth="5" strokecolor="#000000"/>
  <polygon cx="131" cy="22" fill="#ffffff" id="svg_5" orient="point" point="5" points="268.52081298828125,20.061508178710938 275.0058898925781,44.2347412109375 300,42.9324951171875 279.01385498046875,56.570098876953125 287.97601318359375,79.9384765625 268.52081298828125,64.19375610351562 249.06561279296875,79.9384765625 258.0277404785156,56.570098876953125 237.0416259765625,42.9324951171875 262.0357360839844,44.2347412109375 268.52081298828125,20.061508178710938 275.0058898925781,44.2347412109375 " r="33.099178" r2="11.033059" radialshift="0" shape="star" starRadiusMultiplier="3" stroke="#ffffff" stroke-width="5" strokeWidth="5" strokecolor="#000000"/>
 </g>
</svg>