<?xml version="1.0"?>
<svg width="400" height="100" xmlns="http://www.w3.org/2000/svg" xmlns:svg="http://www.w3.org/2000/svg">
 <!-- Created with SVG-edit - https://github.com/SVG-Edit/svgedit-->

 <g class="layer">
  <title>Layer 1</title>
  <rect fill="#f7c313" height="100" id="svg_1" stroke="#f7c313" stroke-width="5" width="400" x="0" y="0"/>
  <polygon cx="131" cy="22" fill="#ffffff" id="svg_3" orient="point" point="5" points="200,20.06151294708252 206.48507690429688,44.234758377075195 231.47918701171875,42.93248176574707 210.49305725097656,56.57009315490723 219.45521545410156,79.9384880065918 200,64.1937484741211 180.5447998046875,79.9384880065918 189.50692749023438,56.57009315490723 168.52081298828125,42.93248176574707 193.51492309570312,44.234758377075195 200,20.06151294708252 206.48507690429688,44.234758377075195 " r="33.099178" r2="11.033059" radialshift="0" shape="star" starRadiusMultiplier="3" stroke="#ffffff" stroke-width="5" strokeWidth="5" strokecolor="#000000"/>
  <polygon cx="131" cy="22" fill="#ffffff" id="svg_4" orient="point" point="5" points="68.97918701171875,20.06151580810547 75.46426391601562,44.23474884033203 100.4583740234375,42.93250274658203 79.47222900390625,56.570106506347656 88.43438720703125,79.93848419189453 68.97918701171875,64.19376373291016 49.52398681640625,79.93848419189453 58.486114501953125,56.570106506347656 37.5,42.93250274658203 62.494110107421875,44.23474884033203 68.97918701171875,20.06151580810547 75.46426391601562,44.23474884033203 " r="33.099178" r2="11.033059" radialshift="0" shape="star" starRadiusMultiplier="3" stroke="#ffffff" stroke-width="5" strokeWidth="5" strokecolor="#000000"/>
  <polygon cx="131" cy="22" fill="#ffffff" id="svg_5" orient="point" point="5" points="331.02081298828125,20.061508178710938 337.5058898925781,44.2347412109375 362.5,42.9324951171875 341.51385498046875,56.570098876953125 350.47601318359375,79.9384765625 331.02081298828125,64.19375610351562 311.56561279296875,79.9384765625 320.5277404785156,56.570098876953125 299.5416259765625,42.9324951171875 324.5357360839844,44.2347412109375 331.02081298828125,20.061508178710938 337.5058898925781,44.2347412109375 " r="33.099178" r2="11.033059" radialshift="0" shape="star" starRadiusMultiplier="3" stroke="#ffffff" stroke-width="5" strokeWidth="5" strokecolor="#000000"/>
 </g>
</svg>