<?xml version="1.0" encoding="UTF-8"?>
<!DOCTYPE svg PUBLIC "-//W3C//DTD SVG 1.1//EN" "http://www.w3.org/Graphics/SVG/1.1/DTD/svg11.dtd">
<svg version="1.2" width="43.5mm" height="38.8mm" viewBox="0 0 4350 3880" preserveAspectRatio="xMidYMid" fill-rule="evenodd" stroke-width="28.222" stroke-linejoin="round" xmlns="http://www.w3.org/2000/svg" xmlns:ooo="http://xml.openoffice.org/svg/export" xmlns:xlink="http://www.w3.org/1999/xlink" xmlns:presentation="http://sun.com/xmlns/staroffice/presentation" xmlns:smil="http://www.w3.org/2001/SMIL20/" xmlns:anim="urn:oasis:names:tc:opendocument:xmlns:animation:1.0" xml:space="preserve">
 <defs class="ClipPathGroup">
  <clipPath id="presentation_clip_path" clipPathUnits="userSpaceOnUse">
   <rect x="0" y="0" width="4350" height="3880"/>
  </clipPath>
  <clipPath id="presentation_clip_path_shrink" clipPathUnits="userSpaceOnUse">
   <rect x="4" y="3" width="4342" height="3873"/>
  </clipPath>
 </defs>
 <defs class="TextShapeIndex">
  <g ooo:slide="id1" ooo:id-list="id3 id4 id5 id6 id7"/>
 </defs>
 <defs class="EmbeddedBulletChars">
  <g id="bullet-char-template-57356" transform="scale(0.00048828125,-0.00048828125)">
   <path d="M 580,1141 L 1163,571 580,0 -4,571 580,1141 Z"/>
  </g>
  <g id="bullet-char-template-57354" transform="scale(0.00048828125,-0.00048828125)">
   <path d="M 8,1128 L 1137,1128 1137,0 8,0 8,1128 Z"/>
  </g>
  <g id="bullet-char-template-10146" transform="scale(0.00048828125,-0.00048828125)">
   <path d="M 174,0 L 602,739 174,1481 1456,739 174,0 Z M 1358,739 L 309,1346 659,739 1358,739 Z"/>
  </g>
  <g id="bullet-char-template-10132" transform="scale(0.00048828125,-0.00048828125)">
   <path d="M 2015,739 L 1276,0 717,0 1260,543 174,543 174,936 1260,936 717,1481 1274,1481 2015,739 Z"/>
  </g>
  <g id="bullet-char-template-10007" transform="scale(0.00048828125,-0.00048828125)">
   <path d="M 0,-2 C -7,14 -16,27 -25,37 L 356,567 C 262,823 215,952 215,954 215,979 228,992 255,992 264,992 276,990 289,987 310,991 331,999 354,1012 L 381,999 492,748 772,1049 836,1024 860,1049 C 881,1039 901,1025 922,1006 886,937 835,863 770,784 769,783 710,716 594,584 L 774,223 C 774,196 753,168 711,139 L 727,119 C 717,90 699,76 672,76 641,76 570,178 457,381 L 164,-76 C 142,-110 111,-127 72,-127 30,-127 9,-110 8,-76 1,-67 -2,-52 -2,-32 -2,-23 -1,-13 0,-2 Z"/>
  </g>
  <g id="bullet-char-template-10004" transform="scale(0.00048828125,-0.00048828125)">
   <path d="M 285,-33 C 182,-33 111,30 74,156 52,228 41,333 41,471 41,549 55,616 82,672 116,743 169,778 240,778 293,778 328,747 346,684 L 369,508 C 377,444 397,411 428,410 L 1163,1116 C 1174,1127 1196,1133 1229,1133 1271,1133 1292,1118 1292,1087 L 1292,965 C 1292,929 1282,901 1262,881 L 442,47 C 390,-6 338,-33 285,-33 Z"/>
  </g>
  <g id="bullet-char-template-9679" transform="scale(0.00048828125,-0.00048828125)">
   <path d="M 813,0 C 632,0 489,54 383,161 276,268 223,411 223,592 223,773 276,916 383,1023 489,1130 632,1184 813,1184 992,1184 1136,1130 1245,1023 1353,916 1407,772 1407,592 1407,412 1353,268 1245,161 1136,54 992,0 813,0 Z"/>
  </g>
  <g id="bullet-char-template-8226" transform="scale(0.00048828125,-0.00048828125)">
   <path d="M 346,457 C 273,457 209,483 155,535 101,586 74,649 74,723 74,796 101,859 155,911 209,963 273,989 346,989 419,989 480,963 531,910 582,859 608,796 608,723 608,648 583,586 532,535 482,483 420,457 346,457 Z"/>
  </g>
  <g id="bullet-char-template-8211" transform="scale(0.00048828125,-0.00048828125)">
   <path d="M -4,459 L 1135,459 1135,606 -4,606 -4,459 Z"/>
  </g>
  <g id="bullet-char-template-61548" transform="scale(0.00048828125,-0.00048828125)">
   <path d="M 173,740 C 173,903 231,1043 346,1159 462,1274 601,1332 765,1332 928,1332 1067,1274 1183,1159 1299,1043 1357,903 1357,740 1357,577 1299,437 1183,322 1067,206 928,148 765,148 601,148 462,206 346,322 231,437 173,577 173,740 Z"/>
  </g>
 </defs>
 <defs class="TextEmbeddedBitmaps"/>
 <g>
  <g id="id2" class="Master_Slide">
   <g id="bg-id2" class="Background"/>
   <g id="bo-id2" class="BackgroundObjects"/>
  </g>
 </g>
 <g class="SlideGroup">
  <g>
   <g id="container-id1">
    <g id="id1" class="Slide" clip-path="url(#presentation_clip_path)">
     <g class="Page">
      <g class="com.sun.star.drawing.ClosedBezierShape">
       <g id="id3">
        <rect class="BoundingBox" stroke="none" fill="none" x="0" y="5" width="4347" height="3877"/>
        <path fill="rgb(240,158,25)" stroke="none" d="M 2540,3668 L 4287,641 C 4451,358 4246,5 3920,5 L 426,5 C 98,5 -106,358 57,641 L 1805,3668 C 1969,3951 2377,3951 2540,3668 Z"/>
       </g>
      </g>
      <g class="com.sun.star.drawing.ClosedBezierShape">
       <g id="id4">
        <rect class="BoundingBox" stroke="none" fill="none" x="114" y="101" width="4118" height="3660"/>
        <path fill="rgb(240,174,0)" stroke="none" d="M 2478,3583 L 4183,630 C 4319,395 4149,101 3877,101 L 468,101 C 196,101 26,395 162,630 L 1866,3583 C 2002,3818 2342,3818 2478,3583 Z"/>
       </g>
      </g>
      <g class="com.sun.star.drawing.ClosedBezierShape">
       <g id="id5">
        <rect class="BoundingBox" stroke="none" fill="none" x="1155" y="419" width="1992" height="2475"/>
        <path fill="rgb(33,181,230)" stroke="none" d="M 2281,731 C 2281,807 2219,869 2144,869 2068,869 2006,807 2006,731 2006,656 2068,594 2144,594 2219,594 2281,656 2281,731 Z M 3016,1753 L 2979,1659 2696,2013 2811,2030 C 2805,2234 2636,2398 2432,2398 2395,2398 2359,2393 2323,2383 L 2253,1170 2558,1170 2558,965 2350,965 C 2416,906 2455,821 2455,731 2455,559 2316,420 2144,420 1972,420 1832,559 1832,731 1832,821 1871,906 1938,965 L 1729,965 1729,1170 2034,1170 1959,2388 C 1931,2395 1902,2398 1873,2398 1667,2398 1499,2233 1494,2029 L 1602,2013 1320,1659 1155,2080 1287,2060 C 1332,2322 1499,2555 1734,2684 1856,2749 2148,2889 2151,2891 L 2156,2893 2161,2891 C 2163,2889 2392,2763 2494,2720 2767,2604 2968,2352 3018,2061 L 3145,2080 3016,1753 Z"/>
       </g>
      </g>
      <g class="com.sun.star.drawing.ClosedBezierShape">
       <g id="id6">
        <rect class="BoundingBox" stroke="none" fill="none" x="813" y="304" width="722" height="1197"/>
        <path fill="rgb(255,255,255)" stroke="none" d="M 1333,604 C 1333,603 1333,603 1332,603 1255,575 1202,505 1202,423 L 1202,363 C 1202,330 1174,304 1141,304 1109,304 1082,330 1082,363 L 1082,1174 C 1036,1174 982,1189 933,1221 834,1284 788,1387 829,1451 870,1515 983,1516 1082,1453 1149,1410 1192,1348 1199,1292 L 1202,1292 1202,1286 1202,1260 1202,650 C 1240,688 1281,698 1314,722 1393,778 1445,873 1445,974 1445,1060 1408,1137 1349,1190 1309,1226 1329,1236 1376,1205 1481,1133 1534,1062 1534,929 1534,778 1466,654 1333,604 Z"/>
       </g>
      </g>
      <g class="com.sun.star.drawing.ClosedBezierShape">
       <g id="id7">
        <rect class="BoundingBox" stroke="none" fill="none" x="2516" y="303" width="1045" height="1299"/>
        <path fill="rgb(255,255,255)" stroke="none" d="M 3555,304 L 3438,328 2899,440 2785,463 2783,463 2785,492 2785,1275 C 2738,1274 2685,1289 2635,1321 2536,1384 2490,1487 2531,1552 2573,1616 2685,1616 2784,1554 2852,1510 2894,1448 2901,1393 L 2904,1393 2904,1361 2904,665 3438,552 3438,1128 C 3392,1127 3339,1143 3289,1175 3190,1238 3144,1341 3185,1405 3227,1469 3339,1470 3438,1407 3505,1364 3548,1301 3554,1246 L 3557,1246 3557,1214 3557,376 3557,319 3560,303 3555,304 Z"/>
       </g>
      </g>
     </g>
    </g>
   </g>
  </g>
 </g>
</svg>