<?xml version="1.0"?>
<svg width="105.47" height="94.04" xmlns="http://www.w3.org/2000/svg" xmlns:svg="http://www.w3.org/2000/svg" xmlns:se="http://svg-edit.googlecode.com" data-name="Warstwa 1">
 <defs>
  <style>.cls-1{fill:#f0ae00;}.cls-2{fill:#f19e19;}.cls-3{fill:#fff;}.cls-4{fill:#ec6608;}.cls-5{fill:#c90c0f;}</style>
 </defs>
 <title>sprawnosci-zuchowe</title>
 <g class="layer">
  <title>Layer 1</title>
  <path class="cls-1" d="m52.74,92.49a8.54,8.54 0 0 1 -7.47,-4.31l-42.55,-73.7a8.62,8.62 0 0 1 7.46,-12.94l85.11,0a8.63,8.63 0 0 1 7.47,12.94l-42.56,73.7a8.53,8.53 0 0 1 -7.46,4.31" fill="black" id="svg_1"/>
  <path class="cls-2" d="m95.29,3.09a7.08,7.08 0 0 1 6.13,10.62l-42.55,73.7a7.08,7.08 0 0 1 -12.26,0l-42.56,-73.7a7.08,7.08 0 0 1 6.13,-10.62l85.11,0m0,-3.09l-85.11,0a10.17,10.17 0 0 0 -8.8,15.25l42.55,73.75a10.16,10.16 0 0 0 17.61,0l42.55,-73.7a10.06,10.06 0 0 0 0,-10.17a10,10 0 0 0 -8.8,-5.13" id="svg_2"/>
  <g id="svg_14">
   <g id="svg_15">
    <ellipse cx="53.40526" cy="39.51179" fill="#124093" id="svg_6" rx="25.98583" ry="27.63282"/>
    <path d="m53.19062,7.12744c-4.13033,0 -8.31477,-0.1546 -12.4335,-0.45864l-15.9828,-1.18138l0,28.41243c0,16.39764 9.04653,31.26476 23.61089,38.80009l4.8054,2.48644l4.8054,-2.48644c14.56308,-7.53534 23.61089,-22.40246 23.61089,-38.80009l0,-28.41243l-15.9828,1.18138c-4.11873,0.30404 -8.30188,0.45864 -12.4335,0.45864l0.00002,0zm15.24846,16.67333c-1.12083,1.5434 -3.06232,2.13216 -4.79123,1.61168l-1.55499,2.13989c1.33856,1.21617 2.42718,2.69515 3.17955,4.3648l2.97085,-0.96495c0.15589,-1.18009 0.9585,-2.2262 2.16565,-2.61785c1.67481,-0.54367 3.47329,0.37232 4.01696,2.04713s-0.37232,3.47329 -2.04713,4.01696c-1.15175,0.37361 -2.35246,0.04638 -3.17311,-0.73305l-3.03655,0.98685c0.18036,0.87348 0.27699,1.77658 0.27699,2.70417c0,0.9263 -0.09662,1.83069 -0.27699,2.70417l2.50061,0.81292c1.09249,-1.43647 3.0095,-2.10124 4.82344,-1.51248c2.29448,0.74593 3.55059,3.21047 2.80466,5.50496c-0.74593,2.29448 -3.21047,3.55059 -5.50496,2.80466c-1.81394,-0.59005 -2.97471,-2.25455 -3.01336,-4.05947l-2.50963,-0.8155c-0.75237,1.66965 -1.841,3.14992 -3.17955,4.3648l1.79977,2.47742c1.16077,-0.20226 2.38853,0.23705 3.12802,1.25482c1.03451,1.42487 0.71888,3.41789 -0.70471,4.45241s-3.41789,0.71888 -4.45241,-0.70471c-0.71888,-0.98814 -0.7717,-2.24553 -0.27055,-3.27231l-1.82425,-2.51092c-1.54597,0.88636 -3.28133,1.47512 -5.13779,1.67609l0,2.63331c1.70444,0.5952 2.92962,2.21332 2.92962,4.12002c0,2.41301 -1.95566,4.36867 -4.36867,4.36867s-4.36867,-1.95566 -4.36867,-4.36867c0,-1.90799 1.22518,-3.52482 2.92962,-4.12002l0,-2.6346c-1.85646,-0.20098 -3.59181,-0.78974 -5.13779,-1.67609l-1.82425,2.51092c0.50244,1.02678 0.44833,2.28289 -0.27055,3.27231c-1.03451,1.42487 -3.02882,1.74051 -4.45241,0.70471c-1.42487,-1.03451 -1.74051,-3.02882 -0.70471,-4.45241c0.73949,-1.01777 1.96725,-1.45708 3.12802,-1.25482l1.79977,-2.47742c-1.33856,-1.21617 -2.42718,-2.69515 -3.17955,-4.3648l-2.50963,0.8155c-0.03994,1.80493 -1.19942,3.46942 -3.01336,4.05947c-2.29448,0.74593 -4.75902,-0.51017 -5.50496,-2.80466c-0.74593,-2.29448 0.51017,-4.75902 2.80466,-5.50496c1.81394,-0.59005 3.73095,0.07472 4.82344,1.51248l2.50061,-0.81292c-0.18036,-0.87348 -0.27699,-1.77658 -0.27699,-2.70417c0,-0.9263 0.09662,-1.83069 0.27699,-2.70417l-3.03655,-0.98685c-0.82065,0.77814 -2.02136,1.10666 -3.17311,0.73305c-1.67481,-0.54367 -2.5908,-2.34215 -2.04713,-4.01696s2.34215,-2.5908 4.01696,-2.04713c1.20715,0.39165 2.00977,1.43904 2.16565,2.61785l2.97085,0.96495c0.75237,-1.66965 1.841,-3.14992 3.17955,-4.3648l-1.55499,-2.13989c-1.72891,0.52048 -3.6704,-0.06828 -4.79123,-1.61168c-1.41843,-1.95179 -0.98556,-4.68301 0.96623,-6.10145c1.95179,-1.41843 4.68301,-0.98556 6.10145,0.96623c1.12083,1.5434 1.08089,3.5712 0.05282,5.05534l1.55113,2.13473c1.54597,-0.88636 3.28133,-1.47512 5.13779,-1.67481l0,-3.20919c-1.03323,-0.52692 -1.74953,-1.58978 -1.74953,-2.83042c0,-1.76112 1.42745,-3.18857 3.18857,-3.18857s3.18857,1.42745 3.18857,3.18857c0,1.24064 -0.71501,2.3035 -1.74953,2.83042l0,3.21047c1.85646,0.20098 3.59181,0.78974 5.13779,1.67481l1.55113,-2.13473c-1.02936,-1.48285 -1.0693,-3.51194 0.05282,-5.05534c1.41843,-1.95179 4.14965,-2.38467 6.10145,-0.96623c1.95437,1.41714 2.38724,4.14965 0.96881,6.10145l0.00002,0.00001z" fill="#f0ae00" id="svg_16"/>
    <path d="m57.70487,35.42522c-2.08578,0.67765 -3.22851,2.91932 -2.54957,5.00509c0.67765,2.08578 2.91803,3.22851 5.00509,2.54957s3.22851,-2.91932 2.54957,-5.00509c-0.67765,-2.08578 -2.91932,-3.22722 -5.00509,-2.54957z" fill="#21b5e6" id="svg_18"/>
    <path d="m50.2829,39.4834c2.44908,-0.79618 3.79021,-3.42691 2.99404,-5.87728c-0.79618,-2.44908 -3.42691,-3.79021 -5.87728,-2.99404c-2.44908,0.79618 -3.79021,3.42691 -2.99404,5.87728c0.79618,2.44908 3.42691,3.79021 5.87728,2.99404z" fill="#21b5e6" id="svg_19"/>
    <path d="m49.80494,41.35274c-1.80364,0.58618 -2.79048,2.52251 -2.2043,4.32615c0.58618,1.80364 2.52251,2.79048 4.32615,2.2043c1.80364,-0.58618 2.79048,-2.52251 2.2043,-4.32615c-0.58618,-1.80364 -2.52251,-2.79048 -4.32615,-2.2043z" fill="#21b5e6" id="svg_20"/>
   </g>
  </g>
 </g>
</svg>