<?xml version="1.0" encoding="UTF-8"?>
<!DOCTYPE svg PUBLIC "-//W3C//DTD SVG 1.1//EN" "http://www.w3.org/Graphics/SVG/1.1/DTD/svg11.dtd">
<svg version="1.2" width="43.5mm" height="38.8mm" viewBox="0 0 4350 3880" preserveAspectRatio="xMidYMid" fill-rule="evenodd" stroke-width="28.222" stroke-linejoin="round" xmlns="http://www.w3.org/2000/svg" xmlns:ooo="http://xml.openoffice.org/svg/export" xmlns:xlink="http://www.w3.org/1999/xlink" xmlns:presentation="http://sun.com/xmlns/staroffice/presentation" xmlns:smil="http://www.w3.org/2001/SMIL20/" xmlns:anim="urn:oasis:names:tc:opendocument:xmlns:animation:1.0" xml:space="preserve">
 <defs class="ClipPathGroup">
  <clipPath id="presentation_clip_path" clipPathUnits="userSpaceOnUse">
   <rect x="0" y="0" width="4350" height="3880"/>
  </clipPath>
  <clipPath id="presentation_clip_path_shrink" clipPathUnits="userSpaceOnUse">
   <rect x="4" y="3" width="4342" height="3873"/>
  </clipPath>
 </defs>
 <defs class="TextShapeIndex">
  <g ooo:slide="id1" ooo:id-list="id3 id4 id5 id6 id7 id8"/>
 </defs>
 <defs class="EmbeddedBulletChars">
  <g id="bullet-char-template-57356" transform="scale(0.00048828125,-0.00048828125)">
   <path d="M 580,1141 L 1163,571 580,0 -4,571 580,1141 Z"/>
  </g>
  <g id="bullet-char-template-57354" transform="scale(0.00048828125,-0.00048828125)">
   <path d="M 8,1128 L 1137,1128 1137,0 8,0 8,1128 Z"/>
  </g>
  <g id="bullet-char-template-10146" transform="scale(0.00048828125,-0.00048828125)">
   <path d="M 174,0 L 602,739 174,1481 1456,739 174,0 Z M 1358,739 L 309,1346 659,739 1358,739 Z"/>
  </g>
  <g id="bullet-char-template-10132" transform="scale(0.00048828125,-0.00048828125)">
   <path d="M 2015,739 L 1276,0 717,0 1260,543 174,543 174,936 1260,936 717,1481 1274,1481 2015,739 Z"/>
  </g>
  <g id="bullet-char-template-10007" transform="scale(0.00048828125,-0.00048828125)">
   <path d="M 0,-2 C -7,14 -16,27 -25,37 L 356,567 C 262,823 215,952 215,954 215,979 228,992 255,992 264,992 276,990 289,987 310,991 331,999 354,1012 L 381,999 492,748 772,1049 836,1024 860,1049 C 881,1039 901,1025 922,1006 886,937 835,863 770,784 769,783 710,716 594,584 L 774,223 C 774,196 753,168 711,139 L 727,119 C 717,90 699,76 672,76 641,76 570,178 457,381 L 164,-76 C 142,-110 111,-127 72,-127 30,-127 9,-110 8,-76 1,-67 -2,-52 -2,-32 -2,-23 -1,-13 0,-2 Z"/>
  </g>
  <g id="bullet-char-template-10004" transform="scale(0.00048828125,-0.00048828125)">
   <path d="M 285,-33 C 182,-33 111,30 74,156 52,228 41,333 41,471 41,549 55,616 82,672 116,743 169,778 240,778 293,778 328,747 346,684 L 369,508 C 377,444 397,411 428,410 L 1163,1116 C 1174,1127 1196,1133 1229,1133 1271,1133 1292,1118 1292,1087 L 1292,965 C 1292,929 1282,901 1262,881 L 442,47 C 390,-6 338,-33 285,-33 Z"/>
  </g>
  <g id="bullet-char-template-9679" transform="scale(0.00048828125,-0.00048828125)">
   <path d="M 813,0 C 632,0 489,54 383,161 276,268 223,411 223,592 223,773 276,916 383,1023 489,1130 632,1184 813,1184 992,1184 1136,1130 1245,1023 1353,916 1407,772 1407,592 1407,412 1353,268 1245,161 1136,54 992,0 813,0 Z"/>
  </g>
  <g id="bullet-char-template-8226" transform="scale(0.00048828125,-0.00048828125)">
   <path d="M 346,457 C 273,457 209,483 155,535 101,586 74,649 74,723 74,796 101,859 155,911 209,963 273,989 346,989 419,989 480,963 531,910 582,859 608,796 608,723 608,648 583,586 532,535 482,483 420,457 346,457 Z"/>
  </g>
  <g id="bullet-char-template-8211" transform="scale(0.00048828125,-0.00048828125)">
   <path d="M -4,459 L 1135,459 1135,606 -4,606 -4,459 Z"/>
  </g>
  <g id="bullet-char-template-61548" transform="scale(0.00048828125,-0.00048828125)">
   <path d="M 173,740 C 173,903 231,1043 346,1159 462,1274 601,1332 765,1332 928,1332 1067,1274 1183,1159 1299,1043 1357,903 1357,740 1357,577 1299,437 1183,322 1067,206 928,148 765,148 601,148 462,206 346,322 231,437 173,577 173,740 Z"/>
  </g>
 </defs>
 <defs class="TextEmbeddedBitmaps"/>
 <g>
  <g id="id2" class="Master_Slide">
   <g id="bg-id2" class="Background"/>
   <g id="bo-id2" class="BackgroundObjects"/>
  </g>
 </g>
 <g class="SlideGroup">
  <g>
   <g id="container-id1">
    <g id="id1" class="Slide" clip-path="url(#presentation_clip_path)">
     <g class="Page">
      <g class="com.sun.star.drawing.ClosedBezierShape">
       <g id="id3">
        <rect class="BoundingBox" stroke="none" fill="none" x="5" y="5" width="4347" height="3877"/>
        <path fill="rgb(240,158,25)" stroke="none" d="M 2544,3668 L 4292,641 C 4456,358 4252,5 3924,5 L 430,5 C 103,5 -101,358 62,641 L 1809,3668 C 1973,3951 2381,3951 2544,3668 Z"/>
       </g>
      </g>
      <g class="com.sun.star.drawing.ClosedBezierShape">
       <g id="id4">
        <rect class="BoundingBox" stroke="none" fill="none" x="119" y="101" width="4118" height="3660"/>
        <path fill="rgb(240,174,0)" stroke="none" d="M 2484,3583 L 4188,630 C 4324,395 4154,101 3882,101 L 473,101 C 201,101 31,395 167,630 L 1871,3583 C 2007,3818 2348,3818 2484,3583 Z"/>
       </g>
      </g>
      <g class="com.sun.star.drawing.ClosedBezierShape">
       <g id="id5">
        <rect class="BoundingBox" stroke="none" fill="none" x="1795" y="1723" width="746" height="608"/>
        <path fill="rgb(240,125,0)" stroke="none" d="M 2355,2146 L 2414,2291 C 2379,2302 2342,2311 2305,2317 L 2221,2286 2186,2329 C 2178,2330 2169,2330 2160,2330 2122,2330 2084,2328 2047,2322 L 2033,2237 1795,2203 1979,2051 1889,1828 2115,1912 2263,1723 2303,1960 2540,1993 2355,2146 Z"/>
       </g>
      </g>
      <g class="com.sun.star.drawing.ClosedBezierShape">
       <g id="id6">
        <rect class="BoundingBox" stroke="none" fill="none" x="1131" y="302" width="1867" height="2013"/>
        <path fill="rgb(240,125,0)" stroke="none" d="M 2997,1493 C 2997,1632 2963,1762 2903,1878 2893,1897 2882,1916 2870,1936 2795,2057 2690,2156 2565,2225 2531,2245 2495,2261 2458,2275 L 2411,2161 2652,1963 2343,1918 2292,1611 2100,1856 1808,1748 1924,2038 1684,2236 1992,2280 1998,2314 C 1961,2307 1925,2297 1889,2285 1772,2274 1661,2238 1562,2183 1305,2041 1131,1766 1131,1451 L 1131,1447 C 1132,1207 1235,991 1398,839 1409,915 1429,983 1457,1040 1507,1143 1580,1208 1661,1208 1812,1208 1934,986 1934,711 1934,703 1934,695 1933,688 1933,663 1932,640 1929,616 1916,490 1876,380 1821,308 1850,304 1879,303 1910,303 2270,303 2577,530 2694,849 2695,849 2696,850 2696,851 L 2696,852 C 2729,942 2747,1039 2747,1139 L 2747,1145 C 2747,1172 2745,1199 2742,1226 2753,1238 2766,1246 2779,1248 2782,1248 2785,1249 2788,1249 2834,1249 2875,1180 2890,1083 2958,1204 2997,1344 2997,1493 Z"/>
       </g>
      </g>
      <g class="com.sun.star.drawing.PolyPolygonShape">
       <g id="id7">
        <rect class="BoundingBox" stroke="none" fill="none" x="1401" y="1327" width="1534" height="1546"/>
        <path fill="rgb(255,255,255)" stroke="none" d="M 2411,2160 L 2458,2274 2528,2449 2236,2340 2044,2586 1997,2313 1991,2279 1683,2235 1923,2037 1807,1748 2100,1856 2292,1611 2343,1918 2652,1962 2411,2160 Z M 2934,1882 L 2903,1878 2445,1813 2363,1327 2060,1716 1597,1543 1781,2001 1561,2182 1401,2315 1889,2383 1971,2871 2276,2481 2738,2654 2565,2224 2554,2196 2870,1935 2934,1882 Z"/>
       </g>
      </g>
      <g class="com.sun.star.drawing.PolyPolygonShape">
       <g id="id8">
        <rect class="BoundingBox" stroke="none" fill="none" x="1795" y="1723" width="746" height="754"/>
        <path fill="rgb(255,255,255)" stroke="none" d="M 2414,2290 L 2445,2370 2305,2317 2221,2285 2186,2329 2073,2475 2047,2322 2033,2237 1795,2203 1979,2051 1889,1828 2115,1912 2263,1723 2303,1960 2540,1993 2355,2146 2414,2290 Z"/>
       </g>
      </g>
     </g>
    </g>
   </g>
  </g>
 </g>
</svg>