<?xml version="1.0" encoding="UTF-8"?>
<!DOCTYPE svg PUBLIC "-//W3C//DTD SVG 1.1//EN" "http://www.w3.org/Graphics/SVG/1.1/DTD/svg11.dtd">
<svg version="1.2" width="43.5mm" height="38.8mm" viewBox="0 0 4350 3880" preserveAspectRatio="xMidYMid" fill-rule="evenodd" stroke-width="28.222" stroke-linejoin="round" xmlns="http://www.w3.org/2000/svg" xmlns:ooo="http://xml.openoffice.org/svg/export" xmlns:xlink="http://www.w3.org/1999/xlink" xmlns:presentation="http://sun.com/xmlns/staroffice/presentation" xmlns:smil="http://www.w3.org/2001/SMIL20/" xmlns:anim="urn:oasis:names:tc:opendocument:xmlns:animation:1.0" xml:space="preserve">
 <defs class="ClipPathGroup">
  <clipPath id="presentation_clip_path" clipPathUnits="userSpaceOnUse">
   <rect x="0" y="0" width="4350" height="3880"/>
  </clipPath>
  <clipPath id="presentation_clip_path_shrink" clipPathUnits="userSpaceOnUse">
   <rect x="4" y="3" width="4342" height="3873"/>
  </clipPath>
 </defs>
 <defs class="TextShapeIndex">
  <g ooo:slide="id1" ooo:id-list="id3 id4 id5 id6 id7 id8 id9 id10 id11 id12 id13 id14"/>
 </defs>
 <defs class="EmbeddedBulletChars">
  <g id="bullet-char-template-57356" transform="scale(0.00048828125,-0.00048828125)">
   <path d="M 580,1141 L 1163,571 580,0 -4,571 580,1141 Z"/>
  </g>
  <g id="bullet-char-template-57354" transform="scale(0.00048828125,-0.00048828125)">
   <path d="M 8,1128 L 1137,1128 1137,0 8,0 8,1128 Z"/>
  </g>
  <g id="bullet-char-template-10146" transform="scale(0.00048828125,-0.00048828125)">
   <path d="M 174,0 L 602,739 174,1481 1456,739 174,0 Z M 1358,739 L 309,1346 659,739 1358,739 Z"/>
  </g>
  <g id="bullet-char-template-10132" transform="scale(0.00048828125,-0.00048828125)">
   <path d="M 2015,739 L 1276,0 717,0 1260,543 174,543 174,936 1260,936 717,1481 1274,1481 2015,739 Z"/>
  </g>
  <g id="bullet-char-template-10007" transform="scale(0.00048828125,-0.00048828125)">
   <path d="M 0,-2 C -7,14 -16,27 -25,37 L 356,567 C 262,823 215,952 215,954 215,979 228,992 255,992 264,992 276,990 289,987 310,991 331,999 354,1012 L 381,999 492,748 772,1049 836,1024 860,1049 C 881,1039 901,1025 922,1006 886,937 835,863 770,784 769,783 710,716 594,584 L 774,223 C 774,196 753,168 711,139 L 727,119 C 717,90 699,76 672,76 641,76 570,178 457,381 L 164,-76 C 142,-110 111,-127 72,-127 30,-127 9,-110 8,-76 1,-67 -2,-52 -2,-32 -2,-23 -1,-13 0,-2 Z"/>
  </g>
  <g id="bullet-char-template-10004" transform="scale(0.00048828125,-0.00048828125)">
   <path d="M 285,-33 C 182,-33 111,30 74,156 52,228 41,333 41,471 41,549 55,616 82,672 116,743 169,778 240,778 293,778 328,747 346,684 L 369,508 C 377,444 397,411 428,410 L 1163,1116 C 1174,1127 1196,1133 1229,1133 1271,1133 1292,1118 1292,1087 L 1292,965 C 1292,929 1282,901 1262,881 L 442,47 C 390,-6 338,-33 285,-33 Z"/>
  </g>
  <g id="bullet-char-template-9679" transform="scale(0.00048828125,-0.00048828125)">
   <path d="M 813,0 C 632,0 489,54 383,161 276,268 223,411 223,592 223,773 276,916 383,1023 489,1130 632,1184 813,1184 992,1184 1136,1130 1245,1023 1353,916 1407,772 1407,592 1407,412 1353,268 1245,161 1136,54 992,0 813,0 Z"/>
  </g>
  <g id="bullet-char-template-8226" transform="scale(0.00048828125,-0.00048828125)">
   <path d="M 346,457 C 273,457 209,483 155,535 101,586 74,649 74,723 74,796 101,859 155,911 209,963 273,989 346,989 419,989 480,963 531,910 582,859 608,796 608,723 608,648 583,586 532,535 482,483 420,457 346,457 Z"/>
  </g>
  <g id="bullet-char-template-8211" transform="scale(0.00048828125,-0.00048828125)">
   <path d="M -4,459 L 1135,459 1135,606 -4,606 -4,459 Z"/>
  </g>
  <g id="bullet-char-template-61548" transform="scale(0.00048828125,-0.00048828125)">
   <path d="M 173,740 C 173,903 231,1043 346,1159 462,1274 601,1332 765,1332 928,1332 1067,1274 1183,1159 1299,1043 1357,903 1357,740 1357,577 1299,437 1183,322 1067,206 928,148 765,148 601,148 462,206 346,322 231,437 173,577 173,740 Z"/>
  </g>
 </defs>
 <defs class="TextEmbeddedBitmaps"/>
 <g>
  <g id="id2" class="Master_Slide">
   <g id="bg-id2" class="Background"/>
   <g id="bo-id2" class="BackgroundObjects"/>
  </g>
 </g>
 <g class="SlideGroup">
  <g>
   <g id="container-id1">
    <g id="id1" class="Slide" clip-path="url(#presentation_clip_path)">
     <g class="Page">
      <g class="com.sun.star.drawing.ClosedBezierShape">
       <g id="id3">
        <rect class="BoundingBox" stroke="none" fill="none" x="0" y="5" width="4346" height="3877"/>
        <path fill="rgb(240,158,25)" stroke="none" d="M 2540,3668 L 4287,641 C 4450,358 4246,5 3919,5 L 424,5 C 98,5 -106,358 57,641 L 1805,3668 C 1968,3951 2377,3951 2540,3668 Z"/>
       </g>
      </g>
      <g class="com.sun.star.drawing.ClosedBezierShape">
       <g id="id4">
        <rect class="BoundingBox" stroke="none" fill="none" x="115" y="101" width="4117" height="3660"/>
        <path fill="rgb(240,174,0)" stroke="none" d="M 2478,3583 L 4183,630 C 4319,395 4149,101 3876,101 L 468,101 C 197,101 27,395 163,630 L 1867,3583 C 2002,3818 2342,3818 2478,3583 Z"/>
       </g>
      </g>
      <g class="com.sun.star.drawing.ClosedBezierShape">
       <g id="id5">
        <rect class="BoundingBox" stroke="none" fill="none" x="1515" y="1544" width="58" height="30"/>
        <path fill="rgb(255,255,255)" stroke="none" d="M 1572,1544 C 1555,1556 1537,1566 1516,1573 1534,1562 1553,1553 1572,1544 Z"/>
       </g>
      </g>
      <g class="com.sun.star.drawing.ClosedBezierShape">
       <g id="id6">
        <rect class="BoundingBox" stroke="none" fill="none" x="1309" y="1630" width="952" height="660"/>
        <path fill="rgb(255,255,255)" stroke="none" d="M 2260,1971 C 2260,2023 2222,2068 2169,2076 2117,2083 2067,2050 2053,2000 2001,2151 1869,2289 1713,2289 1538,2289 1391,2114 1357,1941 L 1353,1965 C 1349,1994 1332,2017 1309,2031 1335,1804 1543,1630 1796,1630 2005,1630 2183,1749 2253,1918 L 2259,1956 C 2260,1961 2260,1966 2260,1971 Z"/>
       </g>
      </g>
      <g class="com.sun.star.drawing.ClosedBezierShape">
       <g id="id7">
        <rect class="BoundingBox" stroke="none" fill="none" x="1173" y="1490" width="1088" height="800"/>
        <path fill="rgb(236,103,7)" stroke="none" d="M 2260,1971 C 2260,2023 2222,2068 2169,2076 2117,2083 2067,2050 2053,2000 2001,2151 1869,2289 1714,2289 1539,2289 1391,2114 1357,1941 L 1353,1965 C 1349,1994 1332,2017 1309,2031 1292,2041 1272,2045 1251,2042 1202,2035 1167,1989 1174,1939 L 1225,1586 C 1228,1563 1239,1544 1256,1530 1297,1563 1348,1584 1403,1588 1410,1588 1417,1588 1424,1588 1457,1588 1488,1583 1517,1572 1533,1561 1551,1553 1570,1545 1571,1545 1572,1545 1572,1544 1579,1541 1586,1539 1593,1537 1619,1582 1667,1613 1723,1613 1776,1613 1823,1584 1850,1542 1851,1541 1852,1540 1852,1539 1864,1540 1876,1541 1887,1541 1948,1541 2005,1525 2055,1498 L 2056,1498 C 2067,1497 2078,1495 2086,1494 2144,1486 2145,1480 2205,1584 L 2253,1918 2259,1956 C 2260,1961 2260,1966 2260,1971 Z"/>
       </g>
      </g>
      <g class="com.sun.star.drawing.ClosedBezierShape">
       <g id="id8">
        <rect class="BoundingBox" stroke="none" fill="none" x="1154" y="825" width="2024" height="1731"/>
        <path fill="rgb(255,255,255)" stroke="none" d="M 3177,1684 C 3177,1477 3023,1311 2832,1311 2767,1311 2706,1331 2654,1364 2694,1313 2718,1248 2718,1178 2718,1009 2580,872 2411,872 2318,872 2235,913 2179,979 2114,886 2008,826 1886,826 1726,826 1590,932 1545,1078 1509,1059 1467,1049 1424,1049 1275,1049 1154,1170 1154,1319 1154,1404 1194,1481 1256,1531 1297,1564 1348,1585 1403,1589 1410,1589 1417,1589 1424,1589 1456,1589 1487,1584 1516,1573 1532,1562 1550,1554 1569,1546 1570,1546 1571,1546 1571,1545 1577,1541 1583,1537 1589,1533 1590,1534 1590,1536 1592,1537 1618,1583 1666,1614 1722,1614 1775,1614 1822,1585 1849,1543 1850,1542 1851,1541 1851,1540 1853,1540 1855,1540 1857,1540 1885,1572 1928,1593 1977,1593 2046,1593 2103,1552 2121,1496 2164,1505 2252,1918 2252,1918 L 2258,1956 C 2259,1961 2259,1966 2259,1971 2259,2022 2221,2068 2168,2076 2116,2083 2066,2050 2052,2000 2000,2151 1868,2289 1713,2289 1538,2289 1391,2114 1357,1941 L 1353,1965 C 1349,1994 1332,2017 1309,2031 1307,2046 1306,2062 1306,2077 1306,2324 1525,2524 1795,2524 1944,2524 2077,2463 2166,2368 2213,2478 2323,2555 2450,2555 2566,2555 2667,2491 2720,2396 2919,2387 3078,2223 3078,2022 3078,1998 3075,1975 3071,1952 3137,1884 3177,1789 3177,1684 Z"/>
       </g>
      </g>
      <g class="com.sun.star.drawing.ClosedBezierShape">
       <g id="id9">
        <rect class="BoundingBox" stroke="none" fill="none" x="1548" y="1989" width="274" height="227"/>
        <path fill="rgb(255,255,255)" stroke="none" d="M 1738,2188 L 1806,2099 C 1841,2054 1809,1989 1752,1989 L 1617,1989 C 1560,1989 1528,2053 1562,2098 L 1629,2188 C 1656,2224 1710,2224 1738,2188 Z"/>
       </g>
      </g>
      <g class="com.sun.star.drawing.ClosedBezierShape">
       <g id="id10">
        <rect class="BoundingBox" stroke="none" fill="none" x="2301" y="1261" width="512" height="1396"/>
        <path fill="rgb(236,103,7)" stroke="none" d="M 2334,2654 C 2359,2661 2385,2647 2393,2623 L 2811,1289 2721,1261 2303,2594 C 2295,2619 2309,2646 2334,2654 Z"/>
       </g>
      </g>
      <g class="com.sun.star.drawing.PolyPolygonShape">
       <g id="id11">
        <rect class="BoundingBox" stroke="none" fill="none" x="2692" y="204" width="675" height="1508"/>
        <path fill="rgb(201,12,15)" stroke="none" d="M 3366,1711 L 3034,1418 2693,1711 2693,205 3366,205 3366,1711 Z"/>
       </g>
      </g>
      <g class="com.sun.star.drawing.ClosedBezierShape">
       <g id="id12">
        <rect class="BoundingBox" stroke="none" fill="none" x="2804" y="426" width="456" height="710"/>
        <path fill="rgb(240,174,0)" stroke="none" d="M 3217,599 L 3083,599 3083,478 C 3083,449 3060,426 3032,426 3003,426 2980,449 2980,478 L 2980,599 2846,599 C 2823,599 2804,617 2804,640 L 2804,660 C 2804,683 2823,702 2846,702 L 2980,702 2980,1084 C 2980,1112 3003,1135 3032,1135 3060,1135 3083,1112 3083,1084 L 3083,702 3217,702 C 3239,702 3258,683 3258,660 L 3258,640 C 3258,617 3239,599 3217,599 Z"/>
       </g>
      </g>
      <g class="com.sun.star.drawing.ClosedBezierShape">
       <g id="id13">
        <rect class="BoundingBox" stroke="none" fill="none" x="1779" y="2367" width="443" height="234"/>
        <path fill="rgb(236,103,7)" stroke="none" d="M 2135,2565 L 1891,2598 C 1837,2605 1787,2597 1780,2543 1772,2490 1814,2417 1927,2398 L 2109,2369 C 2163,2362 2213,2400 2220,2454 2227,2508 2189,2558 2135,2565 Z"/>
       </g>
      </g>
      <g class="com.sun.star.drawing.ClosedBezierShape">
       <g id="id14">
        <rect class="BoundingBox" stroke="none" fill="none" x="1353" y="2264" width="358" height="305"/>
        <path fill="rgb(236,103,7)" stroke="none" d="M 1414,2475 L 1578,2551 C 1628,2573 1677,2580 1700,2531 1724,2482 1704,2401 1603,2349 L 1437,2268 C 1408,2257 1354,2268 1353,2334 1351,2405 1365,2453 1414,2475 Z"/>
       </g>
      </g>
     </g>
    </g>
   </g>
  </g>
 </g>
</svg>